<?xml version="1.0"?>
<svg xmlns:rdf="http://www.w3.org/1999/02/22-rdf-syntax-ns#" xmlns="http://www.w3.org/2000/svg" xmlns:cc="http://creativecommons.org/ns#" xmlns:xlink="http://www.w3.org/1999/xlink" xmlns:dc="http://purl.org/dc/elements/1.1/" id="svg2" viewBox="0 0 128 128" version="1.0">
  <defs id="defs4">
    <linearGradient id="linearGradient3494">
      <stop id="stop3496" stop-color="#cf8d00" offset="0"/>
      <stop id="stop3498" stop-color="#cea33e" offset="1"/>
    </linearGradient>
    <linearGradient id="linearGradient3332">
      <stop id="stop3334" stop-color="#bb8f56" offset="0"/>
      <stop id="stop3336" stop-color="#d1af63" offset="1"/>
    </linearGradient>
    <linearGradient id="linearGradient2320">
      <stop id="stop2322" stop-color="#6a3c1d" offset="0"/>
      <stop id="stop2324" stop-color="#8f5127" offset="1"/>
    </linearGradient>
    <linearGradient id="linearGradient3405">
      <stop id="stop3407" stop-color="#4f3e2a" offset="0"/>
      <stop id="stop3409" stop-color="#72593c" offset="1"/>
    </linearGradient>
    <linearGradient id="linearGradient2531" x1="26.465" xlink:href="#linearGradient2320" gradientUnits="userSpaceOnUse" x2="27.286" y1="97.341" y2="100.11"/>
    <linearGradient id="linearGradient2535" x1="25.73" xlink:href="#linearGradient2320" gradientUnits="userSpaceOnUse" x2="25.686" y1="95.654" y2="94.746"/>
    <linearGradient id="linearGradient2539" x1="26.076" xlink:href="#linearGradient2320" gradientUnits="userSpaceOnUse" x2="30.249" y1="93.016" y2="88.692"/>
    <linearGradient id="linearGradient2545" x1="26.119" xlink:href="#linearGradient2320" gradientUnits="userSpaceOnUse" x2="26.508" y1="83.589" y2="88.865"/>
    <linearGradient id="linearGradient2549" x1="23.568" xlink:href="#linearGradient2320" gradientUnits="userSpaceOnUse" x2="24.086" y1="85.578" y2="82.378"/>
    <linearGradient id="linearGradient3134" x1="24.735" xlink:href="#linearGradient2320" gradientUnits="userSpaceOnUse" x2="19.546" y1="87.741" y2="93.016"/>
    <linearGradient id="linearGradient3138" x1="39.995" xlink:href="#linearGradient2320" gradientUnits="userSpaceOnUse" x2="35.715" y1="89.228" y2="93.508"/>
    <linearGradient id="linearGradient3364">
      <stop id="stop3366" stop-color="#9e0000" offset="0"/>
      <stop id="stop3368" stop-color="#e00000" offset="1"/>
    </linearGradient>
    <linearGradient id="linearGradient3354" x1="59.849" xlink:href="#linearGradient3364" gradientUnits="userSpaceOnUse" x2="59.762" y1="96.303" y2="97.254"/>
    <linearGradient id="linearGradient3362" x1="47.697" xlink:href="#linearGradient2320" gradientUnits="userSpaceOnUse" x2="52.195" y1="57.773" y2="53.708"/>
    <linearGradient id="linearGradient3366" x1="42.984" xlink:href="#linearGradient2320" gradientUnits="userSpaceOnUse" x2="43.373" y1="62.27" y2="60.108"/>
    <linearGradient id="linearGradient3371" x1="40.259" xlink:href="#linearGradient2320" gradientUnits="userSpaceOnUse" x2="40.562" y1="60.497" y2="62.054"/>
    <linearGradient id="linearGradient3375" x1="45.232" xlink:href="#linearGradient2320" gradientUnits="userSpaceOnUse" x2="46.184" y1="48.735" y2="48.735"/>
    <linearGradient id="linearGradient3379" x1="46.832" xlink:href="#linearGradient2320" gradientUnits="userSpaceOnUse" x2="47.157" y1="50.854" y2="50.854"/>
    <linearGradient id="linearGradient3383" x1="64.216" xlink:href="#linearGradient2320" gradientUnits="userSpaceOnUse" x2="64.519" y1="74.941" y2="74.465"/>
    <linearGradient id="linearGradient3387" x1="57.946" xlink:href="#linearGradient2320" gradientUnits="userSpaceOnUse" x2="57.47" y1="71.87" y2="72.649"/>
    <linearGradient id="linearGradient3391" x1="78.876" xlink:href="#linearGradient2320" gradientUnits="userSpaceOnUse" x2="80.346" y1="74.897" y2="74.768"/>
    <linearGradient id="linearGradient3397" x1="80.778" xlink:href="#linearGradient2320" gradientUnits="userSpaceOnUse" x2="81.427" y1="75.892" y2="75.892"/>
    <linearGradient id="linearGradient3401" x1="74.984" xlink:href="#linearGradient2320" gradientUnits="userSpaceOnUse" x2="75.849" y1="83.243" y2="85.146"/>
    <linearGradient id="linearGradient3406" x1="81.427" xlink:href="#linearGradient2320" gradientUnits="userSpaceOnUse" x2="81.989" y1="88.043" y2="86.573"/>
    <linearGradient id="linearGradient3412" x1="104.13" xlink:href="#linearGradient2320" gradientUnits="userSpaceOnUse" x2="103.65" y1="63.611" y2="64.432"/>
    <linearGradient id="linearGradient3416" x1="113.21" xlink:href="#linearGradient2320" gradientUnits="userSpaceOnUse" x2="113.6" y1="68.973" y2="68.411"/>
    <linearGradient id="linearGradient3420" x1="117.41" xlink:href="#linearGradient2320" gradientUnits="userSpaceOnUse" x2="117.92" y1="72.865" y2="71.784"/>
    <linearGradient id="linearGradient3425" x1="111.31" xlink:href="#linearGradient2320" gradientUnits="userSpaceOnUse" x2="112.22" y1="71.87" y2="71.914"/>
    <linearGradient id="linearGradient3429" x1="113.12" xlink:href="#linearGradient2320" gradientUnits="userSpaceOnUse" x2="113.82" y1="83.805" y2="83.805"/>
    <linearGradient id="linearGradient3433" x1="93.708" xlink:href="#linearGradient2320" gradientUnits="userSpaceOnUse" x2="93.492" y1="75.632" y2="74.984"/>
    <linearGradient id="linearGradient3437" x1="95.351" xlink:href="#linearGradient2320" gradientUnits="userSpaceOnUse" x2="95.87" y1="75.546" y2="76.714"/>
    <linearGradient id="linearGradient3441" x1="60.108" xlink:href="#linearGradient2320" gradientUnits="userSpaceOnUse" x2="59.395" y1="55.222" y2="56.216"/>
    <linearGradient id="linearGradient3445" x1="76.411" xlink:href="#linearGradient2320" gradientUnits="userSpaceOnUse" x2="90.205" y1="64.173" y2="44.8"/>
    <linearGradient id="linearGradient3449" x1="93.103" xlink:href="#linearGradient2320" gradientUnits="userSpaceOnUse" x2="93.319" y1="60.108" y2="60.757"/>
    <linearGradient id="linearGradient3456" x1="57.124" xlink:href="#linearGradient2320" gradientUnits="userSpaceOnUse" x2="65.816" y1="29.708" y2="47.524"/>
    <linearGradient id="linearGradient3460" x1="59.373" xlink:href="#linearGradient3332" gradientUnits="userSpaceOnUse" x2="62.832" y1="34.508" y2="40.778"/>
    <linearGradient id="linearGradient3464" x1="60.454" xlink:href="#linearGradient3405" gradientUnits="userSpaceOnUse" x2="62.227" y1="36.151" y2="39.697"/>
    <linearGradient id="linearGradient3470" x1="72.692" xlink:href="#linearGradient2320" gradientUnits="userSpaceOnUse" x2="85.535" y1="51.027" y2="37.492"/>
    <linearGradient id="linearGradient3474" x1="83.243" xlink:href="#linearGradient3332" gradientUnits="userSpaceOnUse" x2="79.568" y1="40.605" y2="50.119"/>
    <linearGradient id="linearGradient3478" x1="92.281" xlink:href="#linearGradient2320" gradientUnits="userSpaceOnUse" x2="97.47" y1="34.941" y2="48.735"/>
    <linearGradient id="linearGradient3482" x1="100.37" xlink:href="#linearGradient2320" gradientUnits="userSpaceOnUse" x2="106.03" y1="50.032" y2="41.557"/>
    <linearGradient id="linearGradient3486" x1="102.83" xlink:href="#linearGradient3332" gradientUnits="userSpaceOnUse" x2="106.51" y1="41.686" y2="36.497"/>
    <linearGradient id="linearGradient3490" x1="103.52" xlink:href="#linearGradient3405" gradientUnits="userSpaceOnUse" x2="105.9" y1="41.514" y2="37.924"/>
    <linearGradient id="linearGradient3500" x1="65.73" xlink:href="#linearGradient3494" gradientUnits="userSpaceOnUse" x2="65.557" y1="26.465" y2="33.557"/>
    <linearGradient id="linearGradient3504" x1="80.212" xlink:href="#linearGradient3405" gradientUnits="userSpaceOnUse" x2="84.057" y1="49.732" y2="41.379"/>
    <linearGradient id="linearGradient3508" x1="70.401" xlink:href="#linearGradient3494" gradientUnits="userSpaceOnUse" x2="77.03" y1="19.945" y2="15.703"/>
    <linearGradient id="linearGradient3512" x1="75.351" xlink:href="#linearGradient3494" gradientUnits="userSpaceOnUse" x2="87.283" y1="35.236" y2="17.249"/>
    <linearGradient id="linearGradient3516" x1="93.78" xlink:href="#linearGradient3494" gradientUnits="userSpaceOnUse" x2="98.553" y1="23.437" y2="34.132"/>
    <linearGradient id="linearGradient3520" x1="103.86" xlink:href="#linearGradient3494" gradientUnits="userSpaceOnUse" x2="100.85" y1="29.58" y2="24.895"/>
    <linearGradient id="linearGradient3524" x1="101.07" xlink:href="#linearGradient3494" gradientUnits="userSpaceOnUse" x2="105.71" y1="35.015" y2="30.905"/>
    <linearGradient id="linearGradient3528" x1="92.406" xlink:href="#linearGradient3494" gradientUnits="userSpaceOnUse" x2="85.875" y1="60.5" y2="51.5"/>
    <linearGradient id="linearGradient3532" x1="61.688" xlink:href="#linearGradient3494" gradientUnits="userSpaceOnUse" x2="65.219" y1="61.5" y2="55.344"/>
    <linearGradient id="linearGradient3536" x1="59.849" xlink:href="#linearGradient3364" gradientUnits="userSpaceOnUse" y1="96.303" gradientTransform="translate(55.531 -1.4375)" x2="59.762" y2="97.254"/>
  </defs>
  <g id="layer2" fill-rule="evenodd">
    <path id="path2529" fill="url(#linearGradient2531)" d="m8.5622 88.303l1.5568 5.405 1.557 2.422 2.292 1.643 3.632 1.254 2.378 0.389 1.86 0.389 2.811 0.305 5.189-0.261 3.805-0.13 3.892-0.13 2.897-0.259 4.152-1.125 3.113-1.081 3.027-3.027 3.287-5.319-0.779 0.346-1.946 1.427-1.945 1.211-3.2 1.168-5.795 1.556-3.416 0.519s-5.708 0.952-5.881 0.909c-0.173-0.044-4.411 0.086-4.411 0.086l-5.579-0.562s-3.632-1.038-4.064-1.168c-0.433-0.129-4.065-1.946-4.065-1.946l-3.0273-2.421-1.3405-1.6z"/>
    <path id="path2533" fill="url(#linearGradient2535)" d="m8.7351 87.697l1.7729 1.773 3.676 2.811 4.108 1.427 6.357 1.081 5.708-0.043 5.665-0.519 4.497-0.692 4.886-1.124 4.627-2.033 3.071-1.383-0.735 0.648-1.514 1.168-2.465 1.297-4.367 1.47-6.746 1.514-5.665 0.735-4.281 0.259-5.968-0.562-5.059-1.34-2.898-1.6-1.816-1.211-1.9025-1.687-0.9081-0.951-0.0433-1.038z"/>
    <path id="path2537" fill="url(#linearGradient2539)" d="m11.589 90.076l3.719-0.952 5.276-0.994 7.308-0.173 7.913 0.475 8.606 1.384 4.497 1.081-1.859 0.779-5.535 1.686-8.433 1.211-4.584 0.303-6.183-0.433-5.103-1.081-5.406-2.638-0.216-0.648z"/>
    <path id="path2543" fill="url(#linearGradient2545)" d="m11.589 90.162l2.941-0.994 6.097-0.909 4.714-0.259 10.508 0.562 8.951 1.427 4.151 0.908 4.584-2.075-3.07-2.379-6.573-2.248-3.027-0.606s-5.708-0.475-6.314-0.475c-0.605 0-7.135-0.433-7.567-0.303-0.433 0.13-7.568 0.432-7.568 0.432l-2.854 0.433-2.94 0.821-1.946 0.779-2.076 1.254-0.6919 0.865 0.5189 0.994 1.6 1.643 0.562 0.13z"/>
    <path id="path2547" fill="url(#linearGradient2549)" d="m8.5622 86.832l1.3837-1.167 2.6811-1.687 5.535-1.729 5.665-0.606 6.53 0.13 6.357 0.389 7.048 0.865 4.67 1.47 3.936 2.033 1.556 1.816-0.519 0.13-4.756-2.854-6.444-1.773-7.481-0.865-8.086-0.173-4.8 0.173-3.589 0.389-4.152 0.951-2.508 0.952-2.4647 1.773-0.5621-0.217z"/>
    <path id="path2551" fill-opacity=".15686" d="m8.5622 88.303l1.5568 5.405 1.557 2.422 2.292 1.643 3.632 1.254 2.378 0.389 1.86 0.389 2.811 0.305 5.189-0.261 3.805-0.13 3.892-0.13 2.897-0.259 4.152-1.125 3.113-1.081 3.027-3.027 3.287-5.319-0.779 0.346-1.946 1.427-1.945 1.211-3.2 1.168-5.795 1.556-3.416 0.519s-5.708 0.952-5.881 0.909c-0.173-0.044-4.411 0.086-4.411 0.086l-5.579-0.562s-3.632-1.038-4.064-1.168c-0.433-0.129-4.065-1.946-4.065-1.946l-3.0273-2.421-1.3405-1.6z"/>
    <path id="path2553" fill-opacity=".15686" d="m11.589 90.162l2.941-0.994 6.097-0.909 4.714-0.259 10.508 0.562 8.951 1.427 4.151 0.908 4.584-2.075-3.07-2.379-6.573-2.248-3.027-0.606s-5.708-0.475-6.314-0.475c-0.605 0-7.135-0.433-7.567-0.303-0.433 0.13-7.568 0.432-7.568 0.432l-2.854 0.433-2.94 0.821-1.946 0.779-2.076 1.254-0.6919 0.865 0.5189 0.994 1.6 1.643 0.562 0.13z"/>
    <path id="path3132" fill="url(#linearGradient3134)" d="m18.854 93.492l2.984-7.481 3.805 0.086-2.94 8.26-3.46-0.519-0.389-0.346z"/>
    <path id="path3136" fill="url(#linearGradient3138)" d="m33.47 94.357l3.503-8.26 4.8 0.562-2.595 7.049-5.708 0.649z"/>
    <path id="path3352" d="m59.33 96.951l0.562-0.216v-1.146l0.324-0.519 0.238 0.173 0.022 0.389-0.26 1.017 0.476 0.713-0.562 0.173-0.541-0.13-0.259-0.454z" fill="url(#linearGradient3354)"/>
    <path id="path3360" fill="url(#linearGradient3362)" d="m55.784 52.627l-15.914 6.703 1.86 0.735 15.74-6.487-1.686-0.951z"/>
    <path id="path3364" fill="url(#linearGradient3366)" d="m41.6 63.005l0.043-3.027 15.741-6.227 1.384 0.476v0.735s1.254 0.346 0.821 0.649c-0.432 0.303-17.903 7.481-17.989 7.394z"/>
    <path id="path3368" fill="url(#linearGradient3371)" d="m39.524 59.416c0.562 0.13 2.119 0.476 2.119 0.476v3.286l-0.389 0.13-1.773-1.297 0.043-2.595z"/>
    <path id="path3373" fill="url(#linearGradient3375)" d="m44.714 44.973l0.086 31.481 0.822 0.951 1.34 0.433 0.043-11.2-0.648-4.497 0.086-16.346-1.729-0.822z"/>
    <path id="path3377" fill="url(#linearGradient3379)" d="m47.092 77.449l-0.087-10.854-0.605-4.627 0.13-15.784 1.384 0.865-0.087 16.129 0.087 13.795-0.217 0.562-0.605 0.303v-0.389z"/>
    <path id="path3389" fill="url(#linearGradient3391)" d="m78.357 66.638l0.086 30.53 0.562 0.778 1.298 0.562 0.129-0.216-0.259-10.033 0.562-8.086 0.043-14.227-2.421 0.692z"/>
    <path id="path3395" fill="url(#linearGradient3397)" d="m80.822 65.989l-0.087 13.925-0.605 8.691 0.346 10.033 0.821-0.216 0.476-0.346-0.043-13.449v-5.751l-0.044-13.362-0.864 0.475z"/>
    <path id="path3381" fill="url(#linearGradient3383)" d="m45.146 61.578l23.438 15.006 7.662 4.98 2.948 2.35 3.011 2.097-1.34 0.389-28.324-18.854-8.303-5.449 0.908-0.519z"/>
    <path id="path3385" fill="url(#linearGradient3387)" d="m44.411 62.141l-2.508 0.994 14.616 9.514 24.216 15.956v-2.335l-20.54-13.578-11.546-7.827-4.238-2.724z"/>
    <path id="path3399" fill="url(#linearGradient3401)" d="m74.378 82.768l1.946 0.216-0.173 2.638-1.686-0.39-0.087-2.464z"/>
    <path id="path3404" fill="url(#linearGradient3406)" d="m80.692 86.443l1.6-0.432v2.075l-1.514 0.649-0.086-2.292z"/>
    <path id="path3409" fill="url(#linearGradient3412)" d="m98.508 59.373l12.152 8.173 3.76 2.508 2.47 1.168v2.594l-8.52-5.405-11.894-8.346 2.032-0.692z"/>
    <path id="path3414" fill="url(#linearGradient3416)" d="m98.508 59.286l12.542 8.519 3.07 2.033 2.81 1.6 1.38-0.476-6.87-4.129-11.808-7.936-1.124 0.389z"/>
    <path id="path3418" fill="url(#linearGradient3420)" d="m116.89 71.438l-0.05 2.508 1.52-1.081 0.13-1.816-1.6 0.389z"/>
    <path id="path3423" fill="url(#linearGradient3425)" d="m110.83 54.746l0.05 31.481 0.86 0.432 0.95 0.044 0.09-20.108-0.17-12.584-1.78 0.735z"/>
    <path id="path3427" fill="url(#linearGradient3429)" d="m112.74 54.054l-0.05 32.649 0.87-0.173 0.65-0.649-0.44-19.762-0.13-12.368-0.9 0.303z"/>
    <path id="path3431" fill="url(#linearGradient3433)" d="m74.811 82.595l1.384 0.432 21.146-8.778 21.359-8.865-1.51-0.346-15.09 6.313-17.732 7.179-9.557 4.065z"/>
    <path id="path3435" fill="url(#linearGradient3437)" d="m76.108 82.897l22.573-9.211 19.979-8.345 0.17 0.345 0.05 1.773-18.25 7.827-24.522 10.336v-2.725z"/>
    <path id="path3439" fill="url(#linearGradient3441)" d="m42.508 43.114l2.984 0.951 4.238 2.94 0.692 1.6 4.021 1.687 4.368 2.854 0.216 0.519 3.935 3.503 0.779-0.044 4.324 2.941v1.34l4.713 1.99-0.043 0.994 3.849 1.946-0.216 1.124-3.849-1.729-0.13-1.038-4.8-2.033 0.13-1.383-4.108-2.941-0.908 0.087-3.849-3.503v-0.476l-4.713-2.984-4.238-1.989 0.043-0.821-4.497-3.287-3.157-1.557-0.087-0.648 0.303-0.043z"/>
    <path id="path3443" fill="url(#linearGradient3445)" d="m53.492 37.665l-11.157 4.065 0.173 1.254 3.2 1.081 4.411 3.157 0.173 1.297 4.022 1.73 4.713 3.027 0.13 0.519 3.675 3.329 1.125 0.13 3.978 2.897-0.043 1.254 4.973 2.076-0.087 0.951 3.719 1.687s43.203-15.438 42.763-15.697c-0.43-0.26-3.54-2.336-3.54-2.336l0.69-0.562-5.06-2.638 0.52-0.605-2.25-0.778-0.08 4.065-10.556 4.627-8.346-5.795-6.616 2.249-0.044 0.389-4.67 1.903-0.173-0.433-8.346 2.897-17.427-12.41 0.13-3.33z"/>
    <path id="path3447" fill="url(#linearGradient3449)" d="m76.627 66.249l-0.216 1.297 42.639-15.784-0.22-1.513-15.09 5.708-18.162 6.789-8.951 3.503z"/>
    <path id="path3453" fill="url(#linearGradient3456)" d="m53.492 25.6l-0.087 15.265 17.254 12.497 0.736-15.74-17.903-12.022z"/>
    <path id="path3458" fill="url(#linearGradient3460)" d="m57.73 32.303l0.086 6.4 6.487 4.756 0.173-6.789-6.746-4.367z"/>
    <path id="path3462" fill="url(#linearGradient3464)" d="m59.2 34.681l-0.043 3.33 3.935 2.767 0.043-3.546-3.935-2.551z"/>
    <path id="path3468" fill="url(#linearGradient3470)" d="m71.265 38.011l19.632-7.179-0.086 15.611-5.146 1.86-0.346-10.768-7.568 2.422v10.897l-6.962 2.595 0.476-15.438z"/>
    <path id="path3472" fill="url(#linearGradient3474)" d="m77.622 50.811l-0.044-10.768 7.827-2.638 0.044 10.811-1.384 0.389-0.043 0.649-4.757 1.687-0.13-0.519-1.513 0.389z"/>
    <path id="path3476" fill="url(#linearGradient3478)" d="m90.897 31.135l-0.043 15.265 8 5.795 0.26-15.827-8.217-5.233z"/>
    <path id="path3480" fill="url(#linearGradient3482)" d="m98.984 52.281l-0.13-15.654 10.806-4.886-0.12 15.913-10.556 4.627z"/>
    <path id="path3484" fill="url(#linearGradient3486)" d="m101.49 37.622v6.659l6.53-2.811 0.17-6.616-6.7 2.768z"/>
    <path id="path3488" fill="url(#linearGradient3490)" d="m102.66 42.335l0.13-3.849s3.76-1.729 3.76-1.556 0.09 3.848 0.09 3.848l-3.98 1.557z"/>
    <path id="path3492" fill="url(#linearGradient3500)" d="m52.843 24.951l13.06-2.378 5.665 15.092-18.725-12.714z"/>
    <path id="path3502" fill="url(#linearGradient3504)" d="m79.108 50.483l-0.045-9.413 4.994-1.724-0.044 9.9-4.729 1.591-0.176-0.354z"/>
    <path id="path3506" fill="url(#linearGradient3508)" d="m52.812 24.674l13.126-2.254 21.92-7.822-4.243-1.68-30.803 11.756z"/>
    <path id="path3510" fill="url(#linearGradient3512)" d="m65.938 22.553l22.097-8.044 12.905 10.74-8.221-4.022-1.856 9.502-19.313 7.115-5.612-15.291z"/>
    <path id="path3514" fill="url(#linearGradient3516)" d="m92.675 21.315l-1.812 9.414 8.132 5.612 4.595-6.143-10.915-8.883z"/>
    <path id="path3518" fill="url(#linearGradient3520)" d="m92.985 21.448l8.265 4.066s8.93 6.054 8.75 6.054-6.36-1.326-6.36-1.326l-10.655-8.794z"/>
    <path id="path3522" fill="url(#linearGradient3524)" d="m98.951 36.12l4.819-5.922 6.32 1.503-10.874 4.95-0.265-0.531z"/>
    <path id="path3526" fill="url(#linearGradient3528)" d="m78.798 61.797l1.061-1.9-0.354-0.796 0.752 0.31 0.618-1.282 2.343-2.917 2.188-1.806 2.032-1.218 3.343-1.563 3.438-0.906 1.969-0.25 2.968-0.219 2.034-0.062-0.03 0.343-3.222 0.031-2.907 0.376-3.031 0.718-2.5 1.032-2.75 1.812-2.156 1.75-2.469 2.562-1.437 1.782 0.562 0.031-0.469 0.656 0.063 2.031-0.406 0.063h-0.376l0.157-1.781-0.375 0.75-0.469 0.687-0.577-0.234z"/>
    <path id="path3530" fill="url(#linearGradient3532)" d="m53.406 50.438h2.563l2.343 0.156 4.157 0.75 1.875 0.75 2.781 1.25 3.656 2.375 2.875 3.5 0.844 1.5 0.75-0.188-0.438 0.688 1 1.875-0.656 0.031-0.656-1.375 0.219 1.812-0.75 0.032 0.062-1.782-0.5-0.906 0.219-0.094-2.625-3.374-3.687-3.157-3.25-1.843-2.938-0.969-2.906-0.531-2.188-0.094-1.5-0.063-0.625-0.031-0.625-0.094-0.187-0.156 0.187-0.062z"/>
    <path id="path3534" d="m114.86 95.514l0.56-0.216v-1.146l0.33-0.519 0.24 0.173 0.02 0.389-0.26 1.016 0.47 0.714-0.56 0.173-0.54-0.13-0.26-0.454z" fill="url(#linearGradient3536)"/>
    <path id="path3538" fill-opacity=".15686" d="m39.524 59.416c0.562 0.13 2.119 0.476 2.119 0.476v3.286l-0.389 0.13-1.773-1.297 0.043-2.595z"/>
    <path id="path3540" fill-opacity=".15686" d="m44.714 44.973l0.086 31.481 0.822 0.951 1.34 0.433 0.043-11.2-0.648-4.497 0.086-16.346-1.729-0.822z"/>
    <path id="path3542" fill-opacity=".15686" d="m78.357 66.638l0.086 30.53 0.562 0.778 1.298 0.562 0.129-0.216-0.259-10.033 0.562-8.086 0.043-14.227-2.421 0.692z"/>
    <path id="path3544" fill-opacity=".15686" d="m44.411 62.141l-2.508 0.994 14.616 9.514 24.216 15.956v-2.335l-20.54-13.578-11.546-7.827-4.238-2.724z"/>
    <path id="path3546" fill-opacity=".15686" d="m74.378 82.768l1.946 0.216-0.173 2.638-1.686-0.39-0.087-2.464z"/>
    <path id="path3548" fill-opacity=".15686" d="m98.508 59.373l12.152 8.173 3.76 2.508 2.47 1.168v2.594l-8.52-5.405-11.894-8.346 2.032-0.692z"/>
    <path id="path3550" fill-opacity=".15686" d="m110.83 54.746l0.05 31.481 0.86 0.432 0.95 0.044 0.09-20.108-0.17-12.584-1.78 0.735z"/>
    <path id="path3552" fill-opacity=".15686" d="m42.508 43.114l2.984 0.951 4.238 2.94 0.692 1.6 4.021 1.687 4.368 2.854 0.216 0.519 3.935 3.503 0.779-0.044 4.324 2.941v1.34l4.713 1.99-0.043 0.994 3.849 1.946-0.216 1.124-3.849-1.729-0.13-1.038-4.8-2.033 0.13-1.383-4.108-2.941-0.908 0.087-3.849-3.503v-0.476l-4.713-2.984-4.238-1.989 0.043-0.821-4.497-3.287-3.157-1.557-0.087-0.648 0.303-0.043z"/>
    <path id="path3554" fill-opacity=".15686" d="m53.492 25.6l-0.087 15.265 17.254 12.497 0.736-15.74-17.903-12.022z"/>
    <path id="path3556" fill-opacity=".15686" d="m90.897 31.135l-0.043 15.265 8 5.795 0.26-15.827-8.217-5.233z"/>
    <path id="path3558" fill-opacity=".15686" d="m52.843 24.951l13.06-2.378 5.665 15.092-18.725-12.714z"/>
    <path id="path3560" fill-opacity=".15686" d="m92.675 21.315l-1.812 9.414 8.132 5.612 4.595-6.143-10.915-8.883z"/>
  </g>
  <g id="layer1">
    <path id="path2309" fill-rule="evenodd" d="m83.469 12.719l-31.313 12.031 1.032 0.719-0.032 12.156-11.125 4.187 0.031 1.344v0.782l2.532 1.031-0.032 12.156-5.156 2.156-0.094 2.781 2.032 1.407 0.468-0.188 2.844 1.844-0.094 11.375c0.647 1.072 1.515 1.33 2.407 1.5 0.544-0.225 1.305-0.255 1.062-1.188v-9.468l8.063 5.25 1.906 15.094c-1.225 0.326-2.52 0.552-3.844 0.75-0.256-0.825-0.996-1.331-1.718-1.907-5.296-3.673-11.688-4.155-17.876-4.656-2.957-0.225-6.135-0.454-9.281-0.437-7.066 0.21-13.237 1.77-16.5 5.093-0.5494-0.167-0.5463 0.804-0.6248 0.907 0.4997 3.447 1.4471 6.352 3.5858 9.093 3.156 1.469 1.037 2.275 12.313 3.629 1.959 0.32 8.447-0.521 10.007-0.41l-0.062 0.062c5.808 3.678 11.78 6.428 18 4.408l-0.125-0.34c-5.749 1.86-11.863-0.54-17.563-4.13 4.598 0.28 9.16-0.813 13.5-2.625 2.913-2.303 4.821-5.152 6.376-8.437 1.283-0.191 2.569-0.439 3.843-0.75l1.188 9.406 0.031-0.032c0.52 0.556 1.042 0.293 1.562 0.094-0.184-0.646 0.107-0.104-0.531-0.75l0.344-1.062c-0.038-0.787-0.525-0.807-0.813-0.094l0.063 1.156c-0.186 0.053-0.315 0.094-0.406 0.125l-1.157-8.906c1.195-0.304 2.369-0.674 3.469-1.156 2.42-1.062 4.354-2.524 6.031-6.188 0.058 1.337 0.663 2.35-0.062 4.157l0.562 0.062c0.112-1.57 0.093-2.76-0.093-4.031 0.309 0.903 1.041 1.022 1.531 0.781l4.562 2.969v0.906l1.782 0.531 0.156-0.062 1.969 1.312 0.093 10.125c0.025 0.572 0.576 1.094 2.344 1.5 0.6-0.14 1.066-0.36 1.25-0.75l-0.062-9.593 0.594-0.282v-2.281l-0.594-0.375v-2.031l25.996-11.125 1.85 6.187c-3.34 1.182-4.87 4.573-4.5 9.531l0.28 0.219c-0.66-4.859 1.15-7.899 4.41-9.125l0.78 2.563-0.04 4.469c0.38 0.658 0.96 0.627 1.54 0.624l0.9 3.032c-2.3 0.07-3.99-1.325-4.84-4.063l-0.13 0.188c0.67 3.558 2.5 4.412 5.03 4.062l0.72 2.375c-0.31 0.147-0.56 0.403-0.72 0.875l0.22 0.031c0.09-0.293 0.31-0.478 0.6-0.593l0.84 2.843c-0.01 0.069 0 0.174-0.03 0.344 0.07 0.076 0.12 0.138 0.19 0.188l0.03 0.062 0.03-0.031c0.45 0.288 0.9 0.076 1.34-0.094-0.18-0.646 0.11-0.104-0.53-0.75l0.35-1.062c-0.04-0.787-0.53-0.807-0.82-0.094l0.07 1.156c-0.17 0.048-0.29 0.064-0.38 0.094l-0.81-2.719c0.66-0.154 1.51-0.097 2.06-0.094l0.28-0.124c-0.95-0.103-1.79-0.274-2.44-0.126l-0.71-2.343c0.67-0.113 1.39-0.29 2.15-0.531l-0.06-0.157c-0.76 0.295-1.46 0.475-2.12 0.531l-0.91-2.968c0.08 0.005 0.17-0.015 0.25 0 1.27-0.079 1.28-0.58 1.62-0.969l-0.15-7.313c0.64 0.022 1.3 0.075 2 0.188l0.22-0.188c-0.79-0.2-1.52-0.32-2.22-0.406l-0.13-5.844 3 1.844 1.44-1.156 0.19-1.969-3.16-1.969 3.5-1.5v-2.374l-1.75-0.313-3.37 1.375-0.13-12.438 5.5-2.031 0.16-1.343-3.38-2.344 0.53-0.532-5.03-2.624 0.53-0.688-2.28-0.719-0.03-11.5 0.84-0.375-8.56-5.875-13.872-11.5-4.719-1.562zm0.156 0.562l3.437 1.344-21.218 7.625-9.563 1.812 27.344-10.781zm-2.063 0.875l-0.093 0.094 1.625 0.938-2.813 1.031-1.343-0.969-0.157 0.094 1.219 0.968-5.125 1.938-1.156-0.656c0.229-0.095 0.459-0.187 0.687-0.282l-0.094-0.093c-0.241 0.096-0.506 0.184-0.75 0.281l-0.25-0.125-0.093 0.125 0.156 0.094c-2.108 0.835-4.27 1.663-6.437 2.5l-0.063-0.032-0.156 0.126c-1.483 0.571-2.973 1.139-4.407 1.687v0.063h-0.312l-0.062 0.187 3.218-0.156 0.125-0.188-2.593 0.125c1.394-0.504 2.793-1.055 4.187-1.594l1.25 0.407 0.125-0.188-1.031-0.343c2.119-0.823 4.219-1.668 6.312-2.532l1.125 0.656-0.812 0.313 0.062 0.094 0.875-0.344 0.657 0.375 0.218-0.094-0.656-0.344 5.094-1.906 0.562 0.438 0.188-0.188-0.469-0.344 2.813-1.062 0.718 0.406 0.125-0.187-0.593-0.313 1-0.375-0.032-0.093-1.094 0.406-1.75-0.938zm6.313 0.813l12.435 9.906-7.748-3.75-1.781 9.344-18.937 7.062-5.625-14.969 21.656-7.593zm0.375 1l-0.688 0.281-0.187-0.219-0.125 0.063 0.188 0.187-5.719 2.281-0.031-0.093h-0.157l0.063 0.156-2.969 1.187-0.281-0.5-0.188 0.157 0.25 0.437-8.594 3.406-0.187-0.406-0.219 0.125 0.156 0.375-1.343 0.532 0.125 0.187 1.312-0.531 1.282 2.937-0.719 0.281 0.093 0.157 0.688-0.281 1.812 4.093 0.25-0.156-1.812-4.031 2.562-1.032 3.407 7.188 0.156-0.062-3.375-7.188 6.188-2.469 2.031 3.625 0.156-0.187-1.969-3.5 2.782-1.125-0.188-0.188-2.719 1.094-1.593-2.812 2.968-1.188 1.219 2.625 0.187-0.094-1.25-2.562 3.25-1.313 2.594 3.719-0.656 0.281 0.031 0.156 0.719-0.281 2.094 2.969 0.156-0.125-2.125-2.906 3.094-1.219 0.625 0.656 0.125-0.094-0.594-0.624 0.594-0.219-0.157-0.188-0.593 0.25-3.313-3.437 0.782-0.313-0.188-0.062zm-0.719 0.437l3.281 3.438-3.031 1.25-2.687-3.719 2.437-0.969zm-9.062 3.625l1.593 2.813-6.156 2.468-0.562-1.187-0.156 0.094 0.562 1.187-2.562 1.032-1.313-2.938 8.594-3.469zm14.312 1.657l10.469 8.593-4.312 5.657-7.907-5.407 1.75-8.843zm0.594 0.124l7.285 3.657 0.84 0.687 6.88 4.844-4.47-1.031-10.535-8.157zm-8.344 0.344l-0.125 0.094 1.969 3.5-8.187 3.625-1.376-2.687-0.156 0.031 1.375 2.719-1.312 0.593v0.094l1.343-0.594 1.313 2.563c-2.238 0.94-4.471 1.889-6.719 2.844l-0.656-1.563-0.25 0.094 0.656 1.562c-0.22 0.094-0.435 0.188-0.656 0.281l0.094 0.063c0.198-0.082 0.395-0.168 0.594-0.25l0.343 0.781 0.219-0.094-0.312-0.781c2.248-0.932 4.495-1.864 6.75-2.781l0.218 0.438 0.188-0.126-0.219-0.406c1.017-0.413 2.042-0.812 3.063-1.218l-0.126-0.188c-1.017 0.406-1.998 0.862-3 1.281l-1.312-2.593 8.156-3.594 1.844 3.25 0.188-0.063-1.876-3.281 3-1.312-0.031-0.063-3 1.313-2-3.532zm-19.25 0.719l5.344 14.375-17.437-12.156 0.812-0.313 11.281-1.906zm-2.375 0.719l0.219 0.312c0.209 0.163 0.538 0.418 0.969 0.75l-2.219 3.719c-1.11-0.761-2.228-1.527-3.344-2.281l0.281-0.438-0.124-0.125-0.313 0.469c-0.509-0.344-1.019-0.691-1.531-1.031l-0.313 0.125c0.565 0.395 1.149 0.767 1.719 1.156l-0.719 1.125 0.125 0.094 0.719-1.125c1.121 0.764 2.243 1.533 3.375 2.281l-0.406 0.656 0.094 0.188 0.468-0.75c0.678 0.447 1.352 0.898 2.032 1.343l-0.25 0.376 0.218 0.093 0.219-0.343c0.876 0.573 1.75 1.145 2.625 1.718 0.014 0.006 0.037 0.011 0.125-0.125-0.888-0.592-1.744-1.212-2.625-1.812l1.156-1.938-0.094-0.156-1.25 2c-0.681-0.465-1.35-0.94-2.031-1.406l2.219-3.688c0.747 0.576 1.656 1.281 1.656 1.281l0.063-0.187s-0.869-0.658-1.625-1.219l0.5-0.844-0.188-0.062-0.468 0.781c-0.59-0.438-1.074-0.776-1.282-0.937zm29.844 0c-0.048 0.116-0.054 0.066-0.156 0.187 0.161 0.178 0.328 0.337 0.5 0.5l-1.219 4.25c-0.101-0.096-0.216-0.181-0.313-0.281 0.006 0.033 0.003 0.073-0.062 0.125 0.107 0.11 0.232 0.206 0.344 0.313l-0.188 0.656 0.156 0.062 0.157-0.562c0.55 0.505 1.157 0.936 1.781 1.375l-0.781 1.062 0.187 0.063 0.782-1c0.549 0.38 1.092 0.79 1.656 1.156l-0.344 0.531 0.281 0.063 0.281-0.469c0.762 0.496 1.518 0.986 2.219 1.531l-0.343 0.5 0.156 0.188 0.406-0.532c0.103 0.083 0.212 0.166 0.312 0.25v-0.218c-0.067-0.056-0.149-0.101-0.218-0.156l1.686-2.282 0.81 0.656v-0.281l-0.68-0.562 0.65-0.875-0.25-0.156-0.62 0.874-2.315-1.843 0.313-0.469-0.188-0.125-0.281 0.469-0.907-0.719-0.124 0.156 0.906 0.719-1.656 2.562c-0.558-0.362-1.113-0.717-1.657-1.093l0.563-0.719-0.25-0.062-0.5 0.656c-0.636-0.448-1.26-0.926-1.813-1.438l1.25-4.187c0.65 0.588 1.359 1.128 2.063 1.656l-0.719 1.406 0.156 0.063 0.75-1.344c0.21 0.158 0.419 0.304 0.625 0.469l0.094-0.094c-0.228-0.168-0.435-0.357-0.656-0.531l0.25-0.438-0.188-0.156-0.25 0.469c-0.704-0.563-1.378-1.161-2.031-1.781l0.156-0.532-0.25-0.062-0.125 0.406c-0.137-0.133-0.27-0.271-0.406-0.406zm-31.656 0.468l-1.219 1.907 0.187 0.031 1.157-1.781-0.125-0.157zm36.25 0.313l0.5 0.406-0.719-0.219 0.031 0.126 0.844 0.25 4.81 3.906c-0.16 0.013-0.37 0.031-0.43 0.031l0.09 0.125c0.07 0 0.3-0.019 0.5-0.031l0.84 0.687 0.13 0.032-0.88-0.719c0.65-0.044 1.56-0.125 1.56-0.125l-0.18-0.156s-0.91 0.072-1.53 0.124l-4.66-3.843 1.87 0.531-0.15-0.094-1.908-0.562-0.562-0.469h-0.156zm-43.906 1.625l17 11.875-0.032 1.344-16.968-12.094v-1.125zm-0.032 1.281l16.969 12.157-0.031 1.5-6.032-4.313v-0.187l-4.781-3.188-6.125-4.375v-1.594zm30.75 0.125l-0.125 0.063 1.688 3.093 0.125-0.093-1.688-3.063zm13.375 1.5l2.279 1.813-1.654 2.312c-0.702-0.544-1.445-1.059-2.218-1.562l1.593-2.563zm-44.125 0.125l3.656 2.625v1.532l-3.687-2.626 0.031-1.531zm49.814 1.375l5.34 1.219-9.591 4.469 4.251-5.688zm-49.845 0.313l3.687 2.625-0.031 1.594-3.687-2.626 0.031-1.593zm10.687 0.281l-0.031 0.188c1.603 0.925 2.93 2.395 4.5 3.374l0.063-0.187c-1.613-0.943-2.924-2.422-4.532-3.375zm26.094 0.188v1.5l-19.187 6.437 0.031-1.031 19.156-6.906zm15.374 0l-0.19 0.031 0.69 1.375 0.28-0.032-0.78-1.374zm-14.999 0.093l7.625 5.281v1.407l-7.625-5.407v-1.281zm12.629 0.063l-0.28 0.094 0.87 1.656-2.63 1.281v0.25l2.76-1.313 0.15 0.282 0.19-0.219-0.1-0.156 0.97-0.469-0.15-0.25-0.94 0.469-0.84-1.625zm5.68 0.906v1.844l-10.184 4.062v-1.25l10.184-4.656zm-55.496 0.219l3.687 2.625v1.562l-3.687-2.594v-1.593zm37.187 0.219h0.031l7.594 5.468v1.563l-7.625-5.407v-1.624zm-32.843 0.124l6 4.126v5.687l-6-4.125v-5.688zm32.468 0v1.594l-19.25 6.438 0.063-1.563 19.187-6.469zm-31.844 1.032l0.063 4.218 4.531 3.313 0.032-4.469-4.626-3.062zm-4.968 0.344l3.687 2.624-0.031 1.876-3.688-2.626 0.032-1.874zm55.496 0.031l-0.03 1.562-1.03 0.438 0.03-1.563 1.03-0.437zm-18.309 0.187l7.625 5.532v1.468l-7.594-5.406-0.031-1.594zm-0.375 0.125l-0.031 1.563-5.094 1.687-0.031-0.593-8.125 2.718v0.625l-6 2 0.031-1.5 19.25-6.5zm-31.218 0.407l3.374 2.312v3.062l-3.374-2.343v-3.031zm48.372 0.468v5.75l-6 2.625-0.03-5.875 6.03-2.5zm1.5 0.532v1.531l-1.06 0.437 0.03-1.562 1.03-0.406zm-18.248 0.156l7.594 5.531v1.563l-7.594-5.376v-1.718zm-37.25 0.094l3.688 2.656v0.094l4.406 3.062 8.688 6.219-0.032 1.25-16.781-11.907 0.031-1.374zm36.813 0.031v1.593l-5.063 1.719-0.031-1.562 5.094-1.75zm16.255 0.25l-4.32 1.969-0.06 4.281 4.38-1.657v-4.593zm-42.068 0.343l6.032 4.313-0.063 1.437-6.031-4.25 0.062-1.5zm41.628 0.438v3.25l-3.41 1.438 0.03-3.219 3.38-1.469zm-5.22 0.344l0.03 1.468-2.094 0.844v-1.468l2.064-0.844zm8.09 0.031v1.563l-1.09 0.406 0.03-1.532 1.06-0.437zm-55.529 0.094l16.75 11.969-0.031 1.406-16.719-11.906v-1.469zm31.281 0.031l0.126 10.281-0.938 0.313v-9.406l-5.375 2 0.063 9.281-1 0.343v-10.468l7.124-2.344zm5.563 0.188v1.718l-5 1.688-0.063-1.688 5.063-1.718zm0.437 0l7.594 5.468v1.532l-7.594-5.376v-1.624zm-37.906 0.343v2.5l-7.625 2.875-2.75-0.812-0.093-0.875 10.468-3.688zm11.594 0.219l6.031 4.281-0.062 1.563-6-4.282 0.031-1.562zm36.5 0.781v1.469l-2.062 0.844-0.032-1.438 2.094-0.875zm-47.469 0.031l16.719 12-0.062 1.626-3.844-2.813-0.032-0.063h-0.031l-12.781-9.312 0.031-1.438zm55.529 0l-0.03 1.719-1.09 0.438 0.03-1.719 1.09-0.438zm-25.498 0.219v9.5l-4.406 1.563-0.031-0.532-0.063-8.812 4.5-1.719zm7.25 0.157l7.594 5.468v1.813l-7.594-5.375v-1.906zm-0.437 0.093v1.594l-4.937 1.656-0.063-1.562 5-1.688zm-25.906 0.469l6 4.281-0.063 1.531-5.968-4.281 0.031-1.531zm12.656 0.438v1.562l-6.063 2.031 0.063-1.562 6-2.031zm23.875 0.281l0.03 1.469-2.092 0.812v-1.406l2.062-0.875zm8.03 0.187v1.625l-10.092 4.031v-1.437l2.122-0.875v0.062l6.88-2.937 1.09-0.469zm-55.999 0.125l3.938 2.813-7.219 2.75-4.031-2.875 7.312-2.688zm37.344 0.219l-0.031 1.562-4.875 1.657-0.031-1.563 4.937-1.656zm0.437 0.188l7.594 5.468v1.313l-7.562-5.375-0.032-1.406zm-26.374 0.25l5.968 4.281-0.062 1.812-5.969-4.281 0.063-1.812zm12.687 0.468l0.031 1.656-6.156 2.063 0.062-1.687 6.063-2.032zm23.905 0.25l0.03 1.594-2.122 0.844v-1.563l2.092-0.875zm8 0.25v1.563l-10.061 4.062-0.031-1.469 10.092-4.156zm-66.811 0.282l2.812 1.093-0.031 0.594-2.812-1.187 0.031-0.5zm48.625 0.031l7.562 5.469v0.562c-0.355 0.013-0.739 0.04-1.125 0.062l-6.437-4.562v-1.531zm-0.5 0.031v1.469l-4.813 1.593-0.062-1.437 4.875-1.625zm19.216 0.75l1.81 0.5-1.81 0.562v-1.062zm-32.404 0.219v1.593l-6.187 2.063 0.031-1.594 6.156-2.062zm-19.844 0.187l3.938 2.782-7.219 2.75-3.812-1.407-0.094-1.25 7.187-2.875zm51.718 0.188l-0.03 1.531-7.94 3.187-0.06-0.187c-0.55 0.045-1.271 0.07-2.031 0.094v-0.407l10.061-4.218zm-63.468 0.062l4.157 2.938-0.031 0.656-4.188-3.031 0.062-0.563zm45.282 0.188l6.187 4.468c-0.533 0.035-1.081 0.091-1.656 0.157l-4.531-3.375v-1.25zm-0.5 0.031v1.25l-4.782 1.687-0.031-1.343 4.813-1.594zm20.566 0.25l4.84 2.5-13.81 4.937-0.38-1.281 8-3.437v-2.25l1.35-0.469zm-66.191 0.125l1.312 0.938-0.093 15.812-1.126-0.719-0.093-16.031zm32.437 0.75v1.5l-6.25 2.094 0.063-1.532 6.187-2.062zm31.844 0.25v1l-7.66 3.406-0.31-1.094 7.97-3.312zm-62.656 0.156l1.156 0.813-0.094 15.625-1.156-0.656 0.094-15.782zm44.218 0.406l0.469 0.344-21.843 7.532c-0.943-0.647-1.99-1.248-3.188-1.844-0.848-0.473-1.701-0.821-2.562-1.125l2.718-1.031 4.219 3.031 8.437-2.875 0.063 0.281 5.031-1.813v-0.25l6.656-2.25zm-29.093 0.469l4.156 3.031-2.906 1.157c-3.051-0.938-5.937-1.027-8.063-1.094l-0.187-0.125 7-2.969zm-13.719 0.125l1.688 1.25 0.124 0.844 3.563 1.75 0.281 2.188-5.594 2.25-0.031 0.281-0.031-8.563zm43.75 0.094l2.875 2.094c-2.04 0.311-4.233 0.916-6.344 2.094-1.713 0.852-3.113 1.674-4.343 2.687l-10.876 3.75c-0.971-1.261-2.015-2.279-3.218-3.156l21.906-7.469zm-14.344 0.188l0.032 1.468-6.313 2.094 0.031-1.5 6.25-2.062zm38.214 0.562l2.82 2-15.25 5.688-0.88-2.907 13.31-4.781zm-65.401 0.5l3.562 1.594c-0.149-0.009-0.365-0.02-0.5-0.032l-0.093 0.313c0.04 0.01 0.084 0.022 0.124 0.031l0.032 0.219-3.344-1.531 0.219-0.594zm27.219 0.562v1.438l-6.376 2.188 0.032-1.5 6.344-2.126zm20.531 0.032c1.027-0.051 2.041-0.01 3.031 0.062v0.032c-4.363 0.068-8.415 0.174-12.312 2.562-3.258 1.996-5.648 4.03-7.938 7.469-0.13-0.028-0.254-0.074-0.375-0.125 1.969-3.405 4.863-5.955 8.156-7.594 3.011-1.498 6.291-2.252 9.438-2.406zm2.721 0.218l-1.471 0.594v-0.437c0.509-0.029 1.001-0.082 1.471-0.157zm0.4 0.094l0.32 1.094-2.191 0.969v-1.281l1.871-0.782zm-2.902 0.094c0.161-0.007 0.312 0.007 0.468 0v0.344l-0.468-0.344zm-0.376 0.031c0.045-0.002 0.082 0.002 0.126 0l0.718 0.531v1.407l-2.437-1.813c0.553-0.056 1.097-0.1 1.593-0.125zm-2.562 0.25l0.406 0.313-8.375 2.906c0.603-0.416 1.215-0.814 1.875-1.219 2.41-1.205 4.388-1.744 6.094-2zm-40.219 0.469c3.607-0.048 7.487 0.69 11 2.438 3.345 1.664 6.281 4.241 8.25 7.718-0.129 0.051-0.263 0.078-0.406 0.094-2.309-3.498-4.712-5.548-8-7.562-3.327-2.039-6.788-2.392-10.437-2.5l-1.376-0.032c-0.19-0.003-0.37-0.028-0.562-0.031v-0.063c0.502-0.038 1.016-0.055 1.531-0.062zm41.063 0.156l2.687 1.938 2.809-1.219 0.38 1.281-20.908 7.469 0.219-0.281 0.219-0.469c-0.155 0.069-0.305 0.117-0.438 0.125 1.558-2.332 3.21-3.998 5.094-5.438l9.938-3.406zm-42.563 0.032c0.171 0.034 0.356 0.069 0.531 0.093l-0.031 0.407-0.469-0.219-0.031-0.281zm65.029 0.062l0.19 0.844-15.19 5.625-0.22-0.781 15.22-5.688zm-63.966 0.094l4.281 2.594-0.156 0.718-4.219-2.625 0.094-0.687zm1.218 0.094c1.693 0.077 3.682 0.091 6.219 0.874l-2.937 1.157-3.282-2.031zm-2.187 0.437l0.531 0.25 1.282 1.094-1.563 0.625-0.25-1.969zm9.156 0.687c0.817 0.289 1.659 0.658 2.594 1.126 1.008 0.617 1.964 1.246 2.844 1.906l-5.281 1.812-3.75-3.468 3.593-1.376zm-7.093 0.844l1.281 0.688-2.907 1.187-0.156-1.125 1.782-0.75zm46.402 0.188l0.88 2.906-26.47 9.875-3.469-1.531 0.094-0.875 0.687-0.25-0.031 0.375c0.213 0.317 0.708 0.314 1.031 0.187 0.001-0.338-0.039-0.622-0.062-0.906h0.031c0.101 0.182 0.212 0.342 0.313 0.531 0.366 0.054 0.777 0.193 0.875-0.468-0.072-0.147-0.148-0.265-0.219-0.407l3-1.093c-0.059 0.117-0.097 0.222-0.156 0.343 0.098 0.662 0.477 0.523 0.844 0.469 0.175-0.331 0.352-0.633 0.531-0.938-0.032 0.371-0.033 0.746-0.031 1.188 0.323 0.127 0.818 0.13 1.031-0.188l-0.157-1.593 21.278-7.625zm-48.371 0.656l0.125 1.125-5.813 2.406v-1.125l5.688-2.406zm3.656 0.031l1.187 0.688 0.094 0.531 0.656 0.531-4.874 2.125-0.344-2.531 3.281-1.344zm56.035 0.157v12.531l-0.5 0.219-0.07-12.532 0.57-0.218zm-54.348 0.093l3.626 3.094 0.031 1.219-3.625-3.5-0.032-0.813zm53.408 0.281l-0.06 12.563-1.25 0.531 0.03-12.625 1.28-0.469zm-1.85 0.688l0.1 11.188-5.56-3.75-1.47-4.844 6.93-2.594zm-27.464 0.094c-1.148 1.085-2.15 2.399-3.156 4.094-0.1-0.038-0.205-0.077-0.312-0.094-0.522-0.19-0.411 0.047-0.25 0.312l0.218 0.375c-0.195 0.344-0.397 0.684-0.594 1.063l-3.531 1.281c-0.181-0.353-0.352-0.649-0.531-0.969l0.312-0.5c0.161-0.265 0.24-0.47-0.281-0.281-0.149 0.024-0.269 0.067-0.406 0.125-0.431-0.734-0.871-1.431-1.313-2.031l9.844-3.375zm-29.281 0.125l0.344 2.531-6.188 2.656v-2.781l5.844-2.406zm14.75 0.187c1.169 0.913 2.232 1.915 3.25 3.125l-3.781 1.313-4.032-2.875 4.563-1.563zm-8.969 0.375l2.938 2.875 0.75-0.187 4.218 2.906-0.156 1.344 4.969 2.187-0.063 1 4 1.813 1.969-0.719v13.906l-1.531 0.625-6.312-4.031-0.032-0.25c-0.114 0.004-0.228-0.004-0.344 0l-14.281-9.125-1.312-10.094 5.187-2.25zm43.464 0.75l0.22 0.75-26.715 9.907 0.156-0.782 26.339-9.875zm-39.808 0.813l0.532 0.062-0.032 0.532 0.188 0.281 0.156-0.688 3.5 2.594v0.875l-3.875-2.781-0.593-0.094 0.124-0.781zm-18.75 0.218v1l-3.031 1.25-1.031-0.437 4.062-1.813zm58.908 0.126l1.37 4.531-4.84-3.25 3.47-1.281zm-49.22 0.437l1.25 9.813-7.469-4.782v-2.344l6.219-2.687zm17.906 0.75c0.46 0.569 0.903 1.202 1.344 1.875-0.078-0.018-0.164-0.056-0.25-0.094l0.219 0.469 0.5 0.656-0.094 0.938-1.187 0.406-4.469-1.844 0.093-1.093 3.844-1.313zm-27.594 0.219l0.094 2.594-1.75 0.781-0.937 0.375 0.062-2.719 2.531-1.031zm54.938 0.062l5.53 3.719 0.22 0.719-6.281-4.25 0.531-0.188zm-19.719 0.219c0.276 0.074 0.859 0.731 1.188 0.437l-0.344 0.657 0.063 1.656c-0.111 0.071-0.189 0.259-0.407 0.063 0.006-0.474 0.12-1.123 0.125-1.782l-0.625-1.031zm18.657 0.156l7.002 4.719 0.68 2.375-9.245-6.531 1.563-0.563zm-58.594 0.157l1.5 0.343 0.031 3.094-1.437-1.125-0.094-2.312zm40.062 0.468l0.125 0.219c-0.001 0.081 0.003 0.142 0 0.219-0.237 0.394-0.478 0.786-0.719 1.218l-0.156-0.031c0.222-0.561 0.483-1.101 0.75-1.625zm16.594 0.094l9.84 7 0.57 1.875-25.066 10.313 0.031-13.75 14.625-5.438zm-21.531 0.406l-0.657 1.032c0.006 0.659 0.151 1.307 0.157 1.781-0.218 0.196-0.296 0.009-0.407-0.063l0.032-1.656-0.313-0.656c0.329 0.293 0.912-0.364 1.188-0.438zm-0.219 0.875c0.231 0.456 0.464 0.92 0.656 1.407l-0.156 0.062c-0.179-0.321-0.354-0.612-0.531-0.906-0.009-0.146-0.029-0.275-0.031-0.438l0.062-0.125zm-6.75 0.063l4.5 1.968-0.031 0.907-4.657-1.969 0.188-0.906zm-22.875 0.281l10.469 6.687 0.094 0.876-11-7.376 0.437-0.187zm-0.75 0.406l11.375 7.594 0.281 2.25-13.812-8.969 2.156-0.875zm60.965 0.781l5.38 3.626v0.624l-5.16-3.5-0.22-0.75zm0.41 1.407l4.72 3.187-1.78 0.75-2.22-1.562-0.72-2.375zm-32.969 0.187l3.469 1.563-0.062 0.937-3.563-1.687 0.156-0.813zm44.249 0.688l0.94 0.156-10.59 4.375-0.13-0.469 9.78-4.062zm-71.968 0.062l1.813 1.188v10.75c-0.917 0.116-1.479-0.325-1.813-1.125v-10.813zm73.528 0.188l0.19 1.625-10.81 4.593-0.5-1.624 11.12-4.594zm-37.09 0.218l-0.031 13.782-0.5 0.218-0.063-13.687 0.594-0.313zm-0.969 0.344l-0.062 13.844-1.688 0.719-0.187-13.844 1.937-0.719zm-33.343 0.625l0.468 0.313 0.094 9.562c0.122 0.471-0.249 0.799-0.625 0.688l0.063-10.563zm59.472 0.688l1.56 1.125-1.1 0.437-0.46-1.562zm-50.816 1.25l13.437 8.593c-0.554 0.041-1.056 0.108-1.406 0.313l-11.906-8-0.125-0.906zm59.186 0.562l2.53 1.625-0.5 0.219-2.94-1.469 0.91-0.375zm-8.03 0.219l0.12 0.469-31.151 12.812v0.031l-0.563-0.187 31.594-13.125zm-65.062 0.094c-4.823 1.059-6.628 3.426-4.594 7.844l0.375-0.094c-2.192-3.963 0.526-6.359 4.343-7.5l-0.124-0.25zm71.622 0.312l0.41 15.813c-0.15 0.307-0.53 0.661-1.09 0.719l0.03-16.25 0.65-0.282zm0.44 0.094l2.62 1.406v2.063l-2.59-1.813-0.03-1.656zm-57.969 0.062l11.594 7.75c-0.048 0.05-0.089 0.097-0.125 0.157-0.289 0.479-0.061 1.066 0.125 1.656l-11.313-7.313-0.281-2.25zm51.219 0.219l0.47 1.625-31.314 13.313 0.063-2.219 30.781-12.719zm5.28 0.063v16.187c-0.06 0.002-0.1-0.028-0.15-0.031l-1.26-4.125 0.04-11.437 1.37-0.594zm-1.81 0.781l-0.03 7.125c-0.26 0.052-0.51 0.113-0.75 0.188l-1.85-6.188 2.63-1.125zm7.47 0.125l-0.19 1.5-0.91 0.844 0.1-2.032 1-0.312zm-69.721 1.312l-0.031 0.126c3.902 0.709 5.994 4.15 2.187 6l-0.187 0.156c5.172-2.085 2.548-5.364-1.969-6.282zm7.906 0.219l11.344 7.407c-1.626 3.621-3.971 5.295-6.219 6.281-1.015 0.445-2.093 0.812-3.219 1.125l-1.906-14.813zm-12.719 0.875c-4.085 1.597-2.345 3.742 0.375 5.344l0.25-0.281c-2.726-1.253-3.844-3.615-0.593-4.813l-0.032-0.25zm26.282 4.063l6.312 4.031-1.375 0.562-6.5-4.343c0.408-0.121 0.982-0.207 1.563-0.25zm-1.938 0.375c0.007-0.004 0.024 0.004 0.031 0l6.531 4.344-0.218 0.093-0.032 1.438-6.406-4.157c-0.062-0.518-0.098-1.079-0.031-1.593 0.024-0.039 0.068-0.09 0.125-0.125zm42.66 0.812v1.906l-0.54-1.75c0.18-0.058 0.36-0.107 0.54-0.156zm-98.066 1.219c-3.3903-0.029-4.8484 1.429-6.1565 4.406 1.9816-3.45 3.6575-4.238 7.9065-4.156l-0.032-0.125c-0.631-0.074-1.189-0.12-1.718-0.125zm55.344 0.187l1.437 0.938c-0.516 0.245-0.798-0.341-1.469-0.875 0.01-0.022 0.022-0.04 0.032-0.063zm-43.032 1.563c3.597-0.039 6.744 0.34 9.438 0.469 6.077 0.663 12.651 0.963 17.906 4.406 0.597 0.387 1.082 1.05 1.344 1.688-5.657-4.828-13.363-5.191-20.5-5.719-7.199-0.166-18.468-0.518-24 4.062 2.176-3.138 10.417-4.848 15.812-4.906zm90.534 0.094c-0.17 0.01-0.35 0.034-0.53 0.062l0.03 0.344c2.5-0.335 3.12 1.968 3 4.125h0.25c0.55-2.865-0.22-4.689-2.75-4.531zm-40.534 0.875l1.063 0.187v2.344l-1.157-0.313 0.094-2.218zm-48.937 0.218c2.298-0.015 4.592 0.086 6.75 0.219 11.463 0.306 17.049 2.516 20.531 5.438-0.044 0.04-0.081 0.085-0.125 0.125-0.071 0.039-0.147 0.086-0.219 0.125-6.416-2.975-15.61-4.823-24.687-4.938-6.544-0.083-13.014 0.754-18.344 2.688 3.473-2.778 9.777-3.613 16.094-3.657zm85.151 0.282l0.94 3.125c-0.52-0.149-0.65-0.555-0.94-0.719v-2.406zm-29.651 0.281v1.594l0.125 0.125-1.086-0.614-0.052-0.665 1.013-0.44zm-53.594 0.531c9.035 0.033 18.314 1.808 24.719 4.938-0.187 0.098-0.37 0.216-0.563 0.312-3.055-1.049-6.481-1.968-10.093-2.687l0.093-0.281-2.937-0.25h-0.032c-4.676-0.768-9.568-1.18-14.281-1.063-2.916 0.072-5.748 0.39-8.437 0.906 6.079-1.075 13.599-0.852 20.406 0.031l-0.406 1c-3.504-0.472-7.028-0.716-10.532-0.656l0.188-0.468-4.312-0.188-0.344 0.906c-3.743 0.379-7.428 1.161-10.969 2.5-0.309-0.317-0.5882-0.621-0.875-0.968 0.915-0.476 1.936-0.903 3.031-1.25-1.079 0.323-2.127 0.674-3.1248 1.093-0.1404-0.172-0.3212-0.355-0.4374-0.5 0.1167-0.125 0.2484-0.256 0.375-0.375 5.1592-2.068 11.774-3.024 18.531-3zm51.531 0.344l2.25 1.5-0.718 0.188v-0.063l-2.094-1.375 0.562-0.25zm-1.156 0.5l2.312 1.594 0.063 1.5-3.844-2.469 1.469-0.625zm-56.312 1.156l3.374 0.156-2.843 7.876c-0.099 0.189-2.581-0.413-3.375-0.594l2.844-7.438zm60.062 0.094l0.062 1.625-1.124 0.594v-1.875l0.031 0.031 1.031-0.375zm-44.906 0.031l4.312 0.469-2.437 6.844c-1.632 0.306-3.281 0.511-4.907 0.687l3.032-8zm-11.344 0.313c3.52-0.034 7.114 0.203 10.531 0.625l-0.437 1.062c-3.199-0.311-7.295-0.506-10.532-0.5l0.438-1.187zm-4.5 0.25l-0.469 1.187c-3.065 0.279-7.032 1.045-9.469 1.907-0.204-0.094-0.46-0.317-0.718-0.563 3.002-1.408 6.701-2.185 10.656-2.531zm20.625 0.031c3.984 0.752 7.45 1.699 9.844 2.687-0.344 0.166-0.702 0.311-1.063 0.469-2.983-0.795-6.066-1.529-9.187-2.125l0.406-1.031zm36.781 0.563l1.375 0.874 0.313 9.938c-0.95-0.142-1.56-0.681-1.594-1.156l-0.094-9.656zm-37.25 0.593c3.465 0.629 6.544 1.39 8.875 2.157-0.405 0.173-0.795 0.364-1.219 0.531-2.303-0.514-5.093-1.221-8.031-1.657l0.375-1.031zm-16.25 0.188c3.156 0.004 7.334 0.289 10.469 0.593l-0.469 1.126-10.406-0.626 0.406-1.093zm-4.562 0.25l-0.25 0.593-2.782-0.187c1.046-0.181 2.075-0.318 3.032-0.406zm-11.438 0.093c4.2358 5.176 11.964 6.654 20.063 6.5 8.588-1.038 11.824 0.074 23.062-5.468-1.362 1.113-2.827 1.978-4.5 2.656-3.514 1.376-8.641 2.396-13.531 3.094s-10.026 0.732-14.562-0.469c-4.011-0.953-8.985-3.681-10.532-6.313zm71.313 0.032l0.281 0.437 0.719-0.406 0.093 9.094c0.006 0.455-0.418 0.623-0.906 0.75l-0.187-9.875zm-26.844 0.406c-0.239 0.478-0.562 1.044-0.906 1.625-7.576 4.003-16.4 6.171-25.25 5.875-5.862-0.425-13.455-0.881-17.75-5.406-0.1413-0.542-0.2835-1.076-0.4065-1.625 2.6495 3.268 6.3285 4.829 10.282 5.875 4.722 1.25 9.738 1.023 14.718 0.312 4.981-0.711 9.884-1.721 13.469-3.125 1.792-0.625 4.338-2.066 5.844-3.531zm-37.187 0.094l3.812 0.218-0.5 1.25-7.656-0.374c1.236-0.397 2.757-0.78 4.344-1.094zm8.218 0.468l10.438 0.563-0.469 1.156-10.406-0.531 0.437-1.188zm16.188 0.063c1.947 0.281 3.702 0.613 5.375 0.937l-5.594-0.343 0.219-0.594zm-0.282 0.75l6.657 0.375c0.375 0.077 0.797 0.141 1.156 0.219-0.765 0.287-1.567 0.551-2.375 0.812l-5.844-0.281 0.406-1.125zm-28.5 0.187l7.532 0.344-0.438 1.125-5.094-0.281c-0.708-0.361-1.375-0.746-2-1.188zm40.532 0.313c-0.297 0.489-0.638 0.981-1 1.5-7.37 3.705-15.843 5.691-24.344 5.406-3.117-0.1-6.36-0.429-9.438-0.875-2.802-0.522-5.098-1.981-7.374-3.656-0.283-0.679-0.5031-1.364-0.688-2.062 4.528 4.965 11.539 4.935 17.688 5.437 9.013 0.302 17.502-1.722 25.156-5.75zm-28.5 0.219l10.375 0.5-0.5 1.25-10.313-0.532 0.438-1.218zm94.746 0.25l-0.06 0.218c3.65 1.691 2.22 6.011-0.87 7.75l0.12 0.344c3.37-1.939 4.74-6.256 0.81-8.312zm-78.809 0.468l5.157 0.25c-1.468 0.451-2.98 0.848-4.532 1.188l-1.125-0.062 0.5-1.376zm-25.219 0.313l4.188 0.25-0.438 1.094c-1.321-0.356-2.575-0.809-3.75-1.344zm8.719 0.5l10.313 0.531-0.5 1.188c-1.432 0.138-2.853 0.255-4.219 0.281-2.104 0.04-4.203-0.059-6.219-0.313l0.625-1.687zm27.844 0.031c-0.495 0.69-1.024 1.392-1.625 2.063-5.673 2.525-11.906 4.038-18.25 4.343-6.227 0.595-12.411-0.007-18.094-2.687-0.681-0.333-1.326-0.724-1.937-1.156-0.407-0.594-0.735-1.198-1-1.813 4.472 4.325 10.965 4.137 16.75 4.5 8.624 0.289 16.764-1.562 24.156-5.25zm9.375 0.063l0.062 0.281c2.874-0.151 4.552 1.005 4.094 4l0.25 0.219c0.837-3.851-1.09-4.452-4.406-4.5zm17.312 0.156c-2.496 0.293-3.209 0.778-3 3.125l0.344 0.25c-0.289-1.965 0.776-2.799 2.594-3.156l0.062-0.219zm37.688 0.906c0.03-0.034 0.08 0.077 0.16 0.407l-0.29 1.124 0.35 0.532c-0.46 0.335-0.63 0.149-0.81 0l-0.04-0.156 0.41-0.344 0.09-1.188c0.08-0.162 0.1-0.341 0.13-0.375zm-66.188 1.157c-0.524 0.569-1.092 1.124-1.687 1.624-3.414 1.356-7.008 2.339-10.687 2.938l-12.956 0.466c-4.786-0.269-10.333-1.821-11.857-3.591-0.308-0.336-0.569-0.686-0.813-1.031 0.496 0.377 1.663 1.129 2.195 1.429 5.424 2.588 12.207 2.89 18.212 2.44 6.181-0.33 12.082-1.838 17.593-4.275zm62.528 0.093c-0.16 2.457 2.4 2.506 4.35 2.657l0.15-0.376c-1.59 0.398-3.58-0.423-4.31-2.031l-0.19-0.25zm-51.84 0.157c0.034-0.035 0.052 0.045 0.125 0.374l-0.281 1.126 0.344 0.531c-0.549 0.399-0.663 0.04-0.907-0.094l0.469-0.406 0.094-1.188c0.073-0.161 0.122-0.309 0.156-0.343zm-51.75 0.062c-0.3659 0.008-0.7458 0.088-1.1562 0.25l-0.0626 0.188c1.3038-0.672 3.2798 0.299 4.4708 0.942l-0.096-0.036c-1.117-0.766-2.0583-1.368-3.156-1.344zm48.812 0.25c-0.83 1.749-1.07 2.624 0.5 3.406l0.313-0.218c-1.358-0.569-1.078-1.79-0.594-3.094l-0.219-0.094zm29.5 0.688l-0.093 0.406c-1.376 5.426-10.181 7.356-12.563 1.468l-0.218-0.062c1.345 6.42 13.786 3.85 12.874-1.812zm-40.031 0.968c-2.589 1.11-5.183 1.901-7.812 2.219 2.671-0.525 5.281-1.27 7.812-2.219zm-33.156 7.654l-0.5 0.03c3.283 2.41 7.366 3.77 13.031 2.57l-0.031-0.25c-5.426 1.14-9.387-0.06-12.5-2.35z"/>
  </g>
  <metadata>
    <rdf:RDF>
      <cc:Work>
        <dc:format>image/svg+xml</dc:format>
        <dc:type rdf:resource="http://purl.org/dc/dcmitype/StillImage"/>
        <cc:license rdf:resource="http://creativecommons.org/licenses/publicdomain/"/>
        <dc:publisher>
          <cc:Agent rdf:about="http://openclipart.org/">
            <dc:title>Openclipart</dc:title>
          </cc:Agent>
        </dc:publisher>
      </cc:Work>
      <cc:License rdf:about="http://creativecommons.org/licenses/publicdomain/">
        <cc:permits rdf:resource="http://creativecommons.org/ns#Reproduction"/>
        <cc:permits rdf:resource="http://creativecommons.org/ns#Distribution"/>
        <cc:permits rdf:resource="http://creativecommons.org/ns#DerivativeWorks"/>
      </cc:License>
    </rdf:RDF>
  </metadata>
</svg>
