<?xml version="1.0"?>
<svg xmlns:rdf="http://www.w3.org/1999/02/22-rdf-syntax-ns#" xmlns="http://www.w3.org/2000/svg" xmlns:cc="http://creativecommons.org/ns#" xmlns:xlink="http://www.w3.org/1999/xlink" xmlns:dc="http://purl.org/dc/elements/1.1/" id="svg2" viewBox="0 0 128 128" version="1.0">
  <defs id="defs4">
    <linearGradient id="linearGradient2320">
      <stop id="stop2322" stop-color="#6a3c1d" offset="0"/>
      <stop id="stop2324" stop-color="#8f5127" offset="1"/>
    </linearGradient>
    <linearGradient id="linearGradient3332">
      <stop id="stop3334" stop-color="#bb8f56" offset="0"/>
      <stop id="stop3336" stop-color="#d1af63" offset="1"/>
    </linearGradient>
    <linearGradient id="linearGradient2433" x1="29.049" xlink:href="#linearGradient2320" gradientUnits="userSpaceOnUse" y1="88.83" gradientTransform="translate(1.0378)" x2="66.781" y2="115"/>
    <linearGradient id="linearGradient2439" x1="79.93" xlink:href="#linearGradient2320" gradientUnits="userSpaceOnUse" y1="119.19" gradientTransform="translate(1.0378)" x2="95.952" y2="91.062"/>
    <linearGradient id="linearGradient2443" x1="98.215" xlink:href="#linearGradient2320" gradientUnits="userSpaceOnUse" y1="100.85" gradientTransform="translate(1.0378)" x2="108.8" y2="91.735"/>
    <linearGradient id="linearGradient2447" x1="106.23" xlink:href="#linearGradient2320" gradientUnits="userSpaceOnUse" y1="97.086" gradientTransform="translate(1.0378)" x2="122.31" y2="81.858"/>
    <linearGradient id="linearGradient2451" x1="113.93" xlink:href="#linearGradient2320" gradientUnits="userSpaceOnUse" y1="47.397" gradientTransform="translate(1.0378)" x2="118.4" y2="68.068"/>
    <linearGradient id="linearGradient2455" x1="54.673" xlink:href="#linearGradient2320" gradientUnits="userSpaceOnUse" y1="27.216" gradientTransform="translate(1.0378)" x2="102.99" y2="54.92"/>
    <linearGradient id="linearGradient2459" x1="14.177" xlink:href="#linearGradient2320" gradientUnits="userSpaceOnUse" y1="60.607" gradientTransform="translate(1.0378)" x2="49.608" y2="26.91"/>
    <linearGradient id="linearGradient2463" x1="5.2593" xlink:href="#linearGradient2320" gradientUnits="userSpaceOnUse" y1="54.644" gradientTransform="translate(1.0378)" x2="12.843" y2="90.481"/>
    <linearGradient id="linearGradient3052" x1="37.312" xlink:href="#linearGradient3332" gradientUnits="userSpaceOnUse" y1="88.75" gradientTransform="translate(1.0378)" x2="37.875" y2="85.875"/>
    <linearGradient id="linearGradient3066" x1="89.375" xlink:href="#linearGradient3332" gradientUnits="userSpaceOnUse" y1="91.031" gradientTransform="translate(1.0378)" x2="88.25" y2="87.594"/>
    <linearGradient id="linearGradient3071" x1="106.31" xlink:href="#linearGradient3332" gradientUnits="userSpaceOnUse" y1="78.812" gradientTransform="translate(1.0378)" x2="105.56" y2="74.375"/>
    <linearGradient id="linearGradient3075" x1="118.81" xlink:href="#linearGradient3332" gradientUnits="userSpaceOnUse" y1="75.375" gradientTransform="translate(1.0378)" x2="117.69" y2="70.75"/>
    <linearGradient id="linearGradient3084" x1="117.62" xlink:href="#linearGradient3332" gradientUnits="userSpaceOnUse" y1="50.906" gradientTransform="translate(1.0378)" x2="120.44" y2="47.281"/>
    <linearGradient id="linearGradient3088" x1="63.688" xlink:href="#linearGradient3332" gradientUnits="userSpaceOnUse" y1="25.5" gradientTransform="translate(1.0378)" x2="64.375" y2="22.562"/>
    <linearGradient id="linearGradient3095" x1="21.938" xlink:href="#linearGradient3332" gradientUnits="userSpaceOnUse" y1="38.062" gradientTransform="translate(1.0378)" x2="21.188" y2="36.875"/>
    <linearGradient id="linearGradient3102" x1="11.312" xlink:href="#linearGradient3332" gradientUnits="userSpaceOnUse" y1="65" gradientTransform="translate(1.0378)" x2="13.031" y2="64.188"/>
    <linearGradient id="linearGradient3119" x1="62.448" xlink:href="#linearGradient2320" gradientUnits="userSpaceOnUse" y1="70.019" gradientTransform="translate(1.0378)" x2="74.015" y2="51.306"/>
    <linearGradient id="linearGradient3123" x1="77.3" xlink:href="#linearGradient2320" gradientUnits="userSpaceOnUse" y1="65.132" gradientTransform="translate(1.0378)" x2="77.667" y2="65.927"/>
    <linearGradient id="linearGradient3127" x1="39.812" xlink:href="#linearGradient2320" gradientUnits="userSpaceOnUse" y1="69.352" gradientTransform="translate(1.0378)" x2="42.014" y2="69.352"/>
    <linearGradient id="linearGradient3131" x1="62.623" xlink:href="#linearGradient2320" gradientUnits="userSpaceOnUse" y1="80.207" gradientTransform="translate(1.0378)" x2="66.476" y2="80.207"/>
    <linearGradient id="linearGradient3135" x1="88.186" xlink:href="#linearGradient2320" gradientUnits="userSpaceOnUse" y1="66.6" gradientTransform="translate(1.0378)" x2="91.121" y2="66.6"/>
    <linearGradient id="linearGradient3139" x1="49.903" xlink:href="#linearGradient2320" gradientUnits="userSpaceOnUse" y1="50.241" gradientTransform="translate(1.0378)" x2="60.054" y2="60.454"/>
    <linearGradient id="linearGradient3145" x1="65.681" xlink:href="#linearGradient2320" gradientUnits="userSpaceOnUse" y1="65.499" gradientTransform="translate(1.0378)" x2="78.584" y2="52.473"/>
    <linearGradient id="linearGradient3149" x1="75.367" xlink:href="#linearGradient2320" gradientUnits="userSpaceOnUse" y1="58.496" gradientTransform="translate(1.0378)" x2="74.229" y2="61.615"/>
    <linearGradient id="linearGradient3155" x1="72.408" xlink:href="#linearGradient2320" gradientUnits="userSpaceOnUse" y1="46.388" gradientTransform="translate(1.0378)" x2="76.261" y2="53.238"/>
    <linearGradient id="linearGradient3159" x1="90.877" xlink:href="#linearGradient3332" gradientUnits="userSpaceOnUse" y1="74.795" gradientTransform="translate(1.0378)" x2="88.736" y2="75.59"/>
    <linearGradient id="linearGradient3163" x1="80.052" xlink:href="#linearGradient3332" gradientUnits="userSpaceOnUse" y1="77.73" gradientTransform="translate(1.0378)" x2="78.951" y2="78.281"/>
    <linearGradient id="linearGradient3167" x1="79.257" xlink:href="#linearGradient3332" gradientUnits="userSpaceOnUse" y1="66.447" gradientTransform="translate(1.0378)" x2="80.297" y2="68.221"/>
    <linearGradient id="linearGradient3171" x1="79.257" xlink:href="#linearGradient3332" gradientUnits="userSpaceOnUse" y1="66.447" gradientTransform="translate(3.3617 5.0759)" x2="80.297" y2="68.221"/>
    <linearGradient id="linearGradient3175" x1="79.257" xlink:href="#linearGradient3332" gradientUnits="userSpaceOnUse" y1="66.447" gradientTransform="translate(6.0526 9.7848)" x2="80.297" y2="68.221"/>
    <linearGradient id="linearGradient3180" x1="79.257" xlink:href="#linearGradient3332" gradientUnits="userSpaceOnUse" y1="66.447" gradientTransform="translate(8.4988 14.31)" x2="80.297" y2="68.221"/>
    <linearGradient id="linearGradient3184" x1="79.257" xlink:href="#linearGradient3332" gradientUnits="userSpaceOnUse" y1="66.447" gradientTransform="translate(10.945 19.019)" x2="80.297" y2="68.221"/>
    <linearGradient id="linearGradient3392">
      <stop id="stop3394" stop-color="#4a585b" offset="0"/>
      <stop id="stop3396" stop-color="#5e7074" offset="1"/>
    </linearGradient>
    <linearGradient id="linearGradient3395" x1="57.364" xlink:href="#linearGradient3392" gradientUnits="userSpaceOnUse" y1="39.142" gradientTransform="translate(1.0378)" x2="62.501" y2="52.412"/>
    <linearGradient id="linearGradient3399" x1="71.98" xlink:href="#linearGradient3392" gradientUnits="userSpaceOnUse" y1="44.279" gradientTransform="translate(1.0378)" x2="68.066" y2="36.451"/>
    <linearGradient id="linearGradient3411" x1="61.059" gradientUnits="userSpaceOnUse" y1="45.146" gradientTransform="translate(1.0378)" x2="27.676" y2="103.44">
      <stop id="stop3407" stop-color="#4f3e2a" offset="0"/>
      <stop id="stop3409" stop-color="#72593c" offset="1"/>
    </linearGradient>
    <filter id="filter3432">
      <feGaussianBlur id="feGaussianBlur3434" stdDeviation="0.76021622"/>
    </filter>
    <filter id="filter3492">
      <feGaussianBlur id="feGaussianBlur3494" stdDeviation="0.99113513"/>
    </filter>
    <filter id="filter2996">
      <feGaussianBlur id="feGaussianBlur2998" stdDeviation="1.4322162"/>
    </filter>
  </defs>
  <g id="layer2" fill-rule="evenodd">
    <path id="path3413" filter="url(#filter3432)" fill-opacity=".66667" d="m15.741 96.865l-14.53-29.233 47.567-30.962 44.281 12.454-77.318 47.741z"/>
    <path id="path3403" fill="url(#linearGradient3411)" d="m5.2878 69.75l46.5-28 60.502 12.25 13.5 21.25-1.75 15.25-41.752 22.25-62-9.25-15-33.75z"/>
    <path id="path3466" filter="url(#filter3492)" fill-opacity=".54902" d="m39.784 76.108l-2.768-8.649-2.94 1.557-2.422-3.978 6.4-3.114 1.384-8.821 12.8 1.902 21.794 2.249 15.049 13.492-0.173 2.076-8.303-3.287 14.184 13.838-14.011-11.416-5.362 3.113 12.281 14.011-14.529-12.627-12.8 1.73 6.918 8.994-3.459 0.173-6.4-6.573-15.913-15.048 1.902 9.686-3.632 0.692z"/>
    <path id="path3436" filter="url(#filter2996)" fill-opacity=".39216" d="m51.027 46.357l-8.649 6.573 59.162 7.956 5.53 11.071-22.486 29.753 38.916-14.013 1.04-19.027-17.3-28.021-41.337 0.173-14.876 5.535z"/>
    <path id="path2431" fill="url(#linearGradient2433)" d="m18.834 75.284l-0.061 2.936 0.061 2.691 0.612 1.223-0.49 2.996-0.367 6.605-0.183 5.932 0.428 7.273 0.122 1.23 1.101 0.98 1.162-0.07 0.795 1.11 1.345 0.55 2.08-0.25c0.954 0.77 1.839 1.2 2.629 1.16h1.224l0.978-0.42 2.324 1.03 1.529 0.43 1.223-0.24 1.835 0.73 0.978 0.19 1.529-0.43 1.345 0.92 1.468 0.3 2.263-0.43 1.773 0.92 1.651 0.37 1.591-0.43 1.039 0.18 1.59 1.04 1.896-0.06 1.101-0.3 1.345 0.91 1.407 0.31 2.263-0.67 0.978 1.28 1.651 0.49h2.018l1.59 0.92h1.59l1.774-0.19 1.59 0.86 1.59 0.37 1.896-0.49 1.039 0.67 1.468 0.18 0.795 0.25 1.651-0.55 0.979 0.61 0.978-0.06 0.245-0.8-0.122-10.46 0.061-8.618 0.122-5.749 0.061-6.727-0.795 0.612-0.917 0.061-1.162-0.734v1.162l0.183 2.63 0.306 5.015-0.306 1.59h-2.201l-1.835-1.162-0.917 0.55-2.813-0.122-1.407-0.612-2.324 0.061-2.324-1.284-0.917 0.367-1.04 0.122-1.467-0.183-1.835-1.407-1.59 0.367-2.385-0.306-0.856-0.733-1.468 0.244-2.202 0.123-1.651-0.857-2.263 0.428-2.507-1.345-0.795 0.367h-1.896l-2.201-1.284-0.918 0.122h-1.651l-1.345-0.612-1.346 0.245-1.1-0.306-1.468-0.244-1.59-0.795-1.468 0.244-1.162 0.061-2.691-1.162-1.59-0.061-1.101-0.244-1.956-1.04v-5.932l0.122-4.648-0.551 0.367-0.672 0.306-0.673-0.122-0.795-0.551z"/>
    <path id="path2437" fill="url(#linearGradient2439)" d="m82.249 95.832l0.859-0.122 1.407-0.673 1.223-1.59 1.039 0.061 1.346-0.428 1.529-2.018 0.856-0.122 1.162-0.245 1.651-1.651 1.712-0.244 0.795-0.49 0.612-1.773-0.367-3.67-0.061-3.669 0.734 0.245 1.773 0.489 0.123 3.914 0.183 4.159-0.183 6.482-0.062 8.683 0.184 5.08-0.245 1.59-0.734 0.3-1.223-0.18-0.672 0.79-1.468 0.49-0.612 0.49-1.284 1.29-1.835 0.18-1.039 1.41-1.59 0.67-1.774-0.12 0.061 0.49-1.895 1.53-2.202 0.3-0.061-13.21v-6.42l0.058-2.018z"/>
    <path id="path2441" fill="url(#linearGradient2443)" d="m98.886 81.828l1.464-0.061 2.08-1.346 1.29-0.061 2.38-1.835h1.65l1.29-0.244 1.1-0.551 1.16-0.733 1.16-0.551 0.06 1.651 0.13 2.63 0.06 6.054v5.382l-0.25 8.747-1.1 0.85-0.92 0.55-1.28 0.74-2.45 0.85-1.4 1.41-1.16 1.04h-1.84l-0.79 1.04-2.94 0.8 0.062-6.98 0.122-11.432-0.061-6.116-0.123-1.223 0.306-0.611z"/>
    <path id="path2445" fill="url(#linearGradient2447)" d="m112.58 100.97l0.19-9.724 0.06-6.788-0.18-4.648-0.13-3.303-0.19-0.797-0.36-1.404-0.24-4.098 0.92 0.184 0.67 0.367 1.41-0.734-0.13 2.201v1.529l0.19 3.361 0.49 0.064 2.01-1.101 1.41-0.061 1.04-0.428 1.04-0.734 1.96-0.673c0.66-0.629 0.74-0.657 1.1-1.834 0-0.306 0.24-7.95 0.24-7.95l0.31-5.076-0.12-1.59 1.22 0.978 1.22-0.306-0.12 2.08 0.06 3.669 0.06 6.116-0.12 2.996 0.12 3.486-0.12 3.363v3.67l-0.06 3.975v2.813l-0.06 1.468-0.55 0.856-1.41 0.489-0.79 0.795s-0.92 0.489-1.23 0.551c-0.3 0.061-1.28 0.122-1.28 0.122l-0.98 0.856-2.26 0.734-3.43 3.363-0.18 0.673-0.92 0.61-0.86-0.12z"/>
    <path id="path2449" fill="url(#linearGradient2451)" d="m123.35 73.021l-1.9-3.241-0.79 2.508-0.24 1.97-2.15-2.704-0.24-0.856-1.29-0.551-0.67-1.773v-1.713l-1.16-0.672-0.74-1.529 0.31-1.713-0.86-0.428-1.1-0.734-0.36-2.323 0.24-1.774 0.25-8.011 0.12-7.033v-4.648l0.43 1.346 0.06 0.856 0.67 0.978 1.22 0.856-0.06 1.04 0.31 0.978 0.43 1.101 1.04 0.979 0.55 0.856 0.24 2.14 0.43 1.529 0.61 0.734 0.98 0.428 0.24 2.263 1.17 3.058 1.83 4.036 0.49 0.978h0.86l-0.37 5.566-0.18 3.057 0.12 2.569-0.49-0.123z"/>
    <path id="path2453" fill="url(#linearGradient2455)" d="m85.493 51.373l0.122-5.076 0.734-0.306-0.122-1.712-0.489-0.062-4.954-2.568-4.648-2.141-7.461-3.73-9.907 0.856-6.36 5.198 0.123-10.029-0.062-7.95 1.529 0.734 1.346 0.305s1.162-0.856 1.529-0.428c0.366 0.428 1.651 1.468 1.651 1.468l1.59-0.122h2.262v0.55l1.285 0.245 0.856 0.428 2.568-0.184 1.346 0.428 1.406 0.184 1.652-0.061 0.917 0.856 1.101 0.306 1.712 0.305 1.529 0.245 1.957 0.673h1.468l0.917-0.184 1.773 0.428 1.346 0.306 1.957-0.306 1.773 0.857 1.468 0.367 1.774-0.429 1.406 0.979 3.669-0.122 1.896 1.039h3.548l1.04 0.551 1.28 0.122 2.02-0.245 0.86 0.123 0.85 0.795h1.41l1.35-0.184 0.06-1.162-0.37-3.73v-3.853l0.67 0.367 0.98 0.122 0.8-0.306 0.24 1.04 0.25 2.018v1.407l-0.13 2.568-0.06 3.242-0.3 3.913 0.12 4.771-0.12 5.137-0.37 7.889-0.73 0.183-0.8-0.489-0.12-1.346-1.59 0.367-0.86 0.062-0.98-0.429-0.98-0.611-1.71 0.367s-1.28-0.245-1.53-0.306c-0.24-0.061-2.2-0.673-2.2-0.673l-1.894 0.306-1.406-0.122-1.162-0.734-0.857-0.673-1.1 0.245-1.774-0.245-1.896-1.162-0.734 0.061c-0.493 0.087-1.099 0.137-2.079 0.062l-2.385-0.795z"/>
    <path id="path2457" fill="url(#linearGradient2459)" d="m7.2757 48.498l2.1404-0.917 1.4679-0.612c0.903-0.613 1.461-1.14 1.712-1.59l0.489-0.611 1.285-0.306 2.201-1.59 1.774-0.183 2.262-1.162 1.101-1.101 1.04-0.061 1.835-2.018 1.712-0.49 2.874-2.629 0.918 0.183h0.55l1.896-1.651 0.917 0.428 1.162-0.734 1.223-1.345 1.712-0.49 0.979-1.345 0.917-0.367 1.468-0.55 1.529-1.346 0.489-0.672 1.284 0.122 1.59-1.651 1.346-0.184 2.018-1.223 0.978-0.978-0.183-5.932-0.061-2.08 0.734 0.49 0.55 0.122 0.55-0.061 0.796-0.551 0.061 7.584-0.061 18.835-5.321 4.404-0.917 0.672 0.917 0.428 0.061 0.612-1.59 0.673-1.773 0.367-1.101 0.978-2.508 0.734-1.59 1.835-1.773 0.366-0.428 0.734-0.551 0.795-0.917 0.367-1.345-0.244-0.612 1.039-0.428 0.49-1.468 0.856-1.59-0.123-0.734 1.285-0.489 0.489-0.673 0.428-1.712 0.122-0.734 1.162-1.957 1.223-1.039 0.306-1.346 1.59-1.039 0.551-1.04-0.123-0.917 0.918-0.795 0.611-2.263 0.428-0.979-0.734-0.489-2.507-0.489-1.712-1.284 2.446-0.061-1.223-0.918-4.832-1.2229 1.285-0.3058-3.486-0.3058-1.712-0.795-2.263-0.8561 2.813-0.0612-0.917 0.1835-4.465z"/>
    <path id="path2461" d="m6.9087 53.635l0.367-12.781-1.0397 0.856-1.1008-0.122-0.9173-0.918-0.1223 5.199-0.2446 11.252 0.0611 6.36 0.2447 4.22 0.5503 4.159-0.0611 1.1 0.3669 1.407 1.6512 1.101-0.0611 1.345 0.2446 1.04 0.795 1.039 1.0396 0.612-0.1834 1.407 0.4281 1.406 0.9784 1.101 0.7947 0.183-0.061 1.468 0.306 1.162 1.345 0.673-0.183 0.978 0.122 1.101 0.734 1.04 1.162 0.795-0.245 2.14 1.407 2.324 0.061 1.284 0.245 1.651 0.978 0.49 0.673 0.183-0.306 2.02 0.122 2.26 0.612 1.77 0.856 0.25 0.306-0.31-0.122-1.95-0.306-3.979 0.061-5.076 0.306-6.176 0.55-5.565-0.672-2.019-0.857-0.366-0.305-0.612-0.123-1.284-0.856-1.285-0.489-1.161s-0.245-2.263-0.245-2.508c0-0.244-0.489-0.856-0.489-0.856l-0.917-1.284-0.734-3.731-0.551 0.184-0.917-1.285-1.101-3.547-1.1617-0.856-0.6115-1.162v-1.59l-1.7735-3.057-0.3669-1.652-0.2447-0.428z" fill="url(#linearGradient2463)"/>
    <path id="path2465" fill-opacity=".15686" d="m18.834 75.284l-0.061 2.936 0.061 2.691 0.612 1.223-0.49 2.996-0.367 6.605-0.183 5.932 0.428 7.273 0.122 1.23 1.101 0.98 1.162-0.07 0.795 1.11 1.345 0.55 2.08-0.25c0.954 0.77 1.839 1.2 2.629 1.16h1.224l0.978-0.42 2.324 1.03 1.529 0.43 1.223-0.24 1.835 0.73 0.978 0.19 1.529-0.43 1.345 0.92 1.468 0.3 2.263-0.43 1.773 0.92 1.651 0.37 1.591-0.43 1.039 0.18 1.59 1.04 1.896-0.06 1.101-0.3 1.345 0.91 1.407 0.31 2.263-0.67 0.978 1.28 1.651 0.49h2.018l1.59 0.92h1.59l1.774-0.19 1.59 0.86 1.59 0.37 1.896-0.49 1.039 0.67 1.468 0.18 0.795 0.25 1.651-0.55 0.979 0.61 0.978-0.06 0.245-0.8-0.122-10.46 0.061-8.618 0.122-5.749 0.061-6.727-0.795 0.612-0.917 0.061-1.162-0.734v1.162l0.183 2.63 0.306 5.015-0.306 1.59h-2.201l-1.835-1.162-0.917 0.55-2.813-0.122-1.407-0.612-2.324 0.061-2.324-1.284-0.917 0.367-1.04 0.122-1.467-0.183-1.835-1.407-1.59 0.367-2.385-0.306-0.856-0.733-1.468 0.244-2.202 0.123-1.651-0.857-2.263 0.428-2.507-1.345-0.795 0.367h-1.896l-2.201-1.284-0.918 0.122h-1.651l-1.345-0.612-1.346 0.245-1.1-0.306-1.468-0.244-1.59-0.795-1.468 0.244-1.162 0.061-2.691-1.162-1.59-0.061-1.101-0.244-1.956-1.04v-5.932l0.122-4.648-0.551 0.367-0.672 0.306-0.673-0.122-0.795-0.551z"/>
    <path id="path2467" fill-opacity=".15686" d="m123.35 73.021l-1.9-3.241-0.73 2.383-0.24 2.033-2.21-2.642-0.24-0.856-1.29-0.551-0.67-1.773v-1.713l-1.16-0.672-0.74-1.529 0.31-1.713-0.86-0.428-1.1-0.734-0.36-2.323 0.24-1.774 0.25-8.011 0.12-7.033v-4.648l0.43 1.346 0.06 0.856 0.67 0.978 1.22 0.856-0.06 1.04 0.31 0.978 0.43 1.101 1.04 0.979 0.55 0.856 0.24 2.14 0.43 1.529 0.61 0.734 0.98 0.428 0.24 2.263 1.17 3.058 1.83 4.036 0.49 0.978h0.86l-0.37 5.566-0.18 3.057 0.12 2.569-0.49-0.123z"/>
    <path id="path2469" fill-opacity=".15686" d="m85.493 51.373l0.122-5.076 0.734-0.306-0.122-1.712-0.489-0.062-4.954-2.568-4.648-2.141-7.461-3.73-9.907 0.856-6.36 5.198 0.123-10.029-0.062-7.95 1.529 0.734 1.346 0.305s1.162-0.856 1.529-0.428c0.366 0.428 1.651 1.468 1.651 1.468l1.59-0.122h2.262v0.55l1.285 0.245 0.856 0.428 2.568-0.184 1.346 0.428 1.406 0.184 1.652-0.061 0.917 0.856 1.101 0.306 1.712 0.305 1.529 0.245 1.957 0.673h1.468l0.917-0.184 1.773 0.428 1.346 0.306 1.957-0.306 1.773 0.857 1.468 0.367 1.774-0.429 1.406 0.979 3.669-0.122 1.896 1.039h3.548l1.04 0.551 1.28 0.122 2.02-0.245 0.86 0.123 0.85 0.795h1.41l1.35-0.184 0.06-1.162-0.37-3.73v-3.853l0.67 0.367 0.98 0.122 0.8-0.306 0.24 1.04 0.25 2.018v1.407l-0.13 2.568-0.06 3.242-0.3 3.913 0.12 4.771-0.12 5.137-0.37 7.889-0.73 0.183-0.8-0.489-0.12-1.346-1.59 0.367-0.86 0.062-0.98-0.429-0.98-0.611-1.71 0.367s-1.28-0.245-1.53-0.306c-0.24-0.061-2.2-0.673-2.2-0.673l-1.894 0.306-1.406-0.122-1.162-0.734-0.857-0.673-1.1 0.245-1.774-0.245-1.896-1.162-0.734 0.061c-0.493 0.087-1.099 0.137-2.079 0.062l-2.385-0.795z"/>
    <path id="path2471" fill-opacity=".15686" d="m6.9087 53.635l0.367-12.781-1.0397 0.856-1.1008-0.122-0.9173-0.918-0.1223 5.199-0.2446 11.252 0.0611 6.36 0.2447 4.22 0.5503 4.159-0.0611 1.1 0.3669 1.407 1.6512 1.101-0.0611 1.345 0.2446 1.04 0.795 1.039 1.0396 0.612-0.1834 1.407 0.4281 1.406 0.9784 1.101 0.7947 0.183-0.061 1.468 0.306 1.162 1.345 0.673-0.183 0.978 0.122 1.101 0.734 1.04 1.162 0.795-0.245 2.14 1.407 2.324 0.061 1.284 0.245 1.651 0.978 0.49 0.673 0.183-0.306 2.02 0.122 2.26 0.612 1.77 0.856 0.25 0.306-0.31-0.122-1.95-0.306-3.979 0.061-5.076 0.306-6.176 0.55-5.565-0.672-2.019-0.857-0.366-0.305-0.612-0.123-1.284-0.856-1.285-0.489-1.161s-0.245-2.263-0.245-2.508c0-0.244-0.489-0.856-0.489-0.856l-0.917-1.284-0.734-3.731-0.551 0.184-0.917-1.285-1.101-3.547-1.1617-0.856-0.6115-1.162v-1.59l-1.7735-3.057-0.3669-1.652-0.2447-0.428z"/>
    <path id="path3050" fill="url(#linearGradient3052)" d="m20.225 69.812l-0.562 1.313-0.5 1.75-0.5 1.813 0.625 1.062 0.687 0.25 1.375-0.375v-0.813l-0.5-2.874-0.625-2.126zm3.813 11.938l-2.5 3.562v0.75l2.187 1 1.313 0.126 0.937-0.126 2.938 1.438 1.437-0.188 1.25-0.124 2.688 1.062 1.375-0.062 1-0.063 1.562 0.687h2.563l2.187 1.188 1.313 0.062h1.312l1.625 0.688 1.25 0.188 1-0.188h1l0.938 0.375 1.937 0.563 1.75-0.626 0.438 0.063 1.687 0.813 1.563 0.124 1.5-0.187 0.437 0.125 2 1.062 1 0.25 0.813-0.124 1.375-0.063 1.875 0.75 1.187 0.187h1.625l2 0.563h2.188l0.375-0.437 1.687 0.937 2.938 0.187v-1.374l-1.938-2.938-1.5 2-0.625 0.5-1.562-2.25-1.125-1.125-2.375 2.937-0.25 0.063-2.688-4.313-1.5 2.438-0.687 1.125-2.125-4.125-1.313 1.375-1.312 1.875-0.688-0.062-1.687-4.126-2.063 2.188-0.75 1.188-0.75-1.126-1.687-4.437-1.125 1.75-1.563 2.937-2.187-5.562-2.188 4.25-0.625 0.562-1.187-2.812-1.375-2.875-2.5 4.563c-0.366-1.011-0.597-2.872-1.563-5l-2.062 4.124-0.375 0.126-2.5-4.688-1.875 2.438-0.438 1.25-0.437 0.187-1.688-3.937-3.125 3.312-0.437-0.125-1.875-4.875z"/>
    <path id="path3057" d="m97.475 73.75l-1.5 5.312 0.813 0.813 1.812 0.125 0.25-0.75-1.125-4.938-0.25-0.562zm-16.687 7.188l-0.438 1.25-0.937 3.687 0.625 0.563 1.125 0.124 1.125-0.75-0.875-3.624-0.625-1.25zm13.25 3.562l-0.438 1.688-0.187 2.124-0.375 0.188-2.063-3.188-1.187 3.938-0.063 1.312-0.625-0.624-2.062-2.688-0.875 2.75-0.5 1.812-0.063 1-1.687-2.312-0.625 1.375-0.938 2.375-0.062 1.438h1.625l1.125-1.25 1-0.75 2.25-0.626 0.875-1.062 0.875-1h0.875l1.625-1.062 0.875-1 2.312-0.25 0.563-1.126-2.25-3.062z" fill="url(#linearGradient3066)"/>
    <path id="path3069" d="m98.725 81.75l0.375-1.562 1.5-2.688 1.63 1.812 0.93-2 0.82-2.062 1.62 2.812 0.19-0.812 1.87-3.562 1.19 1.562 0.88 0.875 0.56-3.313 1.62 1.688 0.44 0.938 0.13 0.624-2 1.438-1.07 0.688-3.43 0.374-0.88 1-2.56 0.876-0.69 0.312-1.12 0.938-1.755 0.124-0.25-0.062z" fill="url(#linearGradient3071)"/>
    <path id="path3073" fill="url(#linearGradient3075)" d="m125.48 52.812c-0.13 0.376-1.38 4.876-1.38 4.876l0.94 1 1.56-0.626-1.12-5.25zm-12.44 11.688l-1.31 5.375 0.37 0.625 1.81 0.125 0.82-0.5-1.69-5.625zm8.44 5.188l-0.38 1.437-0.62 2.937-1.25-1.312-1.25-1.375-0.69 1.25-0.44 1.625-1-1.938-0.62 2.188-0.57 1.812 0.13 1 1.5-0.437 1.12-0.813 1.44-0.124 1.5-0.876 0.25-0.5 0.56 0.188 1.32-0.625 0.93-0.687-1.93-3.75z"/>
    <path id="path3082" d="m124.41 61.312l-0.31-3.874-0.44-0.188-0.37-3.875-1.44 2.625-0.5-0.438 0.56-5.187-2 2.5-0.31-1.063-0.12-8.187-0.69 1-1.19 2-0.25-0.5 0.19-0.75-0.94-5.125-1.5 1.812-0.06-0.75-0.81-6.624-1.32 3.062 0.32 2.062 0.56 1.188 0.94 0.562 0.06 1.25 0.5-0.062 0.12 1.438 0.69 1.25 0.69 0.437 0.62 1v1.187l0.44 1.813 0.5 1.063 0.81 0.562 0.32 0.5 0.18 1.375 1.13 2.75 1 2.75 1.06 1.875 0.5 0.812 0.31 0.563 0.63-0.187 0.12-0.626z" fill="url(#linearGradient3084)"/>
    <path id="path3086" fill="url(#linearGradient3088)" d="m111.48 19.062l-0.88 3.126-0.56 2.687 0.31 0.313 0.88 0.624 1-0.312 0.68-0.5-1.43-5.938zm-56.567 0.438l-2.375 3.625 0.187 0.813 1.563 0.874 2.437-0.25 1.063 0.813 1.812 0.563 2.125-0.188 1 0.75 1.625 0.375 1.875 0.063 0.75-0.25 1.063 0.624 1 0.188 2.375-0.188 1.062 0.813 1.438 0.563 2.75 0.374 1.375 0.438 2 0.25 0.75-0.25 1.375 0.312 1.875 0.563 2-0.5 2.312 1.187 3-0.062 1.563 0.688 2.687 0.062 1.125 0.312 1.75 0.75 3.005-0.124 1.75 0.75 3.18-0.25 1.5 0.812 1.82 0.188 0.87-0.876-2.31-3.75-1.75 2.813-2.88-3.563-2.5 3.438-2.872-4.812-2.313 3.624-2.812-4.437-2.125 3.937-2.5-5.5-2.438 4.563-2.312-5.875-2.688 4.938-2.187-5.876-2.688 5.313-2.625-6.063-2.062 4.688-2.063-5-2.312 4.438-2.563-5.126-2.437 4.188-2.125-4.562-2.5 3.812-0.875-0.312-1.75-4.688z"/>
    <path id="path3093" fill="url(#linearGradient3095)" d="m51.413 9.3125l-0.375 0.9995-1.313 5.126 1.25 0.75 1.313-0.438 0.375-0.5-1.25-5.9375zm-4 10.438l-1.125 3.75s0 0.812-0.188 1.5c-0.187 0.688-0.25 0.688-0.25 0.688l-1.25-2.188-1.437-2.125-0.438 2.187-0.562 3.5-0.25 0.563-1.875-3.187-1.625 5.437-0.813-1.5-1-1.937-1 2.812-0.375 2.188-1.562-2.75-0.938 3.624-0.562 0.5-1.938-2.75-1.062 3.563-0.563 1.437-2.062-2.624-1.563 3.562-0.625 1.875-1.562-3.187-1.813 5.624-2.437-3.687-0.875 2-0.75 2.063-0.563 1.687-0.812-1.875-0.875-2.188-1.313 5.75-0.687 0.563-2.313-3.563-1.4372 3.5-0.125 1.626-1.5625-1.563-0.125 0.625-0.125 3.312 2.1875-0.937 1.5002-0.5 1.75-1.375 0.625-0.875 2.187-0.75 1.5-1.25 2.75-0.437 1.75-1.626 2-0.5 1.375-1.937 3.25-1.313 0.938-1.5 0.875 0.126 1.375-0.438 1.312-1.188h1.563l1.062-0.937 0.813-1 1.812-0.437 0.688-0.75 0.375-0.75 1.25-0.376 1.687-1 0.938-1.124 2.062-0.626 1.063-0.812 0.687-0.25 2.688-1.312 1.25-1.188-1.313-1.875-1.562-1.875z"/>
    <path id="path3100" fill="url(#linearGradient3102)" d="m5.7253 35.25l-1.0625 3.562-0.5 1.938 0.8125 0.938h1.0625l1.25-0.813-1.5625-5.625zm2.25 15.75l-0.5 2-0.3125 1.375 0.5 1.563 1 2.5 0.625 0.624v1.313l0.5625 1.375 1.7497 0.875c-0.018-0.109-0.062-0.313-0.062-0.313l-0.313-2.312-0.5-2.938-0.8747 1.25s-0.625 0.438-0.625-0.25c0-0.687-0.1875-2.312-0.1875-2.312l-0.375-2.875-0.6875-1.875zm4.9997 9.875l-0.812 1.687s-0.375 1-0.438 0.75c-0.041-0.164-0.083-0.414-0.125-0.656l0.063 2.156 0.625 1.688 0.75 0.875h0.687l0.188 1.937 0.187 0.75 0.625 1.438 0.875 0.75 0.063 1.312 0.312 1.688 1.375 2.938 0.313 0.75 0.187 0.937 1 0.375v-4.562l-1.062 1.937-0.25-0.75-0.5-6.313-1.313 2.063 0.063-0.5v-2.437l-0.25-2.75-0.688 1-0.812 1.187-0.313-2.5 0.313-1.563-1.063-4.187z"/>
    <path id="path3107" fill-opacity=".15686" d="m20.225 69.812l-0.562 1.313-0.5 1.75-0.5 1.813 0.625 1.062 0.687 0.25 1.375-0.375v-0.813l-0.5-2.874-0.625-2.126zm3.813 11.938l-2.5 3.562v0.75l2.187 1 1.313 0.126 0.937-0.126 2.938 1.438 1.437-0.188 1.25-0.124 2.688 1.062 1.375-0.062 1-0.063 1.562 0.687h2.563l2.187 1.188 1.313 0.062h1.312l1.625 0.688 1.25 0.188 1-0.188h1l0.938 0.375 1.937 0.563 1.75-0.626 0.438 0.063 1.687 0.813 1.563 0.124 1.5-0.187 0.437 0.125 2 1.062 1 0.25 0.813-0.124 1.375-0.063 1.875 0.75 1.187 0.187h1.625l2 0.563h2.188l0.375-0.437 1.687 0.937 2.938 0.187v-1.374l-1.938-2.938-1.5 2-0.625 0.5-1.562-2.25-1.125-1.125-2.375 2.937-0.25 0.063-2.688-4.313-1.5 2.438-0.687 1.125-2.125-4.125-1.313 1.375-1.312 1.875-0.688-0.062-1.687-4.126-2.063 2.188-0.75 1.188-0.75-1.126-1.687-4.437-1.125 1.75-1.563 2.937-2.187-5.562-2.188 4.25-0.625 0.562-1.187-2.812-1.375-2.875-2.5 4.563c-0.366-1.011-0.597-2.872-1.563-5l-2.062 4.124-0.375 0.126-2.5-4.688-1.875 2.438-0.438 1.25-0.437 0.187-1.688-3.937-3.125 3.312-0.437-0.125-1.875-4.875z"/>
    <path id="path3109" fill-opacity=".15686" d="m124.41 61.312l-0.31-3.874-0.44-0.188-0.37-3.875-1.44 2.625-0.5-0.438 0.56-5.187-2 2.5-0.31-1.063-0.12-8.187-0.69 1-1.19 2-0.25-0.5 0.19-0.75-0.94-5.125-1.5 1.812-0.06-0.75-0.81-6.624-1.32 3.062 0.32 2.062 0.56 1.188 0.94 0.562 0.06 1.25 0.5-0.062 0.12 1.438 0.69 1.25 0.69 0.437 0.62 1v1.187l0.44 1.813 0.5 1.063 0.81 0.562 0.32 0.5 0.18 1.375 1.13 2.75 1 2.75 1.06 1.875 0.5 0.812 0.31 0.563 0.63-0.187 0.12-0.626z"/>
    <path id="path3111" fill-opacity=".15686" d="m111.48 19.062l-0.88 3.126-0.56 2.687 0.31 0.313 0.88 0.624 1-0.312 0.68-0.5-1.43-5.938zm-56.567 0.438l-2.375 3.625 0.187 0.813 1.563 0.874 2.437-0.25 1.063 0.813 1.812 0.563 2.125-0.188 1 0.75 1.625 0.375 1.875 0.063 0.75-0.25 1.063 0.624 1 0.188 2.375-0.188 1.062 0.813 1.438 0.563 2.75 0.374 1.375 0.438 2 0.25 0.75-0.25 1.375 0.312 1.875 0.563 2-0.5 2.312 1.187 3-0.062 1.563 0.688 2.687 0.062 1.125 0.312 1.75 0.75 3.005-0.124 1.75 0.75 3.18-0.25 1.5 0.812 1.82 0.188 0.87-0.876-2.31-3.75-1.75 2.813-2.88-3.563-2.5 3.438-2.872-4.812-2.313 3.624-2.812-4.437-2.125 3.937-2.5-5.5-2.438 4.563-2.312-5.875-2.688 4.938-2.187-5.876-2.688 5.313-2.625-6.063-2.062 4.688-2.063-5-2.312 4.438-2.563-5.126-2.437 4.188-2.125-4.562-2.5 3.812-0.875-0.312-1.75-4.688z"/>
    <path id="path3113" fill-opacity=".15686" d="m5.7253 35.25l-1.0625 3.562-0.5 1.938 0.8125 0.938h1.0625l1.25-0.813-1.5625-5.625zm2.25 15.75l-0.5 2-0.3125 1.375 0.5 1.563 1 2.5 0.625 0.624v1.313l0.5625 1.375 1.7497 0.875c-0.018-0.109-0.062-0.313-0.062-0.313l-0.313-2.312-0.5-2.938-0.8747 1.25s-0.625 0.438-0.625-0.25c0-0.687-0.1875-2.312-0.1875-2.312l-0.375-2.875-0.6875-1.875zm4.9997 9.875l-0.812 1.687s-0.375 1-0.438 0.75c-0.041-0.164-0.083-0.414-0.125-0.656l0.063 2.156 0.625 1.688 0.75 0.875h0.687l0.188 1.937 0.187 0.75 0.625 1.438 0.875 0.75 0.063 1.312 0.312 1.688 1.375 2.938 0.313 0.75 0.187 0.937 1 0.375v-4.562l-1.062 1.937-0.25-0.75-0.5-6.313-1.313 2.063 0.063-0.5v-2.437l-0.25-2.75-0.688 1-0.812 1.187-0.313-2.5 0.313-1.563-1.063-4.187z"/>
    <path id="path3117" d="m47.178 53.319l-8.216 4.54 0.433 2.422 0.346 0.908 2.94-0.778 0.087 0.994 0.259 0.303 0.259 1.038 2.033-0.605 0.173 2.032 2.378-0.778 0.346 1.254 0.216 0.086v1.341l3.157-0.735 0.13 0.735 0.086 1.254 2.595-0.433 0.086 1.081 0.173 1.298 3.46-0.39v1.817l2.422-0.649 0.345 0.735-0.129 0.735 3.07 0.044 0.173 1.383-0.043-0.778 1.989-0.173 13.059-7.092 15.006-8.476-0.26-1.254-2.162 0.044-0.13-1.73-2.897-0.043-0.778-1.384-2.422-0.389v5.578l-19.978 10.249-18.292-9.73 0.086-4.454z" fill="url(#linearGradient3119)"/>
    <path id="path3121" d="m64.028 72.226l2.018-0.183 8.133-4.342 6.116-3.486 7.522-4.342 6.36-3.547-0.122 1.162-9.235 5.259-11.191 6.299-7.461 4.281-2.201-0.244 0.061-0.857z" fill="url(#linearGradient3123)"/>
    <path id="path3125" d="m40.422 61.157c0 0.857-0.551 14.372-0.551 14.372l0.734 1.651 1.162 0.734 1.04 0.245 1.345-0.612 0.123-15.167-1.04 0.306-0.367-1.162-0.245-0.978-2.201 0.611z" fill="url(#linearGradient3127)"/>
    <path id="path3129" d="m63.416 71.737l-0.306 14.555 0.306 1.101 0.673 0.978 1.101 0.551h1.345l1.101-0.734 0.183-15.778-1.467 0.856-2.202-0.245-0.183-0.917-0.184-0.611-0.367 0.244z" fill="url(#linearGradient3131)"/>
    <path id="path3133" d="m92.159 74.489l-0.245-15.778-3.975 2.385 0.245 6.483 3.364 6.604 0.611 0.306z" fill="url(#linearGradient3135)"/>
    <path id="path3137" d="m47.332 47.397l-0.244 10.458 18.407 9.663 0.184-12.782-1.529 0.184-16.818-7.523z" fill="url(#linearGradient3139)"/>
    <path id="path3141" fill-opacity=".15686" d="m47.332 47.397l-0.244 10.458 18.407 9.663 0.184-12.782-1.529 0.184-16.818-7.523z"/>
    <path id="path3143" d="m65.495 67.273l0.184-12.415 8.317-8.867 11.619-0.367-0.061 11.681-20.059 9.968z" fill="url(#linearGradient3145)"/>
    <path id="path3147" d="m80.417 59.812s0.367-9.173-0.244-8.99c-0.612 0.184-7.889 3.486-7.889 3.486l0.305 9.357 0.428 0.061 7.4-3.914z" fill="url(#linearGradient3149)"/>
    <path id="path3151" fill-opacity=".15686" d="m80.417 59.812s0.367-9.173-0.244-8.99c-0.612 0.184-7.889 3.486-7.889 3.486l0.305 9.357 0.428 0.061 7.4-3.914z"/>
    <path id="path3153" d="m64.272 54.92l1.407-0.184 8.378-8.684 1.957-0.122 10.335-0.306 0.061-1.407-12.903 0.49-4.159 4.219-5.076 5.994z" fill="url(#linearGradient3155)"/>
    <path id="path3157" d="m85.371 62.442l10.641 19.753 0.367 4.953-0.428-0.122-1.285-1.651-3.852-7.645-2.813-4.831-2.324-3.791-2.508-5.321 2.202-1.345z" fill="url(#linearGradient3159)"/>
    <path id="path3161" fill="url(#linearGradient3163)" d="m74.179 68.863l6.299 11.558 5.749 9.969 0.795-3.119-2.752-5.26-3.425-6.604-2.813-5.076-1.468-2.936-2.385 1.468z"/>
    <path id="path3165" d="m76.87 67.884l7.4-4.28 0.979 0.856 0.55 1.039v1.162l-7.767 3.731-1.162-2.508z" fill="url(#linearGradient3167)"/>
    <path id="path3169" fill="url(#linearGradient3171)" d="m79.194 72.96l7.4-4.281 0.978 0.857 0.551 1.039v1.162l-7.461 3.241-1.468-2.018z"/>
    <path id="path3173" fill="url(#linearGradient3175)" d="m82.007 77.547l7.278-4.159 0.978 0.857 0.551 1.039v1.162l-7.706 3.486-1.101-2.385z"/>
    <path id="path3177" fill="url(#linearGradient3180)" d="m84.331 82.195l7.4-4.281 0.978 0.856 0.367 1.345-0.428 0.857-7.216 3.363-1.101-2.14z"/>
    <path id="path3182" fill="url(#linearGradient3184)" d="m86.9 86.72l7.277-4.097 0.979 0.856 0.122 1.468-7.216 3.608-1.162-1.835z"/>
    <path id="path3393" d="m58.829 36.756l14.739 7.951-9.418 10.274-11.008-4.893-6.788-3.119 12.475-10.213z" fill="url(#linearGradient3395)"/>
    <path id="path3397" d="m58.891 36.573l9.784-0.795 17.369 8.562-12.476 0.367-14.677-8.134z" fill="url(#linearGradient3399)"/>
    <path id="path3401" fill-opacity=".15686" d="m58.829 36.756l14.739 7.951-9.418 10.274-11.008-4.893-6.788-3.119 12.475-10.213z"/>
  </g>
  <g id="layer1">
    <path id="path2316" fill-rule="evenodd" d="m51.192 9.1968l-1.623 5.9912c0.453 2.462 0.385 5.025 0.406 7.531l-2.593-3.281-1.657 5.656-2.531-3.844-1.344 5.875-1.875-3.094-1.687 5.407-1.813-3.626-1.468 4.907-1.469-2.375-1.344 3.968-2.094-2.562-1.5 5.031-2.062-2.593-2.125 4.843-1.719-2.687-1.875 5.406-2.437-3.688c-0.303 1.978-1.718 4.075-2.094 5.719-0.403-1.323-0.949-2.54-1.719-3.687l-1.75 6.062-0.062 0.032h-0.032l-2.5-3.376-1.7184 4.626-1.1875-0.876 0.0312-3.781-1.5625-5.875-0.125 0.094-1.5312 5.656c-0.3054 10.513-0.9861 20.718 0.3437 31.032-0.0631 2.028 0.2587 3.642 1.7188 4.031 0.2741 1.551 0.5823 3.087 2.125 4.062-0.194 1.91 0.5281 3.602 2.0939 3.969-0.047 1.111-0.32 2.557 1.625 3.375-0.066 1.443-0.168 2.311 1.906 4.187-0.346 1.546-0.274 3.033 1.25 4.344-0.529 1.784 0.335 3.891 1.688 3.375-0.965 2.879 0.339 6.929 1.687 6.279 0.363 2 1.862 1.99 2.875 2.47 0.912 1.26 2.265 1.28 3.75 0.94 1.537 1.03 3.162 1.67 5.156 0.87 1.346 0.76 2.632 1.61 5.094 1.13 1.87 1.22 2.974 0.59 4.313 0.53 1.793 1.39 3.373 1.43 5.281 0.87 1.489 1.01 3.042 1.63 4.875 0.69 1.727 1.1 3.471 1.76 5.312 0.91 1.448 1.54 3.215 1.16 5 0.78 1.218 1.79 3.044 1.3 4.688 1.5 2.08 1.49 3.503 0.94 5.031 0.66 1.777 1.53 3.567 1.22 5.344 1.09 1.596 0.91 3.185 0.53 4.781 0.47 0.69 0.72 2.212 0.6 2.281-0.47 1.724 0.03 3.048-0.91 4.188-2.25 1.534 0.05 2.854 0.17 4.156-1.88 1.467 0.26 2.956-1.15 3.625-2.21 0.975 0.35 1.623-0.28 2.25-0.97 2.69 0.22 2.158-0.95 2.281-1.85 1.51 0.14 2.56-0.78 3.5-1.9 2.31 0.28 3.11-1.21 4.22-2.35 1.35-0.63 2.42-0.27 3.78-1.93 0.54 0.06 1.37-0.56 1.91-1.19 0.89 0.12 1.82 0.45 2.37-1.251l3.47-3.219c1.36-0.222 2.46-0.821 3.41-1.625 1.17-0.05 2.06-0.707 2.9-1.5 0.79 0.131 1.48-0.714 2.19-1.375 0.05-11.323 0.47-22.646 0.16-33.969l-1.25-5.937-0.13 0.062-1.53 4.219-0.31-3.656-1.75 2.531 0.22-5.438h-0.03l-2.07 2.219-0.25-9.125-2.03 3.032 0.03-0.969v-0.031l-1-5.407-1.37 1.813-0.97-7.375-1.34 2.593c0.02-4.114 0.55-8.229 0.06-12.343v-0.094l-1.47-5.687h-0.16c-0.45 2.175-1.46 4.257-1.47 6.437 0.23 2.325 0.23 4.667 0.25 7l-1.99-2.663-1.69 2.538-2.91-3.406-2.41 3.156-2.902-4.5-2.094 3.438-3.094-4.25-2.031 3.624-2.5-5.343-2.375 4.312-2.406-5.531-2.625 4.625-2.188-5.531-2.718 5.062-2.657-5.937-2.156 4.687-1.875-5-2.469 4.375-2.562-4.875-2.438 3.844-2.091-4.285-2.69 3.723-0.406-0.157-1.99-4.787-2.135 2.881 0.031-7-1.297-5.9815-0.33 0.0533zm0.171 0.5669l1.064 5.5873c-1.009 1.112-1.748 0.476-2.478-0.219l1.414-5.3683zm-1.17 6.0273c0.542 0.915 1.723 0.209 2.265 0.059l-0.084 7.953-0.201 18.181-1.73 1.583c0.358-6.535-0.848-13.212-0.03-19.609 0.068-0.538-0.265-1.232-0.141-1.762-0.038-1.988 0.092-4.274-0.079-6.405zm61.287 3.803l1.18 5.312c-0.75 0.422-1.46 1.107-2.34 0.032l1.16-5.344zm-63.973 0.312l2.437 3.344c-1.088 1.404-2.215 2.408-3.469 2.156-0.357-2.008 0.688-3.666 1.032-5.5zm7.408-0.068l1.383 4.56c-1.242 0.656-2.825-0.211-3.664-0.628l2.281-3.932zm-11.721 1.943l2.406 3.907c-0.464 1.53-2.436 1.59-3.218 1.531l0.812-5.438zm16.822-0.741l1.579 4.447c-1.312-0.105-2.803 0.681-3.862-0.69l2.283-3.757zm4.672 0.269l1.976 4.913c-1.644 1.311-2.945 0.222-4.321-0.344l2.345-4.569zm4.747 0.928l1.958 4.839c-0.791 0.351-3.234 0.606-4.025-0.591l2.067-4.248zm-19.46 1.732c-0.655 6.711-0.089 13.19-0.031 19.75l-2.562 2.281c-0.358-6.625-1.433-13.25-1.032-19.875 1.209-0.288 2.417-0.718 3.625-2.156zm23.732-1.783l2.339 6.554c-0.999-0.117-3.678-0.317-4.419-1.599l2.08-4.955zm-20.919 2.095c0.986 0.706 2.348 1.067 3.476 0.638 0.582 4.427-0.105 9.108-0.172 13.664l-3.398 2.823 0.094-17.125zm26.116-1.069l1.713 5.773c-1.203 0.676-2.439 0.855-3.783-0.585l2.07-5.188zm-21.991 1.882c1.454 1.838 3.345 0.833 5.051 1.03-0.271 3.256-0.285 6.77-0.425 10.157l-2.939 0.188-2.093 1.75c0.147-4.378 0.771-8.875 0.406-13.125zm55.597 0.437c1.29 3.894 0 8.203 0 12.313 0.19 6.402-0.17 12.816-0.53 19.218-0.92 0.782-1.06-0.307-1.13-1.624 0.17-7.234-1.11-15.264 0-22.25-0.41-2.508-0.66-5.154-0.41-7.626 1.01 0.613 1.46 0.155 2.07-0.031zm-28.794-1.432l2.055 5.283c-1.345 1.447-3.009 0.501-4.626-0.09l2.571-5.193zm-43.491 0.807l1.719 3.219c-0.837 1.132-1.83 1.639-3 1.437l1.281-4.656zm5.469 1.5c-0.245 6.646 0.745 13.292 1.125 19.938l-0.781 0.656 0.437 0.188c-0.445 1.574-1.379 1.52-2.312 1.468-0.922-6.916-1.675-13.833-1.281-20.75 1.055 0.327 1.915-0.72 2.812-1.5zm16.844 0.078c1.502 0.771 3.004 0.64 4.507 0.588-0.736 2.647-0.311 5.875-0.465 8.812l-4.573 0.335c0.172-3.156-0.205-6.444 0.531-9.735zm26.128-1.091l2.055 5.095c-0.959 0.96-3.355 0.122-4.313-0.731l2.258-4.364zm-20.941 1.826c0.984 1.075 2.203 0.277 3.313 0.343-0.155 3.053-0.851 6.105-0.375 9.157l-2-0.969-1.563 0.125c0.209-2.885-0.845-5.298 0.625-8.656zm3.887 0.39c1.605 2.151 3.21 1.061 4.815 1.582-0.124 3.375-0.506 6.234-0.366 10.138l-4.931-2.43c-0.433-2.978 0.286-6.186 0.482-9.29zm-34.949-0.671c0.714 0.993 1.464 1.959 1.531 3.437-0.374 1.403-1.415 1.307-2.437 1.25-0.457-1.942 0.446-3.204 0.906-4.687zm56.669 0.012c0.824 1.452 1.898 3.03 2.461 4.351-1.077 0.414-3.139 0.503-4.075-0.491-0.203-1.534 1.053-2.581 1.614-3.86zm-50.919 1.238c-0.249 6.843 0.424 13.687 1.156 20.531-0.62 1.58-1.885 1.547-3.156 1.5-1.083-6.359-0.755-13.282-1.094-19.938 1.127-0.027 2.133-0.905 3.094-2.093zm56.013-0.394l2.674 4.679c-1.06 0.114-3.769 0.118-4.563-0.86l1.889-3.819zm-21.607 1.394c1.333 0.747 2.667 1.089 4 0.562-0.112 3.92-0.806 7.607-0.281 11.781l-4.063-1.969c-0.504-3.705 0.211-6.923 0.344-10.374zm4.543 0.571c1.336 0.597 2.674 1.187 4.426 0.397-0.132 4.625-0.608 9.25-0.094 13.875l-4.773-2.35c-0.525-4.311 0.329-7.866 0.441-11.922zm22.318-0.774l2.79 3.891c-1.23 0.509-3.9 0.466-4.84-0.569l2.05-3.322zm-17.212 1.23c1.319 2.142 3.057 0.93 4.63 1.035-0.881 6.947-0.994 13.785-0.888 20.591-1.228 0.691-3.308 0.204-4.537-0.81 0.036-1.255-0.105-2.855-0.04-4.225 0.01-0.221 0.871-0.436 0.878-0.643 0.03-0.966-0.049-1.503-0.033-2.45 0.004-0.214-0.495-0.376-0.522-0.588-0.587-4.59 0.248-8.725 0.512-12.91zm-52.743-1.09l1.657 3.031c-0.285 0.817-1.652 2.03-2.594 1.532l0.937-4.563zm5.063 1.219c0.383 6.79 0.09 13.851 1.219 20.344-0.829 1.087-1.625 2.272-2.938 1.906-1.3-6.74-0.792-13.479-1.187-20.219 1.027-0.384 2.186-0.108 2.906-2.031zm-8.438 0.062l1.969 3.125c-0.948 0.815-1.747 2.667-3 1.344 0.041-2.095 0.684-2.987 1.031-4.469zm77.96-0.415l1.94 3.231c-1.52 1.601-2.49 0.421-3.53-0.353l1.59-2.878zm-16.585 1.415c0.99 1.176 2.624 0.744 4.157 0.563-0.985 7.063-1.026 14.127-0.887 21.191-1.403-0.239-2.938 0.187-4.082-1.348-0.264-6.861-0.195-13.685 0.812-20.406zm4.837 0.591c1.087 0.941 2.356 1.549 4.288 0.941-0.56 6.905-0.58 14.025-0.44 21.212-1.559-0.153-2.648 1.398-4.841-1.025-0.518-7.156-0.601-14.254 0.993-21.128zm-61.055 0.597c0.333 6.583-0.159 13.916 1.062 20.5-0.986 2.236-1.764 1.357-2.594 1.25l-1.218-20.094c1.002 0.391 1.914-0.214 2.75-1.656zm65.863 0.287c1.63 1.115 3.26 0.439 4.88 0.547-0.65 7.026-0.49 14.189-0.31 21.353-1.61 0.318-3.18 0.89-5.06-0.843-0.26-7.08-0.23-14.119 0.49-21.057zm5.51 0.681c1.12 1.05 2.23 0.63 3.35 0.626-0.62 6.998 0.08 14.157 0.09 21.156-1.63 0.799-3.05 0.886-3.97-0.719-0.29-7.064-0.69-14.136 0.53-21.063zm-80.28-0.906l1.938 2.875c-0.445 0.985-2.743 2.39-3.688 2.375 0.43-2.669 1.165-3.509 1.75-5.25zm5.532 1.813l1.25 20.187c-1.068 2.138-2.268 2.277-3.5 1.938-0.296-6.925-1.206-13.543-0.875-20.782 1.276 0.373 2.166-0.606 3.125-1.343zm82.028 0.906l0.5 5.406c-1.5 0.371-1.22-1.668-1.56-2.843l1.06-2.563zm-108.37 0.313c0.3668 1.721 0.869 3.292 1.0938 5.156-1.4181 1.315-1.828 0.666-2.1875 0.062-0.2852-2.23 0.7312-3.474 1.0937-5.218zm17.031-0.563l1.344 2.937c-0.443 1.873-1.475 2.457-2.75 2l1.406-4.937zm5.688 0.906c-0.425 6.896 0.541 13.792 0.812 20.688-0.959 2.55-2.179 2.623-3.469 2.031 0.511-6.802-0.418-13.604-0.656-20.406 1.248 0.021 2.396-0.508 3.313-2.313zm40.062 0.063l16.75 8-11.719 0.375-14.031-7.531 9-0.844zm0.094 0.437l-0.375 0.125 2.375 1.282c-0.735 0.128-1.48 0.251-2.156 0.374l-2.563-1.593-0.187 0.187 2.437 1.469c-0.969 0.175-1.944 0.327-3.094 0.469l0.219 0.218c1.206-0.126 2.2-0.303 3.188-0.5l2.875 1.719 0.187-0.062-2.781-1.719c0.67-0.136 1.418-0.296 2.156-0.438l7.969 4.313-5.844 0.313-0.156 0.281 6.531-0.313 0.594 0.313 0.062-0.313-0.062-0.031 0.719-0.031-0.219-0.313-1.031 0.063-8.125-4.344c0.2-0.037 0.35-0.089 0.562-0.125l-0.281-0.125c-0.197 0.031-0.344 0.062-0.531 0.094l-2.469-1.313zm-9.969 0.5h0.156l14.219 7.75-8.906 9.969-17.5-7.719 12.031-10zm-40.125-0.031l2.281 3.688c-0.562 1.163-2.512 2.053-3.906 1.718-0.157-2.151 1.083-3.604 1.625-5.406zm40.469 0.562l-1.5 1.344-0.531-0.281v0.156l0.406 0.25-8.625 7.719 0.094 0.312 8.687-7.937 4.531 2.594c-0.595 0.586-1.14 1.201-1.687 1.843-0.457-0.243-0.92-0.472-1.375-0.718l-0.219 0.187 1.438 0.75c-0.298 0.347-0.619 0.697-0.938 1.031l0.281 0.063c0.304-0.328 0.581-0.667 0.875-1l4.282 2.219-2.875 3.656-4.125-2.281 0.687-0.688-0.219-0.219-0.687 0.782-1.656-0.906-0.063 0.218 1.563 0.875-1.657 1.907v0.124l1.875-1.906 4.125 2.282-0.906 1.156 0.156 0.094 0.938-1.157 2.781 1.531 0.063-0.218-2.688-1.5 2.969-3.625 1.75 0.906 0.344-0.063c-0.655-0.334-1.315-0.664-1.969-1l0.875-1.062-0.25-0.25-0.906 1.156c-1.414-0.726-2.815-1.474-4.219-2.218 0.551-0.624 1.096-1.233 1.687-1.813l1.563 0.906 0.031-0.219-1.437-0.812c0.321-0.308 0.646-0.628 1-0.906l-0.063-0.25c-0.438 0.297-0.845 0.642-1.219 1l-4.531-2.594 1.406-1.281-0.062-0.157zm53.942 1.344c0.09 1.913 0.83 2.369 1.46 3.063 0.55 7.064-0.15 13.63-0.25 20.437-2.89-0.558-1.15-3.076-1.62-4.656 0.26-6.246 0.68-12.463 0.41-18.844zm-88.317-0.156c0.313 6.829 1.503 13.407 0.781 20.531-0.95 1.689-2.076 1.793-3.187 2.031 0.616-6.843-0.307-13.687-0.469-20.531l0.062-0.031 0.032-0.031c1.03-0.087 2.074-0.1 2.781-1.969zm-9.875 0.031c0.274 0.885 0.991 3.116 1.344 3.969-0.532 0.813-1.266 1.422-2.625 1.406l1.281-5.375zm101.65 1.875l0.85 4.906c-1.53-0.167-1.88-1.661-1.88-3.218l1.03-1.688zm-95.34 0.438c0.254 6.88 1.179 13.626 0.688 20.656-0.709 1.135-1.393 2.335-2.75 1.688-0.563-6.823 0.095-13.341-1.688-20.469 1.582 0.699 2.655-0.632 3.75-1.875zm-14.031 0.312c0.0684 4.002-0.3606 8.273-0.2813 12.344 0.1395 7.155 0.1739 14.321-0.25 21.219-1.5198-0.053-1.8364-1.279-1.5937-3.094-1.5693-10.204-0.7009-20.364-0.4375-30.25 0.6643 0.453 1.4302 0.616 2.5625-0.219zm3.1879 0.125l2.218 3.313c-0.293 1.866-2.088 2.068-3.1872 2-0.6244-2.078 0.675-3.694 0.9692-5.313zm46.25 1.594c-1.267 1.283-2.882 3.027-4.219 4.125l0.094 0.156c1.681-1.018 2.885-2.747 4.281-4.125l-0.156-0.156zm58.653 0c0.04 1.624 0.8 2.726 1.97 3.5-0.74 5.851-0.76 13.114-1 19.469-1.67 0.274-1.71-1.222-1.56-2.906 0.2-6.69 0.67-13.512 0.59-20.063zm-98.403-0.156c1.632 6.885 1.145 13.771 1.718 20.656-0.954 2.23-2.328 1.65-3.593 2.063-0.386-6.969-0.217-13.938-1.157-20.907 1.2 0.059 2.164-0.71 3.032-1.812zm50.968 0.531l-0.218 0.219c0.638 0.499 1.37 0.947 2.093 1.375l-1.812 2.468 0.187 0.25 1.813-2.624c0.383 0.227 0.768 0.447 1.125 0.687l-0.063-0.219c-0.32-0.196-0.625-0.416-0.937-0.625l0.469-0.687-0.094-0.156-0.563 0.75c-0.68-0.46-1.341-0.948-2-1.438zm51.535 0.656l0.12 6.906c-1.49 0.046-1.54-2.002-1.81-3.718l1.69-3.188zm-33.003 0.375l-0.032 1.031-12.281 0.376-8.219 8.562-1.156 0.219 9.031-9.625 12.657-0.563zm-73.219 0.625c1.125 5.438 0.958 12.753 1.187 20l-1.343-4.594-1.094 2.25-1.063-6.062-1.1247 1.219-0.375-4.438c-0.0625-1.781 0.0625-3.875 0-5.656 1.3837-0.624 2.7557-1.278 3.8127-2.719zm-5.7189-0.25l1.4062 2.313 0.0313 0.031c-0.4065 0.561-0.8649 0.863-1.4375 0.594v-2.938zm78 0.875l-0.031 2.063c-6.504 2.6-12.95 5.125-19.531 7.531v-0.375l2.312-2.469 16.344-6.656-0.063-0.063 0.969-0.031zm-1.437 0.063l-15.594 6.468 2.969-3.156 7.281-3.156 5.344-0.156zm-5.782 0.156l-6.593 2.875 1.687-1.781 2.281-1 2.625-0.094zm-2.781 0.094l-1.844 0.687 0.625-0.656 1.219-0.031zm-28.594 1.218l0.125 0.063 0.032 0.219-0.157-0.282zm0.813 0.376l16.5 7.437v0.031l0.094 0.032 0.031-0.063 1.187-0.094v0.938l-17.875-7.75v-0.469l0.063-0.062zm-0.313 0.25l-0.187 4.5-0.031 0.031 0.031 0.031-0.031 0.656-8.25 4.75 0.468 2.532c0.032-0.007 0.062-0.025 0.094-0.032l0.125 1 0.781-0.218-0.5 14.437c1.212 3.049 3.587 3.221 4.532 1.906 0.063-3.978 0.259-12.971 0.218-15.031l0.657-0.25c-0.024 0.23-0.034 0.433 0.093 0.531l0.094 1.563 2.5-0.75 0.313 1.187h0.062l0.094 1.407 3.125-0.688 0.156 0.688h0.031l0.032 1.218 2.5-0.312 0.062 1.062h0.094l0.094 1.188 3.437-0.375v0.656h0.063l0.062 1.375 2.5-0.781 0.156 0.531 0.063 1 2.469-0.062-0.313 14.937c1.166 2.877 3.734 3.139 4.875 1.5l0.344-15.75 5.969-3.375 6.562 11.844-1.281 5.031c0.356 2.881 0.356 5.789 0.375 8.687l-1.781-2.968-2.094 2.562-2.656-3.468-2.657 3.218-2.875-4.468-2.125 3.437-2.156-3.937-2.969 3.312-1.843-4.531-3.032 3.531-2.406-5.562-2.594 4.593-2.187-5.5-2.75 5.063-2.625-5.938-2.188 4.688-1.843-5-2.5 4.344-2.532-4.844-2.468 3.844-1.719-4.126-3.438 3.719-2.062-5.187-2.594 3.5 0.031-9.594v-0.062l-1.25-5.688-0.25-0.031c-0.619 2.006-1.313 4.13-1.656 6.125l-0.656 1.75-0.688-7.156-1.156 1.968-0.25-5.562-0.156-0.094-1.313 2.156-0.125-1.875 0.907-0.875c2.003 0.189 3.204-0.918 4.375-1.937 1.253 0.484 2.051-1.081 3-1.969 1.37 0.21 2.499-1.508 3.718-2.5 1.576 0.101 2.747-0.811 3.657-2.375 1.395 0.77 2.791-0.998 4.187-2.094 1.154 0.496 2.167-0.559 3.156-1.875 1.644 0.16 2.373-1.28 3.407-2.187 1.357 0.25 2.407-0.723 3.437-1.781 1.13 0.066 2.171-0.135 2.969-1.063v0.063l0.312-0.25zm38.063 0.062v1.75l-4.906 1.938-0.032-1.157-8.437 3.563 0.062 0.937-6.218 2.438v-2l0.062 0.031c6.619-2.477 12.932-4.844 19.469-7.5zm-37.813 0.281l17.875 7.844v1.469l-17.906-7.563 0.031-1.75zm-39.062 0.25c0.6466 0.987 0.2928 2.723 0.3438 4.157l-0.7813-1.938-0.6875 2.438 0.0313-4.313 1.0937-0.344zm109.1 0.469c-0.01 1.341 0.8 2.112 1.78 2.75-0.36 5.939-1.77 12.149-1.44 18.5-0.71 0.262-2.06-1.323-1.37-3.312 0.34-5.978 0.15-12.231 1.03-17.938zm-32.222 0.969l-0.031 2.062-4.782 2-0.093-2.156 4.906-1.906zm-37.844 0.281l17.906 7.438v2.5l-17.906-7.688v-2.25zm74.246 0.688l-0.59 4.843-1.03-2.625 1.62-2.218zm-41.84 0.343l0.375 8.375-7.187 3.813-0.375-9.188 7.187-3zm-71.875 0.188c0.9266 1.996 0.7682 4.379 0.9375 6.375-0.6179-1.085-1.3519-2.09-1.4062-3.625l0.4687-2.75zm77.562 0.447l2.063 0.24 0.532 1.313-2.423 1.316-0.172-2.869zm-0.28 0.272l-0.032 2.124-4.687 2.063-0.063-2.219 4.782-1.968zm2.937 0.062l2.435-0.051c1.16 0.526 1.836 1.708 4.761 1.226 1.308 0.735 2.175 2.23 5.17 1.281 1.66 0.442 3.01 1.291 5.61 0.537 1.08 1.385 2.7 1.132 4.34 0.851-0.15 1.494 0.89 1.485 1.56 1.656-0.64 5.067 1.02 4.361 2.09 5.375-0.7 2.037 1.02 3.753 1.69 3.906-0.35 1.849 0.53 3.17 1.88 4.313l-0.88 2.375-1.06-1.594-1.06 3.531 0.03-5.5-1.57-5.844h-0.18l-1.5 5.907c0.33 1.256 0.28 2.582 0.31 3.875l-1.66-1.469-0.62 3.094-1.91-2.188-2.03 3.969-1.72-2.375-1.78 3.875-1.69-1.656-1.435 2.562v-0.718l-1.375-5.876-0.125-0.062-1.718 5.812c-0.019 0.828 0.018 1.631 0.062 2.438l-3.594-6.719v-0.031l-0.093-16 2.125-1.188v-1.124l-0.5-1.376-1.907 0.032-0.375-1.75-2.781-0.032-0.5-1.062zm-40.781 0.406l17.937 7.782-0.031 2.593-17.906-8.812v-1.563zm78.157 0.563l0.75 4.593c-0.7 0.764-1.28 0.369-1.84-0.124l1.09-4.469zm-6.13 0.219l0.82 2.937v0.031l0.03 0.032 0.59 1.218c-0.34 5.208-1.28 9.673-1.03 15.625-0.58-0.734-1.46-1.321-1.53-2.312-0.26-6.096 0.74-11.693 1.12-17.531zm-28.277 0.156l0.125 1.687c-9.359 4.781-18.621 10.026-27.938 15l-2.593 0.219 0.062-1.562 2.719-2.157 1.875 1 0.031-0.062 20.252-10.247-0.009-2.228 2.726-1.619 2.75-0.031zm-44.156 0.031l-0.125 2.5-4.438 3.156-3.031 0.688-0.125-1.938 7.719-4.406zm76.283 0.437c-0.13 1.931 0.68 2.922-0.47 5.876-0.42-0.974-1.28-1.266-1.19-3v-0.032l0.03-0.156 1.63-2.688zm-116.19 0.063c0.0391 1.933 1.1374 3.44 1.7188 5.156-0.1025 6.541-0.8416 12.918-0.4063 19.781-1.5456 0.04-1.7738-2.425-1.4375-3.406 0.2674-7.067 0.5457-14.12 0.125-21.531zm40.313 0.313l17.906 8.781v2.406l-17.937-9.063 0.031-2.124zm37.812 0.031l-0.031 1.719-4.594 2.218-0.062-1.875 4.687-2.062zm-13.25 0.75l0.125 2.281-6.375 2.656 0.032-2.468 6.218-2.469zm21.688 0.062l0.187 1c-9.192 5.253-18.299 10.823-27.875 15.375l-2.031 0.282 0.031-1.344c8.935-5.219 18.089-10.67 27.657-15.094l2.031-0.219zm-8.469 1.063v0.875l-4.531 2.281-0.031-0.938 4.562-2.218zm8.719 0.281l0.125 0.75-27.719 15.687c-0.031-0.167-0.038-0.714-0.062-0.874l27.656-15.563zm-46.531 0.031l17.937 9.125v1.438l-17.937-9.438v-1.125zm-0.5 0.063l-0.063 1.125 1.469 0.781-3.063 2.125-2.25 0.719-0.218-2.031 4.125-2.719zm-36.282 0.687l0.782 4.875c-0.824-0.302-1.986-0.776-1.9067-2.656-0.0057-1.222 0.7127-1.52 1.1247-2.219zm61.5 0.188l0.157 2.5-6.532 2.906v-2.781l6.375-2.625zm49.22 0.687l1.19 2.75-0.82 8.344-0.03 0.437-0.34-0.124-1 3.906c-0.48-5.787 0.66-10.207 1-15.313zm3.25 0.313c0.26 0.57 0.92 0.56 1.75 0.281 0.53 11.055 0.02 22.101 0.03 33.156-0.51 0.678-1.04 1.268-1.87 1.125 0-0.121 0.57-12.683-0.32-19.281-0.74-5.168 0.75-10.463 0.41-15.281zm-75.907 0.218l2.031 1.094-3.031 2.125-2.125 0.625v-1.75l3.125-2.094zm43.094 0.157l0.093 15.062-3.656-6.843-0.062-6.157 3.625-2.062zm32.123-1.094l0.22 3.689c-0.43 0.517-0.72 0.246-0.87-0.799l0.65-2.89zm-81.623 1.781l0.156 0.719-2.469 0.687-0.062-0.781c0.798-0.188 1.587-0.397 2.375-0.625zm-33.125 0.282c0.2221 2.771 1.2874 1.985 1.9374 2.937-0.352 6.445-0.957 14.254-0.656 19.937-1.4464 0.6-1.9659-1.701-1.4064-3.093-0.7469-6.963-0.2243-13.257 0.125-19.781zm42.031 0.218l2.906 1.563-2.687 2.281-3.032 0.562-0.375-2.374 3.188-2.032zm21.094 0.063l0.125 2.156-6.688 3.219 0.031-2.469 6.532-2.906zm-29.782 0.406l0.188 0.906h0.094l0.375 1.5 1.093-0.437-0.25 14.968c-1.313 1.045-3.388 0.076-3.843-2.187l0.531-14.281 1.812-0.469zm45.344 0.563l0.219 5.718-2.375-4.5 2.156-1.218zm35.091 0.031c0.2 0.486 0.18 1.408 0.91 0.843 0.02 0.54 0.05 0.936 0.06 1.563 0.02 0.856-0.23 1.897-0.22 2.875l-0.28 6-1.25-2.594 0.78-8.687zm-77.778 0.093c0.096 0.069 0.068 0.293 0.031 0.532l-1.719 0.468-0.062-0.843 1.75-0.157zm-32.157 0.032c0.213 1.813 1.225 3.771 0.282 5.375-0.684 0.726-1.036-1.43-1.407-2.375-0.25-1.266 0.829-2.062 1.125-3zm41.563 0.625l2.5 1.343-2.813 2.157-2.312 0.312-0.156-1.593 2.781-2.219zm-7.219 0.562c0.092 0.006 0.179 0.031 0.25 0.063l0.156 0.562-2.156 0.813 0.063-1.125c0.479-0.061 1.204-0.345 1.687-0.313zm25.063 0l0.062 1.125-6.75 3.406v-1.312l6.688-3.219zm12.843 0.125l10.657 19.656c0.099 1.462 0.213 2.913 0.25 4.376h-0.032l-1.281-1.407 0.469-0.312c0.424-0.547 0.729-2.446-1.156-2.407l-0.407 0.313-1.062-1.906 0.437-0.531c0.255-1.13-0.168-2.198-1.218-2.563l-0.625 0.313-0.719-1.5 0.219-0.126-0.219-0.468c0.485-1.132-0.346-1.932-1.313-2.656l-0.468 0.25-1.032-1.657 0.219-0.406c0.289-1.014 0.029-2.282-1.281-3.063l-0.688 0.438-0.718-1.812 0.593-0.407c0.42-1.399-0.464-2.274-1.562-3.437l-0.875 0.531-0.063-0.156 1.875-1.063zm-27.718 0.906l3.062 1.626-2.781 2.468-3.094 0.219-0.031-2.156 2.844-2.157zm25.406 0.407l0.094 0.125-6.125 3.625-0.157-0.281 6.188-3.469zm1.094 0c1.183 0.217 1.698 1.478 1.656 2.593l-7.75 3.626-0.906-2.219 7-4zm-32.813 0.531l0.188 0.812-2.688 0.563-0.094-1.125 2.594-0.25zm-39.625 0.438c0.159 2.159 1.234 2.442 1.813 2.624-1.268 5.783-0.974 12.61-1.375 18.5-0.519 1.17-1.624-0.729-1-2.531-1.1175-5.113 0.215-12.538 0.562-18.593zm101.53 0.187l1.41 4.625c-0.94 1.129-1.88 0.759-2.57 0.125l1.16-4.75zm-52.125 0.281l2.157 1.156-2.719 2.157-2 0.687-0.25-1.875 2.812-2.125zm-6.937 0.594l0.062 0.719-2.187 0.343 0.031-0.906 2.094-0.156zm-38.594 1.25c0.228 1.574 0.422 3.145 0.188 4.719-0.897-0.409-1.421-1.142-1.375-2.375 0.009-0.908 0.795-1.564 1.187-2.344zm69.313 0.094l0.843 1.875-6.281 3.312-1-2.062 6.438-3.125zm-8.344 0.281l10.469 19.656-0.75 2.594c-4.414-7.16-7.986-14.151-11.625-21.156l1.906-1.094zm-18.625 0.375v0.531l-2.875 0.469 0.031-0.875 2.844-0.125zm-44.125 1c0.316 1.379 0.656 2.73 1.781 3.531-0.675 5.854-1.317 11.698-1.531 17.781-0.753-0.088-2.054-1.309-1.5-2.624 0.419-6.105-0.541-13.155 1.25-18.688zm72.875 0.188c0.585-0.122 1.504 1.274 1.156 2.562l-7.125 3-0.969-1.875 6.938-3.687zm-26.344 0.093l0.188 0.625-2 0.563c-0.019-0.279 0.108-0.699-0.063-0.907l1.875-0.281zm61.216 0.719c0.5 1.106 1.67 2.36 1.47 3.312-0.63 0.504-0.85 1.554-2.15 1.157-0.27-1.573 0.45-2.98 0.68-4.469zm-101.28 0.375c0.35 1.641 1.107 2.976 1.031 4.937-0.618 0.223-1.021 1.09-2.063-0.062-0.408-1.956 0.686-3.248 1.032-4.875zm91.718 0.063c0.68 0.421 1.71 0.717 2.56 0.124 0.45 10.151-0.16 19.859-0.25 29.778-0.39 0.36-0.73 0.84-1.47 0.41 0-0.06 0.25-7.67 0.25-14.969 0-3.665-0.31-7.133-0.37-10.031-0.09-0.954-0.39-0.889-0.47-1.719-0.08-0.868 0.07-2.608-0.25-3.593zm-50.875 0.312l2.219 0.031c-0.085 0.281 0.262-0.086 0.406-0.031v0.562l0.063-0.156v0.25h-0.063v-0.031c-0.017-0.001-0.06 0.019-0.093 0.031l-2.594-0.031 0.062-0.625zm-44 0.188c0.056 1.944 0.494 4.153 0.219 6.593-0.575-0.902-1.466-2.115-1.156-4.343 0.009-0.949 0.61-1.514 0.937-2.25zm46.625 0.718h0.094l0.031 0.532h0.063l0.062 0.968 2.219 0.313 1.438-0.813-0.188 15.563c-1.166 0.752-3.19 1.37-4.062-1.813l0.343-14.75zm54.44 0.125c0.71 0.96 1.74 1.574 1.84 3.219-0.67 0.897-1.54 0.687-2.37 0.719-0.8-1.895 0.29-2.782 0.53-3.938zm-53.94 0.438l1.875 0.125 0.063-0.032 0.031 0.813-1.906-0.156-0.063-0.75zm22.844 0.093l1.125 1.813-6.125 3.25-1.094-2.187 6.094-2.876zm28.936 0.376c0.37 1.118 1.22 1.157 1.06 3.468-0.68 0.638-1.37 0.873-2.06 0.844-0.09-1.438 0.65-2.875 1-4.312zm-5.47 0.656c0.96 0.668 1.78 1.376 1.94 2.5-0.73 0.591-1.46 1.316-2.19 0.906-0.1-1.18-0.1-2.34 0.25-3.406zm-94.716 0.25c-0.13 1.905 0.776 2.937 1.281 4.312-1.245 5.3-1.122 11.147-1.687 16.719-0.909-0.364-1.052-2.729-0.906-4.5-0.047-5.726 0.3-11.276 1.312-16.531zm108.04 0.312c1.11 6.928 0.23 12.942 0.34 19.406-0.71 0.698-1.33 1.66-2.44 1.25-0.29-6.51-0.14-12.8-0.87-19.531l2.97-1.125zm-15.91 0.094c0.69 1.152 1.63 1.659 2.06 3.469-1.11 1.172-2.51 0.732-3.84 0.719-0.01-1.594 1.17-2.8 1.78-4.188zm-18.813 0.062c1.106 0.207 1.364 1.087 1.25 2.188l-7.125 3.469-0.938-2 6.813-3.657zm8.625 0.094l1.093 5.469c-0.84-0.174-1.586 0.427-2.531-0.687l1.438-4.782zm22.658 1.094c0.91 7.671 0.6 12.917 0.9 19.375-1.06 1.437-2.25 1.43-3.18 1.625l-0.47-19.75c0.91-0.266 1.83-0.141 2.75-1.25zm-101.35 0.344c0.828 1.137 1.494 0.337 2.219 0.344 0.34 10.679-0.169 20.523-0.25 30.782-0.796 0.27-1.542 0.37-1.875-1.56-0.897-8.769-0.373-14.981 0.437-23.004-0.722-1.966-0.578-5.125-0.531-6.562zm85.096 0c0.45 1.005 1.18 1.78 1.31 3-0.95 1.275-1.82 1.53-2.66 1.312-0.18-1.645 0.9-2.878 1.35-4.312zm-85.377 0.468c0.022 0.501 0.012 2.959 0.031 3.532-0.666 0.276-1.179-0.082-0.875-1.344l0.844-2.188zm98.347 0.376l0.53 20.374-2.91 2.813c0.04-7.35 0.51-14.485 0.1-22.063 0.76-0.262 1.52-0.319 2.28-1.124zm-4.75 0.156c0.35 2.671 0.31 5.897 0.31 9.062 0 7.323-0.38 15.034-0.38 15.034-0.61 0.68-1.12 0.98-1.53 1.25-0.16-7.99 0.44-15.983-0.5-23.971 0.48-0.048 1.96-0.767 2.1-1.375zm-22.441 0.344l0.906 1.593-6.406 3.219-0.906-1.719 6.406-3.093zm10.841 0.812c0.47 0.809 1.64 1.347 1.38 2.469-1.59 1.587-2.091 1.134-2.94 1.343 0.143-1.844 1.01-2.581 1.56-3.812zm9.1 0.406c1.03 7.859 0.32 15.914 0.43 23.874-1.07 1-2.21 1.66-3.62 1.53 0-0.71 0.16-5.984 0.12-11.498-0.18-4.363 0.12-8.785-0.46-13.124 1.17-0.192 2.35 0.432 3.53-0.782zm-92.347 0.25c0.015 0.97 0.16 1.784 0.875 1.938-0.5 5.682-1.709 11.776-1.563 17.781-1.369 0.791-1.215-1.018-1.093-2.75 0.532-4.514-0.059-12.098 1.781-16.969zm74.344 0.094c0.772-0.052 1.091 0.667 1.031 2.031l-7.219 3.531-0.969-1.843 7.157-3.719zm14.153 0.281c0.45 4.225 0.18 9.067 0.22 13.313 0.04 5.92-0.12 11.786-0.12 11.786-1.01 0.72-1.3 2.94-3.44 1.9 0.06-8.26 0.79-17.005 0.19-25.155 1.13 0.259 2.71-0.494 3.15-1.844zm-9.81 0.657c1.159 1.086 1.464 0.471 2.188 0.687 0.627 9.434 0.041 19.271 0.062 28.905-0.194 1.49-0.955 0.83-1.593 0.66 0.292-0.06 0.687-14.141 0.062-21.44-0.328-2.423-0.844-5.94-0.719-8.812zm-77.593 1.218c0.105 0.56 0.508 1.164 0.562 1.563-0.799 6.658-1.088 15.229-0.375 22.251-1.653 2-1.625-3.44-1.469-4.814-0.435-6.082 0.762-13.148 1.282-19zm83.223 0.438c1.41 7.835 0.33 16.995 0.28 25.286-1 1.41-2.167 1.13-3.16 1.06l0.125-25.252c0.927-0.334 1.825 0.368 2.755-1.094zm-20.973 0.094l0.468 0.843c0.41 1.211 0.875 2.409 0.875 3.75-1.255 1.182-1.752 0.491-2.406 0.219 0.083-1.877 0.67-3.247 1.063-4.812zm11.687 0.031l1.063 1.781-6.719 3.5-1.031-2.125 6.687-3.156zm-68.437 0.781l1.625 4.75c-1.212 0.245-3.366 0.229-3.907-1.094l2.282-3.656zm57.593 0.719l4.313 7.781-0.531 1.938-1.625-2.25-1.282 3.437 0.032-7.656-0.907-3.25zm12.782 0.375c0.693-0.101 1.112 1.148 0.5 1.812l-0.25 0.125-0.75-0.843-0.25 1.312-1.782 0.844-0.968-1.344-0.532 2.031-2.5 1.188h-0.031l-0.031-0.031-0.063-0.094-0.062-0.094-0.625-0.688 0.031-0.093 0.594 0.781-0.594-1.031 7-3.75c0.108-0.076 0.213-0.111 0.313-0.125zm-64.938 0.656l1.375 3.906c-1.522 0.961-2.927 0.795-4.219-0.781l2.844-3.125zm4.344 0.031l2.625 4.844c-1.721 0.88-3.25 0.465-4.625-0.844 0.047-1.701 1.332-2.67 2-4zm5.094 0.438c0.455 1.689 1.06 3.029 1.343 5.062-0.801 0.355-2.397 0.491-3.312-0.406 0.236-1.835 1.32-3.096 1.969-4.656zm55.281 0.469c0.495 1.001 1.422 1.886 1.469 3-0.577 1.593-1.319 0.724-2 0.843-0.268-1.389 0.351-2.566 0.531-3.843zm-51.313 0.187c0.755 1.822 2.492 3.647 2.25 5.469-1.661 1.086-3.313-0.081-4.187-0.813 0.524-2.241 1.298-3.103 1.937-4.656zm5.344 0.687c0.625 1.904 1.787 3.892 1.875 5.688-2.008 1.051-2.971 0.17-3.969-0.688-0.008-2.022 1.387-3.334 2.094-5zm42.875 0.094c0.618 1.082 1.467 1.777 1.844 3.219-0.841 1.633-1.798 2.262-2.875 1.656-0.321-1.624 0.688-3.251 1.031-4.875zm2.438 0.469l-0.375 1.969-0.969-1.313 1.344-0.656zm-40.438 0.219c0.638 1.822 1.572 3.343 1.906 5.468-1.062 0.517-3.312 0.631-4.375-0.437 0.443-1.969 1.618-3.369 2.469-5.031zm-31.531 0.094c2.222 1.671 2.892 0.747 4.187 0.874 0.279 7.103-0.433 13.918-0.812 20.908-1.523 0.75-2.511-0.09-3.469-1.03 0.05-6.92 0.665-13.836 0.094-20.752zm58.125 0c0.533 0.479 1.327 0.568 2.437 0.124 0.073 10.115-0.131 20.708-0.187 31.058-0.129 0.9-0.784 0.73-1.719 0 0.043-4.82-0.101-16.17-0.094-20.995 0-0.912 0.039-1.525 0.094-1.969-0.445-2.54-0.368-5.577-0.531-8.218zm7.469 1.093c0.677 1.191 2.211 2.372 2 3.563-0.721 1.139-1.198 2.592-3.157 2.156-0.432-1.906 0.746-3.813 1.157-5.719zm-60.938 0.031c1.568 1.345 3.224 1.241 4.906 0.876 0.924 7.687-1.151 13.732-0.937 20.502-1.77 1.33-3.155 0.05-4.594-0.82 0.385-6.85 0.9-13.703 0.625-20.558zm63.969 0.188l-0.594 2.281-0.062 0.031-1.25-1.406 1.906-0.906zm-58.563 0.875c1.434 0.876 2.993 1.025 4.657 0.75-1.206 7.568-0.882 14.035-1 20.785-1.827 0.74-3.149-0.39-4.532-1.32-0.255-6.92 1.689-12.715 0.875-20.215zm64.532 0c0.619 6.86 0.66 13.845 0.218 20.935-1.18 1.81-1.409 1.33-1.968 1.44-0.126-7.12 0.103-14.908-0.563-21.812 0.913 0.253 1.513-0.066 2.313-0.563zm-37.594 0.063c0.431 1.214 1.129 2.616 1.25 3.624-1.429 0.87-3.022 0.39-3.875-0.812 0.866-1.744 1.759-1.901 2.625-2.812zm34.812 0.406c1.029 7.201 0.727 14.616 0.563 21.816-0.854 1.47-1.726 2.9-3.156 1.84-0.203-7.15 0.589-14.176-0.594-21.469 0.902-0.213 1.616 0.145 3.187-2.187zm-56.343 0.406c1.093 0.715 2.187 0.49 3.281 0.438-0.872 6.742-0.537 13.892-0.781 20.842-1.679 0.9-2.719 0.2-3.719-0.59 0.125-6.93-0.001-13.872 1.219-20.69zm26.25 0.062l2.156 4.063c-0.691 0.43-2.74 1.492-4.063-1.063 0.631-1.975 1.276-2.005 1.907-3zm-22.282 0.5c1.265 1.16 2.798 1.246 4.407 1.032-0.919 6.746-0.939 13.506-0.594 20.246-1.47 0.38-2.815 1.5-4.719-0.62 0.275-6.89-0.298-13.98 0.906-20.658zm26.719 0.157c0.963 1.407 2.234 2.812 2.563 4.219-1.238 0.222-2.343 1.004-4.125-0.844-0.075-1.48 1.044-2.251 1.562-3.375zm16.219 0.687c0.43 0.956 1.728 1.7 1.281 2.875-0.751 1.069-1.594 1.912-2.812 1.813 0.071-2.118 1.014-3.128 1.531-4.688zm-37.781 0.313c1.148 1.471 2.608 0.761 3.968 0.75-0.212 6.691-1.486 12.851-0.468 20.151-1.396 0.92-2.792 0.98-4.188-0.74-0.559-6.95-0.367-13.678 0.688-20.161zm27 0.062c0.792 1.127 1.969 2.106 2.25 3.438-0.989 1.598-3.074 0.735-4.625-0.031 0.196-1.422 1.563-2.292 2.375-3.407zm16.5 0.407c1.3 6.982 0.455 14.232 0.687 21.342-1.391 2.33-2.612 2.36-3.687 1.78-0.158-7 0.698-13.81-0.532-21.029 0.9 0.187 1.932-0.061 3.532-2.093zm-38.907 0.374c1.385 1.33 2.878 0.773 4.375 0.188-0.542 6.998-0.567 13.93-0.187 20.81-1.778 1.2-3.216 0.25-4.656-0.68-1.467-6.87 0.198-13.557 0.468-20.318zm27.188 0.126c0.531 1.207 1.545 1.813 1.594 3.624-1.266 0.485-2.423 0.468-3.344-0.656-0.192-1.217 1.163-1.974 1.75-2.968zm-22.125 0.187c1.308 1.582 3.282 0.849 4.812 0.563-0.662 6.7-0.978 14.032-0.718 20.842-1.533 1.09-2.916 0.69-4.219-0.53-1.015-7.07-0.732-14.153 0.125-20.875zm5.375 0.937c1.329 1.116 2.972 1.367 4.531 0.876-0.656 6.922-0.88 14.052-0.906 21.192-1.389-0.18-2.654 0.95-4.25-1.41-0.671-7-0.663-14.122 0.625-20.658zm24.469 0.75c1.582 6.568 0.674 14.758 0.343 21.468-1.14 1.42-2.368 1.64-3.625 1.66l-0.062-20.909c0.874-0.349 2.14-0.55 3.344-2.219zm-19.469 0.25c1.242 0.96 2.582 1.034 3.937 0.969-0.293 6.869-0.812 13.929-0.343 20.909-1.578 0.38-3.177 0.97-4.532-0.88-0.307-7.15 0.353-14.07 0.938-20.998zm4.437 1c1.511 0.479 3.021 0.855 4.532 0.313-1.193 7.365-0.146 14.555-0.313 21.655-1.379 0.57-3.006-0.03-4.5-1.19-0.681-6.82 0.141-13.85 0.281-20.778zm5.188 0.5c1.307 0.9 2.599 0.804 3.906 0.813-0.379 6.905 0.027 14.015 0.063 21.035-1.579 1.01-3.035 0.29-4.5-0.75 0.047-7.01-0.696-13.8 0.531-21.098z"/>
  </g>
  <metadata>
    <rdf:RDF>
      <cc:Work>
        <dc:format>image/svg+xml</dc:format>
        <dc:type rdf:resource="http://purl.org/dc/dcmitype/StillImage"/>
        <cc:license rdf:resource="http://creativecommons.org/licenses/publicdomain/"/>
        <dc:publisher>
          <cc:Agent rdf:about="http://openclipart.org/">
            <dc:title>Openclipart</dc:title>
          </cc:Agent>
        </dc:publisher>
      </cc:Work>
      <cc:License rdf:about="http://creativecommons.org/licenses/publicdomain/">
        <cc:permits rdf:resource="http://creativecommons.org/ns#Reproduction"/>
        <cc:permits rdf:resource="http://creativecommons.org/ns#Distribution"/>
        <cc:permits rdf:resource="http://creativecommons.org/ns#DerivativeWorks"/>
      </cc:License>
    </rdf:RDF>
  </metadata>
</svg>
