<?xml version="1.0"?>
<svg xmlns:rdf="http://www.w3.org/1999/02/22-rdf-syntax-ns#" xmlns="http://www.w3.org/2000/svg" xmlns:cc="http://creativecommons.org/ns#" xmlns:xlink="http://www.w3.org/1999/xlink" xmlns:dc="http://purl.org/dc/elements/1.1/" xmlns:svg="http://www.w3.org/2000/svg" id="svg2" viewBox="0 0 128 128" version="1.0">
  <defs id="defs4">
    <linearGradient id="linearGradient2338">
      <stop id="stop2340" stop-color="#b1b1b1" offset="0"/>
      <stop id="stop2342" stop-color="#e4e4e4" offset="1"/>
    </linearGradient>
    <linearGradient id="linearGradient2320">
      <stop id="stop2322" stop-color="#6a3c1d" offset="0"/>
      <stop id="stop2324" stop-color="#8f5127" offset="1"/>
    </linearGradient>
    <linearGradient id="linearGradient3415">
      <stop id="stop3417" stop-color="#1a1a1a" offset="0"/>
      <stop id="stop3419" stop-color="#2b2b2b" offset="1"/>
    </linearGradient>
    <linearGradient id="linearGradient3819" x1="29.484" xlink:href="#linearGradient2338" gradientUnits="userSpaceOnUse" x2="50.25" y1="68.344" y2="95.381"/>
    <linearGradient id="linearGradient3823" x1="69.875" xlink:href="#linearGradient2338" gradientUnits="userSpaceOnUse" x2="99.125" y1="91.375" y2="55.125"/>
    <linearGradient id="linearGradient3827" x1="59.844" xlink:href="#linearGradient2338" gradientUnits="userSpaceOnUse" x2="65.662" y1="61.229" y2="24.562"/>
    <linearGradient id="linearGradient3049">
      <stop id="stop3051" stop-color="#cfc7a9" offset="0"/>
      <stop id="stop3053" stop-color="#eeebe0" offset="1"/>
    </linearGradient>
    <linearGradient id="linearGradient4169" x1="58.999" xlink:href="#linearGradient3049" gradientUnits="userSpaceOnUse" x2="67.197" y1="105.48" y2="96.003"/>
    <linearGradient id="linearGradient4173" x1="50.094" xlink:href="#linearGradient3049" gradientUnits="userSpaceOnUse" x2="58.049" y1="95.539" y2="105.33"/>
    <linearGradient id="linearGradient4177" x1="20.462" xlink:href="#linearGradient3049" gradientUnits="userSpaceOnUse" x2="28.616" y1="70.194" y2="83.298"/>
    <linearGradient id="linearGradient4183" x1="97.293" xlink:href="#linearGradient3049" gradientUnits="userSpaceOnUse" x2="101.49" y1="59.808" y2="57.267"/>
    <linearGradient id="linearGradient4187" x1="77.75" xlink:href="#linearGradient2320" gradientUnits="userSpaceOnUse" x2="87.312" y1="96" y2="76.875"/>
    <linearGradient id="linearGradient4191" x1="80.875" xlink:href="#linearGradient2320" gradientUnits="userSpaceOnUse" x2="81.25" y1="80.75" y2="82.562"/>
    <linearGradient id="linearGradient4195" x1="81.125" xlink:href="#linearGradient2320" gradientUnits="userSpaceOnUse" x2="81.5" y1="90.688" y2="92.25"/>
    <linearGradient id="linearGradient4199" x1="86.688" xlink:href="#linearGradient2338" gradientUnits="userSpaceOnUse" x2="88.062" y1="79.812" y2="79.75"/>
    <linearGradient id="linearGradient4203" x1="87.477" xlink:href="#linearGradient3415" gradientUnits="userSpaceOnUse" x2="87.656" y1="85.203" y2="82.703"/>
    <linearGradient id="linearGradient4207" x1="86.156" xlink:href="#linearGradient3415" gradientUnits="userSpaceOnUse" x2="86.203" y1="84.078" y2="84.344"/>
    <linearGradient id="linearGradient4211" x1="88.094" xlink:href="#linearGradient3415" gradientUnits="userSpaceOnUse" x2="88.281" y1="83.203" y2="83.516"/>
    <linearGradient id="linearGradient4215" x1="84.844" xlink:href="#linearGradient3415" gradientUnits="userSpaceOnUse" x2="85.156" y1="84.5" y2="82.891"/>
    <linearGradient id="linearGradient4219" x1="88.961" xlink:href="#linearGradient3415" gradientUnits="userSpaceOnUse" x2="89.859" y1="83.547" y2="81.828"/>
    <linearGradient id="linearGradient3098">
      <stop id="stop3100" stop-color="#9e2612" offset="0"/>
      <stop id="stop3102" stop-color="#bd5032" offset="1"/>
    </linearGradient>
    <linearGradient id="linearGradient2404">
      <stop id="stop2406" stop-color="#b49900" offset="0"/>
      <stop id="stop2412" stop-color="#ffda0a" offset=".5"/>
      <stop id="stop2408" stop-color="#c6a800" offset="1"/>
    </linearGradient>
    <linearGradient id="linearGradient4561" x1="87.852" xlink:href="#linearGradient2404" gradientUnits="userSpaceOnUse" x2="90.154" y1="85.411" y2="83.811"/>
    <linearGradient id="linearGradient4565" x1="92.404" xlink:href="#linearGradient2404" gradientUnits="userSpaceOnUse" x2="88.973" y1="85.164" y2="87.375"/>
    <linearGradient id="linearGradient4569" x1="31.577" xlink:href="#linearGradient2338" gradientUnits="userSpaceOnUse" x2="25.473" y1="60.59" y2="60.59"/>
    <linearGradient id="linearGradient4573" x1="36.015" xlink:href="#linearGradient2338" gradientUnits="userSpaceOnUse" x2="33.207" y1="69.083" y2="71.559"/>
    <linearGradient id="linearGradient4577" x1="33.276" xlink:href="#linearGradient3415" gradientUnits="userSpaceOnUse" x2="34.079" y1="62.271" y2="62.271"/>
    <linearGradient id="linearGradient4581" x1="33.276" xlink:href="#linearGradient3415" gradientUnits="userSpaceOnUse" y1="62.271" gradientTransform="translate(4.164 2.703)" x2="34.079" y2="62.271"/>
    <linearGradient id="linearGradient4838" y2="72.589" gradientUnits="userSpaceOnUse" y1="59.177" x2="41.269" x1="35.339">
      <stop id="stop4694" stop-color="#4f3e2a" offset="0"/>
      <stop id="stop4696" stop-color="#72593c" offset="1"/>
    </linearGradient>
    <linearGradient id="linearGradient4842" x1="56.656" xlink:href="#linearGradient3098" gradientUnits="userSpaceOnUse" x2="60.844" y1="107.41" y2="104.3"/>
    <linearGradient id="linearGradient4846" x1="56.656" xlink:href="#linearGradient3098" gradientUnits="userSpaceOnUse" y1="107.41" gradientTransform="translate(5.3696 -1.9003)" x2="60.844" y2="104.3"/>
    <linearGradient id="linearGradient4850" x1="56.656" xlink:href="#linearGradient3098" gradientUnits="userSpaceOnUse" y1="107.41" gradientTransform="translate(10.713 -3.8066)" x2="60.844" y2="104.3"/>
    <linearGradient id="linearGradient4854" x1="56.656" xlink:href="#linearGradient3098" gradientUnits="userSpaceOnUse" y1="107.41" gradientTransform="translate(15.87 -5.4628)" x2="60.844" y2="104.3"/>
    <linearGradient id="linearGradient4858" x1="57.594" xlink:href="#linearGradient3098" gradientUnits="userSpaceOnUse" y1="106.75" gradientTransform="translate(-3.0312 -1.8438)" x2="61.812" y2="103.77"/>
    <linearGradient id="linearGradient4862" x1="57.594" xlink:href="#linearGradient3098" gradientUnits="userSpaceOnUse" y1="106.75" gradientTransform="translate(-3.0938 -7.8125)" x2="61.812" y2="103.77"/>
    <linearGradient id="linearGradient4866" x1="57.594" xlink:href="#linearGradient3098" gradientUnits="userSpaceOnUse" y1="106.75" gradientTransform="translate(-3.0625 -13.812)" x2="61.812" y2="103.77"/>
    <linearGradient id="linearGradient4870" x1="56.656" xlink:href="#linearGradient3098" gradientUnits="userSpaceOnUse" y1="107.41" gradientTransform="translate(2.4375 -3.7812)" x2="60.844" y2="104.3"/>
    <linearGradient id="linearGradient4874" x1="56.656" xlink:href="#linearGradient3098" gradientUnits="userSpaceOnUse" y1="107.41" gradientTransform="translate(0,-5.9375)" x2="60.844" y2="104.3"/>
    <linearGradient id="linearGradient4878" x1="56.656" xlink:href="#linearGradient3098" gradientUnits="userSpaceOnUse" y1="107.41" gradientTransform="translate(7.75 -5.6562)" x2="60.844" y2="104.3"/>
    <linearGradient id="linearGradient4882" x1="56.656" xlink:href="#linearGradient3098" gradientUnits="userSpaceOnUse" y1="107.41" gradientTransform="translate(5.4375 -7.8438)" x2="60.844" y2="104.3"/>
    <linearGradient id="linearGradient4886" x1="56.656" xlink:href="#linearGradient3098" gradientUnits="userSpaceOnUse" y1="107.41" gradientTransform="translate(2.1875,-9.6875)" x2="60.844" y2="104.3"/>
    <linearGradient id="linearGradient4890" x1="56.656" xlink:href="#linearGradient3098" gradientUnits="userSpaceOnUse" y1="107.41" gradientTransform="translate(.031250 -11.812)" x2="60.844" y2="104.3"/>
    <linearGradient id="linearGradient4894" x1="56.656" xlink:href="#linearGradient3098" gradientUnits="userSpaceOnUse" y1="107.41" gradientTransform="translate(2.1875 -15.594)" x2="60.844" y2="104.3"/>
    <linearGradient id="linearGradient4898" x1="56.656" xlink:href="#linearGradient3098" gradientUnits="userSpaceOnUse" y1="107.41" gradientTransform="translate(5.375,-13.75)" x2="60.844" y2="104.3"/>
    <linearGradient id="linearGradient4904" x1="57.594" xlink:href="#linearGradient3098" gradientUnits="userSpaceOnUse" y1="106.75" gradientTransform="translate(37.571 -42.294)" x2="61.812" y2="103.77"/>
    <linearGradient id="linearGradient4906" x1="56.656" xlink:href="#linearGradient3098" gradientUnits="userSpaceOnUse" y1="107.41" gradientTransform="translate(37.321 -45.125)" x2="60.844" y2="104.3"/>
    <linearGradient id="linearGradient4916" x1="56.656" xlink:href="#linearGradient3098" gradientUnits="userSpaceOnUse" y1="107.41" gradientTransform="translate(37.321 -51.091)" x2="60.844" y2="104.3"/>
    <linearGradient id="linearGradient4920" x1="56.656" xlink:href="#linearGradient3098" gradientUnits="userSpaceOnUse" y1="107.41" gradientTransform="translate(35.219 -47.426)" x2="60.844" y2="104.3"/>
    <linearGradient id="linearGradient4924" x1="56.656" xlink:href="#linearGradient3098" gradientUnits="userSpaceOnUse" y1="107.41" gradientTransform="translate(31.98 -43.193)" x2="60.844" y2="104.3"/>
    <linearGradient id="linearGradient4928" x1="56.656" xlink:href="#linearGradient3098" gradientUnits="userSpaceOnUse" y1="107.41" gradientTransform="translate(34.878 -41.261)" x2="60.844" y2="104.3"/>
    <linearGradient id="linearGradient4932" x1="56.656" xlink:href="#linearGradient3098" gradientUnits="userSpaceOnUse" y1="107.41" gradientTransform="translate(37.35 -39.216)" x2="60.844" y2="104.3"/>
    <linearGradient id="linearGradient4936" x1="57.594" xlink:href="#linearGradient3098" gradientUnits="userSpaceOnUse" y1="106.75" gradientTransform="translate(37.855 -48.345)" x2="61.812" y2="103.77"/>
    <linearGradient id="linearGradient4940" x1="56.877" xlink:href="#linearGradient3098" gradientUnits="userSpaceOnUse" y1="100.98" gradientTransform="matrix(1 1.012 0 1 -5.3377 -61.573)" x2="62.079" y2="105.32"/>
    <linearGradient id="linearGradient4944" x1="59.547" xlink:href="#linearGradient3098" gradientUnits="userSpaceOnUse" y1="103.48" gradientTransform="translate(-5.468 -3.5843)" x2="62.861" y2="106.98"/>
    <linearGradient id="linearGradient4948" x1="59.547" xlink:href="#linearGradient3098" gradientUnits="userSpaceOnUse" y1="103.48" gradientTransform="translate(-5.5501 -9.4919)" x2="62.861" y2="106.98"/>
    <linearGradient id="linearGradient4952" x1="59.547" xlink:href="#linearGradient3098" gradientUnits="userSpaceOnUse" y1="103.48" gradientTransform="translate(-5.4954 -15.29)" x2="62.861" y2="106.98"/>
    <linearGradient id="linearGradient4956" x1="56.877" xlink:href="#linearGradient3098" gradientUnits="userSpaceOnUse" y1="100.98" gradientTransform="matrix(1 1.012 0 1 -10.589 -65.265)" x2="62.079" y2="105.32"/>
    <linearGradient id="linearGradient4960" x1="56.877" xlink:href="#linearGradient3098" gradientUnits="userSpaceOnUse" y1="100.98" gradientTransform="matrix(1 1.012 0 1 -15.895 -68.902)" x2="62.079" y2="105.32"/>
    <linearGradient id="linearGradient4964" x1="56.877" xlink:href="#linearGradient3098" gradientUnits="userSpaceOnUse" y1="100.98" gradientTransform="matrix(1 1.012 0 1 -13.242 -69.996)" x2="62.079" y2="105.32"/>
    <linearGradient id="linearGradient4968" x1="56.877" xlink:href="#linearGradient3098" gradientUnits="userSpaceOnUse" y1="100.98" gradientTransform="matrix(1 1.012 0 1 -7.9906 -66.413)" x2="62.079" y2="105.32"/>
    <linearGradient id="linearGradient4972" x1="56.877" xlink:href="#linearGradient3098" gradientUnits="userSpaceOnUse" y1="100.98" gradientTransform="matrix(1 1.012 0 1 -5.6112 -67.754)" x2="62.079" y2="105.32"/>
    <linearGradient id="linearGradient4976" x1="56.877" xlink:href="#linearGradient3098" gradientUnits="userSpaceOnUse" y1="100.98" gradientTransform="matrix(1 1.012 0 1 -10.835 -71.309)" x2="62.079" y2="105.32"/>
    <linearGradient id="linearGradient4980" x1="56.877" xlink:href="#linearGradient3098" gradientUnits="userSpaceOnUse" y1="100.98" gradientTransform="matrix(1 1.012 0 1 -7.7718 -72.157)" x2="62.079" y2="105.32"/>
    <linearGradient id="linearGradient4984" x1="56.877" xlink:href="#linearGradient3098" gradientUnits="userSpaceOnUse" y1="100.98" gradientTransform="matrix(1 1.012 0 1 -5.7753 -73.716)" x2="62.079" y2="105.32"/>
    <linearGradient id="linearGradient4988" x1="56.877" xlink:href="#linearGradient3098" gradientUnits="userSpaceOnUse" y1="100.98" gradientTransform="matrix(1 1.012 0 1 -7.6624 -77.955)" x2="62.079" y2="105.32"/>
    <linearGradient id="linearGradient4994" x1="56.877" xlink:href="#linearGradient3098" gradientUnits="userSpaceOnUse" y1="100.98" gradientTransform="matrix(1 1.012 0 1 -37.214 -83.678)" x2="62.079" y2="105.32"/>
    <linearGradient id="linearGradient4996" x1="59.547" xlink:href="#linearGradient3098" gradientUnits="userSpaceOnUse" y1="103.48" gradientTransform="translate(-40.439 -27.715)" x2="62.861" y2="106.98"/>
    <linearGradient id="linearGradient5000" x1="59.547" xlink:href="#linearGradient3098" gradientUnits="userSpaceOnUse" y1="103.48" gradientTransform="translate(-40.439 -33.666)" x2="62.861" y2="106.98"/>
    <linearGradient id="linearGradient5004" x1="56.877" xlink:href="#linearGradient3098" gradientUnits="userSpaceOnUse" y1="100.98" gradientTransform="matrix(1 1.012 0 1 -31.893 -80.12)" x2="62.079" y2="105.32"/>
    <linearGradient id="linearGradient5008" x1="56.877" xlink:href="#linearGradient3098" gradientUnits="userSpaceOnUse" y1="100.98" gradientTransform="matrix(1 1.012 0 1 -34.38 -84.685)" x2="62.079" y2="105.32"/>
    <linearGradient id="linearGradient5012" x1="56.877" xlink:href="#linearGradient3098" gradientUnits="userSpaceOnUse" y1="100.98" gradientTransform="matrix(1 1.012 0 1 -37.308 -89.629)" x2="62.079" y2="105.32"/>
    <linearGradient id="linearGradient5016" x1="56.877" xlink:href="#linearGradient3098" gradientUnits="userSpaceOnUse" y1="100.98" gradientTransform="matrix(1 1.012 0 1 -31.924 -85.976)" x2="62.079" y2="105.32"/>
    <linearGradient id="linearGradient5020" x1="56.877" xlink:href="#linearGradient3098" gradientUnits="userSpaceOnUse" y1="100.98" gradientTransform="matrix(1 1.012 0 1 -37.245 -95.58)" x2="62.079" y2="105.32"/>
    <linearGradient id="linearGradient5024" x1="56.877" xlink:href="#linearGradient3098" gradientUnits="userSpaceOnUse" y1="100.98" gradientTransform="matrix(1 1.012 0 1 -34.065 -90.447)" x2="62.079" y2="105.32"/>
    <filter id="filter3081">
      <feGaussianBlur id="feGaussianBlur3083" stdDeviation="1.8119611"/>
    </filter>
  </defs>
  <g id="layer2" fill-rule="evenodd">
    <path id="path5040" filter="url(#filter3081)" fill-opacity=".51584" d="m50.912 102.9l-32.881-20.508-10.96-22.981 39.244-16.617 45.609 31.819-41.012 28.287z"/>
    <path id="path4171" fill="url(#linearGradient4173)" d="m57.408 88.689v3.558l-0.044 3.182 0.044 6.521 0.044 5.3-15.799-10.584 1.304-1.524 2.342-1.26 5.06 0.066 2.298-2.386 4.353-2.806 0.398-0.067z"/>
    <path id="path4938" fill="url(#linearGradient4940)" d="m52.35 100.87l4.999 3.44 0.051 2.64-5.066-3.38 0.016-2.7z"/>
    <path id="path4175" fill="url(#linearGradient4177)" d="m20.263 67.078l-0.066 2.431-0.177 0.044-0.066 2.696 0.287 0.309v3.05h-0.265v2.718l0.265 0.154v3.16l6.938 4.84-0.861-4.376 0.508-2.541-2.519-3.27-0.685-6.099-3.359-3.116z"/>
    <path id="path4836" fill="url(#linearGradient4838)" d="m32.146 55.345l-0.061 10.736 8.82 5.96 0.152-10.766-8.911-5.93z"/>
    <path id="path5028" fill-opacity=".15686" d="m32.146 55.345l-0.061 10.736 8.82 5.96 0.152-10.766-8.911-5.93z"/>
    <path id="path3079" fill="url(#linearGradient3819)" d="m19.406 39.75l0.188 27.125 0.687 0.094 3.313 3.437 0.687 5.688 2.375 3.406-0.406 2.562 0.969 4.5 14.5 10.376 1.093-1.657 1.376-0.781 1.167-0.573 5.176 0.073 1.688-2.062 5.093-3.5v-23.626l-37.906-25.062zm10.656 14l11.094 8.031v12.625l-11-6.937-0.094-13.719z"/>
    <path id="path3821" fill="url(#linearGradient3823)" d="m57.364 64.802l-0.088 24.042 5.303 2.386 1.944 3.271 3.801 2.121 1.149 3.005 3.801-0.265 1.856 0.442v-21.92l12.993-5.303-0.177 23.953 12.554-4.508 0.35-26.87-2.385-1.503-4.773-0.795-0.266-0.707-0.088-2.21 3.182-2.298 1.149-3.978 3.181-2.121-0.44-1.768-43.046 15.026z"/>
    <path id="path4217" fill="url(#linearGradient4219)" d="m88.078 81.688c0.156-0.047 1.781-0.532 1.781-0.532l-0.062 2.969-1.735 0.172 0.016-2.609z"/>
    <path id="path3825" fill="url(#linearGradient3827)" d="m42.25 31.375l-22.625 8.25 37.75 25.25 43.245-15.125-4.62-3.25-0.75 0.125-0.62-0.765-0.818-0.485-0.437-0.75-29-19.375h-1.125l-1.125-0.688-15.375 5.313-0.188 0.875-3.687 1.375-0.625-0.75z"/>
    <path id="path4167" fill="url(#linearGradient4169)" d="m57.298 88.689l0.066 0.796 0.022 5.922-0.088 2.806 0.132 3.117-0.044 5.85 17.7-6.01s0.132-1.233-0.088-1.322c-0.221-0.088-1.591-0.53-1.591-0.53l-3.867 0.354-1.238-3.05-3.823-2.21-1.922-3.27-5.259-2.453z"/>
    <path id="path4990" fill="url(#linearGradient4994)" d="m20.474 78.763l4.91 3.445 0.028 2.641-4.954-3.383 0.016-2.703z"/>
    <path id="path4181" fill="url(#linearGradient4183)" d="m100.36 51.853v2.078l0.2 0.198 0.03 2.586-0.29 0.442 0.09 2.762 0.26 0.243-0.04 2.497-0.29 0.508 0.09 1.812-1.901-1.237-4.972-0.928-0.221-3.006 3.16-2.209 1.171-4.132 2.713-1.614z"/>
    <path id="path4185" fill="url(#linearGradient4187)" d="m75.312 99.375l1.938-0.5 0.25-0.437 2.375-0.876 0.375 0.188 1.938-0.875 0.25-0.313 1.687-0.624h0.437l1.75-0.75 0.063-5.938-1.313-3.125 1.313-0.937-0.313-0.563h-0.562l-0.5-0.5 0.188-0.375 0.562 0.062 0.25-0.75 0.25-0.687 0.125-9.25-11.375 4.625 0.312 21.625z"/>
    <path id="path4213" fill="url(#linearGradient4215)" d="m86.234 82.156l-1.593 0.61-0.016 2.875 1.578-0.563 0.031-2.922z"/>
    <path id="path4189" fill="url(#linearGradient4191)" d="m75.25 81.75l10.438-3.562 0.062 2.937-10.688 4.375 0.188-3.75z"/>
    <path id="path4193" fill="url(#linearGradient4195)" d="m75.25 91.75l10.25-3.625 0.125 3-10.313 4.063-0.062-3.438z"/>
    <path id="path4197" fill="url(#linearGradient4199)" d="m86.125 73.375l0.125 21.875 1.625 1.375 0.187-24.125-1.937 0.875z"/>
    <path id="path5038" fill-opacity=".15686" d="m86.125 73.375l0.125 21.875 1.625 1.375 0.187-24.125-1.937 0.875z"/>
    <path id="path4201" fill="url(#linearGradient4203)" d="m86.562 85.578l-0.859-1.75 0.266-0.906 0.906-0.688s1.297 0.438 1.297 0.5c0 0.063 1.078 1.782 1.078 1.782l-0.203 0.406h-0.375l-0.813-1.734-0.859-0.172-0.438 0.281-0.281 0.547 0.813 1.547-0.188 0.312-0.344-0.125z"/>
    <path id="path4205" fill="url(#linearGradient4207)" d="m85.172 83.703s0.5 0.109 0.656 0.172 0.969-0.063 0.969-0.063l0.187 0.25-0.078 0.36-0.609 0.172-0.766 0.062s-0.422-0.265-0.453-0.359 0.016-0.563 0.094-0.594z"/>
    <path id="path4209" fill="url(#linearGradient4211)" d="m87.453 83.484l0.453-0.25 0.594-0.468 0.266-0.422 0.343 0.265-0.078 0.375-0.359 0.672-0.422 0.328-0.594-0.046-0.203-0.454z"/>
    <path id="path4221" fill="url(#linearGradient4561)" d="m85.234 86l1.125-0.719 0.203 0.422 0.485-0.062 0.156-0.235-0.172-0.297 1.328-0.64 0.235 0.359 0.312 0.125s0.422-0.25 0.391-0.312c-0.031-0.063-0.172-0.453-0.172-0.453l0.984-0.079 0.641 0.391-0.172 0.297-4.63 1.683-0.714-0.48z"/>
    <path id="path4563" d="m85.133 86.219l1.004 0.276 4.624-1.672-0.16 3.984-2.516 1.033-0.581 0.087s-0.887-0.363-0.887-0.422c0-0.058-1.513-3.272-1.484-3.286z" fill="url(#linearGradient4565)"/>
    <path id="path4567" d="m30.098 54.071l0.073 13.039 1.863-0.986 0.073-10.994-2.009-1.059z" fill="url(#linearGradient4569)"/>
    <path id="path4571" fill="url(#linearGradient4573)" d="m30.353 66.891l1.754-0.84 0.767 0.475v0.986l0.365 0.731 0.475 0.182 0.621-0.036 0.475-0.365 2.41 1.461-0.073 0.84 0.585 0.73 0.511 0.073 0.767-0.365 2.046 1.425-0.11 1.68-0.219 0.073-10.337-6.356-0.037-0.694z"/>
    <path id="path4575" d="m32.91 56.043v11.579l0.366 0.584 0.584 0.292 0.767-0.292 0.219-0.511-0.036-10.447-1.9-1.205z" fill="url(#linearGradient4577)"/>
    <path id="path4579" d="m37.074 58.746v11.579l0.366 0.584 0.584 0.292 0.767-0.292 0.219-0.511-0.036-10.447-1.9-1.205z" fill="url(#linearGradient4581)"/>
    <path id="path4840" fill="url(#linearGradient4842)" d="m57.688 104.06l4.921-1.59 0.032 2.61-4.969 1.7 0.016-2.72z"/>
    <path id="path4844" fill="url(#linearGradient4846)" d="m63.057 102.16l4.922-1.59 0.031 2.61-4.969 1.7 0.016-2.72z"/>
    <path id="path4848" fill="url(#linearGradient4850)" d="m68.401 100.26l2.301-0.749 2.652-0.161v1.92l-4.969 1.7 0.016-2.71z"/>
    <path id="path4852" fill="url(#linearGradient4854)" d="m73.588 99.443l1.422 0.375-0.031 0.982-1.438 0.52 0.047-1.877z"/>
    <path id="path4856" fill="url(#linearGradient4858)" d="m57.438 101.34l2.14-0.72 0.031 2.61-2.25 0.77 0.079-2.66z"/>
    <path id="path4860" fill="url(#linearGradient4862)" d="m57.375 95.375l2.016-0.656 0.031 2.578-2.125 0.734 0.078-2.656z"/>
    <path id="path4864" fill="url(#linearGradient4866)" d="m57.406 89.375l0.871-0.293 1.176 0.606v1.671l-2.125 0.672 0.078-2.656z"/>
    <path id="path4868" fill="url(#linearGradient4870)" d="m60.125 100.28l4.922-1.592 0.031 2.612-4.969 1.7 0.016-2.72z"/>
    <path id="path4872" fill="url(#linearGradient4874)" d="m57.688 98.125l4.921-1.594 0.032 2.61-4.969 1.699 0.016-2.715z"/>
    <path id="path4876" fill="url(#linearGradient4878)" d="m65.438 98.406l3.203-1.031 0.937 2.328-4.156 1.417 0.016-2.714z"/>
    <path id="path4880" fill="url(#linearGradient4882)" d="m63.125 96.219l2.83-0.917 2.092 1.198 0.031 0.734-4.969 1.704 0.016-2.719z"/>
    <path id="path4884" fill="url(#linearGradient4886)" d="m59.875 94.375l3.968-1.285 0.516 1.222 0.512 0.301-0.043 0.778-4.969 1.703 0.016-2.719z"/>
    <path id="path4888" fill="url(#linearGradient4890)" d="m57.719 92.25l4.23-1.37 0.692 0.308 0.031 2.078-4.969 1.703 0.016-2.719z"/>
    <path id="path4892" fill="url(#linearGradient4894)" d="m59.812 89.906l1.579 0.735-1.532 0.547-0.047-1.282z"/>
    <path id="path4896" fill="url(#linearGradient4898)" d="m63.094 91.844l0.609 1.015-0.656 0.172 0.047-1.187z"/>
    <path id="path4900" fill="url(#linearGradient4904)" d="m98.04 60.894l2.53-0.756v2.609l-2.608 0.803 0.078-2.656z"/>
    <path id="path4902" fill="url(#linearGradient4906)" d="m95.009 58.937l4.922-1.593 0.031 2.609-4.969 1.703 0.016-2.719z"/>
    <path id="path4914" fill="url(#linearGradient4916)" d="m97.622 53.511l2.309-1.537 0.031 2.013-2.781 1.021 0.441-1.497z"/>
    <path id="path4918" fill="url(#linearGradient4920)" d="m97.054 55.386l0.774-0.344 0.031 2.61-2.582 0.85 1.288-0.893 0.489-2.223z"/>
    <path id="path4922" fill="url(#linearGradient4924)" d="m94.014 59.307l0.575-0.032 0.032 2.61-1.162 0.254-0.11-2.292 0.665-0.54z"/>
    <path id="path4926" fill="url(#linearGradient4928)" d="m93.418 62.517l4.069-1.31 0.003 2.354-3.832-0.74-0.24-0.304z"/>
    <path id="path4930" fill="url(#linearGradient4932)" d="m98.475 63.767l1.484-0.514 0.031 1.586-1.515-1.072z"/>
    <path id="path4934" fill="url(#linearGradient4936)" d="m98.324 54.842l2.246-0.699 0.02 2.581-2.344 0.775 0.078-2.657z"/>
    <path id="path4942" fill="url(#linearGradient4944)" d="m54.981 99.681l2.412 1.699-0.008 2.49-2.462-1.61 0.058-2.579z"/>
    <path id="path4946" fill="url(#linearGradient4948)" d="m55.173 93.91l2.192 1.507-0.062 2.548-2.08-1.367-0.05-2.688z"/>
    <path id="path4950" fill="url(#linearGradient4952)" d="m56.458 88.987l0.907 0.495-0.007 2.685-1.998-1.449 0.033-0.945 1.065-0.786z"/>
    <path id="path4954" fill="url(#linearGradient4956)" d="m47.099 97.176l4.999 3.444 0.05 2.64-5.065-3.381 0.016-2.703z"/>
    <path id="path4958" fill="url(#linearGradient4960)" d="m43.543 94.796l3.249 2.187 0.051 2.641-4.874-3.301 0.978-1.218 0.596-0.309z"/>
    <path id="path4962" fill="url(#linearGradient4964)" d="m45.321 93.894l1.247 0.013 2.877 1.982 0.051 2.641-4.929-3.41-0.036-0.786 0.79-0.44z"/>
    <path id="path4966" fill="url(#linearGradient4968)" d="m49.806 96.109l4.89 3.363 0.051 2.638-4.929-3.435-0.012-2.566z"/>
    <path id="path4970" fill="url(#linearGradient4972)" d="m52.076 94.687l5 3.445 0.05 2.638-5.065-3.38 0.015-2.703z"/>
    <path id="path4974" fill="url(#linearGradient4976)" d="m50.299 93.948l0.294-0.239 1.259 0.867 0.05 2.641-5.065-3.383 3.462 0.114z"/>
    <path id="path4978" fill="url(#linearGradient4980)" d="m52.268 91.87l2.647 1.859 0.051 2.641-4.136-2.891 1.438-1.609z"/>
    <path id="path4982" fill="url(#linearGradient4984)" d="m54.346 90.475l2.565 1.695 0.051 2.641-4.464-3.028 1.848-1.308z"/>
    <path id="path4986" fill="url(#linearGradient4988)" d="m55.024 89.982l0.051 0.589-0.525-0.319 0.474-0.27z"/>
    <path id="path4992" fill="url(#linearGradient4996)" d="m20.01 75.549l2.924 2.011 0.037 2.671-3.019-2.103 0.058-2.579z"/>
    <path id="path4998" fill="url(#linearGradient5000)" d="m20.01 69.598l3.27 2.294-0.026 2.514-3.302-2.229 0.058-2.579z"/>
    <path id="path5002" fill="url(#linearGradient5004)" d="m25.795 82.321l0.628 0.517 0.658 3.05-1.302-0.864 0.016-2.703z"/>
    <path id="path5006" fill="url(#linearGradient5008)" d="m23.308 77.755l3.335 2.406-0.277 2 0.054 0.452-3.128-2.155 0.016-2.703z"/>
    <path id="path5010" fill="url(#linearGradient5012)" d="m20.379 72.812l3.982 2.794-0.016 0.808 0.96 1.333 0.013 1.151-4.954-3.383 0.015-2.703z"/>
    <path id="path5014" fill="url(#linearGradient5016)" d="m25.795 78.259l0.974 1.241 0.029 0.311-1.05-0.644 0.047-0.908z"/>
    <path id="path5018" fill="url(#linearGradient5020)" d="m20.474 67.302l3.052 2.972 0.249 1.602-3.348-2.312 0.047-2.262z"/>
    <path id="path5022" fill="url(#linearGradient5024)" d="m23.622 71.993l0.628 3.036-0.643-0.333 0.015-2.703z"/>
    <path id="path5026" fill-opacity=".15686" d="m19.406 39.75l0.188 27.125 0.687 0.094 3.313 3.437 0.687 5.688 2.375 3.406-0.406 2.562 0.969 4.5 14.5 10.376 1.093-1.657 1.376-0.781 1.167-0.573 5.176 0.073 1.688-2.062 5.093-3.5v-23.626l-37.906-25.062zm10.656 14l11.094 8.031v12.625l-11-6.937-0.094-13.719z"/>
    <path id="path5030" fill-opacity=".15686" d="m30.098 54.071l0.073 13.039 1.863-0.986 0.073-10.994-2.009-1.059z"/>
    <path id="path5032" fill-opacity=".15686" d="m30.353 66.891l1.754-0.84 0.767 0.475v0.986l0.365 0.731 0.475 0.182 0.621-0.036 0.475-0.365 2.41 1.461-0.073 0.84 0.585 0.73 0.511 0.073 0.767-0.365 2.046 1.425-0.11 1.68-0.219 0.073-10.337-6.356-0.037-0.694z"/>
    <path id="path5034" fill-opacity=".15686" d="m20.263 67.078l-0.066 2.431-0.177 0.044-0.066 2.696 0.287 0.309v3.05h-0.265v2.718l0.265 0.154v3.16l6.938 4.84-0.861-4.376 0.508-2.541-2.519-3.27-0.685-6.099-3.359-3.116z"/>
    <path id="path5036" fill-opacity=".15686" d="m57.408 88.689v3.558l-0.044 3.182 0.044 6.521 0.044 5.3-15.799-10.584 1.304-1.524 2.342-1.26 5.06 0.066 2.298-2.386 4.353-2.806 0.398-0.067z"/>
  </g>
  <g id="layer1">
    <path id="path2601" fill-rule="evenodd" d="m62.094 24.344l-15.656 5.5-0.219 0.844-3.031 1.218-0.813-0.656-23.281 8.156 0.125 27.375 0.917 0.576-0.011 2.001-0.201 0.063-0.018 2.828 0.293 0.44-0.026 2.72-0.289 0.155-0.018 2.74 0.308 0.331-0.007 2.518-0.32 0.112-0.003 0.516 37.187 26.189 18.719-6.69-0.125-1.718 1.875-0.718 0.259-0.321 1.881-0.687 0.444 0.042 2.354-0.972 0.281-0.343 1.278-0.507 0.408 0.098 1.876-0.716 1.5 1.562 13.189-4.938 0.06-26.781-0.5-0.656v-1.594l0.16-0.312v-2.844l-0.19-0.25-0.05-2.497 0.24-0.409v-2.781l-0.2-0.225 0.01-1.651 0.56-0.531v-1.812l-4.966-3.375-0.688 0.187-1.5-1.281-0.125-0.469-29.5-20.062-1.125 0.375-1.062-0.75zm-0.094 0.531h0.031l1 0.594 1.25-0.094 28.969 19.625-0.125 0.875 1.406 0.094 0.031 1.469 1.313-0.657 4.285 2.907-42.941 14.812-36.813-24.844 21.969-7.781 1.531 2.313 0.125-2.219 1.375 0.187 0.156-0.906 1.907 0.344-0.657-1.313 14.282-5.062 1.906 2.062-0.719 1.657-1.281 0.968-2.906-0.062 0.062 0.094 2.5 0.406-0.25 1.312 0.188 0.063 0.375-1.313 0.343 0.063 1-0.875 1.563 1.594-1.063 1.687 0.094 0.031 1-1.281 1.313 0.219-0.313 3.062h0.125l0.438-2.937 1.625-0.188 0.062-0.031-1.625-0.125v-0.031l-1.25-0.469-1.687-1.719 0.781-1.844 1.25 0.688 0.125-0.031-1.219-1.031 0.031-0.063-1.562-2.25zm-42.156 15.313l37.125 25.156-0.063 23.281-4.781 3.063-1.813 2.187-4.937-0.063-2.437 1.126-1.157 1.437-14.5-10.031-0.843-4.125 0.531-2.688-2.5-3.25-0.719-6.156-3.719-3.469-0.187-26.468zm80.566 9.968v1.313l-3.004 1.969-0.968 4.031-3.157 2.312 0.031 2.813-0.031-0.032-1.312 1.563-2.281-0.063 0.062 0.188 2.156 0.219 0.782 1.093v-0.156l-0.438-1.031 1.438-1.469 4.593 0.906 2.059 1.438-0.12 26.562-11.908 4.126v-6.032l2.469-1.062 0.219-4.344c-0.248-0.448-0.621-0.559-1.125-0.562v-2.876l-1.563 0.469v-8.562h0.032l0.218-1.031h1.657l-0.031 0.031 1.718 1.343-1.312-1.656 0.594-0.656-0.126 0.031-0.812 0.531-1.531-0.25v-0.031l-1.531-1.281-0.063 0.125 1.219 1.25-0.875 1.094-12.719 5.093v22.063l-1.344-0.375-3.844 0.188-1.156-2.907-3.781-2.156-1.813-3.25-5.156-2.5-0.062-22.75 1.218 1.063-0.187 1.374 0.625-1.25 1.719 0.438 2.719-1.5 0.437-0.062 2.906 0.593 1.625 2.125 0.219-0.031-1.781-2.219h-0.032l-0.031-0.031-1.906-0.625 2.281-0.406 1.5-1.813-0.094-0.062-1.593 1.5-3.657 0.593-2.5 1.5-1.874-0.5-1-1.406 42.222-15zm-0.19 1.844v2.125l-1.97 0.625v2.812l1.97-0.656 0.03 3.188-2.344 0.781v2.563l-0.344-0.063v-2.281l-3.906 1.281-0.031-0.156 1.031-0.344v-2.75l-0.218 0.063 0.812-0.563 2.656-0.906v-2.75l-0.531 0.187 0.063-0.218 2.622-0.907v-1.937l0.16-0.094zm-0.314 0.219l0.032 1.719-2.469 0.843 0.343-1.125 2.094-1.437zm-70.156 1.031l0.125 14.281 10.687 6.625 0.75 1.75-1.187 1.469 0.875 1.219 0.156 0.125-0.594-1.313 1-1.281 1.469 0.406 0.688 3.969 1.687 0.625-0.031-0.219-1.469-0.375-0.437-3.687 2 0.781 0.656 1.375 0.125-0.031-0.312-1.407 0.937-0.687-0.094 0.031-1.281 0.344-2.25-1.188v0.063l-1.344-0.125-0.468-1.625-0.063-12.406 1.969-1.407 0.75 0.469 1.187 2.469 0.188 0.125-0.813-2.406 1.125-0.375v-0.094l-1.25 0.156-0.031-0.125-1.156-0.593-2.438 0.781-11.156-7.719zm70.69 1l0.03 2.438-2.064 0.718v-2.531l2.034-0.625zm-69.94 0.25l1.375 0.969v10.469l-1.313 0.624-0.062-12.062zm67.25 0.656l0.031 2.469-2.156 0.75 1-0.687 0.687-2.376 0.438-0.156zm-65.438 0.625l0.438 0.313v10.031l-0.438-0.281v-10.063zm0.75 0.563l1.594 1.125 0.032 10.25c-0.668 1.228-1.653 0.34-1.626-0.344v-11.031zm66.998 0.906l-5.091 1.656 0.031 2.813 5.06-1.719v-2.75zm-0.185 0.188l0.031 2.468-4.781 1.625v-2.5l4.75-1.593zm-64.906 0.25l2.031 1.468v9.844l-2.031-1.344v-9.968zm59.5 1.624l0.031 2.469-0.875 0.281-0.219-2.156 0.688-0.468 0.375-0.126zm-57.157 0.063l1.594 1.125 0.032 9.875c-0.668 1.228-1.653 0.34-1.626-0.344v-10.656zm63.218 0.781l-0.03 2.5-2.344 0.813h-0.094l-0.031-2.5 2.499-0.813zm-61.311 0.563l1.469 1.062v9.719l-1.469-1.031v-9.75zm58.187 0.531l0.032 2.094-3.75-0.656-0.032-0.188 3.75-1.25zm2.844 1.625v1.969l-0.19-0.156v-1.563l-1.404 0.469-0.062-0.032-0.032-0.031h-0.156l1.844-0.656zm-0.344 0.437l0.032 1.282-1.188-0.906 1.156-0.376zm-67.781 3.032l0.625 0.437v0.657c-0.088 0.362 1.061 1.941 2.031 0.75l2.219 1.5v0.406c-0.084 0.348 0.964 1.808 1.906 0.875l1.782 1.25v1.437l-10.063-6.687 1.5-0.625zm-11.844 0.937l0.125 0.125v2.219l3.156 2.156 0.032 0.125-0.032-0.031v2.844l0.469 0.312 0.031 0.281-3.687-2.593v2.812l5.063 3.5v-0.969l0.218 0.313v0.75l0.938 0.625-0.032 0.188-3.343-2.344v2.812l3.093 2.156 0.032 0.157-0.656-0.469v2.812l1.218 0.844 0.032 0.188-6.594-4.625v-3.031l2.687 1.874v-2.75l-2.719-1.906v-3.187l3.063 2.125v-2.75l-3.094-2.156v-2.407zm0.281 0.281l2.813 2.844 0.187 1.25-3-2.062v-2.032zm-0.524 2.149l3.181 2.164 0.031 2.469-3.225-2.133 0.013-2.5zm3.681 3.133l0.281 2.031-0.281-0.187v-1.844zm-3.188 0.125l3.563 2.5 0.125 0.937 1.093 1.5v0.875l-4.781-3.281v-2.531zm67 0.093v9.032c-0.34-0.253-0.746-0.083-0.969 0.062l0.032-8.718 0.937-0.376zm-1.437 0.594l-0.032 8.5-1.5 0.594v2.969l1.469-0.469v0.125c-0.41 0.202-0.864 0.422-1.281 0.656l1.281 2.531-0.031 6.561-1.575 0.594 0.013-3.811 1.468-0.562v-2.969l-0.312-0.344-1.188 0.407-0.031-6.407 1.531-0.593v-2.969l-0.312-0.344-1.25 0.437-0.032-4.187 1.782-0.719zm-2.156 0.875v4.157l-1.626 0.562-0.031-4.031 1.657-0.688zm-2.032 0.844v4.031l-2 0.688-0.031-3.875 2.031-0.844zm-61.859 0.252l2.797 1.935 0.031 2.5-2.841-1.913 0.013-2.522zm59.453 0.748l0.031 3.844-2.187 0.75-0.032-3.688 2.188-0.906zm-2.562 1.063l0.031 3.656-1.344 0.468v-3.593l1.313-0.531zm-53.563 0.406l3.156 2.25-0.281 2 0.062 0.344-2.937-2.032v-2.562zm62.094 0.562v0.219l-9.844 3.437v-0.187l9.844-3.469zm-59.657 0.188l0.782 1.062-0.782-0.531v-0.531zm-5.406 0.062v2.813l5.063 3.469v-2.75l-5.063-3.532zm0.156 0.25l4.75 3.313 0.032 2.5-4.782-3.281v-2.532zm64.813 0.156l0.063 1.907-9.813 3.812v-2.031l9.75-3.688zm4.375 2.188l-0.013 2.688-0.706 0.093-0.219-0.437c0.149-0.236 0.262-0.524 0.438-0.844-0.064-0.292-0.201-0.565-0.688-0.375-0.063 0.156-0.145 0.274-0.218 0.375l-0.032-0.062v-0.938l1.438-0.5zm-5.781 0.938v6.406l-1.594 0.531-0.031-6.313 1.625-0.624zm2.093 0.124v0.188c-0.35 0.315-0.593 0.742-0.562 1.188-0.131-0.038-0.239-0.065-0.406-0.094-0.312 0.378-0.113 0.621 0.094 1 0.326 0.172 0.576 0.187 0.812 0.156l0.031 0.062v0.25l-1.343 0.469v-2.656l1.374-0.563zm0.844 0.157c0.44-0.05 0.903 0.21 1.156 0.437l0.063 0.063c-0.05 0.041-0.102 0.09-0.156 0.125l-0.063-0.094c-0.222-0.116-0.442-0.176-0.625-0.188-0.537-0.032-0.877 0.358-1.125 1.032-0.085-0.003-0.168-0.015-0.25-0.032 0.181-0.944 0.572-1.295 1-1.343zm-61.094 0.031l0.563 0.406 0.5 2.813-1.031-0.688-0.032-2.531zm62.876 0.062c0.139 0.028 0.289 0.006 0.312 0.313-0.161 0.459-0.372 0.858-0.906 1.031-0.185-0.107-0.584 0.038-0.438-0.406 0.483-0.224 0.8-0.549 1.032-0.938zm-6.75 0.407v6.312l-1.938 0.688-0.062-6.219 2-0.781zm5.031 0.187c0.194-0.009 0.413 0.11 0.625 0.188-0.105 0.06-0.193 0.102-0.313 0.187 0.026 0.244 0.113 0.357 0.25 0.438l-0.031 0.719c-0.188 0.087-0.387 0.185-0.562 0.281l-0.219-0.438c0.097-0.035 0.169-0.062 0.281-0.093 0.164-0.251 0.258-0.506-0.219-0.719-0.133 0.054-0.235 0.073-0.343 0.093 0.12-0.489 0.326-0.645 0.531-0.656zm1.687 0.625l0.5 0.719c-0.175 0.408-0.265 0.297-0.375 0.312l-0.406-0.812c0.111-0.064 0.207-0.14 0.281-0.219zm-3.312 0.031c0.498 0.188 0.967 0.201 1.406 0.094 0.078 0.119 0.234 0.238 0.031 0.469-0.44 0.207-0.908 0.322-1.406 0.063-0.053-0.207-0.45-0.419-0.031-0.626zm-5.813 0.094l0.031 6.188-2.124 0.75-0.063-6.094 2.156-0.844zm10.25 0.344c0.531-0.055 0.746 0.113 0.719 0.406l-4.719 1.625-0.375-0.25 0.938-0.562 0.156 0.312c0.365 0.045 0.656-0.04 0.812-0.343l-0.156-0.219c0.306-0.326 0.783-0.385 1.219-0.563l0.219 0.375c0.379 0.132 0.61-0.082 0.781-0.437l-0.156-0.25 0.562-0.094zm-3.219 0.344l0.438 0.75c-0.088 0.174-0.156 0.324-0.312 0.156l-0.407-0.812c0.087-0.027 0.19-0.06 0.281-0.094zm-9.593 0.312l0.031 6.094-1.375 0.469v-6.063l1.344-0.5zm13.593 0.188l-0.156 3.468-2.312 0.907-1.656-2.969 4.124-1.406zm-5.25 1.281l0.594 0.187 1.875 3.188c-0.318 0.165-0.818-0.067-1-0.312l-1.469-3.063zm3.469 0.031c-0.194-0.005-0.399 0.136-0.593 0.625 0.124 0.286 0.275 0.596 0.75 0.531l0.124 0.907 0.719-0.281-0.656-0.844c0.578-0.072 0.366-0.385 0.25-0.688-0.194-0.079-0.4-0.244-0.594-0.25zm-3.312 1.906v0.219l-9.844 3.438v-0.188l9.844-3.469zm-28.469 0.626l0.219 0.124v0.282l-0.407-0.282 0.188-0.124zm28.375 0.031l0.063 1.906-9.813 3.813v-2.032l9.75-3.687zm-27.937 0.031l0.437 0.188-0.437 0.124v-0.312zm-0.75 0.125l0.619 0.388v2.522l-1.869-1.285v-0.781l1.25-0.844zm1.374 0.156l1.313 0.625 0.031 1.406-1.968 0.688v-2.522l0.624-0.197zm28.5 0.313c0.295 0.21 0.571 0.46 0.938 0.531v6l-0.969-1.094 0.031-5.437zm-27.031 0.375l0.25 0.125v1.125l1.407-0.469 0.312 0.156-3.875 1.282v2.812l5.063-1.719v-1.719l0.343 0.626v0.937l0.438-0.156 0.125 0.187-3.75 1.219v2.813l5.062-1.719v-0.657l0.25 0.157v0.312l0.344-0.125 0.25 0.156-2.719 0.907v2.812l5.063-1.719v-0.531l0.281 0.625-3.031 1v2.814l4.062-1.376 0.032 0.031h0.124l-1.218 0.375v2.81l5.062-1.72v-1.809h0.094v1.779l1.25-0.43v0.06l-17.25 6.09v-3l2.188-0.75v-2.75l-2.219 0.72v-3.219l2.031-0.687v-2.75l-2.031 0.687-0.031-3.156 2.093-0.719v-1.437zm-4.25 0.125v0.687l1.938 1.344v3.125l-2.094-1.469v2.813l2.125 1.468v3.128l-2.344-1.659 0.032 2.809 2.312 1.6v0.28l-4.969-3.5v2.81l4.969 3.44v0.06l-15.125-10.405 0.063-0.094 4.718 3.281v-2.75l-3.125-2.187 0.688-0.375v0.656l5.062 3.469v-2.75l-2.687-1.875h0.25l4.844 3.312v-2.75l-1.188-0.843 0.094-0.094 4.156 2.875v-2.75l-2.531-1.781 0.031-0.031 0.062-0.032 4.5 3.125v-2.75l-2.468-1.75 0.187-0.125 0.344 0.25v-0.468l0.156-0.094zm4.657 0.062l1.093 0.532-1.093 0.343v-0.875zm-4.938 0.125v0.157l-0.125-0.094 0.125-0.063zm-0.5 0.313l2.406 1.718 0.032 2.5-4.313-2.968 1.875-1.25zm7.219 0.406l0.812 0.375 0.031 1.813-4.781 1.624v-2.531l3.938-1.281zm-9.313 1.031l2.438 1.719 0.031 2.5-3.969-2.719 1.5-1.5zm31.594 0.063v3.625l-1.562 0.593-0.032-3.624 1.594-0.594zm-20.812 0.375l0.218 0.406-0.218 0.063v-0.469zm18.781 0.406l0.022 3.89-1.951 0.719-0.009-3.859 1.938-0.75zm-18.313 0.406l0.656 1.157 0.469 0.281v0.656l-4.781 1.625v-2.531l3.656-1.188zm-13 0.531l1.125 0.782 0.031 2.5-4.531-3.094h3.188l0.187-0.188zm28.906 0l0.032 3.594-2.094 0.782-0.031-3.594 2.093-0.782zm-34.187 0.188h1.25l2.75 1.906 0.031 2.5-4.781-3.281v-0.719l0.75-0.406zm9.906 0.031l2.048 1.41-0.066 2.497-1.982-1.344v-2.563zm-3.219 0.594l0.032 2.813 5.062 3.502v-2.752l-5.094-3.563zm7.282 0.156l0.031 2.469-1.995 0.678 0.022-2.478 1.942-0.669zm17.656 0l0.12 3.793-1.473 0.509-0.022-3.771 1.375-0.531zm-24.781 0.094l4.781 3.313 0.031 2.502-4.781-3.284-0.031-2.531zm-8.563 0.063l3.063 2.156 0.031 2.468-4.531-3.093 0.937-1.25 0.5-0.281zm22.25 0.5l2.063 1.281v0.5l-4.781 1.656v-2.531l2.718-0.906zm-16.187 0.5v2.812l5.062 3.5v-2.75l-5.062-3.562zm0.156 0.25l4.75 3.312 0.031 2.5-4.781-3.281v-2.531zm12.813 0.25l-5.063 1.656v2.816l5.063-1.722v-2.75zm-0.157 0.187l0.031 2.469-4.781 1.656v-2.531l4.75-1.594zm-15.437 0.469v2.844l5.062 3.472v-2.75l-5.062-3.566zm0.156 0.25l4.75 3.346 0.031 2.5-4.781-3.284v-2.562zm21.156 0.156l0.938 2.188-3.844 1.342-0.031-2.53 2.937-1zm-3.312 1.156l-5.063 1.654v2.81l5.063-1.71v-2.754zm-0.156 0.156l0.031 2.468-4.781 1.66-0.032-2.53 4.782-1.598zm8.312 0.688l0.031 1.75-4.781 1.63v-2.54l1.625-0.528 3.125-0.312zm0.406 0.094l1.094 0.312v0.844l-1.094 0.37v-1.526zm-18.594 0.187l2.276 1.599v2.43l-2.276-1.5v-2.529zm13.032 0.719l-5.063 1.66v2.81l5.063-1.72v-2.75zm-8.563 0.19l0.031 2.47-2.062 0.74-0.031-2.52 2.062-0.69zm8.407 0l0.031 2.47-4.781 1.62v-2.53l4.75-1.56zm-15.5 0.28l4.838 3.36 0.053 2.5-4.891-3.33v-2.53zm10.25 1.41l-5.063 1.65v2.81l5.063-1.72v-2.74zm-0.157 0.18l0.031 2.47-4.781 1.63v-2.54l4.75-1.56z"/>
  </g>
  <metadata>
    <rdf:RDF>
      <cc:Work>
        <dc:format>image/svg+xml</dc:format>
        <dc:type rdf:resource="http://purl.org/dc/dcmitype/StillImage"/>
        <cc:license rdf:resource="http://creativecommons.org/licenses/publicdomain/"/>
        <dc:publisher>
          <cc:Agent rdf:about="http://openclipart.org/">
            <dc:title>Openclipart</dc:title>
          </cc:Agent>
        </dc:publisher>
        <dc:title>RPG map symbols: Jailhouse</dc:title>
        <dc:date>2008-01-28T14:26:56</dc:date>
        <dc:description>Part of the fantasy RPG map elements collection (houses and various buildings): a Jail House</dc:description>
        <dc:source>http://openclipart.org/detail/12047/rpg-map-symbols:-jailhouse-by-nicubunu</dc:source>
        <dc:creator>
          <cc:Agent>
            <dc:title>nicubunu</dc:title>
          </cc:Agent>
        </dc:creator>
        <dc:subject>
          <rdf:Bag>
            <rdf:li>building</rdf:li>
            <rdf:li>cartography</rdf:li>
            <rdf:li>clip art</rdf:li>
            <rdf:li>clipart</rdf:li>
            <rdf:li>fantasy</rdf:li>
            <rdf:li>geography</rdf:li>
            <rdf:li>image</rdf:li>
            <rdf:li>jail</rdf:li>
            <rdf:li>map</rdf:li>
            <rdf:li>media</rdf:li>
            <rdf:li>png</rdf:li>
            <rdf:li>prison</rdf:li>
            <rdf:li>public domain</rdf:li>
            <rdf:li>svg</rdf:li>
          </rdf:Bag>
        </dc:subject>
      </cc:Work>
      <cc:License rdf:about="http://creativecommons.org/licenses/publicdomain/">
        <cc:permits rdf:resource="http://creativecommons.org/ns#Reproduction"/>
        <cc:permits rdf:resource="http://creativecommons.org/ns#Distribution"/>
        <cc:permits rdf:resource="http://creativecommons.org/ns#DerivativeWorks"/>
      </cc:License>
    </rdf:RDF>
  </metadata>
</svg>
