<?xml version="1.0"?>
<svg xmlns:rdf="http://www.w3.org/1999/02/22-rdf-syntax-ns#" xmlns="http://www.w3.org/2000/svg" xmlns:cc="http://creativecommons.org/ns#" xmlns:xlink="http://www.w3.org/1999/xlink" xmlns:dc="http://purl.org/dc/elements/1.1/" id="svg2" viewBox="0 0 128 128" version="1.0">
  <defs id="defs4">
    <linearGradient id="linearGradient2320">
      <stop id="stop2322" stop-color="#6a3c1d" offset="0"/>
      <stop id="stop2324" stop-color="#8f5127" offset="1"/>
    </linearGradient>
    <linearGradient id="linearGradient2338">
      <stop id="stop2340" stop-color="#b1b1b1" offset="0"/>
      <stop id="stop2342" stop-color="#e4e4e4" offset="1"/>
    </linearGradient>
    <linearGradient id="linearGradient2370" x1="57.119" xlink:href="#linearGradient2320" gradientUnits="userSpaceOnUse" x2="61.522" y1="61.83" y2="61.83"/>
    <linearGradient id="linearGradient2374" x1="52.838" xlink:href="#linearGradient2320" gradientUnits="userSpaceOnUse" x2="74.487" y1="53.207" y2="35.228"/>
    <linearGradient id="linearGradient2378" x1="51.37" xlink:href="#linearGradient2320" gradientUnits="userSpaceOnUse" x2="68.861" y1="37.98" y2="32.292"/>
    <linearGradient id="linearGradient2382" x1="45.133" xlink:href="#linearGradient2320" gradientUnits="userSpaceOnUse" x2="49.291" y1="42.811" y2="49.66"/>
    <linearGradient id="linearGradient2973" x1="51.86" xlink:href="#linearGradient2338" gradientUnits="userSpaceOnUse" x2="54.428" y1="105.68" y2="98.523"/>
    <linearGradient id="linearGradient2975" x1="64.213" xlink:href="#linearGradient2338" gradientUnits="userSpaceOnUse" x2="65.62" y1="97.545" y2="95.588"/>
    <linearGradient id="linearGradient2977" x1="65.62" xlink:href="#linearGradient2338" gradientUnits="userSpaceOnUse" x2="70.451" y1="107.51" y2="100.66"/>
    <filter id="filter3010" y="-.080987" width="1.2357" x="-.11785" height="1.162">
      <feGaussianBlur id="feGaussianBlur3012" stdDeviation="1.8576336"/>
    </filter>
  </defs>
  <g id="layer2" fill-rule="evenodd">
    <path id="path2981" filter="url(#filter3010)" fill-opacity=".62745" d="m48.846 53.178c-3.076 1.062-1.266 3.675-1.942 5.483-1.494 1.647 4.28 4.625-0.719 4.427-2.626 0.703-8.79-0.342-7.63 2.398 0.276 1.648-1.195 3.746 0.424 5.095 1.563 1.832 0.206 4.381 3.983 5.515 2.129 1.306 4.898-1.065 7.489-1.351 0.583 4.093 1.924 8.204 2.259 12.285-0.531 2.844-0.401 5.816 0.771 8.707 1.785 2.992 1.391 6.103 2.177 9.143 0.689 2.19 5.94 1.51 8.472 2.95 4.023 1.31 6.297-1.18 9.924-0.88 4.098-0.12 0.928-2.75-1.306-3.44-3.09-0.82-5.606-1.6-6.926-3.553-2.524-0.977-6.093-0.334-5.331-2.691-1.163-6.035-2.955-12.079-3.48-18.11-0.059-2.093-0.185-4.253 0.124-6.282 3.316-1.344 7.323-2.141 10.818-3.359 2.656-1.278 5.694-4.124 6.144-5.646-3.368-0.776-6.89-1.34-10.028-2.472-3.255 0.004-6.445 0.641-9.688 0.866-1.446-0.756-0.939-3.118-1.56-4.508-0.814-1.397 0.427-3.507-1.994-4.371-0.635-0.161-1.323-0.258-1.981-0.206zm-8.245 11.55c1.818 0.726 2.537 1.386 0 0zm14.044 35.342c-3.764 0.55-4.958 2.66-6.345 4.57-2.591 1.43 0.526 3.97 3.54 2.61 3.085-0.75 4.561-2.12 3.345-4.21l-0.54-2.97zm9.368 1.68c1.068 0.23-3.653 0.38-0.439 0.07l0.439-0.07zm-5.046 2.84c0.57 1.1 0.089 1.46 0 0z"/>
    <path id="path2368" d="m56.997 18.777l-1.468 10.274 1.345 4.036-0.367 22.016 0.245 17.735-1.101 5.626-0.244 7.828 0.978 5.137-0.122 13.581 2.446 1.46 1.712-0.12-0.978-2.2 0.611-3.3 2.569-1.838-0.612-32.534 0.367-7.583 1.101-8.807-1.345-18.346-0.245-13.21-1.712-1.345h-1.346l-1.834 1.59z" fill="url(#linearGradient2370)"/>
    <path id="path2372" d="m49.78 56.448l0.612-8.561-1.346-1.223 1.101-8.684 24.218-5.871 8.317 3.18-6.483 8.684-26.419 12.475z" fill="url(#linearGradient2374)"/>
    <path id="path2376" d="m50.27 37.98l-3.547-2.936 25.685-4.281 2.446 1.59-24.584 5.627z" fill="url(#linearGradient2378)"/>
    <path id="path2380" d="m50.147 38.102l-3.424-3.302-1.59 10.885 0.978 0.979 0.489 6.727 3.425 3.302 0.367-8.806-1.223-1.101 0.978-8.684z" fill="url(#linearGradient2382)"/>
    <path id="path2384" fill-opacity=".15686" d="m50.147 38.102l-3.424-3.302-1.59 10.885 0.978 0.979 0.489 6.727 3.425 3.302 0.367-8.806-1.223-1.101 0.978-8.684z"/>
    <path id="path2963" fill-opacity=".12549" fill="#fff" d="m50.27 37.98l-3.547-2.936 25.685-4.281 2.446 1.59-24.584 5.627z"/>
    <path id="path2965" fill-opacity=".12549" fill="#fff" d="m58.709 17.309l-1.468 1.101 0.856 1.835 0.979 0.611 1.957-1.101 1.101-1.1-0.734-0.857-2.691-0.489z"/>
    <path id="path2967" d="m60.177 106.47l-0.612-2.81 0.367-2.94 2.691-1.708 3.18-0.489 2.935 0.367 3.18 1.47 1.957 1.1 1.468 1.71 1.223 1.35-0.122 1.71-1.345 0.85-3.058-0.12-3.303 2.2-4.158-0.36-4.403-2.33z" fill="url(#linearGradient2977)"/>
    <path id="path2969" d="m62.256 98.279l-0.122-4.281 2.324 0.122 2.935 1.223 0.856 1.468 0.856 2.324-3.914-0.734-2.813 0.734-0.122-0.856z" fill="url(#linearGradient2975)"/>
    <path id="path2971" d="m56.14 95.588l-3.791 1.834-1.223 2.08-1.957 3.298-1.59 3.06 0.489 1.59 1.101 0.74 2.324-0.25 4.647-2.93v-9.422z" fill="url(#linearGradient2973)"/>
    <path id="path2979" fill-opacity=".15686" d="m56.14 95.588l-3.791 1.834-1.223 2.08-1.957 3.298-1.59 3.06 0.489 1.59 1.101 0.74 2.324-0.25 4.647-2.93v-9.422z"/>
  </g>
  <g id="layer1">
    <path id="path2316" fill-rule="evenodd" d="m59.891 16.719c-1.238 0.008-2.317 0.978-3.407 1.875l-1.218 9.656 1.093 5-9.968 1.531-1.438 10.938 0.875 1.062 0.531 6.969 3.375 3.312 6.469-3.031-0.156 18.719c-1.481 6.083-1.674 12.167-0.156 18.25l-0.032 4.469c-1.309 0.193-2.528 1.164-3.656 1.843-1.032 1.613-2.029 3.358-3.219 4.908-1.958 2.05-2.729 4.92 0.094 6.28h0.094c2.531 0.02 5.226-1.49 6.906-2.75 1.298 0.75 2.63 1.31 4.125 0.97 2.119 1.73 4.684 2.47 7.406 2.78 2.407-0.05 4.113-1.99 6.438-2.25 1.851 0.44 2.589-0.3 2.875-2.13-1.673-3.63-4.67-5.296-8.125-6.432h0.125c0.507-3.492-3.373-4.915-6.313-4.782l-0.093-29.281c0.399-4.802-0.027-9.196 1.562-14.594l12.406-5.75 6.563-9.281-10.813-4.469c-3.043 0.476-6.29 1.223-9.343 1.781l-0.563-14.343c-0.896-0.919-1.695-1.255-2.437-1.25zm-0.719 1.187c0.652-0.005 1.372 0.435 2.156 1.156l0.063 13.313c-0.936 0.17-0.938 0.17-1.907 0.344-0.753 0.135-1.375 0.241-2.125 0.375l-0.718-3.969 0.843-9.656c0.452-1.105 1.036-1.557 1.688-1.563zm1.937 1.532c-1.06 0.417-2.16 1.225-3.062 0.062l-0.188 0.375c1.053 2.394 1.93 0.866 3 0.187l0.25-0.624zm10.375 12.093l1.782 0.438-22.907 5.343-2.656-2.093c7.893-1.295 15.917-2.235 23.781-3.688zm3.375 1.063l7.25 2.625-6.156 8.219-14.469 6.937h-0.031v0.031l-10.937 5.656 0.125-8.312-1.313-0.969 1.469-8.562 24.062-5.625zm-27.718 3.218l2.656 2.313-1.063 8.563 1.032 0.874v8.219l-2.844-2.343-0.5-6.657-0.875-1.062 1.594-9.907zm23.062 1.313l-2.25 0.031-4.594 3.032-1.812-1.813-2.906 2.781-1.813-1.5-0.594 3.094c-1.135-0.237-1.89-1.272-2.656-2.062l-0.344 0.062c0.816 1.553 1.825 2.365 3.407 2.75l0.875-2.406 1.062 0.5 2.969-2.813 1.562 2.031c2.505-1.412 4.209-3.04 7.219-2.687l3.031 0.375 0.125-0.031-3.125-1.344h-0.156zm-1.406 5.125l-1.094 2.094-1.344-0.563-0.281 0.157 2.063 1.718 1.125-2.156 0.937-0.406 0.031-0.313-1.437-0.531zm-6.688 2.594l-2.718 2.844-1.657-1.594-1.968 3.312-1.094-2.031-0.375 0.094 1.469 3.75 2.343-3.813 1.219 0.563 2.656-1.969 0.813 0.875 0.219-0.094-0.907-1.937zm0.969 5.656c-1.731 5.555-1.039 9.5-1.562 14.25l0.125 33.875c-2.258 1.17-3.136 3.695-2.032 7.315-1.083 0.47-1.829-0.2-2.843-1.41l0.125-13.155c-1.609-6.209-1.228-12.416 0.156-18.625l0.156-19.188 5.875-3.062zm-0.469 43.781c2.534-0.117 5.193 1.888 5.688 4.25-0.666-0.207-1.341-0.411-2.031-0.593-1.38-0.136-2.604-0.023-3.625 0.281l-0.032-3.938zm-6.75 1.907l-0.093 8.592-0.032-0.06c-1.516 1.19-4.301 3.36-6.5 3.37-1.947-0.99-0.78-3.75 0.375-5.06l0.032-0.03 0.031-0.03c1.416-1.51 1.652-3.348 2.594-4.97 0.902-0.577 2.552-1.338 3.593-1.812zm10.313 2.75c3.652 0.641 8.81 2.532 10.187 6.152-0.187 1.18-1.003 1.21-2.062 1.16-2.409 0.04-4.244 1.72-6.469 2.44-2.036 0.11-3.924-0.58-5.687-1.5l0.531-1.75v-0.03l3.687-3.16-0.156-0.09-3.781 2.62-0.875-2.28-0.125 0.09 0.687 2.66-0.781 1.47c-0.329-0.19-0.646-0.37-0.969-0.56-1.741-4.79 1.526-7.212 5.813-7.222z"/>
  </g>
  <metadata>
    <rdf:RDF>
      <cc:Work>
        <dc:format>image/svg+xml</dc:format>
        <dc:type rdf:resource="http://purl.org/dc/dcmitype/StillImage"/>
        <cc:license rdf:resource="http://creativecommons.org/licenses/publicdomain/"/>
        <dc:publisher>
          <cc:Agent rdf:about="http://openclipart.org/">
            <dc:title>Openclipart</dc:title>
          </cc:Agent>
        </dc:publisher>
      </cc:Work>
      <cc:License rdf:about="http://creativecommons.org/licenses/publicdomain/">
        <cc:permits rdf:resource="http://creativecommons.org/ns#Reproduction"/>
        <cc:permits rdf:resource="http://creativecommons.org/ns#Distribution"/>
        <cc:permits rdf:resource="http://creativecommons.org/ns#DerivativeWorks"/>
      </cc:License>
    </rdf:RDF>
  </metadata>
</svg>
