<?xml version="1.0"?>
<svg xmlns:rdf="http://www.w3.org/1999/02/22-rdf-syntax-ns#" xmlns="http://www.w3.org/2000/svg" xmlns:cc="http://creativecommons.org/ns#" xmlns:xlink="http://www.w3.org/1999/xlink" xmlns:dc="http://purl.org/dc/elements/1.1/" id="svg2" viewBox="0 0 128 128" version="1.0">
  <defs id="defs4">
    <linearGradient id="linearGradient3332">
      <stop id="stop3334" stop-color="#bb8f56" offset="0"/>
      <stop id="stop3336" stop-color="#d1af63" offset="1"/>
    </linearGradient>
    <linearGradient id="linearGradient2320">
      <stop id="stop2322" stop-color="#6a3c1d" offset="0"/>
      <stop id="stop2324" stop-color="#8f5127" offset="1"/>
    </linearGradient>
    <linearGradient id="linearGradient3049">
      <stop id="stop3051" stop-color="#cfc7a9" offset="0"/>
      <stop id="stop3053" stop-color="#eeebe0" offset="1"/>
    </linearGradient>
    <linearGradient id="linearGradient2527" x1="50.249" xlink:href="#linearGradient2320" gradientUnits="userSpaceOnUse" x2="37.362" y1="88.303" y2="70.659"/>
    <linearGradient id="linearGradient2531" x1="31.222" xlink:href="#linearGradient2320" gradientUnits="userSpaceOnUse" x2="50.249" y1="82.205" y2="95.351"/>
    <linearGradient id="linearGradient2535" x1="57.859" xlink:href="#linearGradient2320" gradientUnits="userSpaceOnUse" x2="108.37" y1="95.957" y2="53.059"/>
    <linearGradient id="linearGradient2539" x1="95.688" xlink:href="#linearGradient2320" gradientUnits="userSpaceOnUse" x2="96.202" y1="71.406" y2="59.656"/>
    <linearGradient id="linearGradient2543" x1="108.47" xlink:href="#linearGradient2320" gradientUnits="userSpaceOnUse" x2="107.25" y1="69.076" y2="63.826"/>
    <linearGradient id="linearGradient2547" x1="109.31" xlink:href="#linearGradient2320" gradientUnits="userSpaceOnUse" x2="110.38" y1="68.938" y2="62.582"/>
    <linearGradient id="linearGradient2551" x1="111.38" xlink:href="#linearGradient2320" gradientUnits="userSpaceOnUse" x2="111.31" y1="64.406" y2="65.844"/>
    <linearGradient id="linearGradient2558" x1="104.62" xlink:href="#linearGradient2320" gradientUnits="userSpaceOnUse" x2="112.19" y1="82.812" y2="47.375"/>
    <linearGradient id="linearGradient2562" x1="118.38" xlink:href="#linearGradient2320" gradientUnits="userSpaceOnUse" x2="119.12" y1="55.656" y2="66.156"/>
    <linearGradient id="linearGradient2566" x1="113.5" xlink:href="#linearGradient2320" gradientUnits="userSpaceOnUse" x2="115.25" y1="56.375" y2="57.312"/>
    <linearGradient id="linearGradient2570" x1="116.38" xlink:href="#linearGradient2320" gradientUnits="userSpaceOnUse" x2="116.5" y1="62.906" y2="65"/>
    <linearGradient id="linearGradient2574" x1="114.44" xlink:href="#linearGradient2320" gradientUnits="userSpaceOnUse" x2="113.88" y1="69.562" y2="70.125"/>
    <linearGradient id="linearGradient2578" x1="109.81" xlink:href="#linearGradient2320" gradientUnits="userSpaceOnUse" x2="108.88" y1="74.688" y2="74.75"/>
    <linearGradient id="linearGradient2582" x1="104.5" xlink:href="#linearGradient2320" gradientUnits="userSpaceOnUse" x2="105" y1="71.375" y2="71.75"/>
    <linearGradient id="linearGradient2586" x1="102.31" xlink:href="#linearGradient2320" gradientUnits="userSpaceOnUse" x2="102.47" y1="66.625" y2="67.281"/>
    <linearGradient id="linearGradient2590" x1="103.25" xlink:href="#linearGradient2320" gradientUnits="userSpaceOnUse" x2="103.38" y1="66.5" y2="68.812"/>
    <linearGradient id="linearGradient2594" x1="103.94" xlink:href="#linearGradient2320" gradientUnits="userSpaceOnUse" x2="103.12" y1="60.562" y2="61.219"/>
    <linearGradient id="linearGradient2600" x1="107.88" xlink:href="#linearGradient2320" gradientUnits="userSpaceOnUse" x2="107" y1="55.125" y2="55.188"/>
    <linearGradient id="linearGradient3233" x1="95.688" xlink:href="#linearGradient2320" gradientUnits="userSpaceOnUse" y1="71.406" gradientTransform="translate(-38.862 25.716)" x2="96.202" y2="59.656"/>
    <linearGradient id="linearGradient3235" x1="108.47" xlink:href="#linearGradient2320" gradientUnits="userSpaceOnUse" y1="69.076" gradientTransform="translate(-38.862 25.716)" x2="107.25" y2="63.826"/>
    <linearGradient id="linearGradient3237" x1="109.31" xlink:href="#linearGradient2320" gradientUnits="userSpaceOnUse" y1="68.938" gradientTransform="translate(-38.862 25.716)" x2="110.38" y2="62.582"/>
    <linearGradient id="linearGradient3239" x1="111.38" xlink:href="#linearGradient2320" gradientUnits="userSpaceOnUse" y1="64.406" gradientTransform="translate(-38.862 25.716)" x2="111.31" y2="65.844"/>
    <linearGradient id="linearGradient3241" x1="104.62" xlink:href="#linearGradient2320" gradientUnits="userSpaceOnUse" y1="82.812" gradientTransform="translate(-38.862 25.716)" x2="112.19" y2="47.375"/>
    <linearGradient id="linearGradient3243" x1="118.38" xlink:href="#linearGradient2320" gradientUnits="userSpaceOnUse" y1="55.656" gradientTransform="translate(-38.862 25.716)" x2="119.12" y2="66.156"/>
    <linearGradient id="linearGradient3245" x1="113.5" xlink:href="#linearGradient2320" gradientUnits="userSpaceOnUse" y1="56.375" gradientTransform="translate(-38.862 25.716)" x2="115.25" y2="57.312"/>
    <linearGradient id="linearGradient3247" x1="116.38" xlink:href="#linearGradient2320" gradientUnits="userSpaceOnUse" y1="62.906" gradientTransform="translate(-38.862 25.716)" x2="116.5" y2="65"/>
    <linearGradient id="linearGradient3249" x1="114.44" xlink:href="#linearGradient2320" gradientUnits="userSpaceOnUse" y1="69.562" gradientTransform="translate(-38.862 25.716)" x2="113.88" y2="70.125"/>
    <linearGradient id="linearGradient3251" x1="109.81" xlink:href="#linearGradient2320" gradientUnits="userSpaceOnUse" y1="74.688" gradientTransform="translate(-38.862 25.716)" x2="108.88" y2="74.75"/>
    <linearGradient id="linearGradient3253" x1="104.5" xlink:href="#linearGradient2320" gradientUnits="userSpaceOnUse" y1="71.375" gradientTransform="translate(-38.862 25.716)" x2="105" y2="71.75"/>
    <linearGradient id="linearGradient3255" x1="103.25" xlink:href="#linearGradient2320" gradientUnits="userSpaceOnUse" y1="66.5" gradientTransform="translate(-38.862 25.716)" x2="103.38" y2="68.812"/>
    <linearGradient id="linearGradient3257" x1="102.31" xlink:href="#linearGradient2320" gradientUnits="userSpaceOnUse" y1="66.625" gradientTransform="translate(-38.862 25.716)" x2="102.47" y2="67.281"/>
    <linearGradient id="linearGradient3259" x1="103.94" xlink:href="#linearGradient2320" gradientUnits="userSpaceOnUse" y1="60.562" gradientTransform="translate(-38.862 25.716)" x2="103.12" y2="61.219"/>
    <linearGradient id="linearGradient3261" x1="107.88" xlink:href="#linearGradient2320" gradientUnits="userSpaceOnUse" y1="55.125" gradientTransform="translate(-38.862 25.716)" x2="107" y2="55.188"/>
    <linearGradient id="linearGradient3303" x1="95.688" xlink:href="#linearGradient2320" gradientUnits="userSpaceOnUse" y1="71.406" gradientTransform="translate(-72.084 14.184)" x2="96.202" y2="59.656"/>
    <linearGradient id="linearGradient3311" x1="104.62" xlink:href="#linearGradient2320" gradientUnits="userSpaceOnUse" y1="82.812" gradientTransform="translate(-72.084 14.184)" x2="112.19" y2="47.375"/>
    <linearGradient id="linearGradient3321" x1="109.81" xlink:href="#linearGradient2320" gradientUnits="userSpaceOnUse" y1="74.688" gradientTransform="translate(-72.084 14.184)" x2="108.88" y2="74.75"/>
    <linearGradient id="linearGradient3323" x1="104.5" xlink:href="#linearGradient2320" gradientUnits="userSpaceOnUse" y1="71.375" gradientTransform="translate(-72.084 14.184)" x2="105" y2="71.75"/>
    <linearGradient id="linearGradient3327" x1="102.31" xlink:href="#linearGradient2320" gradientUnits="userSpaceOnUse" y1="66.625" gradientTransform="translate(-72.084 14.184)" x2="102.47" y2="67.281"/>
    <linearGradient id="linearGradient3335" x1="38.692" xlink:href="#linearGradient3049" gradientUnits="userSpaceOnUse" x2="35.621" y1="59.212" y2="67.211"/>
    <linearGradient id="linearGradient3343" x1="46.139" xlink:href="#linearGradient2320" gradientUnits="userSpaceOnUse" x2="39.289" y1="70.724" y2="59.543"/>
    <linearGradient id="linearGradient3347" x1="39.421" xlink:href="#linearGradient3332" gradientUnits="userSpaceOnUse" x2="39.863" y1="72.669" y2="71.608"/>
    <linearGradient id="linearGradient3351" x1="47.774" xlink:href="#linearGradient3332" gradientUnits="userSpaceOnUse" x2="50.116" y1="68.051" y2="69.288"/>
    <linearGradient id="linearGradient3357" x1="41.763" xlink:href="#linearGradient2320" gradientUnits="userSpaceOnUse" x2="44.194" y1="60.803" y2="60.449"/>
    <linearGradient id="linearGradient3361" x1="33.72" xlink:href="#linearGradient3049" gradientUnits="userSpaceOnUse" x2="36.858" y1="66.438" y2="66.438"/>
    <linearGradient id="linearGradient3365" x1="31.555" xlink:href="#linearGradient3049" gradientUnits="userSpaceOnUse" x2="35.046" y1="59.632" y2="59.145"/>
    <linearGradient id="linearGradient3369" x1="29.072" xlink:href="#linearGradient3049" gradientUnits="userSpaceOnUse" x2="32.88" y1="49.512" y2="50.528"/>
    <linearGradient id="linearGradient3373" x1="35.134" xlink:href="#linearGradient3049" gradientUnits="userSpaceOnUse" x2="37.432" y1="43.876" y2="47.324"/>
    <linearGradient id="linearGradient3377" x1="49.453" xlink:href="#linearGradient3049" gradientUnits="userSpaceOnUse" x2="47.288" y1="49.688" y2="51.677"/>
    <linearGradient id="linearGradient3381" x1="57.276" xlink:href="#linearGradient3049" gradientUnits="userSpaceOnUse" x2="54.933" y1="58.925" y2="60.825"/>
    <linearGradient id="linearGradient3385" x1="58.911" xlink:href="#linearGradient3049" gradientUnits="userSpaceOnUse" x2="56.613" y1="70.857" y2="71.078"/>
    <linearGradient id="linearGradient3389" x1="59.662" xlink:href="#linearGradient3049" gradientUnits="userSpaceOnUse" x2="55.773" y1="78.016" y2="77.84"/>
    <linearGradient id="linearGradient3411" x1="67.409" xlink:href="#linearGradient3049" gradientUnits="userSpaceOnUse" x2="87.086" y1="70.543" y2="16.749"/>
    <linearGradient id="linearGradient3415" x1="26.174" xlink:href="#linearGradient2320" gradientUnits="userSpaceOnUse" x2="29.66" y1="106.35" y2="108.43"/>
    <linearGradient id="linearGradient3419" x1="28.467" xlink:href="#linearGradient2320" gradientUnits="userSpaceOnUse" x2="30.346" y1="107.44" y2="108.24"/>
    <linearGradient id="linearGradient3423" x1="13.638" xlink:href="#linearGradient2320" gradientUnits="userSpaceOnUse" x2="28.559" y1="112.16" y2="121.76"/>
    <linearGradient id="linearGradient3427" x1="19.08" xlink:href="#linearGradient2320" gradientUnits="userSpaceOnUse" x2="19.692" y1="114.06" y2="112.65"/>
    <linearGradient id="linearGradient3431" x1="31.923" xlink:href="#linearGradient2320" gradientUnits="userSpaceOnUse" x2="33.33" y1="121.55" y2="121.92"/>
    <linearGradient id="linearGradient3460" y2="38.816" gradientUnits="userSpaceOnUse" y1="46.771" x2="102.53" x1="97.05">
      <stop id="stop3456" stop-color="#004300" offset="0"/>
      <stop id="stop3458" stop-color="#006200" offset="1"/>
    </linearGradient>
    <linearGradient id="linearGradient3468" y2="44.561" gradientUnits="userSpaceOnUse" y1="51.632" x2="71.418" x1="68.324">
      <stop id="stop3464" stop-color="#4f0000" offset="0"/>
      <stop id="stop3466" stop-color="#610000" offset="1"/>
    </linearGradient>
    <filter id="filter3492">
      <feGaussianBlur id="feGaussianBlur3494" stdDeviation="2.3225316"/>
    </filter>
  </defs>
  <g id="layer2" fill-rule="evenodd">
    <path id="path3470" filter="url(#filter3492)" fill-opacity=".66667" d="m14.319 124.11l3.133-9.44-5.96-1.58 1.518-3.72 6.395 3.12 10.048-22.37-11.599-8.612 11.844-10.784-6.894-8.131 53.564-27.578 31.462 21.214s0.36 15.026-2.82 14.319c-3.19-0.708-13.97 0.53-13.97 0.53l-14.319 9.899s2.475 9.016-0.353 10.253c-2.829 1.238-12.728 0.531-12.728 0.531l-15.026 7.424-16.655-7.601-10.392 23.516 10.253 4.77-1.238 2.47-8.838-4.42-2.475 6.54-4.95-0.35z"/>
    <path id="path3409" fill="url(#linearGradient3411)" d="m33.853 43.501l3.093-0.354 4.066 0.177 4.773 2.563 5.48 3.978 3.005 3.27 3.713 3.978 0.353 1.06 2.976 25.639 15.438-10.5 19.875-13.812 13.815-8.875-0.94-8-0.94-7.437-1.5-11.126-6.62-7.75-5.128-4.124-5.25-2.6255-4.374-0.375-3.563 0.6875-2.813 2.25-1.75 1.875-1 2.625-1.687 2-2.125 2.063-3.375 3.062-6 4.25-4.125 2.438-3.688 2.062-4.874 2.875-6.938 3.5-9.897 4.626z"/>
    <path id="path2533" fill="url(#linearGradient2535)" d="m52.238 89.686l43.935-29.664 14.267-9.946-0.95 11.156-27.068 18.509-27.676 19.2-2.508-9.255z"/>
    <path id="path2537" fill="url(#linearGradient2539)" d="m108.75 48.125l-4.5 1.625-3.87 3.562-2.692 3.626-1.376 2.75-1.312 4.937 0.25 6.937 2.125 6.126s1.813 1.75 2.25 2.124c0.435 0.376 2.935 1.813 2.935 1.813l3.25 0.5h2.5l3.19-1.25-5.88 0.125-5.56-3-2.748-6.938-0.374-4.812 1.062-4.875 2.56-5.937s3.56-3.5 3.75-3.75 3.94-2.376 3.94-2.376 3.13-0.624 2.87-0.75c-0.24-0.124-2.5-0.374-2.37-0.437z"/>
    <path id="path2541" d="m105.5 68.688l-0.75-1.188-0.44-2.188 0.63-1.812 1.37-1.938s2.19-0.812 2.81-0.437c0.63 0.375 2.69 0.437 2.69 0.437l0.81 1.813-0.93 4.375-1.31 1.062-1.88 0.438-1.88 0.25-1.12-0.812z" fill="url(#linearGradient2543)"/>
    <path id="path3185" fill-opacity=".15686" d="m105.5 68.688l-0.75-1.188-0.44-2.188 0.63-1.812 1.37-1.938s2.19-0.812 2.81-0.437c0.63 0.375 2.69 0.437 2.69 0.437l0.81 1.813-0.93 4.375-1.31 1.062-1.88 0.438-1.88 0.25-1.12-0.812z"/>
    <path id="path2545" d="m111.88 67.562l-2.5 1.376-1.5-0.376-0.82-1.75 0.25-2.624 0.57-1.438s1.31-1.75 1.87-1.5 2.25 0.438 2.25 0.438l0.69 1.437-0.81 4.437z" fill="url(#linearGradient2547)"/>
    <path id="path2549" d="m114.06 63.5l-4.44-0.125-0.62 1.25-0.12 1.25 0.43 1.563 4.44-0.063 0.75-0.937 0.31-1.313-0.75-1.625z" fill="url(#linearGradient2551)"/>
    <path id="path2553" fill="url(#linearGradient2558)" d="m113.44 48.188l-3.38 0.437-3.62 1.375-3.94 3.438-1.75 2.062-1.25 2.25-1.938 5.375-0.624 4.625 0.374 4.25 1.376 3.562 2.692 3.626 3.93 2.124 4.31-0.062 3.32-1.375 3.25-2.625 2.87-3.312 2.69-6.688 0.44-8.875-1.94-5.375-3.37-3.062-3.44-1.75zm-2.5 2.374l2.5 0.188 2.56 0.938 2.94 2.937 1.18 3.063 0.69 3.437-0.62 5.313-1.69 4.687-2.62 3.875-3.57 2.938-2.87 0.937-3.75-0.187-2.69-1.188-2.81-3.875-1.128-4.25v-3.937l0.938-4 1.25-3.438 3.37-4.188 3.63-2.562 2.69-0.688z"/>
    <path id="path2560" d="m108.25 51.375l3 0.25 2.31 0.937 4.13 4.126 1.06 3.812 0.13 4.875-0.57 4.437-1 3.188 1.44-2.625 1.44-4.375 0.43-2.812-0.5-4.126-0.93-3.874-2.19-2.75-2.5-1.376s-1.19-0.5-2.06-0.5c-0.88 0-2.44 0.25-2.44 0.25l-1.75 0.563z" fill="url(#linearGradient2562)"/>
    <path id="path2604" fill-opacity=".15686" d="m108.25 51.375l3 0.25 2.31 0.937 4.13 4.126 1.06 3.812 0.13 4.875-0.57 4.437-1 3.188 1.44-2.625 1.44-4.375 0.43-2.812-0.5-4.126-0.93-3.874-2.19-2.75-2.5-1.376s-1.19-0.5-2.06-0.5c-0.88 0-2.44 0.25-2.44 0.25l-1.75 0.563z"/>
    <path id="path2564" d="m110.56 61l4.94-8.188 1.06 0.376 1.06 1.687-1 1.813-4.43 5.124-1.63-0.812z" fill="url(#linearGradient2566)"/>
    <path id="path2568" fill="url(#linearGradient2570)" d="m113.5 63.438l6.31-1.5 0.5 1.25-0.69 1.624-4.93 0.188c-0.19-0.627-0.07-1.405-1.19-1.562z"/>
    <path id="path2572" fill="url(#linearGradient2574)" d="m111.56 68l5.38 5.625 1-2.25-5.19-4.063h-0.69l-0.5 0.688z"/>
    <path id="path2576" fill="url(#linearGradient2578)" d="m108.31 69.125l0.19 10 2.5-0.5-0.94-9.75-1.75 0.25z"/>
    <path id="path2580" fill="url(#linearGradient2582)" d="m102.69 76.688l4.87-7.813-0.44-0.625-1.06-0.188-5 7 1.44 2.188 0.19-0.562z"/>
    <path id="path2588" fill="url(#linearGradient2590)" d="m105.56 68.812l-5.12-0.25 2.31-2.874 1.87-1.25-0.37 0.874 0.56 2.376 0.75 1.124z"/>
    <path id="path2606" fill-opacity=".15686" d="m105.56 68.812l-5.12-0.25 2.31-2.874 1.87-1.25-0.37 0.874 0.56 2.376 0.75 1.124z"/>
    <path id="path2584" fill="url(#linearGradient2586)" d="m99.062 66.062l6.558-0.437 0.44 0.875-0.44 0.688-6.745 1.75 0.125-2.126 0.062-0.75z"/>
    <path id="path2592" fill="url(#linearGradient2594)" d="m100.31 60.188l5.81 4.5 0.63-0.688 0.06-1.375-5.37-4.875-1.13 2.438z"/>
    <path id="path2598" fill="url(#linearGradient2600)" d="m105.94 52.562l1.18 9.126 0.63 0.437 1.06-0.937-0.37-10-2.5 1.374z"/>
    <path id="path2602" fill-opacity=".15686" d="m108.75 48.125l-4.5 1.625-3.87 3.562-2.692 3.626-1.376 2.75-1.312 4.937 0.25 6.937 2.125 6.126s1.813 1.75 2.25 2.124c0.435 0.376 2.935 1.813 2.935 1.813l3.25 0.5h2.5l3.19-1.25-5.88 0.125-5.56-3-2.748-6.938-0.374-4.812 1.062-4.875 2.56-5.937s3.56-3.5 3.75-3.75 3.94-2.376 3.94-2.376 3.13-0.624 2.87-0.75c-0.24-0.124-2.5-0.374-2.37-0.437z"/>
    <path id="path3191" fill-opacity=".15686" d="m113.75 63.688l-0.94 0.812-0.06 1.562 1.13 1.313 0.68-0.875 0.25-1.312-0.56-1.313-0.5-0.187z"/>
    <path id="path3193" fill="url(#linearGradient3233)" d="m69.888 73.841l-4.5 1.625-3.875 3.563-2.688 3.625-1.375 2.75-1.312 4.937 0.25 6.938 2.125 6.121s1.812 1.75 2.25 2.13c0.437 0.37 2.937 1.81 2.937 1.81l3.25 0.5h2.5l3.188-1.25-5.875 0.13-5.563-3-2.75-6.941-0.375-4.813 1.063-4.875 2.562-5.937s3.563-3.5 3.75-3.75c0.188-0.25 3.938-2.375 3.938-2.375s3.125-0.625 2.875-0.75-2.5-0.375-2.375-0.438z"/>
    <path id="path3195" d="m66.638 94.404l-0.75-1.188-0.438-2.187 0.625-1.813 1.375-1.937s2.188-0.813 2.813-0.438 2.687 0.438 2.687 0.438l0.813 1.812-0.938 4.375-1.312 1.063-1.875 0.437-1.875 0.25-1.125-0.812z" fill="url(#linearGradient3235)"/>
    <path id="path3197" fill-opacity=".15686" d="m66.638 94.404l-0.75-1.188-0.438-2.187 0.625-1.813 1.375-1.937s2.188-0.813 2.813-0.438 2.687 0.438 2.687 0.438l0.813 1.812-0.938 4.375-1.312 1.063-1.875 0.437-1.875 0.25-1.125-0.812z"/>
    <path id="path3199" fill="url(#linearGradient3237)" d="m73.013 93.279l-2.5 1.375-1.5-0.375-0.813-1.75 0.25-2.625 0.563-1.438s1.377-1.138 1.875-1.5c0.687-0.5 2.273 0.297 2.25 0.438l0.687 1.437-0.812 4.438z"/>
    <path id="path3201" d="m75.2 89.216l-4.437-0.125-0.625 1.25-0.125 1.25 0.437 1.563 4.438-0.063 0.75-0.937 0.312-1.313-0.75-1.625z" fill="url(#linearGradient3239)"/>
    <path id="path3203" fill="url(#linearGradient3241)" d="m74.575 73.904l-3.375 0.437-3.625 1.375-3.937 3.438-1.75 2.062-1.25 2.25-1.938 5.375-0.625 4.625 0.375 4.25 1.375 3.564 2.688 3.62 3.937 2.13 4.313-0.06 3.312-1.38 3.25-2.62 2.875-3.316 2.688-6.688 0.437-8.875-1.937-5.375-3.375-3.062-3.438-1.75zm-2.5 2.375l2.5 0.187 2.563 0.938 2.937 2.937 1.188 3.063 0.687 3.437-0.625 5.313-1.687 4.687-2.625 3.879-3.563 2.93-2.875 0.94-3.75-0.19-2.687-1.18-2.813-3.879-1.125-4.25v-3.937l0.938-4 1.25-3.438 3.375-4.187 3.625-2.563 2.687-0.687z"/>
    <path id="path3205" d="m69.388 77.091l3 0.25 2.312 0.938 4.125 4.125 1.063 3.812 0.125 4.875-0.563 4.438-1 3.187 1.438-2.625 1.437-4.375 0.438-2.812-0.5-4.125-0.938-3.875-2.187-2.75-2.5-1.375s-1.188-0.5-2.063-0.5-2.437 0.25-2.437 0.25l-1.75 0.562z" fill="url(#linearGradient3243)"/>
    <path id="path3207" fill-opacity=".15686" d="m69.388 77.091l3 0.25 2.312 0.938 4.125 4.125 1.063 3.812 0.125 4.875-0.563 4.438-1 3.187 1.438-2.625 1.437-4.375 0.438-2.812-0.5-4.125-0.938-3.875-2.187-2.75-2.5-1.375s-1.188-0.5-2.063-0.5-2.437 0.25-2.437 0.25l-1.75 0.562z"/>
    <path id="path3209" d="m71.7 86.716l4.938-8.187 1.062 0.375 1.063 1.687-1 1.813-4.438 5.125-1.625-0.813z" fill="url(#linearGradient3245)"/>
    <path id="path3211" fill="url(#linearGradient3247)" d="m74.638 89.154l6.312-1.5 0.5 1.25-0.687 1.625-4.938 0.187c-0.184-0.627-0.065-1.405-1.187-1.562z"/>
    <path id="path3213" fill="url(#linearGradient3249)" d="m72.7 93.716l5.375 5.625 1-2.25-5.065-4.246-0.81 0.184-0.5 0.687z"/>
    <path id="path3215" fill="url(#linearGradient3251)" d="m69.45 94.841l0.188 9.999 2.5-0.5-0.938-9.749-1.75 0.25z"/>
    <path id="path3217" fill="url(#linearGradient3253)" d="m63.825 102.4l4.875-7.809-0.437-0.625-1.063-0.187-5 7.001 1.438 2.19 0.187-0.57z"/>
    <path id="path3219" fill="url(#linearGradient3255)" d="m66.7 94.529l-5.125-0.25 2.313-2.875 1.875-1.25-0.375 0.875 0.562 2.375 0.75 1.125z"/>
    <path id="path3221" fill-opacity=".15686" d="m66.7 94.529l-5.125-0.25 2.313-2.875 1.875-1.25-0.375 0.875 0.562 2.375 0.75 1.125z"/>
    <path id="path3223" fill="url(#linearGradient3257)" d="m60.2 91.779l6.563-0.438 0.437 0.875-0.437 0.688-6.75 1.75 0.125-2.125 0.062-0.75z"/>
    <path id="path3225" fill="url(#linearGradient3259)" d="m61.45 85.904l5.813 4.5 0.625-0.688 0.062-1.375-5.375-4.875-1.125 2.438z"/>
    <path id="path3227" fill="url(#linearGradient3261)" d="m67.075 78.279l1.188 9.125 0.625 0.437 1.062-0.937-0.375-10-2.5 1.375z"/>
    <path id="path3229" fill-opacity=".15686" d="m69.888 73.841l-4.5 1.625-3.875 3.563-2.688 3.625-1.375 2.75-1.312 4.937 0.25 6.938 2.125 6.121s1.812 1.75 2.25 2.13c0.437 0.37 2.937 1.81 2.937 1.81l3.25 0.5h2.5l3.188-1.25-5.875 0.13-5.563-3-2.75-6.941-0.375-4.813 1.063-4.875 2.562-5.937s3.563-3.5 3.75-3.75c0.188-0.25 3.938-2.375 3.938-2.375s3.125-0.625 2.875-0.75-2.5-0.375-2.375-0.438z"/>
    <path id="path3231" fill-opacity=".15686" d="m74.888 89.404l-0.938 0.812-0.062 1.563 1.125 1.312 0.687-0.875 0.25-1.312-0.562-1.313-0.5-0.187z"/>
    <path id="path3263" fill="url(#linearGradient3303)" d="m36.666 62.309l-4.5 1.625-3.875 3.562-2.687 3.625-1.375 2.75-1.313 4.938 0.25 6.937 2.125 6.125s1.813 1.75 2.25 2.125c0.438 0.375 2.938 1.813 2.938 1.813l3.25 0.5h2.5l3.187-1.25-5.875 0.125-5.562-3-2.75-6.938-0.375-4.812 1.062-4.875 2.563-5.938s3.562-3.5 3.75-3.75c0.187-0.25 3.937-2.375 3.937-2.375s3.125-0.625 2.875-0.75-2.5-0.375-2.375-0.437z"/>
    <path id="path3273" fill="url(#linearGradient3311)" d="m41.354 62.371l-3.375 0.438-3.625 1.375-3.938 3.437-1.75 2.063-1.25 2.25-1.937 5.375-0.625 4.625 0.375 4.25 1.375 3.562 2.687 3.625 3.938 2.125 4.312-0.062 3.313-1.375 3.25-2.625 2.875-3.313 2.687-6.687 0.438-8.875-1.938-5.375-3.375-3.063-3.437-1.75zm-2.5 2.375l2.5 0.188 2.562 0.937 2.938 2.938 1.187 3.062 0.688 3.438-0.625 5.312-1.688 4.688-2.625 3.875-3.562 2.937-2.875 0.938-3.75-0.188-2.688-1.187-2.812-3.875-1.125-4.25v-3.938l0.937-4 1.25-3.437 3.375-4.188 3.625-2.562 2.688-0.688z"/>
    <path id="path3285" fill="url(#linearGradient3321)" d="m36.229 83.309l0.187 10 2.5-0.5-0.937-9.75-1.75 0.25z"/>
    <path id="path3287" fill="url(#linearGradient3323)" d="m30.604 90.871l4.875-7.812-0.438-0.625-1.062-0.188-5 7 1.437 2.188 0.188-0.563z"/>
    <path id="path3293" fill="url(#linearGradient3327)" d="m26.979 80.246l6.562-0.437 0.438 0.875-0.438 0.687-6.75 1.75 0.125-2.125 0.063-0.75z"/>
    <path id="path3299" fill-opacity=".15686" d="m36.666 62.309l-4.5 1.625-3.875 3.562-2.687 3.625-1.375 2.75-1.313 4.938 0.25 6.937 2.125 6.125s1.813 1.75 2.25 2.125c0.438 0.375 2.938 1.813 2.938 1.813l3.25 0.5h2.5l3.187-1.25-5.875 0.125-5.562-3-2.75-6.938-0.375-4.812 1.062-4.875 2.563-5.938s3.562-3.5 3.75-3.75c0.187-0.25 3.937-2.375 3.937-2.375s3.125-0.625 2.875-0.75-2.5-0.375-2.375-0.437z"/>
    <path id="path2525" fill="url(#linearGradient2527)" d="m33.124 69.535l-10.032 5.708 28.8 14.53 5.622-3.719 1.643-3.632-26.033-12.887z"/>
    <path id="path2529" d="m23.611 75.503l6.313 10.724 24.822 12.714-2.941-9.255-28.194-14.183z" fill="url(#linearGradient2531)"/>
    <path id="path3333" fill="url(#linearGradient3335)" d="m36.77 66.04l-1.68-3.403 0.089-2.961-1.105-3.138-1.768-2.077 0.398-1.282s0.265-2.475 0.132-2.696c-0.132-0.221-0.751-1.988-0.751-1.988l1.945 0.574 1.944-0.044 1.856-0.795 2.122-1.857 1.149-1.149 1.812 2.519 3.889 4.022 4.596 2.431-8.925 7.67-5.703 4.174z"/>
    <path id="path3339" fill-opacity=".15686" d="m36.77 66.04l-1.68-3.403 0.089-2.961-1.105-3.138-1.768-2.077 0.398-1.282s0.265-2.475 0.132-2.696c-0.132-0.221-0.751-1.988-0.751-1.988l1.945 0.574 1.944-0.044 1.856-0.795 2.122-1.857 1.149-1.149 1.812 2.519 3.889 4.022 4.596 2.431-8.649 7.24-5.979 4.604z"/>
    <path id="path3341" fill="url(#linearGradient3343)" d="m36.681 65.775l5.092-3.612 9.492-7.967 1.989 0.574-0.221 3.58 1.105 3.756 2.254 4.287-0.486 1.989-0.221 3.005 0.928 3.58-1.105 1.503-0.53 2.033 0.928 2.474-21.081-10.739 1.282-1.326 0.574-1.635v-1.502z"/>
    <path id="path3345" d="m35.709 69.133l19.224 9.37 0.31 1.149 1.016 1.502-21.611-10.827 1.061-1.194z" fill="url(#linearGradient3347)"/>
    <path id="path3349" d="m45.608 69.84l8.441-7.778 1.15 2.166-9.06 9.811-0.221-1.017-0.31-3.182z" fill="url(#linearGradient3351)"/>
    <path id="path3353" fill-opacity=".15686" d="m36.681 65.775l5.092-3.612 9.492-7.967 1.989 0.574-0.221 3.58 1.105 3.756 2.254 4.287-0.486 1.989-0.221 3.005 0.928 3.58-1.105 1.503-0.53 2.033 0.928 2.474-21.081-10.739 1.282-1.326 0.574-1.635v-1.502z"/>
    <path id="path3355" d="m39.907 46.418l2.122 27.179 0.265 1.37 0.795 0.663 0.884 0.221 1.414-0.265 0.575-0.486-1.105-15.424-0.884-10.563-2.917-4.065-1.149 1.37z" fill="url(#linearGradient3357)"/>
    <path id="path3359" d="m31.864 63.83l3.27-1.193 1.238 2.077 0.486 2.077-2.121 3.447-1.724-0.795-1.149-5.613z" fill="url(#linearGradient3361)"/>
    <path id="path3363" d="m31.997 63.874l3.049-1.193-0.309-4.95-2.387-3.314-2.298 0.486 1.945 8.971z" fill="url(#linearGradient3365)"/>
    <path id="path3367" d="m30.185 54.947l2.033-0.53 0.662-1.901-0.662-3.933-2.033-2.475s-1.591 1.37-1.459 1.812c0.133 0.442 1.503 7.115 1.459 7.027z" fill="url(#linearGradient3369)"/>
    <path id="path3371" d="m30.273 46.152l1.679 2.254 1.636 0.531 3.005 0.088 1.768-1.016 1.414-1.37 1.326-1.503 0.442-1.591-4.994-0.486-2.961 0.619-1.459 0.795-2.033 1.458 0.177 0.221z" fill="url(#linearGradient3373)"/>
    <path id="path3375" fill="url(#linearGradient3377)" d="m41.454 43.457l5.082 2.784 6.718 5.17 2.033 2.564-1.105 0.398-1.193 0.397-6.232-2.872-3.403-3.492-2.298-3.358 0.089-1.415 0.309-0.176z"/>
    <path id="path3379" fill="url(#linearGradient3381)" d="m53.21 54.903l0.751-0.53 1.149-0.354 3.005 3.756 1.105 8.707-2.651 0.044-2.696-4.95-0.84-3.845 0.177-2.828z"/>
    <path id="path3383" fill="url(#linearGradient3385)" d="m56.524 66.57l2.696-0.132 1.149 9.28-3.756-0.663-1.017-3.049v-2.121l0.486-2.033 0.442-1.282z"/>
    <path id="path3387" fill="url(#linearGradient3389)" d="m56.745 75.011l3.359 0.751 0.972 3.89-1.988 2.74-3.182-1.547-0.928-1.901 0.044-1.502 1.723-2.431z"/>
    <path id="path3391" fill-opacity=".15686" d="m23.611 75.503l6.313 10.724 24.822 12.714-2.941-9.255-28.194-14.183z"/>
    <path id="path3393" fill-opacity=".15686" d="m31.864 63.83l3.27-1.193 1.238 2.077 0.486 2.077-2.121 3.447-1.724-0.795-1.149-5.613z"/>
    <path id="path3395" fill-opacity=".15686" d="m31.997 63.874l3.049-1.193-0.309-4.95-2.387-3.314-2.298 0.486 1.945 8.971z"/>
    <path id="path3397" fill-opacity=".15686" d="m30.185 54.947l2.033-0.53 0.662-1.901-0.662-3.933-2.033-2.475s-1.591 1.37-1.459 1.812c0.133 0.442 1.503 7.115 1.459 7.027z"/>
    <path id="path3399" fill-opacity=".15686" d="m30.273 46.152l1.679 2.254 1.636 0.531 3.005 0.088 1.768-1.016 1.414-1.37 1.326-1.503 0.442-1.591-4.994-0.486-2.961 0.619-1.459 0.795-2.033 1.458 0.177 0.221z"/>
    <path id="path3401" fill-opacity=".15686" d="m41.454 43.457l5.082 2.784 6.718 5.17 2.033 2.564-1.105 0.398-1.193 0.397-6.232-2.872-3.403-3.492-2.298-3.358 0.089-1.415 0.309-0.176z"/>
    <path id="path3403" fill-opacity=".15686" d="m53.21 54.903l0.751-0.53 1.149-0.354 3.005 3.756 1.105 8.707-2.651 0.044-2.696-4.95-0.84-3.845 0.177-2.828z"/>
    <path id="path3405" fill-opacity=".15686" d="m56.524 66.57l2.696-0.132 1.149 9.28-3.756-0.663-1.017-3.049v-2.121l0.486-2.033 0.442-1.282z"/>
    <path id="path3407" fill-opacity=".15686" d="m56.745 75.011l3.359 0.751 0.972 3.89-1.988 2.74-3.182-1.547-0.928-1.901 0.044-1.502 1.723-2.431z"/>
    <path id="path3421" d="m9.7237 114.48l2.2623-3.54 8.562 3.54 4.403 2.39 7.889 3.49-1.957 2.93-8.5-3.18-5.015-2.2-7.6443-3.43z" fill="url(#linearGradient3423)"/>
    <path id="path3425" d="m12.109 110.88l2.752-0.49 11.252 5.5 7.767 4.04-1.223 0.36-8.073-3.6-4.342-2.33-8.133-3.48z" fill="url(#linearGradient3427)"/>
    <path id="path3413" d="m36.204 89.289l-10.763 17.431-6.85 10.88-4.158 6.42 2.69 1.59 2.569-3.73 5.443-7.95 2.446-4.09 7.216-12.662 3.853-6.666-2.446-1.223z" fill="url(#linearGradient3415)"/>
    <path id="path3417" fill="url(#linearGradient3419)" d="m38.467 90.634c-6.323 11.786-13.399 23.356-21.221 34.736l1.834-0.43 6.544-10.39 2.669-4.34c2.3-3.74 4.362-7.39 6.504-11.075l4.587-8.073-0.917-0.428z"/>
    <path id="path3429" d="m31.067 123.23l1.651-2.75 1.284-0.61-1.529 3.3-1.406 0.06z" fill="url(#linearGradient3431)"/>
    <path id="path3448" fill-opacity=".15686" d="m77.361 14.251l1.468-1.467 2.874-2.63 1.529-0.3058-0.856 1.3458-2.263 3.057-2.874 2.997-2.63 2.385-3.914 3.18-0.978 0.428 2.263-1.834 2.324-2.202 2.201-2.446 0.856-2.508z"/>
    <path id="path3450" fill="url(#linearGradient3468)" d="m63.188 50.812l0.531 0.688 0.375 0.844 1 2.968 0.781-0.437 9.813-7-0.407-0.375-1.031-0.719-0.344-0.531-0.062-2.219-10.656 6.781z"/>
    <path id="path3452" fill="url(#linearGradient3460)" d="m94.406 42.688c0.313-0.094 9.314-6.126 9.314-6.126l1.06 7.657-8.811 5.937-1.563-7.468z"/>
  </g>
  <g id="layer1">
    <path id="path2500" d="m86.375 8.9688c-0.917 0.0033-1.86 0.1094-2.813 0.3124-2.36 0.6981-4.452 2.3198-6.156 4.9068-1.251 4.067-5.479 6.986-8.625 9.968-2.926 2.131-6.027 4.173-9.125 6-9.783 5.769-20.467 10.883-27.156 13.906-3.439 2.379-2.786 2.363-4 3.719l3.188 16.375c-0.535 0.414-1.068 0.859-1.626 1.344-2.796 2.435-4.925 5.415-6.281 9.125l-0.812 0.437 0.062 0.094-0.25-0.125 0.594 0.969c-1.212 4.688-0.714 9.294 0.563 13.938 1.474 3.289 3.656 5.285 7.624 6.218l-10.374 17.094-6.563-3.03-2.687 0.37-2.4068 4.03 8.1568 3.69-3.844 5.91 3.312 1.78 1.906-0.94 3.282-4.75 8.594 3.25 1.562-0.22 1.594-3.53-8.75-4.5 11.281-19.091c2.162-0.594 4.137-1.713 5.781-3.125 0.035-0.027 0.06-0.066 0.094-0.094l12.188 6.406 1.781-1.25c-0.241 0.721 0.528 2.304 0.812 3.254 1.809 4.03 4.659 6.11 10.594 6.68 2.969-0.3 5.714-1.67 7.875-3.53 1.669-1.27 3.18-2.83 4.438-4.53 3.718-6.042 5.019-13.561 2.124-19.905l12.782-8.906c0.223 1.525 0.548 3.033 0.968 4.562 1.809 4.034 4.658 6.115 10.598 6.688 2.97-0.304 5.71-1.676 7.87-3.531 1.67-1.269 3.18-2.838 4.44-4.532 4.43-7.207 5.47-16.537 0-23.437-2.24-2.109-4.61-2.907-6.94-2.844-0.58-0.08-1.14-0.133-1.65-0.187l-3-23.813c-4.99-6.45-12.142-15.188-21.005-15.156zm0.156 0.5624c8.465 0.1157 15.529 8.5958 20.409 14.657l2.81 23.687c-0.17-0.01-0.4-0.036-0.53-0.031-3.05 0.102-4.84 1.595-7.03 3.5-2.497 2.171-4.455 4.77-5.815 7.937-6.074 4.278-15.286 10.331-21.375 14.594-0.585-0.099-1.167-0.141-1.75-0.125-1.085-0.149-2.196-0.302-2.812-0.281-3.052 0.102-4.844 1.595-7.032 3.5-0.819 0.713-1.546 1.502-2.25 2.312l-2.687-21.531c-3.978-6.351-9.738-10.777-16.219-14.344-1.688-0.741-3.474-0.89-5.281-0.781 6.31-3.002 14.106-7.241 22.812-12.375 3.199-1.886 6.384-3.972 9.407-6.156 0.825-0.339 1.406-0.955 2.062-1.5 1.906-1.459 3.681-2.975 5.312-4.5 0.621 0.251 1.334 0.713 2.032 1.156l-0.094-0.312-1.719-1.032c0.862-0.813 1.683-1.613 2.438-2.437 1.774 0.671 2.804 1.711 4.219 2.562v-0.219c-1.629-1.331-2.916-2.131-4-2.593 0.664-0.739 1.28-1.477 1.843-2.219 2.601 1.082 6.614 3.277 8.844 4.688l0.031-0.063c-2.844-1.989-5.686-3.772-8.531-5.094 0.612-0.841 1.166-1.691 1.625-2.531 1.038-0.4236 2.176-0.436 3.281-0.4688zm-3.812 0.6878c-0.386 0.694-0.922 1.465-1.531 2.25-0.505 0.026-1.102-0.071-1.657-0.094 0.348 0.071 0.812 0.26 1.344 0.469-0.602 0.748-1.264 1.527-2 2.312l-0.781-0.031c0.227 0.054 0.419 0.123 0.625 0.187-0.803 0.851-1.67 1.683-2.563 2.532l-0.281 0.062c0.06 0.004 0.125 0.051 0.187 0.063-1.817 1.721-3.734 3.384-5.5 4.812 2.405-2.338 6.679-5.646 7.938-9.437 1.226-1.449 2.748-2.489 4.219-3.125zm18.751 25.469l-0.31 0.093 0.68 1.844-1.43 0.937-0.785-2.406-0.406 0.063 0.941 2.5-2.535 1.656-0.625-2.219-0.344 0.156 0.625 2.282-3.093 2.031 0.656 3.094-0.938 0.469v0.281l1-0.531 0.375 1.781-1.219 0.75 0.313 0.219 0.969-0.594 0.5 2.281 2.937-1.906 0.344 1.062 0.344-0.093-0.344-1.188 1.755-1.156c0.32 0.884 0.65 1.788 0.87 2.718h0.22c-0.14-1.057-0.35-2.043-0.66-3l1.72-1.124 0.69 2.25 0.28-0.157-0.72-2.25 1.75-1.125-0.44-3 2.07-1.312-0.13-0.282-2 1.219-0.41-2.625 1.04-0.656-0.13-0.281-0.97 0.593-0.25-1.75-1.72 1.126-0.62-1.75zm2.03 1.156l0.22 1.437-0.5 0.313 0.09 0.312 0.47-0.281 0.41 2.625-0.6 0.344 0.03 0.406 0.63-0.375 0.37 2.437-1.5 1-0.31-1-0.19 0.282 0.29 0.875-1.75 1.187c-0.22-0.604-0.46-1.197-0.78-1.781l-0.29 0.156c0.18 0.654 0.4 1.279 0.63 1.907l-1.72 1.187-0.219-0.719-0.375 0.219 0.25 0.719-2.594 1.75-0.406-1.938 0.688-0.437-0.125-0.344-0.657 0.406-0.374-1.75 0.718-0.375v-0.25l-0.75 0.375-0.562-2.593 2.812-1.907 0.563 2.094 0.437-0.125-0.656-2.219 2.53-1.75 0.19 0.5 0.22-0.093-0.19-0.563 1.44-0.969 0.22 0.594 0.25-0.188-0.22-0.593 1.31-0.875zm-66 6.531c1.169 0.006 2.273 0.323 3.438 0.687l-0.063 1.032c-2.497 3.79-5.523 4.16-8.75 3.281l-1.719-2.375c1.816-1.83 4.434-2.676 7.094-2.625zm36.469 0.531l-2.219 1.375c-0.215-0.26-0.44-0.497-0.719-0.812l-0.219 0.031c0.295 0.277 0.548 0.579 0.782 0.906l-1.875 1.156-0.719-1.218-0.219 0.281 0.75 1.031-2.25 1.406-0.906-1.281-0.187 0.157 0.906 1.25-2.282 1.437-0.281-0.375-0.187 0.062 0.312 0.407-1.75 1.093c0.783 0.71 1.094 1.344 1.282 1.969l-0.813 0.563 0.031 0.125 0.813-0.5c0.212 0.813 0.257 1.625 0.812 2.625l2.969-2.125 0.656 1 0.188-0.219-0.625-0.938 2.187-1.531c0.295 0.498 0.563 0.969 0.563 0.969l0.281-0.188s-0.3-0.452-0.656-0.937l1.718-1.219 0.563 0.656 0.031-0.187-0.468-0.563 1.718-1.218c0.551 0.507 1.156 0.906 1.156 0.906l-0.031-0.25s-0.427-0.407-0.843-0.844l1.343-0.968c-0.332-0.562-0.746-0.722-1.093-0.907l0.624-0.5-0.218-0.093-0.656 0.406c-0.431-0.322-0.704-0.894-0.469-2.938zm-32.594 0.282c0.177 0.056 0.35 0.098 0.531 0.156 3.955 1.472 8.449 4.816 12.656 9.594l-1.187 0.656c-5.321-1.937-9.169-4.856-12.094-9.656l0.094-0.75zm32.313 0c-0.152 1.243 0.023 2.154 0.562 2.781l-0.25 0.156 0.062 0.344 0.407-0.313c0.286 0.259 0.619 0.492 1.062 0.625l-1.281 0.907c-0.082-0.09-0.181-0.17-0.25-0.25l-0.312 0.156c0.087 0.101 0.181 0.213 0.281 0.312l-1.719 1.219-0.219-0.281-0.093 0.156 0.187 0.219-1.687 1.187c-0.137-0.179-0.271-0.341-0.407-0.5l-0.156 0.094c0.132 0.154 0.276 0.325 0.406 0.531l-2.219 1.563-0.281-0.406-0.219 0.156 0.282 0.406-2.406 1.719c-0.579-0.635-0.852-1.369-1.063-2.063l1.156-0.687c0.025 0.018 0.011-0.005 0-0.031-0.013-0.008 0.019 0.056-0.219-0.219l-1.031 0.719c-0.211-0.711-0.383-1.344-0.843-1.75l1.437-0.938 0.813 1.094 0.156-0.094-0.813-1.094 2.219-1.468 0.344 0.468 0.187-0.156-0.312-0.469 2.187-1.437 0.782 1.062 0.093 0.032-0.719-1.219 1.844-1.188c0.187 0.269 0.379 0.543 0.563 0.813l0.219-0.094c-0.201-0.342-0.398-0.597-0.594-0.844l1.844-1.218zm-32.594 1.062c0.591 1.204 1.907 3.077 2.718 4.156l2.032 25.563c-1.176 1.03-3.095 1.026-3.532-0.844l-2.218-27.75c0.373-0.447 0.646-0.65 1-1.125zm-11 1.094l1.718 1.968c0.633 2.152 1.071 3.791 0.344 5.969l-1.844 0.188-1.312-6.531c0.308-0.594 0.674-1.119 1.094-1.594zm9.687 0.344l1.25 15.718-4.156 2.969c-0.308-0.858-0.882-1.751-1.656-2.781 0.581-3.533-0.161-5.848-2.781-8.188 1.609-1.553 0.601-4.033 0.093-5.594 3.554 1.446 5.507-0.073 7.25-2.124zm69.779 1.812c-3.53 1.006-6.81 3.799-9.18 7-4.432 7.21-5.488 16.54 0 23.438 3.18 3.007 6.64 3.414 9.87 2.343-1.12 0.472-2.29 0.718-3.63 0.813-4.85-0.403-7.304-2.333-9.745-6.469-1.671-3.728-2.157-9.239-0.813-14.656 1.303-3.799 3.968-7.099 6.688-9.469 1.9-1.655 4.2-2.757 6.81-3zm1.97 0.438c0.28-0.014 0.57-0.011 0.85 0 2.02 0.078 4.07 0.833 5.93 2.437 5.46 6.514 3.99 15.897 0.07 22.75-4.01 6.05-11.78 9.565-17.44 4.031-5.501-6.517-4.09-15.353-0.16-22.218 2.55-3.867 6.59-6.793 10.75-7zm-67.374 0.687c1.811 2.159 3.897 3.798 6.563 4.719l-5.781 4.656-0.782-9.375zm66.874 0.813c-0.44 0.016-0.87 0.059-1.34 0.124-7.69 2.407-10.601 9.495-11.065 17 0.065 6.985 3.695 12.793 11.155 11.75 7.69-2.403 10.69-9.924 11.16-17.437-0.06-6.574-3.33-11.686-9.91-11.437zm0.03 0.406c6.23-0.37 8.92 5.704 9.28 11.375 0 0.072-0.02 0.147-0.03 0.219-0.05-0.472-0.22-0.806-0.5-0.813l-0.59 0.125v-0.688c-0.16-1.93-0.86-3.677-1.91-5.218l0.53-0.656c0.11-0.853-1.62-2.84-2.75-2.5l-0.28 0.531c-1.63-1.49-3.64-1.79-5.75-1.938 0.63-0.331 1.31-0.363 2-0.437zm-1.72 0.781c0.21 0.01 0.43 0.038 0.63 0.063l-0.13 1.812-1.09 0.75c-0.03-0.85-0.08-1.671-0.09-2.594 0.23-0.007 0.46-0.042 0.68-0.031zm-1.18 0.063c0.07 3.13 0.2 6.445 0.28 9.562 0.09 0.287-1.3 0.889-1.19 0.188l-0.94-8.657c0.58-0.401 1.2-0.775 1.85-1.093zm2.53 0.156c1.52 0.336 2.75 1.025 3.93 1.718l-4.06 7.407c-0.31-0.064-0.52-0.057-0.72-0.063l0.85-9.062zm-4.73 1.414l0.26 2.742-3.69 2.5-0.72-0.688c0.86-1.511 1.63-2.603 2.93-3.748 0.27-0.233 0.94-0.591 1.22-0.806zm9.66-0.008c0.89-0.21 1.91 1.513 1.5 2.031l-5 6.25c-0.4-0.276-0.78-0.458-1.15-0.531 1.57-2.531 2.85-5.467 4.65-7.75zm-5.78 0.531l-0.22 3.531-0.78 0.532c-0.02-1.088-0.05-2.222-0.09-3.313l1.09-0.75zm-54.996 0.5c0.996 1.151 1.987 2.347 2.937 3.657l1.063 8.374-2.156-0.062c-2.291-3.379-3.606-7.244-3.157-11.562l1.313-0.407zm-3.594 0.25c0.538 0.161 1.102 0.307 1.688 0.407-0.492 2.493-0.051 4.801 0.843 6.968-2.583 2.879-5.273 5.215-7.969 7.532l-0.812-9.657 6.25-5.25zm-18.969 0.063c2.406 2.113 2.399 5.118 2.657 8.031l-2.813 0.937-1.687-8.468 1.843-0.5zm84.779 1.562c0.96 1.481 1.35 3.157 1.5 5.063 0.05 0.273 0.04 0.472 0.03 0.687l-5.59 1.313c-0.12-0.467-0.33-0.921-0.59-1.375l4.65-5.688zm-10.81 0.094l0.34 3.094-1.81 1.281-2.09-2 3.56-2.375zm3.37 1.156l-0.18 3.375 0.09 0.094c-0.22 0.016-0.4 0.067-0.65 0.094 0-1.072-0.01-2.054-0.04-3.031l0.78-0.532zm-8 0.719l5 4.719c-0.02 0.775-0.03 1.53-0.74 1.5l-5.13-4.344c0.26-0.645 0.55-1.269 0.87-1.875zm5 1.375l0.19 1.75c-0.44-0.178-0.58 0.29-0.87 0.438l-1.06-1 1.74-1.188zm-10.714 0.938c-0.061 0.167-0.129 0.329-0.187 0.5-0.269 0.875-0.445 1.755-0.594 2.624l-16.969 11.469c-0.716-0.423-1.461-0.728-2.187-0.937 5.967-4.119 14.16-9.558 19.937-13.656zm4.654 0.062l1.97 1.625-2.936 2c0.219-1.237 0.536-2.458 0.966-3.625zm6.25 0.938l0.07 0.437c0.59 0.885 1.3 0.196 1.71-0.313h0.32c-0.46 0.331-0.9 0.774-1.32 1.282-1.11 1.916-1.18 3.896 0 5.75 0.27 0.204 0.53 0.358 0.79 0.468l-0.79 0.094c0.21-0.976-1.12-1.2-1.56-1.344-0.17 0.267-0.33 0.494-0.5 0.75-0.22-0.31-0.39-0.646-0.53-1l0.91-0.25c0.51-0.796 0.1-1.476-0.25-1.874l-1 0.062c-0.07-0.369 0.04-0.694 0.15-1.031l0.31-0.219 0.91 0.75c0.54-0.406 1.11-1.164 0.91-2.344l-0.82-0.75 0.69-0.468zm3.07 0.031c0.66-0.084 1.5 0.338 2.15 0.719 0.22 0.316 0.15 0.719 0.25 1.062l-2.78-0.062c-0.74 0.586-1.15 1.336-1.16 2.124 0 0.789 0.37 1.57 0.97 2.313l2.19-0.063-0.06 0.032c-0.94 1.005-2.3 1.372-3.47 0.687-1.05-1.503-0.66-3.872 0.09-5.437 0.47-0.64 1.15-1.291 1.82-1.375zm-7.26 0.75l1.88 1.531c-0.09 0.189-0.15 0.397-0.19 0.594l-1.9 1.312-3.066 0.25c0.051-0.539 0.129-1.063 0.218-1.594l3.058-2.093zm-48.714 0.031c0.285 0.65 0.613 1.285 0.969 1.906l-8.719 9.282-0.312-3.376c2.745-2.189 5.472-5.235 8.062-7.812zm65.594 0c0.37 0.286 0.65 1.54-0.22 2.312l-4.44 0.126c-0.11-0.485-0.31-0.917-0.62-1.219l5.28-1.219zm-84.469 0.5c1.8 2.673 1.785 5.039-0.343 7.312l-1.376-0.687h-0.031l-1.093-5.437 2.843-1.188zm6.063 0.406l0.687 8.906-5.625-2.843c0.855-1.137 1.089-2.135 0.906-3.157l4.032-2.906zm72.716 0.5c0.25 0.18 0.69 1.025 0.75 1.5 0.06 0.455-0.28 1.34-0.72 1.844l-4.28 0.188c-0.39-0.546-0.56-1.37-0.56-1.782 0-0.432 0.27-1.206 0.75-1.625l4.06-0.125zm6.41 0.125c-0.26 2.634-0.97 5.19-2.16 7.469 0.58-1.996 0.91-4.056 1.06-6.125h0.63c0.22-0.368 0.37-0.855 0.47-1.344zm-25.158 0.094c-0.184 1.179-0.254 2.359-0.25 3.531l-14.25 9.719c-0.128-0.175-0.238-0.359-0.374-0.531-0.591-0.557-1.176-1.024-1.782-1.406l16.656-11.313zm17.718 0.094c-0.72 0.648-1.24 1.613 0.06 2.5l0.47 0.031c-0.77-0.941-0.38-1.721-0.12-2.5l-0.41-0.031zm-57.749 0.469c0.408 0.691 0.852 1.374 1.313 2.031-0.908 2.414-1.54 5.196 0.094 8.531-1.213 1.177-1.776 2.135-1.719 3.219l-8.219-4.157 8.531-9.624zm-23.25 0.312l0.188 0.969c-1.384 1.15-2.647 2.491-3.719 3.937-0.683 1.113-1.273 2.273-1.781 3.469l-2.219 1.25c1.379-3.48 3.836-6.508 6.375-8.719 0.37-0.322 0.756-0.629 1.156-0.906zm72.469 0.094c-0.01 0.221-0.02 0.433-0.03 0.656l-1.03 0.094 1.06-0.75zm14.53 0.281c-0.07 2.034-0.43 4.082-1.09 5.969l-4.44-3.563 0.59-0.031c0.85-0.734 0.95-1.336 1.1-2.312l3.84-0.063zm-13.37 0.719c0.39 0.358 0.49 0.735 0.06 1.094l-6.126 1.531c-0.116-0.655-0.073-1.498-0.063-2.157l6.129-0.468zm-73.316 0.406l0.25 1.375c-1.311 1.15-2.354 2.511-3.188 4.031l-1.75 0.969c0.385-0.863 0.784-1.717 1.25-2.531 0.957-1.452 2.131-2.754 3.438-3.844zm26.781 0.375l1.094 8.719-3.157-0.469c-1.392-2.44-1.162-5.369-0.25-8.187l2.313-0.063zm54.065 0.906l4.62 3.969c-0.22 0.594-0.49 1.172-0.78 1.719l-4.94-5.281c0.12-0.123 0.23-0.242 0.35-0.376l0.75-0.031zm-18.128 0.031c0.011 1.053 0.083 2.107 0.219 3.157l-12.937 8.937c-0.408-0.825-0.879-1.63-1.438-2.406l14.156-9.688zm9.808 0.126c0.14 0.299 0.32 0.646 0.57 1.031l-3.31-0.281 2.74-0.75zm1.91 0.5c0.47-0.015 0.86 0.662 0.44 1l-4.41 7.281c-0.41-0.444-0.79-0.966-1.12-1.5 1.67-1.985 3.16-4.378 4.62-6.5 0.15-0.199 0.31-0.277 0.47-0.281zm4.97 0.062l5.06 5.375c-1.44 1.903-3.3 3.497-5.59 4.531l-0.63-9.094c0.4-0.174 0.79-0.47 1.16-0.812zm-79 0.125l0.25 1.313-2.469 1.343c0.638-0.966 1.385-1.857 2.219-2.656zm68.22 0.406l4.37 0.375c-1.24 1.851-2.46 3.57-3.87 5.406-0.91-1.607-1.493-3.49-1.782-5.437l1.282-0.344zm9.09 0.469l0.81 9.031c-0.27 0.118-0.55 0.242-0.84 0.344-0.35 0.066-0.7 0.096-1.03 0.125l-0.09-9.406c0.38-0.026 0.77-0.063 1.15-0.094zm-1.65 0.156l0.12 9.375c-2.18 0.081-3.9-0.646-5.25-1.875l4.41-7.437c0.23-0.021 0.49-0.042 0.72-0.063zm-72.254 0.063l5.938 3.406 0.062 0.75-6.718-3.313c0.284-0.284 0.5-0.577 0.718-0.843zm-2.687 0.343l8.625 4.344c0.184 0.983 1.779 2.365 3.312 1.656l13.563 6.844c-0.492 0.858-0.927 1.763-1.313 2.719l-0.156-0.156-26.719-13.844 2.688-1.563zm-2.75 1.594l0.062 0.219 26.844 13.781c-0.057 0.142-0.102 0.293-0.156 0.438-0.81 0.549-1.754 1.15-2.688 1.75l-27.781-14.032 3.719-2.156zm-3.907 2.282v0.031l27.782 14c-0.96 0.615-1.911 1.228-2.75 1.781l-28.032-14.062 3-1.75zm44.219 0.437c-3.527 1.006-6.815 3.799-9.187 7-4.428 7.21-5.483 16.54 0 23.435 3.182 3.01 6.647 3.42 9.875 2.35-1.119 0.47-2.291 0.71-3.625 0.81-4.852-0.4-7.31-2.33-9.75-6.47-1.672-3.728-2.157-9.239-0.813-14.656 1.303-3.799 3.966-7.099 6.688-9.469 1.901-1.655 4.204-2.757 6.812-3zm-24.593 0.187l8.593 4.563 0.031-0.031c0.126 0.49 0.359 1.012 0.719 1.594l-9.812-4.782c0.447-0.393 0.404-0.949 0.469-1.344zm26.593 0.25c0.278-0.013 0.535-0.01 0.813 0 2.022 0.079 4.076 0.834 5.937 2.438 5.453 6.514 3.983 15.897 0.063 22.75-4.005 6.05-11.778 9.56-17.438 4.03-5.499-6.516-4.087-15.352-0.156-22.218 2.548-3.866 6.619-6.792 10.781-7zm-16.062 0.719l3.343 0.657 0.5 4c-0.56 0.699-1.056 1.443-1.531 2.218l-2.781-1.375c-2.241-2.42-0.232-3.758 0.469-5.5zm15.531 0.781c-0.438 0.017-0.876 0.06-1.344 0.126-7.683 2.406-10.599 9.494-11.062 17 0.065 6.982 3.695 12.792 11.156 11.752 7.685-2.41 10.692-9.927 11.156-17.44-0.06-6.574-3.33-11.686-9.906-11.438zm-48.031 0.313c8.681 4.459 18.535 9.513 27.312 13.781l0.719 2.219-26.156-13.031-1.875-2.969zm-0.563 0.094l1.25 2c-0.902 5.09-0.077 10.322 3.344 14.625 1.212 1.145 2.484 1.891 3.75 2.344l-0.219 0.343c-3.132-0.846-5.099-2.726-7.031-6-1.533-3.418-2.053-8.342-1.094-13.312zm48.625 0c6.224-0.37 8.921 5.704 9.281 11.375-0.002 0.072-0.028 0.147-0.031 0.218-0.051-0.471-0.222-0.805-0.5-0.812l-0.593 0.125c0.001-0.249 0.005-0.574 0-0.687-0.159-1.931-0.862-3.678-1.907-5.219l0.531-0.657c0.103-0.852-1.619-2.839-2.75-2.5l-0.281 0.532c-1.634-1.49-3.643-1.79-5.75-1.938 0.626-0.331 1.311-0.363 2-0.437zm-1.906 0.781l-0.633 0.362c-0.003-0.13 0.136-0.197 0.133-0.331 0.17-0.005 0.335-0.025 0.5-0.031zm0.625 0.031c1.056 0.112 1.975 0.427 2.812 0.813l-3.812 2.5c-0.027-0.8-0.02-1.717-0.05-2.557l1.05-0.756zm-1.625 0.031c0.071 3.131 0.199 6.446 0.281 9.563 0.096 0.287-1.295 0.889-1.187 0.187l-0.938-8.656c0.575-0.401 1.197-0.775 1.844-1.094zm4.625 0.876c0.646 0.311 1.249 0.652 1.844 1l-1.032 1.874-4.718 3.25c-0.021-1.142-0.056-2.262-0.094-3.374l4-2.75zm-6.906 0.562l0.062 0.568-2.375 1.62c0.689-0.806 1.458-1.539 2.313-2.188zm9.75 0.125c0.885-0.209 1.9 1.513 1.5 2.031l-5 6.25c-0.403-0.276-0.786-0.458-1.156-0.531 1.57-2.531 2.85-5.467 4.656-7.75zm-51.438 0.437l1.125 1.876c-0.013 0.177-0.02 0.354-0.031 0.531 0.051 5.462 2.305 10.191 6.844 11.5l-0.844 1.375c-1.281-0.431-2.533-1.153-3.688-2.282-3.229-3.827-4.054-8.442-3.406-13zm0.875 0.376l26.031 12.906 0.907 2.844-24.438-11.813-2.5-3.937zm40.938 0.281l0.281 2.312-3.219 2.313-1.25-1.156c0.292-0.514 0.626-0.994 0.969-1.469l3.219-2zm7.406 1.406l-2.844 5.219c-0.87-0.179-1.134-0.059-1.687 0 0.003-0.724 0.011-1.42 0-2.094l4.531-3.125zm3.656 0.406c0.079 0.122 0.147 0.251 0.219 0.375l-1.344 1 1.125-1.375zm-51.093 0.438l0.218 0.375-0.187 0.031c-0.022-0.125-0.022-0.27-0.031-0.406zm40.343 0.406l0.375 3.156-1.375 0.938-2.125-1.969 3.125-2.125zm11.219 0c0.621 1.268 0.903 2.663 1.031 4.219 0.044 0.273 0.036 0.472 0.031 0.687l-5.593 1.313c-0.124-0.467-0.327-0.921-0.594-1.375l2.406-2.938 2.719-1.906zm-51 0.531l1.875 3.094 0.937 0.5c-0.471 0.653-0.954 1.297-1.468 1.969-0.914-1.607-1.492-3.491-1.782-5.438l0.438-0.125zm35.094 0.594l5 4.719c-0.023 0.775-0.037 1.53-0.75 1.5l-5.125-4.344c0.26-0.645 0.547-1.269 0.875-1.875zm-33.938 0.094l24.406 11.906 0.907 2.781-24.031-12.625-1.282-2.062zm39.032 2.156l0.093 0.875c-0.442-0.178-0.579 0.29-0.875 0.437l-0.5-0.468 1.282-0.844zm-6.157 0.125l0.125 0.094-0.218 0.187c0.032-0.093 0.059-0.189 0.093-0.281zm0.281 0.219l2.282 1.875-3.688 2.5c0.183-1.388 0.493-2.754 0.938-4.063l0.468-0.312zm-5.187 0.5c-0.328 1.126-0.583 2.257-0.719 3.375l-3.094 1.906-0.718-2.406c1.586-1.052 2.977-1.941 4.531-2.875zm-25.906 0.125l1.281 0.656-1.812 3c-0.417-0.444-0.792-0.966-1.126-1.5 0.572-0.677 1.124-1.409 1.657-2.156zm37.062 0.093l0.063 0.438c0.591 0.885 1.301 0.196 1.718-0.312h0.313c-0.455 0.33-0.896 0.773-1.313 1.281-1.111 1.916-1.186 3.896 0 5.75 0.269 0.204 0.528 0.358 0.782 0.469l-0.782 0.093c0.206-0.976-1.128-1.2-1.562-1.343-0.174 0.266-0.329 0.493-0.5 0.75-0.225-0.311-0.391-0.647-0.531-1l0.906-0.25c0.512-0.797 0.099-1.477-0.25-1.876l-1 0.063c-0.084-0.501 0.15-0.941 0.281-1.406l1.094 0.906c0.54-0.406 1.112-1.164 0.906-2.344l-0.812-0.75 0.687-0.469zm3.063 0.032c0.666-0.084 1.472 0.338 2.125 0.718 0.22 0.317 0.179 0.72 0.281 1.063l-2.781-0.063c-0.742 0.587-1.15 1.337-1.157 2.126-0.006 0.788 0.37 1.569 0.969 2.312l2.188-0.062-0.063 0.031c-0.938 1.005-2.296 1.372-3.468 0.687-1.049-1.503-0.659-3.872 0.093-5.437 0.464-0.64 1.147-1.291 1.813-1.375zm9.625 0.781c0.371 0.286 0.647 1.54-0.219 2.313l-4.438 0.124c-0.116-0.484-0.314-0.916-0.624-1.218l5.281-1.219zm-47.938 0.031l2.875 1.5-1.968 3.25c-1.063-0.315-1.993-0.875-2.782-1.594l1.875-3.156zm31.688 0.438l1.25 1.031c-0.278 0.557-0.239 1.155-0.281 1.75l-4.876 0.406c0.018-0.19 0.04-0.373 0.063-0.562l3.844-2.625zm10.562 0.937c0.247 0.18 0.686 1.025 0.75 1.5 0.061 0.455-0.282 1.34-0.719 1.844l-4.281 0.187c-0.394-0.545-0.566-1.369-0.562-1.781 0.003-0.432 0.265-1.206 0.75-1.625l4.062-0.125zm6.407 0.125c-0.258 2.634-0.965 5.19-2.157 7.469 0.573-1.996 0.912-4.056 1.063-6.125h0.625c0.216-0.368 0.374-0.855 0.469-1.344zm-7.438 0.188c-0.721 0.648-1.243 1.613 0.062 2.5l0.469 0.031c-0.772-0.941-0.38-1.721-0.125-2.5l-0.406-0.031zm-37.781 0.125l1.906 1-12.187 21.531-8.907 12.97-2.312-1.19 3.719-5.91 2.468-3.65 15.313-24.751zm19.937 0.656c-0.135 1.177-0.17 2.329-0.125 3.5l-2.031 1.406-0.844-2.875 3-2.031zm23.844 0.375c-0.067 2.034-0.432 4.082-1.094 5.969l-4.437-3.563 0.593-0.031c0.842-0.734 0.949-1.336 1.094-2.313l3.844-0.062zm-41.375 0.219l0.5 0.25-0.313 0.531c-4.468 7.635-6.484 12.33-13.406 22.91l-4.156 6.72-2.406 3.31-1.094 0.4 2.812-4.21 4.438-6.35 13.625-23.561zm0.75 0.406l0.625 0.344c-0.374 0.214-0.758 0.414-1.156 0.593l0.531-0.937zm27.25 0.094c0.395 0.358 0.491 0.735 0.063 1.093l-6.126 1.532c-0.115-0.655-0.072-1.498-0.062-2.156l6.125-0.469zm-25.875 0.625l1.219 0.625c-1.426 1.013-2.97 1.769-4.563 2.125l0.906-1.625c0.87-0.318 1.692-0.679 2.438-1.125zm33.406 1.062l4.625 3.969c-0.225 0.594-0.491 1.172-0.781 1.719l-4.938-5.282c0.117-0.122 0.231-0.241 0.344-0.374l0.75-0.032zm-8.312 0.156c0.119 0.267 0.297 0.573 0.5 0.907l-2.906-0.25 2.406-0.657zm1.906 0.5c0.47-0.014 0.856 0.663 0.438 1l-4.407 7.278c-0.416-0.44-0.791-0.96-1.125-1.5 1.675-1.981 3.161-4.374 4.625-6.496 0.151-0.199 0.312-0.277 0.469-0.282zm4.969 0.063l5.062 5.375c-1.444 1.9-3.298 3.5-5.593 4.53l-0.626-9.092c0.401-0.175 0.788-0.471 1.157-0.813zm-16.688 0.25c0.053 1.089 0.196 2.194 0.375 3.281l-1.468 1-0.876-2.937 1.969-1.344zm6.25 0.187l4.094 0.376c-1.268 1.886-2.507 3.632-3.937 5.502-0.914-1.61-1.492-3.493-1.782-5.44l1.625-0.438zm8.75 0.563l0.813 9.035c-0.28 0.11-0.552 0.24-0.844 0.34-0.35 0.07-0.7 0.1-1.031 0.13l-0.094-9.411c0.386-0.026 0.771-0.063 1.156-0.094zm-1.656 0.156l0.125 9.379c-2.186 0.08-3.903-0.65-5.25-1.88l4.406-7.436c0.236-0.021 0.492-0.042 0.719-0.063zm-31.25 0.407c-0.42 0.176-0.842 0.32-1.281 0.437l0.031-0.125c0.42-0.085 0.836-0.175 1.25-0.312zm-23.594 15.222l6.5 2.87-0.469 0.75-7.718-3.31 1.687-0.31zm-2.312 0.46l8.187 3.54-2.406 3.28-7.844-3.44 2.063-3.38zm12.843 4.47l8.282 4.29-0.438 0.18-8.375-3.5 0.531-0.97zm-0.624 1.19l7.937 3.84-1.563 2.54-8.25-3.47 1.876-2.91zm9.062 3.47l-1.188 2.59-0.781 0.16 1.407-2.53 0.562-0.22z"/>
  </g>
  <metadata>
    <rdf:RDF>
      <cc:Work>
        <dc:format>image/svg+xml</dc:format>
        <dc:type rdf:resource="http://purl.org/dc/dcmitype/StillImage"/>
        <cc:license rdf:resource="http://creativecommons.org/licenses/publicdomain/"/>
        <dc:publisher>
          <cc:Agent rdf:about="http://openclipart.org/">
            <dc:title>Openclipart</dc:title>
          </cc:Agent>
        </dc:publisher>
      </cc:Work>
      <cc:License rdf:about="http://creativecommons.org/licenses/publicdomain/">
        <cc:permits rdf:resource="http://creativecommons.org/ns#Reproduction"/>
        <cc:permits rdf:resource="http://creativecommons.org/ns#Distribution"/>
        <cc:permits rdf:resource="http://creativecommons.org/ns#DerivativeWorks"/>
      </cc:License>
    </rdf:RDF>
  </metadata>
</svg>
