<?xml version="1.0"?>
<svg xmlns:rdf="http://www.w3.org/1999/02/22-rdf-syntax-ns#" xmlns="http://www.w3.org/2000/svg" xmlns:cc="http://creativecommons.org/ns#" xmlns:xlink="http://www.w3.org/1999/xlink" xmlns:dc="http://purl.org/dc/elements/1.1/" id="svg2" viewBox="0 0 128 128" version="1.0">
  <defs id="defs4">
    <linearGradient id="linearGradient2338">
      <stop id="stop2340" stop-color="#b1b1b1" offset="0"/>
      <stop id="stop2342" stop-color="#e4e4e4" offset="1"/>
    </linearGradient>
    <linearGradient id="linearGradient2499" x1="48.951" xlink:href="#linearGradient2338" gradientUnits="userSpaceOnUse" x2="58.941" y1="94.011" y2="111.87"/>
    <linearGradient id="linearGradient2567" x1="62.832" xlink:href="#linearGradient2338" gradientUnits="userSpaceOnUse" x2="72.649" y1="107.68" y2="86.746"/>
    <linearGradient id="linearGradient2621" x1="62.746" xlink:href="#linearGradient2338" gradientUnits="userSpaceOnUse" x2="67.373" y1="79.805" y2="86.465"/>
    <linearGradient id="linearGradient2623" x1="55.178" xlink:href="#linearGradient2338" gradientUnits="userSpaceOnUse" x2="58.984" y1="89.73" y2="81.081"/>
    <linearGradient id="linearGradient2625" x1="52.324" xlink:href="#linearGradient2338" gradientUnits="userSpaceOnUse" x2="53.362" y1="79.524" y2="78.184"/>
    <linearGradient id="linearGradient2627" x1="53.276" xlink:href="#linearGradient2338" gradientUnits="userSpaceOnUse" x2="54.27" y1="77.405" y2="78.573"/>
    <linearGradient id="linearGradient2629" x1="54.27" xlink:href="#linearGradient2338" gradientUnits="userSpaceOnUse" x2="55.308" y1="76.627" y2="75.286"/>
    <linearGradient id="linearGradient2631" x1="57.816" xlink:href="#linearGradient2338" gradientUnits="userSpaceOnUse" x2="58.292" y1="77.189" y2="75.805"/>
    <linearGradient id="linearGradient2633" x1="58.595" xlink:href="#linearGradient2338" gradientUnits="userSpaceOnUse" x2="59.805" y1="75.373" y2="77.059"/>
    <linearGradient id="linearGradient2635" x1="59.546" xlink:href="#linearGradient2338" gradientUnits="userSpaceOnUse" x2="60.584" y1="74.811" y2="72.865"/>
    <linearGradient id="linearGradient2637" x1="62.486" xlink:href="#linearGradient2338" gradientUnits="userSpaceOnUse" x2="63.092" y1="76.324" y2="75.416"/>
    <linearGradient id="linearGradient2639" x1="63.049" xlink:href="#linearGradient2338" gradientUnits="userSpaceOnUse" x2="63.697" y1="77.665" y2="76.93"/>
    <linearGradient id="linearGradient2641" x1="65.643" xlink:href="#linearGradient2338" gradientUnits="userSpaceOnUse" x2="65.968" y1="77.146" y2="75.546"/>
    <linearGradient id="linearGradient2643" x1="66.595" xlink:href="#linearGradient2338" gradientUnits="userSpaceOnUse" x2="67.546" y1="78.962" y2="77.838"/>
    <linearGradient id="linearGradient2645" x1="67.157" xlink:href="#linearGradient2338" gradientUnits="userSpaceOnUse" x2="68.886" y1="80.043" y2="78.486"/>
    <linearGradient id="linearGradient2647" x1="69.751" xlink:href="#linearGradient2338" gradientUnits="userSpaceOnUse" x2="70.443" y1="81.211" y2="78.097"/>
    <linearGradient id="linearGradient2649" x1="67.978" xlink:href="#linearGradient2338" gradientUnits="userSpaceOnUse" x2="69.319" y1="81.989" y2="83.546"/>
    <linearGradient id="linearGradient2651" x1="68.108" xlink:href="#linearGradient2338" gradientUnits="userSpaceOnUse" x2="68.238" y1="84.324" y2="83.07"/>
    <linearGradient id="linearGradient2653" x1="65.124" xlink:href="#linearGradient2338" gradientUnits="userSpaceOnUse" x2="65.903" y1="83.719" y2="82.335"/>
    <linearGradient id="linearGradient2655" x1="63.308" xlink:href="#linearGradient2338" gradientUnits="userSpaceOnUse" x2="64.389" y1="84.238" y2="85.492"/>
    <linearGradient id="linearGradient2657" x1="62.703" xlink:href="#linearGradient2338" gradientUnits="userSpaceOnUse" x2="63.135" y1="86.184" y2="85.405"/>
    <linearGradient id="linearGradient2659" x1="59.027" xlink:href="#linearGradient2338" gradientUnits="userSpaceOnUse" x2="59.222" y1="85.449" y2="84.411"/>
    <linearGradient id="linearGradient2661" x1="55.308" xlink:href="#linearGradient2338" gradientUnits="userSpaceOnUse" x2="56" y1="85.924" y2="85.405"/>
    <linearGradient id="linearGradient2663" x1="54.53" xlink:href="#linearGradient2338" gradientUnits="userSpaceOnUse" x2="55.092" y1="84.541" y2="83.632"/>
    <linearGradient id="linearGradient2665" x1="53.189" xlink:href="#linearGradient2338" gradientUnits="userSpaceOnUse" x2="54.097" y1="82.724" y2="81.686"/>
    <linearGradient id="linearGradient2667" x1="50.119" xlink:href="#linearGradient2338" gradientUnits="userSpaceOnUse" x2="51.459" y1="83.459" y2="82.811"/>
    <linearGradient id="linearGradient2669" x1="49.6" xlink:href="#linearGradient2338" gradientUnits="userSpaceOnUse" x2="50.119" y1="81.903" y2="80.822"/>
    <linearGradient id="linearGradient2671" x1="48.13" xlink:href="#linearGradient2338" gradientUnits="userSpaceOnUse" x2="49.73" y1="79.395" y2="78.011"/>
    <linearGradient id="linearGradient3756" x1="24.188" xlink:href="#linearGradient2338" gradientUnits="userSpaceOnUse" y1="75.25" gradientTransform="translate(2.0757 .34595)" x2="43.875" y2="102.62"/>
    <linearGradient id="linearGradient3784" x1="28.875" xlink:href="#linearGradient2338" gradientUnits="userSpaceOnUse" y1="69.688" gradientTransform="translate(2.0757 .34595)" x2="31.25" y2="66.5"/>
    <linearGradient id="linearGradient3786" x1="24.188" xlink:href="#linearGradient2338" gradientUnits="userSpaceOnUse" y1="70" gradientTransform="translate(2.0757 .34595)" x2="26.625" y2="66.812"/>
    <linearGradient id="linearGradient3788" x1="21.438" xlink:href="#linearGradient2338" gradientUnits="userSpaceOnUse" y1="67.406" gradientTransform="translate(2.0757 .34595)" x2="26.5" y2="64.156"/>
    <linearGradient id="linearGradient3790" x1="21.688" xlink:href="#linearGradient2338" gradientUnits="userSpaceOnUse" y1="63.938" gradientTransform="translate(2.0757 .34595)" x2="23.812" y2="61.688"/>
    <linearGradient id="linearGradient3792" x1="45" xlink:href="#linearGradient2338" gradientUnits="userSpaceOnUse" y1="84.125" gradientTransform="translate(2.0757 .34595)" x2="46.75" y2="82.812"/>
    <linearGradient id="linearGradient3794" x1="44" xlink:href="#linearGradient2338" gradientUnits="userSpaceOnUse" y1="85" gradientTransform="translate(2.0757 .34595)" x2="46.312" y2="83.562"/>
    <linearGradient id="linearGradient3796" x1="43.438" xlink:href="#linearGradient2338" gradientUnits="userSpaceOnUse" y1="82.75" gradientTransform="translate(2.0757 .34595)" x2="44.812" y2="80.25"/>
    <linearGradient id="linearGradient3798" x1="41.688" xlink:href="#linearGradient2338" gradientUnits="userSpaceOnUse" y1="79.125" gradientTransform="translate(2.0757 .34595)" x2="43.625" y2="77.438"/>
    <linearGradient id="linearGradient3800" x1="37.75" xlink:href="#linearGradient2338" gradientUnits="userSpaceOnUse" y1="80.438" gradientTransform="translate(2.0757 .34595)" x2="39" y2="78.75"/>
    <linearGradient id="linearGradient3802" x1="36.25" xlink:href="#linearGradient2338" gradientUnits="userSpaceOnUse" y1="79.25" gradientTransform="translate(2.0757 .34595)" x2="39.5" y2="74.75"/>
    <linearGradient id="linearGradient3804" x1="35" xlink:href="#linearGradient2338" gradientUnits="userSpaceOnUse" y1="74.5" gradientTransform="translate(2.0757 .34595)" x2="36.375" y2="72.562"/>
    <linearGradient id="linearGradient3806" x1="30.812" xlink:href="#linearGradient2338" gradientUnits="userSpaceOnUse" y1="75.25" gradientTransform="translate(2.0757 .34595)" x2="32" y2="73.5"/>
    <linearGradient id="linearGradient3808" x1="28.438" xlink:href="#linearGradient2338" gradientUnits="userSpaceOnUse" y1="73.375" gradientTransform="translate(2.0757 .34595)" x2="33.125" y2="69.875"/>
    <linearGradient id="linearGradient3842" x1="24.188" xlink:href="#linearGradient2338" gradientUnits="userSpaceOnUse" y1="75.25" gradientTransform="translate(56.954 -31.008)" x2="43.875" y2="102.62"/>
    <linearGradient id="linearGradient3844" x1="21.688" xlink:href="#linearGradient2338" gradientUnits="userSpaceOnUse" y1="63.938" gradientTransform="translate(56.954 -31.008)" x2="23.812" y2="61.688"/>
    <linearGradient id="linearGradient3846" x1="21.438" xlink:href="#linearGradient2338" gradientUnits="userSpaceOnUse" y1="67.406" gradientTransform="translate(56.954 -31.008)" x2="26.5" y2="64.156"/>
    <linearGradient id="linearGradient3848" x1="24.188" xlink:href="#linearGradient2338" gradientUnits="userSpaceOnUse" y1="70" gradientTransform="translate(56.954 -31.008)" x2="26.625" y2="66.812"/>
    <linearGradient id="linearGradient3850" x1="28.875" xlink:href="#linearGradient2338" gradientUnits="userSpaceOnUse" y1="69.688" gradientTransform="translate(56.954 -31.008)" x2="31.25" y2="66.5"/>
    <linearGradient id="linearGradient3852" x1="28.438" xlink:href="#linearGradient2338" gradientUnits="userSpaceOnUse" y1="73.375" gradientTransform="translate(56.954 -31.008)" x2="33.125" y2="69.875"/>
    <linearGradient id="linearGradient3854" x1="30.812" xlink:href="#linearGradient2338" gradientUnits="userSpaceOnUse" y1="75.25" gradientTransform="translate(56.954 -31.008)" x2="32" y2="73.5"/>
    <linearGradient id="linearGradient3856" x1="35" xlink:href="#linearGradient2338" gradientUnits="userSpaceOnUse" y1="74.5" gradientTransform="translate(56.954 -31.008)" x2="36.375" y2="72.562"/>
    <linearGradient id="linearGradient3858" x1="36.25" xlink:href="#linearGradient2338" gradientUnits="userSpaceOnUse" y1="79.25" gradientTransform="translate(56.954 -31.008)" x2="39.5" y2="74.75"/>
    <linearGradient id="linearGradient3860" x1="37.75" xlink:href="#linearGradient2338" gradientUnits="userSpaceOnUse" y1="80.438" gradientTransform="translate(56.954 -31.008)" x2="39" y2="78.75"/>
    <linearGradient id="linearGradient3862" x1="41.688" xlink:href="#linearGradient2338" gradientUnits="userSpaceOnUse" y1="79.125" gradientTransform="translate(56.954 -31.008)" x2="43.625" y2="77.438"/>
    <linearGradient id="linearGradient3864" x1="43.438" xlink:href="#linearGradient2338" gradientUnits="userSpaceOnUse" y1="82.75" gradientTransform="translate(56.954 -31.008)" x2="44.812" y2="80.25"/>
    <linearGradient id="linearGradient3866" x1="44" xlink:href="#linearGradient2338" gradientUnits="userSpaceOnUse" y1="85" gradientTransform="translate(56.954 -31.008)" x2="46.312" y2="83.562"/>
    <linearGradient id="linearGradient3868" x1="45.321" xlink:href="#linearGradient2338" gradientUnits="userSpaceOnUse" y1="84.538" gradientTransform="translate(56.954 -31.008)" x2="46.75" y2="82.812"/>
    <linearGradient id="linearGradient3872" x1="31.938" xlink:href="#linearGradient2338" gradientUnits="userSpaceOnUse" y1="65.406" gradientTransform="translate(2.0757 .34595)" x2="53.312" y2="34.906"/>
    <linearGradient id="linearGradient3900" x1="53.25" xlink:href="#linearGradient2338" gradientUnits="userSpaceOnUse" y1="28.875" gradientTransform="translate(2.0757 .34595)" x2="54.625" y2="27.105"/>
    <linearGradient id="linearGradient3902" x1="51.125" xlink:href="#linearGradient2338" gradientUnits="userSpaceOnUse" y1="29.562" gradientTransform="translate(2.0757 .34595)" x2="53.563" y2="33.312"/>
    <linearGradient id="linearGradient3904" x1="51.312" xlink:href="#linearGradient2338" gradientUnits="userSpaceOnUse" y1="33.25" gradientTransform="translate(2.0757 .34595)" x2="51.972" y2="31.303"/>
    <linearGradient id="linearGradient3906" x1="46.375" xlink:href="#linearGradient2338" gradientUnits="userSpaceOnUse" y1="31.688" gradientTransform="translate(2.0757 .34595)" x2="47.562" y2="29.312"/>
    <linearGradient id="linearGradient3908" x1="42.938" xlink:href="#linearGradient2338" gradientUnits="userSpaceOnUse" y1="32.75" gradientTransform="translate(2.0757 .34595)" x2="45.75" y2="35.811"/>
    <linearGradient id="linearGradient3910" x1="43.125" xlink:href="#linearGradient2338" gradientUnits="userSpaceOnUse" y1="36.75" gradientTransform="translate(2.0757 .34595)" x2="43.5" y2="35.125"/>
    <linearGradient id="linearGradient3912" x1="38.438" xlink:href="#linearGradient2338" gradientUnits="userSpaceOnUse" y1="35.188" gradientTransform="translate(2.0757 .34595)" x2="39.75" y2="33.469"/>
    <linearGradient id="linearGradient3914" x1="35.562" xlink:href="#linearGradient2338" gradientUnits="userSpaceOnUse" y1="36.188" gradientTransform="translate(2.0757 .34595)" x2="37.938" y2="38"/>
    <linearGradient id="linearGradient3916" x1="35" xlink:href="#linearGradient2338" gradientUnits="userSpaceOnUse" y1="40" gradientTransform="translate(2.0757 .34595)" x2="35.562" y2="38.312"/>
    <linearGradient id="linearGradient3918" x1="29.75" xlink:href="#linearGradient2338" gradientUnits="userSpaceOnUse" y1="38.438" gradientTransform="translate(2.0757 .34595)" x2="30.688" y2="36.562"/>
    <linearGradient id="linearGradient3920" x1="27.688" xlink:href="#linearGradient2338" gradientUnits="userSpaceOnUse" y1="39.75" gradientTransform="translate(2.0757 .34595)" x2="28.562" y2="41.5"/>
    <linearGradient id="linearGradient3922" x1="26.938" xlink:href="#linearGradient2338" gradientUnits="userSpaceOnUse" y1="43.062" gradientTransform="translate(2.0757 .34595)" x2="27.887" y2="40.805"/>
    <linearGradient id="linearGradient3924" x1="21.25" xlink:href="#linearGradient2338" gradientUnits="userSpaceOnUse" y1="41.688" gradientTransform="translate(2.0757 .34595)" x2="23" y2="39.562"/>
    <linearGradient id="linearGradient3936" x1="76" xlink:href="#linearGradient2338" gradientUnits="userSpaceOnUse" y1="109.5" gradientTransform="translate(2.0757 .34595)" x2="83.25" y2="95.938"/>
    <linearGradient id="linearGradient3942" x1="82.625" xlink:href="#linearGradient2338" gradientUnits="userSpaceOnUse" y1="90.562" gradientTransform="translate(2.0757 .34595)" x2="87.312" y2="107.12"/>
    <linearGradient id="linearGradient3946" x1="85.312" xlink:href="#linearGradient2338" gradientUnits="userSpaceOnUse" y1="99.062" gradientTransform="translate(2.0757 .34595)" x2="102.06" y2="86.75"/>
    <linearGradient id="linearGradient3950" x1="97.875" xlink:href="#linearGradient2338" gradientUnits="userSpaceOnUse" y1="95.062" gradientTransform="translate(2.0757 .34595)" x2="112.38" y2="83.812"/>
    <linearGradient id="linearGradient3954" x1="104" xlink:href="#linearGradient2338" gradientUnits="userSpaceOnUse" y1="70.875" gradientTransform="translate(2.0757 .34595)" x2="105.28" y2="69.094"/>
    <linearGradient id="linearGradient3958" x1="102.59" xlink:href="#linearGradient2338" gradientUnits="userSpaceOnUse" y1="71.875" gradientTransform="translate(2.0757 .34595)" x2="104.41" y2="74.75"/>
    <linearGradient id="linearGradient3962" x1="99.938" xlink:href="#linearGradient2338" gradientUnits="userSpaceOnUse" y1="73.156" gradientTransform="translate(2.0757 .34595)" x2="100.59" y2="72.688"/>
    <linearGradient id="linearGradient3966" x1="95" xlink:href="#linearGradient2338" gradientUnits="userSpaceOnUse" y1="72.875" gradientTransform="translate(2.0757 .34595)" x2="96.312" y2="69.844"/>
    <linearGradient id="linearGradient3970" x1="92.562" xlink:href="#linearGradient2338" gradientUnits="userSpaceOnUse" y1="72.688" gradientTransform="translate(2.0757 .34595)" x2="94.031" y2="74.969"/>
    <linearGradient id="linearGradient3974" x1="90.125" xlink:href="#linearGradient2338" gradientUnits="userSpaceOnUse" y1="76.906" gradientTransform="translate(2.0757 .34595)" x2="93.188" y2="74.688"/>
    <linearGradient id="linearGradient3978" x1="85.156" xlink:href="#linearGradient2338" gradientUnits="userSpaceOnUse" y1="77.5" gradientTransform="translate(2.0757 .34595)" x2="87.469" y2="73.562"/>
    <linearGradient id="linearGradient3982" x1="79.719" xlink:href="#linearGradient2338" gradientUnits="userSpaceOnUse" y1="80.719" gradientTransform="translate(2.0757 .34595)" x2="81.062" y2="78.938"/>
    <linearGradient id="linearGradient3986" x1="74" xlink:href="#linearGradient2338" gradientUnits="userSpaceOnUse" y1="83.844" gradientTransform="translate(2.0757 .34595)" x2="75.172" y2="82.531"/>
    <linearGradient id="linearGradient3990" x1="76.812" xlink:href="#linearGradient2338" gradientUnits="userSpaceOnUse" y1="85.344" gradientTransform="translate(2.0757 .34595)" x2="77.938" y2="82.875"/>
    <linearGradient id="linearGradient3994" x1="77.938" xlink:href="#linearGradient2338" gradientUnits="userSpaceOnUse" y1="81.625" gradientTransform="translate(2.0757 .34595)" x2="79.875" y2="84.125"/>
    <linearGradient id="linearGradient4006" x1="78.25" xlink:href="#linearGradient2338" gradientUnits="userSpaceOnUse" y1="81.938" gradientTransform="translate(2.0757 .34595)" x2="92.594" y2="67.156"/>
    <linearGradient id="linearGradient4010" x1="35.978" xlink:href="#linearGradient2338" gradientUnits="userSpaceOnUse" y1="64.519" gradientTransform="translate(2.0757 .34595)" x2="47.395" y2="98.422"/>
    <linearGradient id="linearGradient3098">
      <stop id="stop3100" stop-color="#9e2612" offset="0"/>
      <stop id="stop3102" stop-color="#bd5032" offset="1"/>
    </linearGradient>
    <linearGradient id="linearGradient4119" x1="70.573" xlink:href="#linearGradient3098" gradientUnits="userSpaceOnUse" y1="72.778" gradientTransform="translate(2.0757 .34595)" x2="78.357" y2="61.276"/>
    <linearGradient id="linearGradient4123" x1="68.281" xlink:href="#linearGradient3098" gradientUnits="userSpaceOnUse" y1="58.768" gradientTransform="translate(2.0757 .34595)" x2="67.805" y2="44.627"/>
    <linearGradient id="linearGradient4127" x1="48.519" xlink:href="#linearGradient3098" gradientUnits="userSpaceOnUse" y1="48.605" gradientTransform="translate(2.0757 .34595)" x2="60.497" y2="72.995"/>
    <linearGradient id="linearGradient4166" x1="91.469" gradientUnits="userSpaceOnUse" y1="103.91" gradientTransform="translate(2.0757 .34595)" x2="98.531" y2="92.312">
      <stop id="stop2322" stop-color="#6a3c1d" offset="0"/>
      <stop id="stop2324" stop-color="#8f5127" offset="1"/>
    </linearGradient>
    <filter id="filter4179">
      <feGaussianBlur id="feGaussianBlur4181" stdDeviation="1.462054"/>
    </filter>
  </defs>
  <g id="layer4" fill-rule="evenodd">
    <path id="path4169" filter="url(#filter4179)" fill-opacity=".66667" d="m59.849 122.12l-12.8-8.3 4.67-3.98-33.557-20.067 0.346-4.324-2.94 3.459-13.665-6.746 0.3456-16.432 60.54-25.081 52.581 48.086-39.954 15.565-15.567 17.82z"/>
    <path id="path3812" fill="url(#linearGradient3842)" d="m74.641 31.304l-0.125 26.313 29.064 20.5 1.23-21.476 0.83-0.381-3.75-3.268-0.01 2.275-2.989-1.4 0.313-3.688-3.688-2.562-0.062 2.937-2.75-1.937-0.063-3.438-4.25-3.25 0.125 3.625-2.687-1.937-0.063-3.75-3.687-2.75v3.687l-3.688-2.875v-3.812l-3.75-2.813z"/>
    <path id="path3840" fill-opacity=".15686" d="m74.641 31.304l-0.125 26.313 29.064 20.5-0.16-19.855 2.22-2.048-3.75-3.222-0.1 2.321-2.899-1.446 0.313-3.688-3.688-2.562-0.062 2.937-2.75-1.937-0.063-3.438-4.25-3.25 0.125 3.625-2.687-1.937-0.063-3.75-3.687-2.75v3.687l-3.688-2.875v-3.812l-3.75-2.813z"/>
    <g id="g3270" transform="translate(2.0757 .34595)">
      <path id="path2497" fill="url(#linearGradient2499)" d="m46.27 78.919l0.216 34.851 12.282 9.21 0.173-36.839-2.552-1.255v2.249l-3.07-1.249 0.346-2.124-2.681-1.557v2.119l-2.465-1.513 0.13-2.119-2.379-1.773z"/>
      <path id="path2565" fill="url(#linearGradient2567)" d="m58.984 86.054c0 0.216-0.216 37.056-0.216 37.056l15.135-6.87-0.606-35.894-3.027 1.643-0.129 1.903-2.595 1.384-0.173-2.076-2.422 1.081 0.173 1.514-3.07 1.21-0.173-1.773-2.897 0.822z"/>
      <path id="path2569" fill="url(#linearGradient2671)" d="m46.27 78.703l3.979-1.471 1.21 1.082-2.421 0.778 1.686 1.167-1.989 0.519-2.465-2.075z"/>
      <path id="path2571" fill="url(#linearGradient2669)" d="m48.692 80.778l-0.173 2.119 2.508-0.865-0.13-1.686-2.205 0.432z"/>
      <path id="path2573" fill="url(#linearGradient2667)" d="m51.2 82.292l-0.216-0.26-2.422 0.822 2.292 1.47 0.346-2.032z"/>
      <path id="path2575" fill="url(#linearGradient2665)" d="m50.941 82.162l2.81 1.73 1.946-1.038-2.767-1.427-1.989 0.735z"/>
      <path id="path2577" fill="url(#linearGradient2663)" d="m53.622 83.762l2.032-0.821 0.043 2.118-2.335 0.779 0.26-1.816v-0.26z"/>
      <path id="path2579" fill="url(#linearGradient2661)" d="m53.535 85.838l2.119-0.822 0.822 0.389-0.13 1.73-2.811-1.297z"/>
      <path id="path2581" fill="url(#linearGradient2659)" d="m56.346 84.757l1.773-0.952 1.254 0.865 1.73-0.692 0.994 0.995-3.07 1.168-2.681-1.384z"/>
      <path id="path2583" fill="url(#linearGradient2657)" d="m62.011 84.843v2.249l3.243-1.384-3.243-0.865z"/>
      <path id="path2585" fill="url(#linearGradient2655)" d="m62.27 83.33l-0.129 1.513 2.983 0.952-0.173-1.644-2.681-0.821z"/>
      <path id="path2587" fill="url(#linearGradient2653)" d="m62.357 83.243l2.508-0.908 2.551 0.779-2.465 1.124-2.594-0.995z"/>
      <path id="path2589" fill="url(#linearGradient2651)" d="m67.286 83.07l2.941 0.779-0.086 0.173-2.595 1.254-0.26-2.206z"/>
      <path id="path2591" fill="url(#linearGradient2649)" d="m67.33 81.297l0.086 1.817 2.811 0.735-0.043-1.946-2.681-0.519-0.173-0.087z"/>
      <path id="path2593" fill="url(#linearGradient2647)" d="m67.416 81.427l2.033-0.778-1.557-0.606 2.162-1.254 3.416 1.341-0.216 0.346-3.157 1.556-2.681-0.605z"/>
      <path id="path2595" fill="url(#linearGradient2645)" d="m67.503 81.038l-1.514-1.038 1.557-0.778 1.038 0.519-0.952 0.432-0.129 0.865z"/>
      <path id="path2597" fill="url(#linearGradient2643)" d="m65.816 80.043l0.043-1.989 1.687-0.778-0.13 2.032-1.6 0.735z"/>
      <path id="path2599" fill="url(#linearGradient2641)" d="m65.816 77.968l-2.248-1.384-0.087-0.26 1.297-0.778 2.725 1.773-1.687 0.649z"/>
      <path id="path2601" fill="url(#linearGradient2639)" d="m63.481 78.616l-1.73-1.211 1.341-0.821 0.519 0.605 0.086 1.47-0.216-0.043z"/>
      <path id="path2603" fill="url(#linearGradient2637)" d="m61.665 77.362l-0.043-1.686 1.383-0.822 0.087 1.816-1.427 0.692z"/>
      <path id="path2605" fill="url(#linearGradient2635)" d="m61.708 75.589l-1.038-1.038-1.211 0.735-1.34-0.691c0.018 0.036 2.651-1.315 2.811-1.341 0.393-0.064 2.119 1.514 2.119 1.514l-1.341 0.821z"/>
      <path id="path2607" fill="url(#linearGradient2633)" d="m59.33 75.243l0.259 1.816-1.254-0.908-0.216-1.556 1.211 0.648z"/>
      <path id="path2609" fill="url(#linearGradient2631)" d="m58.378 76.195l-1.383 0.648 0.086 1.298 2.508-1.082-1.211-0.864z"/>
      <path id="path2611" fill="url(#linearGradient2629)" d="m56.908 75.676v0.302l-2.638 1.298-1.6-0.779 2.898-1.211 1.34 0.39z"/>
      <path id="path2613" fill="url(#linearGradient2627)" d="m52.67 76.627l0.216 1.643 1.773 0.692-0.345-1.643-1.644-0.692z"/>
      <path id="path2615" fill="url(#linearGradient2625)" d="m52.843 78.184l-1.427 0.648-0.043 1.73 3.286-1.557-1.816-0.821z"/>
      <path id="path2617" fill="url(#linearGradient2623)" d="m60.67 74.551v9.557l-1.384 0.519-1.254-0.735-1.513 0.865v0.648l-0.822-0.432-0.086-2.119-2.638-1.427-2.032 0.778-0.044-1.773-1.902-1.297 2.508-0.865-0.044 2.162 2.422-0.994 0.735-0.346-0.302-1.816 2.594-1.341 0.216 2.249 2.552-1.211-0.26-1.643 1.254-0.779z"/>
      <path id="path2619" d="m60.714 74.638l-0.087 9.6 0.432-0.26 1.082 0.995 0.129-0.216v-1.341l2.552-1.081 2.551 0.735-0.043-1.643 0.432-0.13 1.73-0.735-1.73-0.432-0.13 0.043v0.865l-0.648-0.303-1.254-0.778 0.086-1.989-2.248-1.298 0.129 2.119-1.989-1.34-0.043-1.903-0.951-0.908z" fill="url(#linearGradient2621)"/>
      <path id="path2675" fill="#d59163" d="m50.292 95.827l0.346-2.508 0.692-1.211 1.038-0.605 1.383 0.994 0.433 1.557 0.173 2.811 0.129 1.946-4.194-2.984z"/>
      <path id="path2679" fill="#d59163" d="m64.173 100.24l5.319-1.948s-0.216-2.638-0.606-2.941c-0.389-0.302-0.951-1.6-0.951-1.6l-1.73-1.081-1.081 1.471-0.821 2.032-0.044 1.903-0.086 2.164z"/>
      <path id="path2681" fill-opacity=".15686" d="m46.27 78.919l0.216 34.851 12.282 9.21 0.173-36.839-2.552-1.255v2.249l-3.07-1.249 0.346-2.124-2.681-1.557v2.119l-2.465-1.513 0.13-2.119-2.379-1.773z"/>
      <path id="path2683" fill-opacity=".15686" d="m62.27 83.33l-0.129 1.513 2.983 0.952-0.173-1.644-2.681-0.821z"/>
      <path id="path2685" fill-opacity=".15686" d="m67.33 81.297l0.086 1.817 2.811 0.735-0.043-1.946-2.681-0.519-0.173-0.087z"/>
      <path id="path2687" fill-opacity=".15686" d="m59.33 75.243l0.259 1.816-1.254-0.908-0.216-1.556 1.211 0.648z"/>
      <path id="path2689" fill-opacity=".15686" d="m52.67 76.627l0.216 1.643 1.773 0.692-0.345-1.643-1.644-0.692z"/>
      <path id="path2691" fill-opacity=".15686" d="m60.714 74.638l-0.087 9.6 0.432-0.26 1.082 0.995 0.129-0.216v-1.341l2.552-1.081 2.551 0.735-0.043-1.643 0.432-0.13 1.73-0.735-1.73-0.432-0.13 0.043v0.865l-0.648-0.303-1.254-0.778 0.086-1.989-2.248-1.298 0.129 2.119-1.989-1.34-0.043-1.903-0.951-0.908z"/>
    </g>
    <g id="g3364" transform="translate(-41.924 -32.856)">
      <path id="path3366" fill="url(#linearGradient2499)" d="m46.27 78.919l0.216 34.851 12.282 9.21 0.173-36.839-2.552-1.255v2.249l-3.07-1.249 0.346-2.124-2.681-1.557v2.119l-2.465-1.513 0.13-2.119-2.379-1.773z"/>
      <path id="path3368" fill="url(#linearGradient2567)" d="m58.984 86.054c0 0.216-0.216 37.056-0.216 37.056l15.135-6.87-0.606-35.894-3.027 1.643-0.129 1.903-2.595 1.384-0.173-2.076-2.422 1.081 0.173 1.514-3.07 1.21-0.173-1.773-2.897 0.822z"/>
      <path id="path3370" fill="url(#linearGradient2671)" d="m46.27 78.703l3.979-1.471 1.21 1.082-2.421 0.778 1.686 1.167-1.989 0.519-2.465-2.075z"/>
      <path id="path3372" fill="url(#linearGradient2669)" d="m48.692 80.778l-0.173 2.119 2.508-0.865-0.13-1.686-2.205 0.432z"/>
      <path id="path3374" fill="url(#linearGradient2667)" d="m51.2 82.292l-0.216-0.26-2.422 0.822 2.292 1.47 0.346-2.032z"/>
      <path id="path3376" fill="url(#linearGradient2665)" d="m50.941 82.162l2.81 1.73 1.946-1.038-2.767-1.427-1.989 0.735z"/>
      <path id="path3378" fill="url(#linearGradient2663)" d="m53.622 83.762l2.032-0.821 0.043 2.118-2.335 0.779 0.26-1.816v-0.26z"/>
      <path id="path3380" fill="url(#linearGradient2661)" d="m53.535 85.838l2.119-0.822 0.822 0.389-0.13 1.73-2.811-1.297z"/>
      <path id="path3382" fill="url(#linearGradient2659)" d="m56.346 84.757l1.773-0.952 1.254 0.865 1.73-0.692 0.994 0.995-3.07 1.168-2.681-1.384z"/>
      <path id="path3384" fill="url(#linearGradient2657)" d="m62.011 84.843v2.249l3.243-1.384-3.243-0.865z"/>
      <path id="path3386" fill="url(#linearGradient2655)" d="m62.27 83.33l-0.129 1.513 2.983 0.952-0.173-1.644-2.681-0.821z"/>
      <path id="path3388" fill="url(#linearGradient2653)" d="m62.357 83.243l2.508-0.908 2.551 0.779-2.465 1.124-2.594-0.995z"/>
      <path id="path3390" fill="url(#linearGradient2651)" d="m67.286 83.07l2.941 0.779-0.086 0.173-2.595 1.254-0.26-2.206z"/>
      <path id="path3392" fill="url(#linearGradient2649)" d="m67.33 81.297l0.086 1.817 2.811 0.735-0.043-1.946-2.681-0.519-0.173-0.087z"/>
      <path id="path3394" fill="url(#linearGradient2647)" d="m67.416 81.427l2.033-0.778-1.557-0.606 2.162-1.254 3.416 1.341-0.216 0.346-3.157 1.556-2.681-0.605z"/>
      <path id="path3396" fill="url(#linearGradient2645)" d="m67.503 81.038l-1.514-1.038 1.557-0.778 1.038 0.519-0.952 0.432-0.129 0.865z"/>
      <path id="path3398" fill="url(#linearGradient2643)" d="m65.816 80.043l0.043-1.989 1.687-0.778-0.13 2.032-1.6 0.735z"/>
      <path id="path3400" fill="url(#linearGradient2641)" d="m65.816 77.968l-2.248-1.384-0.087-0.26 1.297-0.778 2.725 1.773-1.687 0.649z"/>
      <path id="path3402" fill="url(#linearGradient2639)" d="m63.481 78.616l-1.73-1.211 1.341-0.821 0.519 0.605 0.086 1.47-0.216-0.043z"/>
      <path id="path3404" fill="url(#linearGradient2637)" d="m61.665 77.362l-0.043-1.686 1.383-0.822 0.087 1.816-1.427 0.692z"/>
      <path id="path3406" fill="url(#linearGradient2635)" d="m61.708 75.589l-1.038-1.038-1.211 0.735-1.34-0.691c0.013 0.02 2.734-1.483 2.811-1.341 0.227 0.417 2.115 1.52 2.119 1.514l-1.341 0.821z"/>
      <path id="path3408" fill="url(#linearGradient2633)" d="m59.33 75.243l0.259 1.816-1.254-0.908-0.216-1.556 1.211 0.648z"/>
      <path id="path3410" fill="url(#linearGradient2631)" d="m58.378 76.195l-1.383 0.648 0.086 1.298 2.508-1.082-1.211-0.864z"/>
      <path id="path3412" fill="url(#linearGradient2629)" d="m56.908 75.676v0.302l-2.638 1.298-1.6-0.779 2.898-1.211 1.34 0.39z"/>
      <path id="path3414" fill="url(#linearGradient2627)" d="m52.67 76.627l0.216 1.643 1.773 0.692-0.345-1.643-1.644-0.692z"/>
      <path id="path3416" fill="url(#linearGradient2625)" d="m52.843 78.184l-1.427 0.648-0.043 1.73 3.286-1.557-1.816-0.821z"/>
      <path id="path3418" fill="url(#linearGradient2623)" d="m60.67 74.551v9.557l-1.384 0.519-1.254-0.735-1.513 0.865v0.648l-0.822-0.432-0.086-2.119-2.638-1.427-2.032 0.778-0.044-1.773-1.902-1.297 2.508-0.865-0.044 2.162 2.422-0.994 0.735-0.346-0.302-1.816 2.594-1.341 0.216 2.249 2.552-1.211-0.26-1.643 1.254-0.779z"/>
      <path id="path3420" d="m60.714 74.638l-0.087 9.6 0.432-0.26 1.082 0.995 0.129-0.216v-1.341l2.552-1.081 2.551 0.735-0.043-1.643 0.432-0.13 1.73-0.735-1.73-0.432-0.13 0.043v0.865l-0.648-0.303-1.254-0.778 0.086-1.989-2.248-1.298 0.129 2.119-1.989-1.34-0.043-1.903-0.951-0.908z" fill="url(#linearGradient2621)"/>
      <path id="path3422" fill="#d59163" d="m50.292 95.827l0.346-2.508 0.692-1.211 1.038-0.605 1.383 0.994 0.433 1.557 0.173 2.811 0.129 1.946-4.194-2.984z"/>
      <path id="path3426" fill-opacity=".15686" d="m46.27 78.919l0.216 34.851 12.282 9.21 0.173-36.839-2.552-1.255v2.249l-3.07-1.249 0.346-2.124-2.681-1.557v2.119l-2.465-1.513 0.13-2.119-2.379-1.773z"/>
      <path id="path3428" fill-opacity=".15686" d="m62.27 83.33l-0.129 1.513 2.983 0.952-0.173-1.644-2.681-0.821z"/>
      <path id="path3430" fill-opacity=".15686" d="m67.33 81.297l0.086 1.817 2.811 0.735-0.043-1.946-2.681-0.519-0.173-0.087z"/>
      <path id="path3432" fill-opacity=".15686" d="m59.33 75.243l0.259 1.816-1.254-0.908-0.216-1.556 1.211 0.648z"/>
      <path id="path3434" fill-opacity=".15686" d="m52.67 76.627l0.216 1.643 1.773 0.692-0.345-1.643-1.644-0.692z"/>
      <path id="path3436" fill-opacity=".15686" d="m60.714 74.638l-0.087 9.6 0.432-0.26 1.082 0.995 0.129-0.216v-1.341l2.552-1.081 2.551 0.735-0.043-1.643 0.432-0.13 1.73-0.735-1.73-0.432-0.13 0.043v0.865l-0.648-0.303-1.254-0.778 0.086-1.989-2.248-1.298 0.129 2.119-1.989-1.34-0.043-1.903-0.951-0.908z"/>
    </g>
    <g id="g3494" transform="translate(6.997 -61.328)">
      <path id="path3496" fill="url(#linearGradient2499)" d="m46.27 78.919l0.216 34.851 12.282 9.21 0.173-36.839-2.552-1.255v2.249l-3.07-1.249 0.346-2.124-2.681-1.557v2.119l-2.465-1.513 0.13-2.119-2.379-1.773z"/>
      <path id="path3498" fill="url(#linearGradient2567)" d="m58.984 86.054c0 0.216-0.216 37.056-0.216 37.056l15.135-6.87-0.606-35.894-3.027 1.643-0.129 1.903-2.595 1.384-0.173-2.076-2.422 1.081 0.173 1.514-3.07 1.21-0.173-1.773-2.897 0.822z"/>
      <path id="path3500" fill="url(#linearGradient2671)" d="m46.27 78.703l3.979-1.471 1.21 1.082-2.421 0.778 1.686 1.167-1.989 0.519-2.465-2.075z"/>
      <path id="path3502" fill="url(#linearGradient2669)" d="m48.692 80.778l-0.173 2.119 2.508-0.865-0.13-1.686-2.205 0.432z"/>
      <path id="path3504" fill="url(#linearGradient2667)" d="m51.2 82.292l-0.216-0.26-2.422 0.822 2.292 1.47 0.346-2.032z"/>
      <path id="path3506" fill="url(#linearGradient2665)" d="m50.941 82.162l2.81 1.73 1.946-1.038-2.767-1.427-1.989 0.735z"/>
      <path id="path3508" fill="url(#linearGradient2663)" d="m53.622 83.762l2.032-0.821 0.043 2.118-2.335 0.779 0.26-1.816v-0.26z"/>
      <path id="path3510" fill="url(#linearGradient2661)" d="m53.535 85.838l2.119-0.822 0.822 0.389-0.13 1.73-2.811-1.297z"/>
      <path id="path3512" fill="url(#linearGradient2659)" d="m56.346 84.757l1.773-0.952 1.254 0.865 1.73-0.692 0.994 0.995-3.07 1.168-2.681-1.384z"/>
      <path id="path3514" fill="url(#linearGradient2657)" d="m62.179 84.81l-0.168 2.282 3.243-1.384-3.075-0.898z"/>
      <path id="path3516" fill="url(#linearGradient2655)" d="m62.27 83.33l-0.129 1.513 2.983 0.952-0.173-1.644-2.681-0.821z"/>
      <path id="path3518" fill="url(#linearGradient2653)" d="m62.357 83.243l2.508-0.908 2.551 0.779-2.465 1.124-2.594-0.995z"/>
      <path id="path3520" fill="url(#linearGradient2651)" d="m67.286 83.07l2.941 0.779-0.086 0.173-2.595 1.254-0.26-2.206z"/>
      <path id="path3522" fill="url(#linearGradient2649)" d="m67.33 81.297l0.086 1.817 2.811 0.735-0.043-1.946-2.681-0.519-0.173-0.087z"/>
      <path id="path3524" fill="url(#linearGradient2647)" d="m67.416 81.427l2.033-0.778-1.557-0.606 2.162-1.254 3.416 1.341-0.216 0.346-3.157 1.556-2.681-0.605z"/>
      <path id="path3526" fill="url(#linearGradient2645)" d="m67.503 81.038l-1.514-1.038 1.557-0.778 1.038 0.519-0.952 0.432-0.129 0.865z"/>
      <path id="path3528" fill="url(#linearGradient2643)" d="m65.816 80.043l0.043-1.989 1.687-0.778-0.13 2.032-1.6 0.735z"/>
      <path id="path3530" fill="url(#linearGradient2641)" d="m65.816 77.968l-2.248-1.384-0.087-0.26 1.297-0.778 2.725 1.773-1.687 0.649z"/>
      <path id="path3532" fill="url(#linearGradient2639)" d="m63.481 78.616l-1.73-1.211 1.341-0.821 0.519 0.605 0.086 1.47-0.216-0.043z"/>
      <path id="path3534" fill="url(#linearGradient2637)" d="m61.665 77.362l-0.043-1.686 1.383-0.822 0.087 1.816-1.427 0.692z"/>
      <path id="path3536" fill="url(#linearGradient2635)" d="m61.708 75.589l-1.038-1.038-1.211 0.735-1.34-0.691c0.005 0.029 2.519-1.388 2.811-1.341 0.104 0.017 2.074 1.573 2.119 1.514l-1.341 0.821z"/>
      <path id="path3538" fill="url(#linearGradient2633)" d="m59.33 75.243l0.259 1.816-1.254-0.908-0.216-1.556 1.211 0.648z"/>
      <path id="path3540" fill="url(#linearGradient2631)" d="m58.378 76.195l-1.383 0.648 0.086 1.298 2.508-1.082-1.211-0.864z"/>
      <path id="path3542" fill="url(#linearGradient2629)" d="m56.908 75.676v0.302l-2.638 1.298-1.6-0.779 2.898-1.211 1.34 0.39z"/>
      <path id="path3544" fill="url(#linearGradient2627)" d="m52.67 76.627l0.216 1.643 1.773 0.692-0.345-1.643-1.644-0.692z"/>
      <path id="path3546" fill="url(#linearGradient2625)" d="m52.843 78.184l-1.427 0.648-0.043 1.73 3.286-1.557-1.816-0.821z"/>
      <path id="path3548" fill="url(#linearGradient2623)" d="m60.67 74.551l0.169 9.49-1.553 0.586-1.254-0.735-1.513 0.865v0.648l-0.822-0.432-0.086-2.119-2.638-1.427-2.032 0.778-0.044-1.773-1.902-1.297 2.508-0.865-0.044 2.162 2.422-0.994 0.735-0.346-0.302-1.816 2.594-1.341 0.216 2.249 2.552-1.211-0.26-1.643 1.254-0.779z"/>
      <path id="path3550" fill="url(#linearGradient2621)" d="m60.714 74.638l0.143 9.34 1.284 0.995 0.129-0.216v-1.341l2.552-1.081 2.551 0.735-0.043-1.643 0.432-0.13 1.73-0.735-1.73-0.432-0.13 0.043v0.865l-0.648-0.303-1.254-0.778 0.086-1.989-2.248-1.298 0.129 2.119-1.989-1.34-0.043-1.903-0.951-0.908z"/>
      <path id="path3556" fill-opacity=".15686" d="m46.27 78.919l0.216 34.851 12.282 9.21 0.173-36.839-2.552-1.255v2.249l-3.07-1.249 0.346-2.124-2.681-1.557v2.119l-2.465-1.513 0.13-2.119-2.379-1.773z"/>
      <path id="path3558" fill-opacity=".15686" d="m62.27 83.33l-0.129 1.513 2.983 0.952-0.173-1.644-2.681-0.821z"/>
      <path id="path3560" fill-opacity=".15686" d="m67.33 81.297l0.086 1.817 2.811 0.735-0.043-1.946-2.681-0.519-0.173-0.087z"/>
      <path id="path3562" fill-opacity=".15686" d="m59.33 75.243l0.259 1.816-1.254-0.908-0.216-1.556 1.211 0.648z"/>
      <path id="path3564" fill-opacity=".15686" d="m52.67 76.627l0.216 1.643 1.773 0.692-0.345-1.643-1.644-0.692z"/>
      <path id="path3566" fill-opacity=".15686" d="m60.714 74.638l0.177 9.442 1.25 0.893 0.129-0.216v-1.341l2.552-1.081 2.551 0.735-0.043-1.643 0.432-0.13 1.73-0.735-1.73-0.432-0.13 0.043v0.865l-0.648-0.303-1.254-0.778 0.086-1.989-2.248-1.298 0.129 2.119-1.989-1.34-0.043-1.903-0.951-0.908z"/>
    </g>
    <g id="g3624" transform="translate(53.323 -22.227)">
      <path id="path3626" fill="url(#linearGradient2499)" d="m46.27 78.919l0.216 34.851 12.282 9.21 0.173-36.839-2.552-1.255v2.249l-2.969-1.384 0.245-1.989-2.681-1.557v2.119l-2.465-1.513 0.13-2.119-2.379-1.773z"/>
      <path id="path3628" fill="url(#linearGradient2567)" d="m58.984 86.054c0 0.216-0.216 37.056-0.216 37.056l15.135-6.87-0.606-35.894-3.027 1.643-0.129 1.903-2.595 1.384-0.173-2.076-2.422 1.081 0.173 1.514-3.07 1.21-0.173-1.773-2.897 0.822z"/>
      <path id="path3630" fill="url(#linearGradient2671)" d="m46.27 78.703l3.979-1.471 1.21 1.082-2.421 0.778 1.686 1.167-1.989 0.519-2.465-2.075z"/>
      <path id="path3632" fill="url(#linearGradient2669)" d="m48.692 80.778l-0.173 2.119 2.508-0.865-0.13-1.686-2.205 0.432z"/>
      <path id="path3634" fill="url(#linearGradient2667)" d="m51.2 82.292l-0.216-0.26-2.422 0.822 2.292 1.47 0.346-2.032z"/>
      <path id="path3636" fill="url(#linearGradient2665)" d="m50.941 82.162l2.81 1.73 1.946-1.038-2.767-1.427-1.989 0.735z"/>
      <path id="path3638" fill="url(#linearGradient2663)" d="m53.622 83.762l2.032-0.821 0.043 2.118-2.335 0.779 0.26-1.816v-0.26z"/>
      <path id="path3640" fill="url(#linearGradient2661)" d="m53.535 85.838l2.119-0.822 0.822 0.389-0.13 1.73-2.811-1.297z"/>
      <path id="path3642" fill="url(#linearGradient2659)" d="m56.346 84.757l1.773-0.952 1.254 0.865 1.73-0.692 0.994 0.995-3.07 1.168-2.681-1.384z"/>
      <path id="path3644" fill="url(#linearGradient2657)" d="m62.011 84.843v2.249l3.243-1.384-3.243-0.865z"/>
      <path id="path3646" fill="url(#linearGradient2655)" d="m62.27 83.33l-0.129 1.513 2.983 0.952-0.173-1.644-2.681-0.821z"/>
      <path id="path3648" fill="url(#linearGradient2653)" d="m62.357 83.243l2.508-0.908 2.551 0.779-2.465 1.124-2.594-0.995z"/>
      <path id="path3650" fill="url(#linearGradient2651)" d="m67.286 83.07l2.941 0.779-0.086 0.173-2.595 1.254-0.26-2.206z"/>
      <path id="path3652" fill="url(#linearGradient2649)" d="m67.33 81.297l0.086 1.817 2.811 0.735-0.043-1.946-2.681-0.519-0.173-0.087z"/>
      <path id="path3654" fill="url(#linearGradient2647)" d="m67.416 81.427l2.033-0.778-1.557-0.606 2.162-1.254 3.416 1.341-0.216 0.346-3.157 1.556-2.681-0.605z"/>
      <path id="path3656" fill="url(#linearGradient2645)" d="m67.503 81.038l-1.514-1.038 1.557-0.778 1.038 0.519-0.952 0.432-0.129 0.865z"/>
      <path id="path3658" fill="url(#linearGradient2643)" d="m65.816 80.043l0.043-1.989 1.687-0.778-0.13 2.032-1.6 0.735z"/>
      <path id="path3660" fill="url(#linearGradient2641)" d="m65.816 77.968l-2.248-1.384-0.087-0.26 1.297-0.778 2.725 1.773-1.687 0.649z"/>
      <path id="path3662" fill="url(#linearGradient2639)" d="m63.481 78.616l-1.73-1.211 1.341-0.821 0.519 0.605 0.086 1.47-0.216-0.043z"/>
      <path id="path3664" fill="url(#linearGradient2637)" d="m61.665 77.362l-0.043-1.686 1.383-0.822 0.087 1.816-1.427 0.692z"/>
      <path id="path3666" fill="url(#linearGradient2635)" d="m61.708 75.589l-1.038-1.038-1.211 0.735-1.34-0.691s2.508-1.6 2.811-1.341c0.302 0.26 2.119 1.514 2.119 1.514l-1.341 0.821z"/>
      <path id="path3668" fill="url(#linearGradient2633)" d="m59.33 75.243l0.259 1.816-1.254-0.908-0.216-1.556 1.211 0.648z"/>
      <path id="path3670" fill="url(#linearGradient2631)" d="m58.378 76.195l-1.383 0.648 0.086 1.298 2.508-1.082-1.211-0.864z"/>
      <path id="path3672" fill="url(#linearGradient2629)" d="m56.908 75.676v0.302l-2.638 1.298-1.6-0.779 2.898-1.211 1.34 0.39z"/>
      <path id="path3674" fill="url(#linearGradient2627)" d="m52.67 76.627l0.216 1.643 1.773 0.692-0.345-1.643-1.644-0.692z"/>
      <path id="path3676" fill="url(#linearGradient2625)" d="m52.843 78.184l-1.427 0.648-0.043 1.73 3.286-1.557-1.816-0.821z"/>
      <path id="path3678" fill="url(#linearGradient2623)" d="m60.67 74.551l0.135 9.523-1.519 0.553-1.254-0.735-1.513 0.865v0.648l-0.822-0.432-0.086-2.119-2.638-1.427-2.032 0.778-0.044-1.773-1.902-1.297 2.508-0.865-0.044 2.162 2.422-0.994 0.735-0.346-0.302-1.816 2.594-1.341 0.216 2.249 2.552-1.211-0.26-1.643 1.254-0.779z"/>
      <path id="path3680" fill="url(#linearGradient2621)" d="m60.714 74.638l0.115 9.465 0.23-0.125 1.082 0.995 0.129-0.216v-1.341l2.552-1.081 2.551 0.735-0.043-1.643 0.432-0.13 1.73-0.735-1.696-0.601-0.164 0.212v0.865l-0.648-0.303-1.254-0.778 0.086-1.989-2.248-1.298 0.129 2.119-1.989-1.34-0.043-1.903-0.951-0.908z"/>
      <path id="path3686" fill-opacity=".15686" d="m46.27 78.919l0.216 34.851 12.282 9.21 0.173-36.839-2.552-1.255v2.249l-2.969-1.35 0.245-2.023-2.681-1.557v2.119l-0.598-0.367-1.867-1.146 0.13-2.119-2.379-1.773z"/>
      <path id="path3684" fill="#d59163" d="m64.173 100.24l5.319-1.948s-0.216-2.638-0.606-2.941c-0.389-0.302-0.951-1.6-0.951-1.6l-1.73-1.081-1.081 1.471-0.821 2.032-0.044 1.903-0.086 2.164z"/>
      <path id="path3688" fill-opacity=".15686" d="m62.27 83.33l-0.129 1.513 2.983 0.952-0.173-1.644-2.681-0.821z"/>
      <path id="path3690" fill-opacity=".15686" d="m67.33 81.297l0.086 1.817 2.811 0.735-0.043-1.946-2.681-0.519-0.173-0.087z"/>
      <path id="path3692" fill-opacity=".15686" d="m59.33 75.243l0.259 1.816-1.254-0.908-0.216-1.556 1.211 0.648z"/>
      <path id="path3694" fill-opacity=".15686" d="m52.67 76.627l0.216 1.643 1.773 0.692-0.345-1.643-1.644-0.692z"/>
      <path id="path3696" fill-opacity=".15686" d="m60.714 74.638l0.014 9.431 0.23-0.023 1.183 0.927 0.129-0.216v-1.341l2.552-1.081 2.551 0.735-0.043-1.643 0.432-0.13 1.73-0.735-1.629-0.567-0.231 0.448v0.595l-0.648-0.303-1.254-0.778 0.086-1.989-2.248-1.298 0.129 2.119-1.989-1.34-0.043-1.903-0.951-0.908z"/>
    </g>
    <path id="path3754" fill="url(#linearGradient3756)" d="m19.763 62.658l-0.125 26.313 29.063 20.499-0.188-23.874-1.5-1.25 0.125 2.687-3.125-1.812 0.313-3.688-3.688-2.562-0.062 2.937-2.75-1.937-0.063-3.438-4.25-3.25 0.125 3.625-2.687-1.937-0.063-3.75-3.687-2.75v3.687l-3.688-2.875v-3.812l-3.75-2.813z"/>
    <path id="path3758" fill="url(#linearGradient3790)" d="m19.638 62.596l5.125-1.125 3.625 2.375-4.687 1.75-4.063-3z"/>
    <path id="path3760" d="m23.701 65.533l4.625-1.625 0.25 3.5-5.063 1.813 0.188-3.688z" fill="url(#linearGradient3788)"/>
    <path id="path3762" fill="url(#linearGradient3786)" d="m23.513 69.096l5-1.938 0.813 0.438-2.063 0.75-0.125 3.937-3.625-3.187z"/>
    <path id="path3764" fill="url(#linearGradient3784)" d="m27.201 68.346l3.562-1.5 4.5 2.687-4.25 1.688-3.812-2.875z"/>
    <path id="path3766" d="m30.951 71.221v3.75l2.687-1.25v-0.375l1.875-1.125-0.187-2.75-4.375 1.75z" fill="url(#linearGradient3808)"/>
    <path id="path3768" fill="url(#linearGradient3806)" d="m33.576 73.846l0.062 3.25-2.5-2.25 1.625-0.688 0.813-0.312z"/>
    <path id="path3770" fill="url(#linearGradient3804)" d="m33.513 73.221l4-2.063 4.125 3.125-3.687 2.438-4.438-3.5z"/>
    <path id="path3772" d="m37.763 76.596l0.063 3.5h0.375l2.5-0.938-0.125-0.5 1.437-1.125-0.312-3.187-3.938 2.25z" fill="url(#linearGradient3802)"/>
    <path id="path3774" fill="url(#linearGradient3800)" d="m40.451 82.096l-2.438-2 2.688-1-0.25 3z"/>
    <path id="path3776" fill="url(#linearGradient3798)" d="m40.826 78.971l-0.313-0.438 3.625-2.437 3.875 2.5-3.875 3-3.312-2.625z"/>
    <path id="path3778" fill="url(#linearGradient3796)" d="m44.263 81.533l-0.25 3.688 3-0.625v-0.313l1.063-0.875-0.125-4.937-3.688 3.062z"/>
    <path id="path3780" fill="url(#linearGradient3794)" d="m47.013 86.971l-2.875-1.813 2.875-0.687 0.063 2.75-0.313-0.125 0.25-0.125z"/>
    <path id="path3782" d="m48.388 85.783l-1.312-1.375 1.437-1.25-0.125 2.625z" fill="url(#linearGradient3792)"/>
    <path id="path3810" fill-opacity=".15686" d="m19.763 62.658l-0.125 26.313 29.063 20.499-0.188-23.874-1.5-1.25 0.125 2.687-3.125-1.812 0.313-3.688-3.688-2.562-0.062 2.937-2.75-1.937-0.063-3.438-4.25-3.25 0.125 3.625-2.687-1.937-0.063-3.75-3.687-2.75v3.687l-3.688-2.875v-3.812l-3.75-2.813z"/>
    <path id="path3814" fill="url(#linearGradient3844)" d="m74.516 31.242l5.125-1.125 3.625 2.375-4.687 1.75-4.063-3z"/>
    <path id="path3816" d="m78.579 34.179l4.625-1.625 0.25 3.5-5.063 1.813 0.188-3.688z" fill="url(#linearGradient3846)"/>
    <path id="path3818" fill="url(#linearGradient3848)" d="m78.391 37.742l5-1.938 0.813 0.438-2.063 0.75-0.125 3.937-3.625-3.187z"/>
    <path id="path3820" fill="url(#linearGradient3850)" d="m82.079 36.992l3.562-1.5 4.5 2.687-4.25 1.688-3.812-2.875z"/>
    <path id="path3822" d="m85.829 39.867v3.75l2.687-1.25v-0.375l1.875-1.125-0.187-2.75-4.375 1.75z" fill="url(#linearGradient3852)"/>
    <path id="path3824" fill="url(#linearGradient3854)" d="m88.454 42.492l0.062 3.25-2.5-2.25 1.625-0.688 0.813-0.312z"/>
    <path id="path3826" fill="url(#linearGradient3856)" d="m88.391 41.867l4-2.063 4.125 3.125-3.687 2.438-4.438-3.5z"/>
    <path id="path3828" d="m92.641 45.242l0.063 3.5h0.375l2.5-0.938-0.125-0.5 1.437-1.125-0.312-3.187-3.938 2.25z" fill="url(#linearGradient3858)"/>
    <path id="path3830" fill="url(#linearGradient3860)" d="m95.329 50.742l-2.438-2 2.688-1-0.25 3z"/>
    <path id="path3832" fill="url(#linearGradient3862)" d="m95.704 47.617l-0.313-0.438 3.625-2.437 3.874 2.5-3.874 3-3.312-2.625z"/>
    <path id="path3834" fill="url(#linearGradient3864)" d="m99.141 50.179l-0.25 3.688 2.999-0.625v-0.313l1.06-0.875-0.12-4.937-3.689 3.062z"/>
    <path id="path3836" fill="url(#linearGradient3866)" d="m101.89 55.617l-2.874-1.813 2.874-0.687 0.06 2.75-0.31-0.125 0.25-0.125z"/>
    <path id="path3838" fill="url(#linearGradient3868)" d="m105.65 56.264l-3.74-3.393 2.77-2.076 3.86 2.354-2.47 1.149c-0.11 0.388 0.12 1.19 0.12 1.579l-0.54 0.387z"/>
    <path id="path3870" fill="url(#linearGradient3872)" d="m32.826 68.096l-1.188-0.813-0.187-19.875-0.063-0.187-3.375-1.188-1.437 0.875-1.188-0.625 0.125-1.875-1.937-1.25 4.75-2-0.125 3.375 3.5-1.437-0.063-3.125 4.625-2 0.25 3.375 4.438-2.063-0.313-2.937 4.063-1.75 0.062 3.562 3.813-1.875-0.438-3.375 4.438-1.375s-0.25 3 0 3 3-1.187 3-1.187l-0.188-3.25 4.25-1.813 0.063 16.125-7.375 1.625-19.688 10.563 0.188 11.5z"/>
    <path id="path3874" fill="url(#linearGradient3924)" d="m23.775 43.184l-0.928-0.531-1.414 0.884 0.132 0.619-0.486-0.398v-1.635l3.712-1.768 3.359 0.84-4.375 1.989z"/>
    <path id="path3876" fill="url(#linearGradient3922)" d="m28.15 41.151l0.133 3.359 3.491-1.503-3.226-1.768-0.398-0.088z"/>
    <path id="path3878" fill="url(#linearGradient3920)" d="m28.415 41.195v-2.607l3.094 1.458 0.221 3.094-3.315-1.945z"/>
    <path id="path3880" fill="url(#linearGradient3918)" d="m28.371 38.588l3.182 1.414 4.685-2.077-3.359-1.415-4.508 2.078z"/>
    <path id="path3882" fill="url(#linearGradient3916)" d="m36.238 38.19l4.596 1.149-4.287 1.944-0.309-3.093z"/>
    <path id="path3884" fill="url(#linearGradient3914)" d="m36.415 38.234v-2.828l4.242 1.016 0.354 2.917-0.354 0.044-4.242-1.149z"/>
    <path id="path3886" fill="url(#linearGradient3912)" d="m36.415 35.273l4.861-1.458 3.226 0.839-3.933 1.635-4.154-1.016z"/>
    <path id="path3888" fill="url(#linearGradient3910)" d="m44.59 34.654l0.221 3.536 3.801-1.989-4.022-1.547z"/>
    <path id="path3890" fill="url(#linearGradient3908)" d="m44.59 34.566l-0.309-2.475 3.889 0.884 0.221 3.182-3.801-1.591z"/>
    <path id="path3892" fill="url(#linearGradient3906)" d="m44.237 32.003l5.038-1.68 2.873 1.282-4.066 1.414-3.845-1.016z"/>
    <path id="path3894" fill="url(#linearGradient3904)" d="m52.457 31.649l3.182 1.635-3.049 1.326-0.045-2.74-0.088-0.221z"/>
    <path id="path3896" fill="url(#linearGradient3902)" d="m52.501 31.693l-0.088-2.784 2.961 1.149 0.265 3.138-3.138-1.503z"/>
    <path id="path3898" fill="url(#linearGradient3900)" d="m52.501 28.953l3.536-1.502 3.712 0.795-4.464 1.812-2.784-1.105z"/>
    <path id="path3926" fill-opacity=".15686" d="m28.415 41.195v-2.607l3.094 1.458 0.221 3.094-3.315-1.945z"/>
    <path id="path3928" fill-opacity=".15686" d="m36.415 38.234v-2.828l4.242 1.016 0.354 2.917-0.354 0.044-4.242-1.149z"/>
    <path id="path3930" fill-opacity=".15686" d="m44.59 34.566l-0.309-2.475 3.889 0.884 0.221 3.182-3.801-1.591z"/>
    <path id="path3932" fill-opacity=".15686" d="m52.501 31.693l-0.088-2.784 2.961 1.149 0.265 3.138-3.138-1.503z"/>
    <path id="path3934" fill="url(#linearGradient3936)" d="m75.451 84.658l0.437 28.622 10.063-4-0.375-28.684-3.313 1.375 0.188 3.187-3.375 1.5v-3.5l-3.625 1.5z"/>
    <path id="path3940" fill="url(#linearGradient3942)" d="m82.638 78.971l-0.062-2.75 4.812 2.25 0.313 31.379-1.875-0.5-0.188-28.754-3-1.625z"/>
    <path id="path3944" fill="url(#linearGradient3946)" d="m87.701 109.53l-0.313-31.184 5.375-2.25 0.125 2.062 4.375-2.125-0.125-2 5.002-2.125 0.06 32.122-14.437 5.88-0.062-0.38z"/>
    <path id="path3948" fill="url(#linearGradient3950)" d="m102.01 74.033l1.5-0.5-0.06 3.188 3-1.313-0.25-3.25 4.31-1.875 0.07 29.313-8.44 3.434-0.13-28.997z"/>
    <path id="path3952" fill="url(#linearGradient3954)" d="m110.33 70.221l-3.32-0.781-3.68 1.562 2.84 1.094 4.16-1.875z"/>
    <path id="path3956" fill="url(#linearGradient3958)" d="m103.42 73.565l-0.06-2.532 2.84 1.063 0.28 3.187-3.06-1.718z"/>
    <path id="path3960" d="m102.08 73.971c0.37-0.125 1.25-0.375 1.25-0.375l-1.32-0.563 0.07 0.938z" fill="url(#linearGradient3962)"/>
    <path id="path3964" fill="url(#linearGradient3966)" d="m98.732 69.815l3.278 1.812 0.03 0.313-4.839 2.156-3.5-2.188 5.031-2.093z"/>
    <path id="path3968" fill="url(#linearGradient3970)" d="m93.763 71.846c0.163 0.16 3.514 2.069 3.469 2.25l-0.063 1.625-3.218-1.469-0.188-2.406z"/>
    <path id="path3972" fill="url(#linearGradient3974)" d="m93.919 74.252l-2.218 1.031 1.031 0.594 0.031 2.219 4.438-2.094-0.032-0.344-3.25-1.406z"/>
    <path id="path3976" fill="url(#linearGradient3978)" d="m82.638 76.19l6.469-2.688 3.594 2.375 0.062 0.375-5.375 2.219-4.75-2.281z"/>
    <path id="path3980" fill="url(#linearGradient3982)" d="m79.138 80.565l3.719-1.532 2.594 1.625-3.25 1.344-3.063-1.437z"/>
    <path id="path3984" fill="url(#linearGradient3986)" d="m75.357 82.408l3.781 0.75-3.75 1.594-0.031-2.344z"/>
    <path id="path3988" d="m78.888 83.283l0.406-0.062 3.25 1.781-3.343 1.594-0.313-3.313z" fill="url(#linearGradient3990)"/>
    <path id="path3992" fill="url(#linearGradient3994)" d="m79.263 83.252c0-0.625-0.031-2.625-0.031-2.625l3.156 1.438 0.094 3-3.219-1.813z"/>
    <path id="path3996" fill-opacity=".15686" d="m82.638 78.971l-0.062-2.75 4.812 2.25 0.313 31.379-1.875-0.5-0.188-28.754-3-1.625z"/>
    <path id="path3998" fill-opacity=".15686" d="m103.42 73.565l-0.06-2.532 2.84 1.063 0.28 3.187-3.06-1.718z"/>
    <path id="path4000" fill-opacity=".15686" d="m93.763 71.846c0.163 0.16 3.514 2.069 3.469 2.25l-0.063 1.625-3.218-1.469-0.188-2.406z"/>
    <path id="path4002" fill-opacity=".15686" d="m79.263 83.252c0-0.625-0.031-2.625-0.031-2.625l3.156 1.438 0.094 3-3.219-1.813z"/>
    <path id="path4004" fill="url(#linearGradient4006)" d="m67.951 76.627l1.656 1.031-0.094 2.032 0.844 0.468 1.812-0.968 3.282 1.312 0.031 1.875 3.812 0.781-0.062-2.625 3.406-1.5-0.031-2.812 6.469-2.656 2.687 1.75 2.188-0.969-0.157-2.375 2.407-1.156-0.125-6.782-0.375-0.062-27.75 12.656z"/>
    <path id="path4008" fill="url(#linearGradient4010)" d="m32.763 68.096l2.563 1.594 0.156 2.625 2-1.125 4.281 3.25 0.156 3.281 2.282-1.688 3.562 2.438 0.281 4.969h0.407l-0.063-4.344 3.813-1.469 1.343 1.125 0.032 0.531 1.406-0.656-0.188-1.719 2.844-1.281 1.344 0.5 0.094 1.094 1.312-0.625 0.031-0.281-17.718-12.563-10.063-7.125-0.187 0.313 0.312 11.156z"/>
    <path id="path4012" fill-opacity=".15686" d="m32.763 68.096l2.563 1.594 0.156 2.625 2-1.125 4.281 3.25 0.156 3.281 2.282-1.688 3.562 2.438 0.281 4.969h0.407l-0.063-4.344 3.813-1.469 1.343 1.125 0.032 0.531 1.406-0.656-0.188-1.719 2.844-1.281 1.344 0.5 0.094 1.094 1.312-0.625 0.031-0.281-17.718-12.563-10.063-7.125-0.187 0.313 0.312 11.156z"/>
    <path id="path4117" fill="url(#linearGradient4119)" d="m67.935 76.627l-1.081-0.735-1.297 0.778 0.043 0.649-0.476-0.389-0.043-0.346 8.389-13.535 21.838 0.605 0.476 0.26-27.849 12.713z"/>
    <path id="path4121" fill="url(#linearGradient4123)" d="m51.935 46.054l11.633-2.724 31.74 20.367-21.881-0.692-21.492-16.951z"/>
    <path id="path4125" fill="url(#linearGradient4127)" d="m60.368 76.238l-0.13-1.297 2.767-1.298 2.076 1.557 0.043 1.384 8.39-13.579-21.536-16.951-19.373 10.551 27.763 19.633z"/>
    <path id="path4129" fill-opacity=".15686" d="m60.368 76.238l-0.13-1.297 2.767-1.298 2.076 1.557 0.043 1.384 8.39-13.579-21.536-16.951-19.373 10.551 27.763 19.633z"/>
    <path id="path4131" fill="url(#linearGradient4166)" d="m97.107 89.221l-0.719 0.031-0.062 1.25-1.5 0.219v-1.25l-0.844 0.625-0.094 0.969-0.219 0.093v0.75l0.5-0.031-0.125 1.844-0.812 0.25-0.063-1.438-0.875 0.688v1.125l-0.437 0.281v1.063l0.406-0.094-0.156 1.469-0.313 0.156-0.031 1.031 0.625-0.094-0.062 1.625-0.469 0.157-0.031 1.16 0.531-0.1-0.063 1.35-0.406 0.28 0.063 1.06 0.468-0.13v1.38l-0.468 0.22v1.15l0.406-0.12-0.031 0.97 1-0.28v-1.03l0.875-0.41 0.093 1.25 0.938-0.34-0.031-1.25 1.062-0.44 0.063 1.12 1.031-0.37 0.031-1.28 0.594-0.22 0.031 1.28 0.938-0.53 0.062-1.28 0.25-0.1-0.062-0.93h-0.25l0.031-1.04 0.25-0.15-0.031-0.97-0.188-0.03 0.031-1.502 0.282-0.125-0.063-1.031-0.344 0.031 0.063-1.75 0.281-0.093v-0.907l-0.312-0.031v-1.469l0.312-0.218v-1.188l-0.437 0.031-0.032-0.937c0-0.069-0.375-0.104-0.781-0.156-0.055-0.007-0.093-0.005-0.125 0.031l-0.25-0.719h-0.406l-0.125-0.906zm0.75 1.687c-0.166 0.323 0.094 1.375 0.094 1.375l-0.75 0.282v-1.469l0.656-0.188zm-1.625 0.5l0.094 1.438-1.25 0.5-0.032-1.719 1.188-0.219zm1.75 2.188l-0.031 1.375-0.688 0.187-0.062-1.312 0.781-0.25zm-1.656 0.562l0.062 1.344-1.281 0.469-0.094-1.344 1.313-0.469zm-2.25 0.813v1.375l-0.844 0.25-0.031-1.438c0.203 0 0.875-0.187 0.875-0.187zm3.937 1.25v1.562l-0.75 0.25 0.063-1.625 0.687-0.187zm-1.687 0.594l-0.032 1.562-1.218 0.469v-1.625l1.25-0.406zm-2.25 0.781l0.062 1.562s-0.922 0.375-0.906 0.313c0.016-0.063 0.031-1.625 0.031-1.625l0.813-0.25zm3.937 1.406v1.468s-0.75 0.28-0.75 0.19c0-0.1 0.031-1.377 0.031-1.377l0.719-0.281zm-1.687 0.594v1.434l-1.219 0.38 0.031-1.38 1.188-0.434zm-2.25 0.844l0.125 1.37-0.907 0.29-0.031-1.44 0.813-0.22zm3.875 1.28l0.062 1-0.687 0.28 0.031-1.15 0.594-0.13zm-1.657 0.56l0.094 1.13-1.187 0.5-0.063-1.25 1.156-0.38zm-2.093 0.69v1.31l-0.813 0.28-0.156-1.28 0.969-0.31z"/>
  </g>
  <g id="layer1">
    <path id="path3156" fill-rule="evenodd" d="m67.951 11.846l-2.938 1.281 0.25 1.656-1.156 0.563-0.094-0.969-1.437-0.5-3.032 1.281 0.219 1.688-1.156 0.469v-0.375l-1.406-1.125-4 1.468 0.031 11.25-0.906 0.407 0.062 2.437-0.312 0.094-2.813-1.25-5.094 1.75 0.25 2.531-3.218-0.75-4.969 1.5 0.094 2.438-0.063 0.031-3.344-1.313-4.781 2.063 0.094 2.406-0.125 0.031-3.563-0.656-0.281 0.219-3.125 1.469v-0.094l-2.156-1.531-2.938 1.281 0.25 1.656-1.156 0.563-0.094-0.969-1.437-0.5-3.031 1.281 0.218 1.688-1.1558 0.468v-0.375l-1.4063-1.125-4 1.469 0.125 35.438 12.469 9.281 2.718-1.219 0.063-0.125 28.75 20.433 0.031 4.85 12.469 9.28 15.25-6.91-0.063-3.37 9.938-3.97 1.469 0.5 0.5-0.09 14.309-5.79v-1.06l8.1-3.217 1.75 1.277 15.25-6.902-0.57-36.375-3.4-1.281-1.72 0.844-0.84-0.406 0.12-1.907-2.87-1.812-1.38 0.812 0.03 0.532-0.28-0.25-0.03-1.875-2.16-1.532-2.93 1.282 0.25 1.656-1.16 0.562-0.09-0.968-1.44-0.5-0.38 0.156-3.75-2.5-0.09-0.094-1.66 1.219-0.12-4.75-3.908-2.5-2.125 1.437-0.156-3.062-4.282-3.344-2 1-0.125-2.375-4.687-2.875-1.625 0.688-0.469-0.25-0.156-3.469-2.688-1.656-0.187-11.844-3.406-1.281-1.719 0.843-0.844-0.406 0.125-1.906-2.875-1.813-1.375 0.813 0.031 0.531-0.281-0.25-0.031-1.875-2.156-1.531zm0 0.187l1.937 1.438-1.125 0.687-1.062-1-1.25 0.688-1.157-0.594 2.657-1.219zm-0.313 1.344l0.125 9.313-1.469 0.531-1.187-0.781-1.813 0.968 0.063 0.438-0.563-0.25-0.031-2.188-2.812-1.343-1.813 0.625-0.125-1.719-1.812-1.125 2.093-0.781 0.063 2.312 3.437-1.531-0.312-1.906 2.312-1.157 0.219 2.125 2.719-1.125-0.281-1.75 1.187-0.656zm-2.344 0.031l1 0.563 0.219 1.562-1-0.75-0.219-1.375zm2.563 0.032l0.656 0.812 0.063 1.844 2.187 1.5-0.062-2.125 2.031 1.312-0.063 1.907 1.907 1.156-0.344 0.125 0.062 1.656-2.562-0.687-2.594 1.031-0.062 1.437-1.094-0.781-0.125-9.187zm2.094 0.156l0.062 1.562-1.187 0.688-0.094-1.5 1.219-0.75zm-7.375 0.437l1.281 0.438-2.719 1.344-1.187-0.594 2.625-1.188zm9.25 0.313l2.5 1.625-1.438 0.625-2.375-1.5 1.313-0.75zm-6.469 0.625l1.062 0.687-2.218 0.938-0.094-1.063 1.25-0.562zm4.656 0.437l0.469 0.344 0.062 1.469-1.593-1.188 1.062-0.625zm-10.156 0.032l1.375 0.687 0.281 1.344-1.5-0.656-0.156-1.375zm-2.656 0.593l1.062 0.844-2.5 0.906 1.688 1.125-1.657 0.375-2.375-1.781 3.782-1.469zm17.25 0.063l-0.125 1.781-1.438 0.719 0.063-1.813 1.5-0.687zm-14.469 0.906l1.531 0.656-2.844 1.25-0.031-1.281 1.344-0.625zm17.156 0.594l3.188 1.312-3.125 1.594-2.469-0.469 1.937-0.75-1.5-0.593 1.969-1.094zm-23.625 0.312l1.969 1.594-0.094 2.031 2.625 1.625 0.156-2 2.344 1.375-0.25 2 3.25 1.5 0.063-2.312 2.281 1.25-0.219 19.625-2.125-1.344-3.781 0.906v-16.031l0.031-0.062h-0.031l-3.656-0.782-2.594 1.157 0.031-10.532zm20.938 0.157l0.656 0.375-0.594 0.281 0.031 0.875-1.437-0.875 1.344-0.656zm0.343 0.75l1.407 0.468-1.375 0.469-0.032-0.937zm-16.968 0.343l0.062 1.438-2.219 0.75 0.157-1.781 2-0.407zm22.187 0.313l0.219 10.812-0.625-0.375-5.188 1.125v19.125l-8.312-5.25 0.062-20.093 2.625-0.813 0.063 1.938 3.437-1.5-0.218-1.469 2.25-0.906 0.125 2.062 2.843-1.375 0.032-1.906 2.687-1.375zm-5.562 0.656l2.625 0.594v1.625l-2.563-0.688c-0.025-0.455-0.091-1.049-0.062-1.531zm-14.5 0.188l2.625 1.187-1.844 0.813-2.531-1.469 1.75-0.531zm-2.063 0.468l-0.062 2-2.125-1.25 2.187-0.75zm13.875 0.344c0.041 0.012 1.718 0.446 2.438 0.656l-2.313 1-2.187-0.843 2.062-0.813zm-9.25 0.656l0.063 1.813-2.063 0.719 0.188-1.75 0.031 0.093 1.781-0.875zm12.063 0.063l2.5 0.719-2.407 1.187-0.093-1.906zm-5.25 0.25l2.5 0.875 0.062 1.312c-0.537-0.156-2.337-0.771-2.562-0.843v-1.344zm-4.219 0.562l1.219 0.782 1.593-0.657 0.969 0.813-2.969 1.156-2.375-1.281 1.563-0.813zm4.031 0.938c0.742 0.166 1.913 0.648 2.688 0.875l-2.657 1.031-0.031-1.906zm-6.469 0.25l0.657 0.375-0.063 1.406-2.469-1.125 1.875-0.656zm-6.562 3.719l3.187 0.687-4 1.656c-0.141-0.055-1.594-0.647-2.5-0.968l3.313-1.375zm3.375 0.937l-0.063 15.719-7.406 1.781-19.656 10.625 0.281 11.219-0.781-0.469-0.344-20.187-3.406-1.282-1.719 0.844-0.844-0.406 0.125-1.906-1.906-1.219 4.219-1.813 0.094 3.344 3.75-1.562-0.188-3.125 4.5-1.938 0.25 3.344 4.656-2.094-0.312-3.031 3.687-1.594 0.188 3.563 4.062-1.938-0.375-3.344 3.875-1.25 0.188 0.094 0.125 2.875 3.312-1.25-0.281-3.375 3.969-1.625zm-6.938 0.594c0.776 0.264 2.3 0.905 2.594 1.031l0.281 2.875-2.687-1.406-0.188-2.5zm26.969 1.125l3.5 2.094-4.5 1.625-3.781-2.782 4.781-0.937zm-30.281 0.25l2.656 1.094-3.812 1.25-3.375-0.844 4.531-1.5zm25.562 1.156l3.563 2.594-0.156 3.687 4.031 3.219-0.156-3.781 3.562 2.5 0.063 3.687 3 2.407-0.188-3.688 4.063 3.031v3.344l2.968 2.188 0.094-3.063 3.344 2.563-0.188 3.5 3.066 1.656-2.347 0.875 0.219 13.906-1.031-0.562-2.375 0.906-0.157-6.625-21.406-13.594 0.031-18.75zm-22.093 0.219l2.687 1.406-2.594 1.125-0.093-2.531zm-8.219 0.5l3.469 0.812 0.312 2.844-3.5-1.5-0.281-2.156zm38.469 0.281l0.25 2.938-4.688 1.812 0.094-3.094 4.344-1.656zm-41.782 1.313l2.844 0.75-3.437 1.531-3.782-0.969 4.375-1.312zm3.625 0.781l3.5 1.437-3.281 1.688-0.219-3.125zm40.782 0.812l4.093 2.532-3.875 1.562-3.562-2.562 3.344-1.532zm-48.969 0.032l3.906 0.968 0.25 2.594-0.125 0.063-4.094-1 0.063-2.625zm46.75 0.343l0.281 0.188-1.719 0.719-0.062 3.531-3.219-2.531 4.719-1.907zm-50.438 0.782l2.875 1.218-4.375 1.875h-0.031l-2.719-1.281 4.25-1.812zm3.407 1.062l0.062 0.031-0.062 0.032v-0.063zm53.718 0.469l0.125 2.531-1.843 0.938v0.375l-2.313 1.187v-3.406l4.031-1.625zm-53.656 0.156l4.063 1-3.844 1.656-0.219-2.656zm-7.875 0.344l2.719 1.375 0.031-0.031 0.188 2.687-2.844-1.687-0.094-2.344zm63.969 1.125l3.719 3-3.469 2.187-0.031 0.063-4.125-3.219 3.906-2.031zm-73.5 0.656l1.937 1.438-1.125 0.687-1.062-1-1.25 0.688-1.156-0.594 2.656-1.219zm5.656 0.031l2.969 0.625-4.094 1.907-0.719-0.438-1.375 0.813 0.032 0.531-0.282-0.25-0.031-1.469 3.5-1.719zm3.75 0.782l3 1.687-2.906 1.281-0.094-2.968zm-9.719 0.531l0.157 9.281-1.5 0.563-1.188-0.782-1.812 0.969 0.062 0.438-0.562-0.25-0.032-2.188-2.812-1.344-1.8126 0.625-0.125-1.718-1.8125-1.125 2.0938-0.782 0.0625 2.313 3.4378-1.531-0.313-1.907 2.313-1.156 0.218 2.125 2.719-1.125-0.281-1.75 1.187-0.656zm-2.343 0.031l1 0.563 0.218 1.562-1-0.75-0.218-1.375zm2.625 0.031l0.593 0.813 0.063 1.844 2.187 1.5-0.062-2.125 2.031 1.312-0.062 1.906 1.906 1.157-0.344 0.125 0.063 1.656-2.563-0.688-2.594 1.032-0.062 1.437-0.781-0.781-0.313 0.031-0.062-9.219zm2.031 0.157l0.062 1.562-1.187 0.688-0.094-1.5 1.219-0.75zm-7.375 0.437l1.281 0.438-2.719 1.343-1.187-0.593 2.625-1.188zm74.719 0l0.062 2.75-2.25-1.781 2.188-0.969zm-65.469 0.313l2.5 1.625-1.438 0.625-2.375-1.5 1.313-0.75zm73.531 0.25l0.188 3-1.313 1 0.156 0.437-2.593 1-0.125-3.156 3.687-2.281zm-80 0.375l1.063 0.687-2.219 0.938-0.094-1.063 1.25-0.562zm47.063 0.125l31.25 19.875-21.188-0.625-21.219-16.688 11.157-2.562zm-42.407 0.312l0.469 0.344 0.063 1.469-1.594-1.188 1.062-0.625zm-10.156 0.031l1.375 0.688 0.281 1.344-1.5-0.657-0.156-1.375zm-2.6561 0.594l1.0625 0.844-2.5 0.906 1.6875 1.125-1.6562 0.375-2.375-1.781 3.7812-1.469zm55.406 0.031l-5.781 1.594c-0.11-0.087-0.355-0.117-0.469-0.156 0.09 0.066 0.264 0.183 0.313 0.219l-2.469 0.75 0.094 0.156 2.531-0.75c1.468 1.114 2.866 2.319 4.281 3.5l-1.562 0.719 0.156 0.062 1.656-0.562c1.041 0.87 2.02 1.687 3.125 2.625 3.712 3.148 7.25 6.218 7.25 6.218l0.219-0.25s-3.662-2.85-7.375-6c-1.048-0.889-1.882-1.846-2.875-2.687l2.094-0.719 2.093 1.344 0.032-0.156-1.75-1.313 2.937-1.031 6 4.187-2.5 0.625-1.094-0.562 0.032 0.094 0.718 0.562-1.281 0.344 0.063 0.281 1.531-0.562 4.344 3.468-0.469 0.344 0.062 0.031 0.75-0.093 0.657 0.5 0.125-0.032-0.375-0.531 3.156-0.406 6.531 4.281-14.156-0.812v0.093l14.531 0.969 1.844 1.219 0.031-0.031-1.281-1.157h2.25l-0.094-0.156-2.687-0.187-6.782-4.219 1.875-0.375-0.062-0.156-1.938 0.25-0.968-0.407-0.063 0.063 0.844 0.469-3.344 0.437-4.625-3.531 2.594-0.781 1.437 1.125 0.063-0.063-1.125-1 1.062-0.5-0.312-0.031-1.094 0.312-6.062-4.093 1.156-0.375-0.406-0.188-1.063 0.375-1.094-0.5-0.125 0.031 0.875 0.594-2.781 0.906-2-1.468-0.094 0.093 1.719 1.5-2.187 0.844c-1.389-1.201-2.878-2.48-4.313-3.625l5.625-1.656v-0.063zm-38.156 0.032l-0.125 1.781-1.438 0.719 0.063-1.813 1.5-0.687zm73.531 0.125l3.347 2.312-3.378 2.781-3.5-2.531 3.531-2.562zm-88 0.781l1.531 0.656-2.8433 1.25-0.0313-1.281 1.3436-0.625zm17.156 0.594l3.188 1.312-3.125 1.594-2.469-0.469 1.938-0.75-1.5-0.594 1.968-1.093zm23.813 0.156l21.312 16.844-8.093 13.218-0.032-1.218-2.156-1.532-2.937 1.282 0.187 1.187-27.344-19.312 19.063-10.469zm-47.438 0.156l1.9688 1.594-0.0938 2.031 2.625 1.625 0.1563-2 2.3433 1.375-0.25 2 3.25 1.5 0.063-2.312 2.281 1.25-0.406 36.218-11.688-9.062-0.2496-34.219zm20.938 0.156l0.656 0.375-0.594 0.282 0.032 0.875-1.438-0.875 1.344-0.657zm0.344 0.75l1.406 0.469-1.375 0.469-0.031-0.938zm76.814 0.125l0.15 4.469-1.09 0.938-2.656 0.781 0.25-3.406 3.346-2.782zm-93.783 0.219l0.0625 1.438-2.2187 0.75 0.1562-1.782 2-0.406zm86.531 0.156l-0.156 2.344-2.063-1.469c0.771-0.205 1.489-0.55 2.219-0.875zm-64.344 0.157l0.5 19.25-0.781-0.469-1.625 0.687-0.469-0.25-0.156-3.468-3.75-2.313-5.187 1.125v26.219l-2.469 1.125 0.094-36.563 2.625-0.812 0.062 1.937 3.438-1.5-0.219-1.468 2.25-0.907 0.125 2.063 2.844-1.375 0.031-1.906 2.687-1.375zm-5.562 0.656l2.625 0.594v1.625l-2.563-0.688c-0.024-0.455-0.091-1.05-0.062-1.531zm-14.5 0.187l2.625 1.188-1.844 0.812-2.5311-1.468 1.7501-0.532zm38.437 0.125l-1.531 0.875c-0.304-0.244-0.807-0.473-0.906-0.562h-0.156c0.291 0.062 0.512 0.382 0.781 0.594l-12.594 6.968v0.094l12.813-6.937c0.569 0.442 1.238 1.002 1.812 1.437-3.009 1.784-6.111 3.794-9.25 5.344 0.014 0.002 0.019 0.003 0.031 0.031 3.167-1.596 6.215-3.418 9.25-5.25 1.777 1.35 3.714 2.632 5.5 3.969l-2.343 1.969 0.156 0.062 2.25-1.781c0.26 0.195 1.187 0.875 1.187 0.875l0.063-0.031s-0.764-0.852-1-1.032l1.125-1.125-0.094-0.062-1.281 1c-1.757-1.348-3.674-2.786-5.438-4.125 1.636-0.992 2.969-1.844 2.969-1.844l-0.031-0.094s-1.936 1.164-3.063 1.844c-0.566-0.432-1.126-0.874-1.687-1.312l1.469-0.813-0.032-0.094zm-40.5 0.344l-0.0625 2-2.125-1.25 2.1875-0.75zm13.875 0.344c0.041 0.012 1.718 0.446 2.438 0.656l-2.313 1-2.187-0.844 2.062-0.812zm-9.25 0.656l0.063 1.813-2.063 0.718 0.188-1.75 0.031 0.094 1.781-0.875zm12.063 0.063l2.5 0.718-2.406 1.188-0.094-1.906zm-5.25 0.25l2.5 0.875 0.062 1.312c-0.537-0.157-2.336-0.771-2.562-0.844v-1.343zm84.313 0.343l3.5 2.344-2.31 0.969 0.22 1.687-0.47 0.188-3.63-3.156 2.69-2.032zm9.59 0.188l1.94 1.437-1.12 0.688-1.07-1-1.25 0.687-1.15-0.593 2.65-1.219zm-98.122 0.031l1.219 0.781 1.781-0.718 0.938 0.875-3.125 1.156-2.375-1.281 1.562-0.813zm4.031 0.938c0.742 0.166 1.914 0.648 2.688 0.875l-2.656 1.031-0.032-1.906zm-6.468 0.25l0.656 0.375-0.063 1.406-2.468-1.125 1.875-0.656zm100.25 0.125l0.13 9.375-1.47 0.468-1.19-0.781-1.81 0.969 0.06 0.437-0.56-0.25-0.03-2.187-2.82-1.344-1.81 0.625-0.12-1.719-1.82-1.125 2.1-0.781 0.06 2.313 3.44-1.532-0.32-1.906 2.32-1.156 0.22 2.125 2.71-1.125-0.28-1.75 1.19-0.656zm-2.34 0.031l1 0.562 0.22 1.563-1-0.75-0.22-1.375zm2.53 0.062l0.69 0.782 0.06 1.843 2.19 1.5-0.07-2.125 2.03 1.313-0.06 1.906 1.91 1.156-0.35 0.125 0.07 1.657-2.57-0.688-2.59 1.031-0.06 1.438-0.94-0.781-0.28 0.031-0.03-9.188zm2.12 0.125l0.07 1.563-1.19 0.687-0.1-1.5 1.22-0.75zm-7.31 0.469l1.13 0.438-2.54 1.281-1.28-0.594 2.69-1.125zm-7.22 0.063l0.06 2.062-2.433-1.437 2.373-0.625zm0.31 0.062l3.38 2.938-0.5 0.187v-0.375l-1.41-1.125-1.56 0.563 0.09-2.188zm16.1 0.156l2.5 1.625-1.44 0.625-2.37-1.5 1.31-0.75zm-6.47 0.625l1.06 0.688-2.22 0.937-0.09-1.062 1.25-0.563zm4.66 0.438l0.46 0.344 0.07 1.468-1.6-1.187 1.07-0.625zm-10.16 0.031l1.37 0.688 0.29 1.343-1.5-0.656-0.16-1.375zm-2.66 0.594l1.07 0.844-2.5 0.906 1.68 1.125-1.65 0.375-2.378-1.781 3.778-1.469zm17.25 0.062l-0.12 1.782-1.44 0.718 0.06-1.812 1.5-0.688zm-14.47 0.907l1.54 0.656-2.85 1.25-0.03-1.281 1.34-0.625zm17.16 0.593l3.19 1.313-3.13 1.594-2.47-0.469 1.94-0.75-1.5-0.594 1.97-1.094zm-74.249 0.063s-0.868 0.59-1.563 1.062l-0.906-0.718-0.125 0.093 0.875 0.719c-1.103 0.797-2.327 1.813-3.5 2.5l0.031 0.063c1.259-0.656 2.526-1.593 3.688-2.407l6.531 5.313-1.75 1.562 0.062 0.094 1.719-1.5 0.844 0.688 0.187-0.219-0.812-0.656 4.844-4.407-0.063-0.062-5 4.281-6.375-5.125c0.641-0.442 1.438-1.25 1.438-1.25l-0.125-0.031zm-16.532 0.125l27.657 19.562v0.063l-1.157 0.562-0.093-0.968-1.438-0.5-3.031 1.281 0.219 1.687-1.157 0.469v-0.375l-1.406-1.125-4 1.469v4.25l-0.094-0.031-0.125-4.75-3.906-2.5-2.125 1.437-0.156-3.062-4.281-3.344-2 1-0.125-2.375-1.938-1.188-0.375-0.25-0.156-0.093-0.313-11.219zm67.157 0.125l1.964 1.594-0.09 2.031 2.63 1.625 0.15-2 2.35 1.375-0.25 2 3.25 1.5 0.06-2.313 2.28 1.25-0.16 36.347-1.34-0.878-0.09-29.344 0.03-0.062h-0.03l-3.66-0.781-3.75 1.656 0.06 2.437-1.09-0.437v-1.406l-2.189-1.188-0.125-13.406zm20.934 0.156l0.66 0.375-0.59 0.281 0.03 0.875-1.44-0.875 1.34-0.656zm0.35 0.75l1.4 0.469-1.37 0.469-0.03-0.938zm-16.97 0.344l0.06 1.437-2.22 0.75 0.16-1.781 2-0.406zm-93.783 0.219c-1.0627 0.283-1.4028 0.977-1.8438 1.906l-0.375 2.656 4.4998 3.188c-0.172-1.61-0.129-3.23-0.219-4.844 0.002-1.773-1.104-2.253-2.062-2.906zm115.97 0.093l0.71 35.219-14.65 6.688 0.09-36.563 2.63-0.812 0.06 1.937 3.44-1.5-0.22-1.469 2.25-0.906 0.12 2.063 2.85-1.375 0.03-1.907 2.69-1.375zm-115.91 0.344c0.846 0.389 1.618 1.532 1.625 2.594 0.005 0.681 0.263 2.882 0.282 3.875l-3.6878-2.5c0.0921-0.692 0.2805-1.839 0.4062-2.375-0.2107-0.645 0.6353-1.383 1.3746-1.594zm110.34 0.313l2.63 0.593v1.625l-2.56-0.687c-0.03-0.455-0.1-1.05-0.07-1.531zm-14.5 0.187l2.63 1.188-1.85 0.812-2.53-1.469 1.75-0.531zm-2.06 0.469l-0.06 2-2.13-1.25 2.19-0.75zm13.88 0.344c0.04 0.011 1.71 0.445 2.43 0.656l-2.31 1-2.19-0.844 2.07-0.812zm-9.25 0.656l0.06 1.812-2.06 0.719 0.18-1.75 0.03 0.094 1.79-0.875zm12.06 0.062l2.5 0.719-2.41 1.188-0.09-1.907zm-5.25 0.25l2.5 0.875 0.06 1.313c-0.54-0.157-2.34-0.771-2.56-0.844v-1.344zm-49.752 0.063l-4.781 4.344-2.719-2.407-0.094 0.063 2.657 2.375-5.407 4.844 0.125 0.062 5.532-4.687 1.843 1.656 0.094-0.156-1.906-1.719 4.75-4.313-0.094-0.062zm-41.219 0.469l3.5 2.093-4.5 1.625-3.781-2.781 4.781-0.937zm86.751 0.031l1.22 0.781 1.59-0.656 0.97 0.812-2.97 1.157-2.37-1.282 1.56-0.812zm4.03 0.937c0.74 0.167 1.91 0.649 2.69 0.875l-2.66 1.032-0.03-1.907zm-6.47 0.25l0.66 0.375-0.06 1.407-2.47-1.125 1.87-0.657zm-89.029 0.188l3.562 2.594-0.156 3.687 4.031 3.219-0.156-3.781 3.562 2.5 0.063 3.687 3 2.406-0.188-3.687 4.063 3.031v3.344l2.969 2.187 0.093-3.062 3.344 2.562-0.187 3.5 3.375 2.063-0.125-2.625 1.093 1.062 0.063 23.277-28.469-20.245 0.063-25.719zm53.562 0.062l21.875 0.75-27.406 12.657-1.156-0.719-1.375 0.812 0.031 0.532-0.281-0.25v-0.219l8.312-13.563zm12.188 0.907l-0.063 0.156 0.656 0.969-4.25 1.906-1.406-1.625-0.094 0.031 1.219 1.719-4.469 2.031-3.187-4.875-0.125 0.063 3.031 4.906-3.812 1.719-1.063-2.094-0.125 0.062 0.906 2.157-3.906 1.781 0.031 0.094 3.907-1.719 0.75 1.375h0.093l-0.531-1.531 3.844-1.688 0.406 0.406 0.094-0.156-0.188-0.375 4.438-2.031 0.781 1.062 0.156 0.032-0.75-1.157 4.438-2.062 1.406 1.719 0.156-0.032-1.25-1.656 1.469-0.875-0.062-0.062-1.625 0.718-0.875-0.968zm-57.594 0.031l0.25 2.937-4.688 1.813 0.094-3.094 4.344-1.656zm67.687 0l0.188 6.656-1.563 0.594-0.437 0.187-0.406 0.157 0.218 2.468-2.062 0.907-2.688-1.657-6.531 2.719-0.125 2.906-3.406 1.469 0.094 2.406-0.125 0.032-3.375-0.625-0.032-1.907-3.406-1.281-1.719 0.844-0.843-0.406 0.125-1.907-1.532-0.968 27.625-12.594zm-27.625 0.5l-7.156 7.875h0.094l7.094-7.875h-0.032zm-37.437 2.406l4.094 2.531-3.875 1.563-3.563-2.563 3.344-1.531zm-2.219 0.375l0.281 0.188-1.718 0.718-0.063 3.532-3.219-2.532 4.719-1.906zm78.437 2.219l3.19 0.687-4 1.657c-0.14-0.056-1.6-0.648-2.5-0.969l3.31-1.375zm-71.749 0.094l0.125 2.531-1.844 0.937v0.375l-2.313 1.188v-3.406l4.032-1.625zm63.437 0.312l3.282 1.844-4.907 2.094 0.094 1.625-3-1.407-0.188-2.125 4.719-2.031zm20.842 0.219c-1.27 1.042-1.73 2.38-2.09 3.906l0.03 4.125 5.5-2.187c-0.14-1.11-0.32-2.198-0.59-3.282-0.68-1.073-1.36-2.14-2.85-2.562zm-9.15 0.312l0.09 28.844-8.09 3.223-0.07 0.12-0.12-28.749 0.03 0.062 1.03-0.343 0.13 3.093 3.31-1.25-0.28-3.375 3.97-1.625zm9.34 0.032c0.94 0.409 1.84 1.448 2.09 2.156 0.24 0.675 0.74 2.274 0.85 3.094l-4.78 1.906c-0.04-0.885-0.03-2.951 0.06-3.75 0.1-0.937 0.89-2.47 1.78-3.406zm-16.28 0.562c0.77 0.265 2.3 0.905 2.59 1.031l0.28 2.875-2.68-1.406-0.19-2.5zm-65.752 0.188l3.719 3-3.469 2.187-0.031 0.063-4.125-3.219 3.906-2.031zm64.312 0.75v1.093l0.06 30.652-2.122 0.88-0.094-14.407c-1.373-1.348-2.856-1.926-4.75-2.093-2.022 1.137-2.998 3.404-3.906 5.593l-0.125 14.497-3.156 1.28-0.375-30.995 5-2.219 0.25 1.937 4.562-2.281v-1.844l4.656-2.093zm0.19 1.187l0.84 0.344-0.84 0.187v-0.531zm-39.127 0.469l1.938 1.437-1.125 0.688-1.063-1-1.25 0.687-1.156-0.593 2.656-1.219zm26.094 0.031l3.437 2.219-5.312 2.344-4.281-2.125 6.156-2.438zm14.473 0.156l2.65 1.375-2.59 1.125-0.06-2.5zm-70.098 0.063l0.062 2.75-2.25-1.781 2.188-0.969zm60.625 0.406l3 1.438-4.125 1.937-0.063-1.656-0.031-0.344-0.812-0.406 2.031-0.969zm-52.563 0.156l0.188 3-1.313 1 0.157 0.438-2.594 1-0.125-3.156 3.687-2.282zm21.157 0.532l-0.032 0.062v9.313l-1.312 0.468-1.188-0.781-1.812 0.969 0.062 0.437-0.562-0.25-0.031-2.187-2.813-1.344-1.812 0.625-0.125-1.719-1.813-1.125 2.094-0.781 0.062 2.313 3.438-1.532-0.313-1.906 2.313-1.156 0.219 2.125 2.718-1.125-0.281-1.75 1.188-0.656zm-2.344 0.031l1 0.562 0.219 1.563-1-0.75-0.219-1.375zm2.5 0.062l0.719 0.782 0.062 1.843 2.188 1.5-0.063-2.125 2.031 1.313-0.062 1.906 1.906 1.156-0.344 0.125 0.063 1.657-2.563-0.688-2.593 1.031-0.063 1.438-0.969-0.813-0.312 0.094v-9.219zm2.156 0.125l0.063 1.563-1.188 0.687-0.094-1.5 1.219-0.75zm-7.375 0.438l1.281 0.437-2.718 1.344-1.188-0.594 2.625-1.187zm9.25 0.312l2.5 1.625-1.437 0.625-2.375-1.5 1.312-0.75zm-22.719 0.125l3.344 2.313-3.375 2.781-3.5-2.531 3.531-2.563zm38.469 0.313l4.531 2.156 0.282 31.003-1.188-0.28 0.156-0.07c-0.039-0.01-0.281-0.06-0.281-0.06s-0.059-0.01-0.094-0.03l-0.312-28.469 0.062-0.031-0.062-0.032v-0.156l-2.781-1.5c-0.037-0.051-0.077-0.09-0.125-0.156l-0.063 0.031-0.125-2.406zm-22.219 0.187l1.063 0.688-2.219 0.937-0.094-1.062 1.25-0.563zm4.657 0.438l0.468 0.344 0.063 1.468-1.594-1.187 1.063-0.625zm-10.157 0.031l1.375 0.688 0.282 1.343-1.5-0.656-0.157-1.375zm-2.656 0.594l1.063 0.844-2.5 0.906 1.687 1.125-1.656 0.375-2.375-1.781 3.781-1.469zm17.25 0.062l-0.125 1.782-1.437 0.718 0.062-1.812 1.5-0.688zm-14.469 0.907l1.532 0.656-2.844 1.25-0.031-1.281 1.343-0.625zm-7.25 0.187l0.157 4.5-1.094 0.906-2.719 0.594 0.313-3.219 3.343-2.781zm34.813 0.344l2.469 1.406-2.813 1.188h-0.031l-2.719-1.282 3.094-1.312zm-42.063 0.031l-0.156 2.344-2.062-1.469c0.77-0.206 1.489-0.55 2.218-0.875zm31.657 0.031l3.187 1.313-3.125 1.594-2.469-0.469 1.938-0.75-1.5-0.594 1.969-1.094zm-23.625 0.313l1.968 1.594-0.093 2.031 2.625 1.625 0.156-2 2.344 1.375-0.25 2 3.25 1.5 0.062-2.313 2.281 1.25-0.406 36.222-11.687-9.07-0.25-34.214zm20.937 0.156l0.656 0.375-0.593 0.281 0.031 0.875-1.438-0.875 1.344-0.656zm0.344 0.75l1.406 0.469-1.375 0.469-0.031-0.938zm9.5 0.25l2.719 1.375 0.031-0.031 0.187 2.687-2.843-1.687-0.094-2.344zm-26.469 0.094l0.063 1.437-2.219 0.75 0.156-1.781 2-0.406zm32.563 0h0.031l0.281 28.284-9.719 3.84-0.437-28.155 3.219-1.375 0.093 3.343 3.75-1.562-0.187-3.125 2.969-1.25zm-10.25 0.156l0.593 35.378-14.656 6.68 0.094-36.558 2.625-0.812 0.062 1.937 3.438-1.5-0.219-1.469 2.25-0.906 0.125 2.063 2.844-1.375 0.031-1.907 2.813-1.531zm-5.688 0.813l2.625 0.593v1.625l-2.562-0.687c-0.025-0.455-0.091-1.05-0.063-1.531zm-14.5 0.187l2.625 1.188-1.844 0.812-2.531-1.469 1.75-0.531zm-2.062 0.469l-0.063 2-2.125-1.25 2.188-0.75zm22.625 0.125l2.875 0.594-2.844 1.25-0.031-1.844zm-8.75 0.219c0.04 0.011 1.718 0.445 2.437 0.656l-2.312 1-2.188-0.844 2.063-0.812zm12.406 0.531l3 1.687-2.906 1.282-0.094-2.969zm-21.656 0.125l0.062 1.812-2.062 0.719 0.187-1.75 0.031 0.094 1.782-0.875zm-9.282 0.031v1.844l-1.156-0.938 1.156-0.906zm21.344 0.031l2.5 0.719-2.406 1.188-0.094-1.907zm-5.25 0.25l2.5 0.875 0.063 1.313c-0.538-0.157-2.337-0.771-2.563-0.844v-1.344zm-4.219 0.563l1.219 0.781 1.563-0.656 1 0.812-2.969 1.157-2.375-1.282 1.562-0.812zm-13.281 0.312l0.063 2.063-2.438-1.438 2.375-0.625zm17.313 0.625c0.742 0.167 1.913 0.649 2.687 0.875l-2.656 1.032-0.031-1.907zm-6.469 0.25l0.656 0.375-0.062 1.407-2.469-1.125 1.875-0.657zm37.469 3c1.583 0.056 3.381 1.1 4.312 1.938v14.339l-7.844 3.22-0.312-14.059c0.866-2.084 2.317-4.493 3.844-5.438zm1 0.5l0.125 1.25-1.375 0.375-0.032-1.406-1.093 0.781v0.688l-0.313 0.156 0.031 1.094h0.469l-0.062 1.687-0.532 0.188-0.062-1.625-1.156 0.969-0.094 1.125-0.375 0.218-0.031 1.219 0.406-0.062v1.25l-0.469 0.156 0.063 1.25h0.593l-0.156 1.437-0.375 0.125v1.312l0.406-0.06v1.22l-0.375 0.12 0.063 1.38 0.312-0.1v1.19l-0.312 0.09v1.47l0.312-0.15 0.032 0.93 1.25-0.43v-1.03l0.593-0.25 0.094 1.18 1.219-0.4-0.031-1.32 0.843-0.34 0.032 1.25 1.218-0.5s0.063-0.87 0.063-1.28l0.344-0.16 0.062 1.28 1.188-0.56s0.031-0.81 0.031-1.22l0.219-0.22 0.031-1.28-0.25 0.1v-0.78l0.219-0.13v-1.249h-0.219v-1.313l0.312-0.093-0.062-1.094-0.281-0.094c-0.062-0.427 0.031-1.081 0.031-1.562l0.25-0.094-0.031-1.094-0.25 0.031c-0.061-0.287 0.031-1 0.031-1.343-0.001-0.048 0-0.087 0-0.125l0.219-0.125 0.031-1.25-0.281 0.031-0.157-0.906-1-0.188-0.156-0.781-0.437-0.094-0.188-0.75-0.937-0.094zm0.843 0.282l0.094 1 0.375-0.032 0.094 0.563-0.531 0.219c0.023 0.604-0.007 0.989 0 1.593l0.937-0.25c0.054-0.393 0.014-1.105 0.031-1.5l0.625 0.125c0.041 0.353 0.052 0.709 0.063 1.063l0.406-0.063c0.019 0.318 0.135 0.722 0.031 0.907-0.085 0.152-0.219 0.161-0.343 0.25 0.004 0.396 0.031 1.16 0.031 1.625h0.219l0.062 0.718-0.281 0.219c-0.002 0.671-0.031 1.11-0.031 1.813l0.375-0.032 0.031 0.875-0.375 0.282c0.001 0.91 0 0.785 0 1.59l0.219-0.09 0.031 0.94-0.313 0.15c0 0.52 0.032 0.85 0.032 1.22l0.375-0.06v0.72l-0.344 0.15v1.35l-0.75 0.34c0-0.26-0.032-1.05-0.031-1.19l-0.813 0.25c0.001 0.24-0.031 1.05-0.031 1.35l-0.781 0.28c-0.001-0.28 0.03-1.08 0.031-1.22l-1.406 0.56v1.22l-0.657 0.28-0.031-1.28-1.187 0.53 0.031 0.97-0.781 0.28v-0.97l-0.407 0.1-0.031-0.94 0.5-0.16-0.031-1.68-0.344 0.12-0.094-0.81 0.469-0.22v-1.66l-0.531 0.16-0.063-0.87 0.5-0.192 0.032-1.812-0.563 0.094 0.063-0.907 0.375-0.093 0.031-1.75-0.375 0.125v-0.844l0.469-0.219v-1.312l0.656-0.407-0.063 1.282 1.125-0.25 0.063-2.188-0.469 0.156 0.094-0.531 0.281-0.094v-1.125l0.531-0.375v1.313l1.875-0.406c0.001-0.209-0.093-1.011-0.093-1.219l0.593-0.031zm0.688 1.781c0.065 0.386 0.031 0.793 0.031 1.187l-0.375 0.125c0-0.406-0.019-0.812-0.031-1.218l0.375-0.094zm-1.344 0.187l-1.531 0.282-0.031 1.875 1.593-0.532c0.043-0.584-0.015-1.04-0.031-1.625zm-0.312 0.219c0.036 0.458 0.023 0.917 0.031 1.375l-0.906 0.313-0.032-1.438 0.907-0.25zm-41.688 0.156c-1.062 0.284-1.403 0.978-1.844 1.907l-0.375 2.656 4.5 3.187c-0.172-1.609-0.129-3.229-0.218-4.843 0.001-1.773-1.105-2.253-2.063-2.907zm0.063 0.438c0.845 0.389 1.617 1.532 1.625 2.594 0.004 0.681 0.263 2.881 0.281 3.875l-3.688-2.5c0.093-0.692 0.281-1.839 0.407-2.375-0.211-0.645 0.635-1.384 1.375-1.594zm13.781 0.75c-1.268 1.042-1.735 2.38-2.094 3.906l0.031 4.128 5.5-2.19c-0.135-1.111-0.323-2.198-0.593-3.282-0.674-1.073-1.356-2.14-2.844-2.562zm0.187 0.344c0.937 0.409 1.842 1.448 2.094 2.156 0.241 0.675 0.735 2.274 0.844 3.094l-4.781 1.91c-0.037-0.889-0.022-2.955 0.062-3.754 0.098-0.937 0.893-2.47 1.781-3.406zm29.719 0.25l-1 0.343c0.008 0.552-0.007 0.929 0 1.532l0.938-0.282c-0.005-0.559 0.067-1.106 0.062-1.593zm-0.344 0.25c0.001 0.375-0.001 0.781 0 1.187l-0.375 0.125c-0.006-0.408-0.024-0.809-0.031-1.187l0.406-0.125zm-1.343 0.25l-1.5 0.562v1.563l1.531-0.469c-0.007-0.604-0.023-1.091-0.031-1.656zm-0.313 0.343c0 0.384-0.002 0.775 0 1.188l-0.906 0.312-0.031-1.187 0.937-0.313zm-1.937 0.532l-1.063 0.312v1.594l1-0.375 0.063-1.531zm-0.313 0.281l0.031 1.187-0.5 0.157v-1.188l0.469-0.156zm4.219 0.969l-0.938 0.312c0.002 0.604 0.001 1.177 0 1.781l0.938-0.312c0.001-0.719 0-1.063 0-1.781zm-0.281 0.25c0 0.463-0.001 0.916 0 1.406l-0.375 0.125c-0.002-0.469-0.019-0.938-0.032-1.406l0.407-0.125zm-1.375 0.281l-1.5 0.562v1.813l1.468-0.563c0.001-0.656 0.032-1.156 0.032-1.812zm-0.282 0.312v1.438l-0.906 0.344-0.031-1.469 0.937-0.313zm-1.937 0.532l-1.063 0.375-0.031 1.781 1.094-0.375v-1.781zm-0.313 0.218l0.032 1.469-0.5 0.156v-1.437l0.468-0.188zm4.188 1.25l-0.906 0.313c0.004 0.899-0.003 0.859 0 1.629l0.906-0.32c0-0.778 0.001-0.719 0-1.622zm-0.281 0.219v1.283l-0.344 0.12c-0.007-0.4-0.026-0.749-0.031-1.278l0.375-0.125zm-1.375 0.313l-1.438 0.531v1.589l1.438-0.43c0.001-0.75 0.001-0.81 0-1.69zm-0.282 0.281c0.001 0.459 0.001 0.829 0 1.279l-0.875 0.28-0.031-1.25 0.906-0.309zm-1.906 0.559l-1.062 0.38-0.063 1.56 1.156-0.37-0.031-1.57zm-0.312 0.25l0.031 1.22-0.531 0.19v-1.25l0.5-0.16zm4.093 1.07l-0.781 0.25c0.002 0.51-0.001 0.91 0 1.28l0.813-0.25c0-0.35-0.032-0.77-0.032-1.28zm-0.218 0.21v0.85l-0.344 0.15v-0.87l0.344-0.13zm-1.375 0.32l-1.375 0.47v1.46l1.375-0.59c0.001-0.34-0.002-0.83 0-1.34zm-0.282 0.28c0.001 0.34 0.001 0.69 0 0.94l-0.843 0.34-0.032-1 0.875-0.28zm-1.843 0.44l-1.188 0.37 0.063 1.5 1.125-0.37v-1.5zm-0.344 0.31l0.031 1.06-0.562 0.22v-1.09l0.531-0.19z"/>
  </g>
  <metadata>
    <rdf:RDF>
      <cc:Work>
        <dc:format>image/svg+xml</dc:format>
        <dc:type rdf:resource="http://purl.org/dc/dcmitype/StillImage"/>
        <cc:license rdf:resource="http://creativecommons.org/licenses/publicdomain/"/>
        <dc:publisher>
          <cc:Agent rdf:about="http://openclipart.org/">
            <dc:title>Openclipart</dc:title>
          </cc:Agent>
        </dc:publisher>
      </cc:Work>
      <cc:License rdf:about="http://creativecommons.org/licenses/publicdomain/">
        <cc:permits rdf:resource="http://creativecommons.org/ns#Reproduction"/>
        <cc:permits rdf:resource="http://creativecommons.org/ns#Distribution"/>
        <cc:permits rdf:resource="http://creativecommons.org/ns#DerivativeWorks"/>
      </cc:License>
    </rdf:RDF>
  </metadata>
</svg>
