<?xml version="1.0"?>
<svg xmlns:rdf="http://www.w3.org/1999/02/22-rdf-syntax-ns#" xmlns="http://www.w3.org/2000/svg" xmlns:cc="http://creativecommons.org/ns#" xmlns:xlink="http://www.w3.org/1999/xlink" xmlns:dc="http://purl.org/dc/elements/1.1/" id="svg2" viewBox="0 0 128 128" version="1.0">
  <defs id="defs4">
    <linearGradient id="linearGradient2338">
      <stop id="stop2340" stop-color="#b1b1b1" offset="0"/>
      <stop id="stop2342" stop-color="#e4e4e4" offset="1"/>
    </linearGradient>
    <linearGradient id="linearGradient2717" x1="30.272" xlink:href="#linearGradient2888" gradientUnits="userSpaceOnUse" y1="76.63" gradientTransform="translate(.48924)" x2="28.437" y2="79.504"/>
    <linearGradient id="linearGradient2721" x1="60.714" xlink:href="#linearGradient2888" gradientUnits="userSpaceOnUse" y1="93.924" gradientTransform="translate(.48924)" x2="70.227" y2="37.708"/>
    <linearGradient id="linearGradient2725" x1="63.875" xlink:href="#linearGradient2888" gradientUnits="userSpaceOnUse" y1="99.375" gradientTransform="translate(.48924)" x2="78.562" y2="89.438"/>
    <linearGradient id="linearGradient2729" x1="56.938" xlink:href="#linearGradient2888" gradientUnits="userSpaceOnUse" y1="89.875" gradientTransform="translate(.48924)" x2="60.312" y2="84.688"/>
    <linearGradient id="linearGradient2733" x1="53" xlink:href="#linearGradient2888" gradientUnits="userSpaceOnUse" y1="86" gradientTransform="translate(.48924)" x2="53.188" y2="88.312"/>
    <linearGradient id="linearGradient2737" x1="53.312" xlink:href="#linearGradient2888" gradientUnits="userSpaceOnUse" y1="78.938" gradientTransform="translate(.48924)" x2="52.875" y2="82.938"/>
    <linearGradient id="linearGradient2741" x1="43.562" xlink:href="#linearGradient2888" gradientUnits="userSpaceOnUse" y1="81.312" gradientTransform="translate(.48924)" x2="45.125" y2="76.438"/>
    <linearGradient id="linearGradient2745" x1="56.875" xlink:href="#linearGradient2888" gradientUnits="userSpaceOnUse" y1="76.125" gradientTransform="translate(.48924)" x2="61" y2="70.438"/>
    <linearGradient id="linearGradient2749" x1="73.25" xlink:href="#linearGradient2888" gradientUnits="userSpaceOnUse" y1="71" gradientTransform="translate(.48924)" x2="72.312" y2="74.125"/>
    <linearGradient id="linearGradient2753" x1="79.312" xlink:href="#linearGradient2888" gradientUnits="userSpaceOnUse" y1="75.375" gradientTransform="translate(.48924)" x2="80.375" y2="75.188"/>
    <linearGradient id="linearGradient2757" x1="68.5" xlink:href="#linearGradient2888" gradientUnits="userSpaceOnUse" y1="78" gradientTransform="translate(.48924)" x2="70.688" y2="84.188"/>
    <linearGradient id="linearGradient2761" x1="68.188" xlink:href="#linearGradient2888" gradientUnits="userSpaceOnUse" y1="86.125" gradientTransform="translate(.48924)" x2="67.25" y2="89.438"/>
    <linearGradient id="linearGradient2765" x1="77.125" xlink:href="#linearGradient2888" gradientUnits="userSpaceOnUse" y1="83.25" gradientTransform="translate(.48924)" x2="81.438" y2="76.875"/>
    <linearGradient id="linearGradient2769" x1="80.938" xlink:href="#linearGradient2888" gradientUnits="userSpaceOnUse" y1="84.062" gradientTransform="translate(.48924)" x2="80.562" y2="86.312"/>
    <linearGradient id="linearGradient2773" x1="72.688" xlink:href="#linearGradient2888" gradientUnits="userSpaceOnUse" y1="70.375" gradientTransform="translate(.48924)" x2="74.75" y2="65.938"/>
    <linearGradient id="linearGradient2777" x1="83.438" xlink:href="#linearGradient2888" gradientUnits="userSpaceOnUse" y1="70.812" gradientTransform="translate(.48924)" x2="83" y2="74.938"/>
    <linearGradient id="linearGradient2781" x1="88.438" xlink:href="#linearGradient2888" gradientUnits="userSpaceOnUse" y1="81.125" gradientTransform="translate(.48924)" x2="88.312" y2="84.938"/>
    <linearGradient id="linearGradient2785" x1="90.5" xlink:href="#linearGradient2888" gradientUnits="userSpaceOnUse" y1="85.312" gradientTransform="translate(.48924)" x2="92.625" y2="80.625"/>
    <linearGradient id="linearGradient2789" x1="96.562" xlink:href="#linearGradient2888" gradientUnits="userSpaceOnUse" y1="82.25" gradientTransform="translate(.48924)" x2="96.312" y2="86"/>
    <linearGradient id="linearGradient2793" x1="106.19" xlink:href="#linearGradient2888" gradientUnits="userSpaceOnUse" y1="84.812" gradientTransform="translate(.48924)" x2="117.31" y2="76"/>
    <linearGradient id="linearGradient2797" x1="89.562" xlink:href="#linearGradient2888" gradientUnits="userSpaceOnUse" y1="70.562" gradientTransform="translate(.48924)" x2="91.562" y2="68.25"/>
    <linearGradient id="linearGradient2801" x1="99.438" xlink:href="#linearGradient2888" gradientUnits="userSpaceOnUse" y1="67.625" gradientTransform="translate(.48924)" x2="98.219" y2="71.125"/>
    <linearGradient id="linearGradient2805" x1="102.62" xlink:href="#linearGradient2888" gradientUnits="userSpaceOnUse" y1="78.562" gradientTransform="translate(.48924)" x2="102.06" y2="73.875"/>
    <linearGradient id="linearGradient2809" x1="114.62" xlink:href="#linearGradient2888" gradientUnits="userSpaceOnUse" y1="70.562" gradientTransform="translate(.48924)" x2="112.94" y2="73.812"/>
    <linearGradient id="linearGradient2813" x1="82.188" xlink:href="#linearGradient2888" gradientUnits="userSpaceOnUse" y1="62.125" gradientTransform="translate(.48924)" x2="84.312" y2="55.688"/>
    <linearGradient id="linearGradient2817" x1="74.312" xlink:href="#linearGradient2888" gradientUnits="userSpaceOnUse" y1="59.812" gradientTransform="translate(.48924)" x2="74.062" y2="62.75"/>
    <linearGradient id="linearGradient2821" x1="83.875" xlink:href="#linearGradient2888" gradientUnits="userSpaceOnUse" y1="49.5" gradientTransform="translate(.48924)" x2="82.5" y2="51.938"/>
    <linearGradient id="linearGradient2827" x1="72.25" xlink:href="#linearGradient2888" gradientUnits="userSpaceOnUse" y1="57.125" gradientTransform="translate(.48924)" x2="73.531" y2="51.25"/>
    <linearGradient id="linearGradient2833" x1="60.562" xlink:href="#linearGradient2888" gradientUnits="userSpaceOnUse" y1="45.875" gradientTransform="translate(.48924)" x2="62.031" y2="41.125"/>
    <linearGradient id="linearGradient2839" x1="62.438" xlink:href="#linearGradient2888" gradientUnits="userSpaceOnUse" y1="46.25" gradientTransform="translate(.48924)" x2="62.188" y2="48.438"/>
    <linearGradient id="linearGradient2843" x1="67.312" xlink:href="#linearGradient2888" gradientUnits="userSpaceOnUse" y1="50.312" gradientTransform="translate(.48924)" x2="68.125" y2="45.875"/>
    <linearGradient id="linearGradient2847" x1="72.625" xlink:href="#linearGradient2888" gradientUnits="userSpaceOnUse" y1="46.25" gradientTransform="translate(.48924)" x2="72.25" y2="49.438"/>
    <linearGradient id="linearGradient2851" x1="64.688" xlink:href="#linearGradient2888" gradientUnits="userSpaceOnUse" y1="53.688" gradientTransform="translate(.48924)" x2="64.562" y2="58.062"/>
    <linearGradient id="linearGradient2855" x1="58" xlink:href="#linearGradient2888" gradientUnits="userSpaceOnUse" y1="58.188" gradientTransform="translate(.48924)" x2="59.375" y2="53.5"/>
    <linearGradient id="linearGradient2859" x1="56.75" xlink:href="#linearGradient2888" gradientUnits="userSpaceOnUse" y1="47.75" gradientTransform="translate(.48924)" x2="55.688" y2="50.812"/>
    <linearGradient id="linearGradient2863" x1="43" xlink:href="#linearGradient2888" gradientUnits="userSpaceOnUse" y1="52.188" gradientTransform="translate(.48924)" x2="46.062" y2="46.5"/>
    <linearGradient id="linearGradient2869" x1="51.562" xlink:href="#linearGradient2888" gradientUnits="userSpaceOnUse" y1="56.25" gradientTransform="translate(.48924)" x2="51.5" y2="59.75"/>
    <linearGradient id="linearGradient2873" x1="55.312" xlink:href="#linearGradient2888" gradientUnits="userSpaceOnUse" y1="66.25" gradientTransform="translate(.48924)" x2="56.438" y2="61.75"/>
    <linearGradient id="linearGradient2877" x1="51.75" xlink:href="#linearGradient2888" gradientUnits="userSpaceOnUse" y1="67.688" gradientTransform="translate(.48924)" x2="50.312" y2="70.875"/>
    <linearGradient id="linearGradient2883" x1="41" xlink:href="#linearGradient2888" gradientUnits="userSpaceOnUse" y1="71.125" gradientTransform="translate(.48924)" x2="46.75" y2="65"/>
    <linearGradient id="linearGradient2887" x1="27.812" xlink:href="#linearGradient2888" gradientUnits="userSpaceOnUse" y1="60.438" gradientTransform="translate(.48924)" x2="27.375" y2="63.062"/>
    <linearGradient id="linearGradient2891" x1="37.438" xlink:href="#linearGradient2888" gradientUnits="userSpaceOnUse" y1="62" gradientTransform="translate(.48924)" x2="39.625" y2="56.062"/>
    <linearGradient id="linearGradient2895" x1="38.312" xlink:href="#linearGradient2888" gradientUnits="userSpaceOnUse" y1="67.625" gradientTransform="translate(.48924)" x2="38.312" y2="72.062"/>
    <linearGradient id="linearGradient2899" x1="29.562" xlink:href="#linearGradient2888" gradientUnits="userSpaceOnUse" y1="69.812" gradientTransform="translate(.48924)" x2="30.812" y2="65.25"/>
    <linearGradient id="linearGradient2903" x1="18.812" xlink:href="#linearGradient2888" gradientUnits="userSpaceOnUse" y1="60.75" gradientTransform="translate(.48924)" x2="20.875" y2="56.312"/>
    <linearGradient id="linearGradient2907" x1="33.938" xlink:href="#linearGradient2888" gradientUnits="userSpaceOnUse" y1="53.938" gradientTransform="translate(.48924)" x2="32.375" y2="55.812"/>
    <linearGradient id="linearGradient3534" x1="64.062" xlink:href="#linearGradient2338" gradientUnits="userSpaceOnUse" y1="96.207" gradientTransform="translate(.48924)" x2="66.474" y2="47.948"/>
    <linearGradient id="linearGradient3538" x1="62.093" xlink:href="#linearGradient2338" gradientUnits="userSpaceOnUse" y1="62.548" gradientTransform="translate(.48924)" x2="63.551" y2="64.869"/>
    <linearGradient id="linearGradient3542" x1="65.297" xlink:href="#linearGradient2338" gradientUnits="userSpaceOnUse" y1="61.444" gradientTransform="translate(.48924)" x2="64.833" y2="58.88"/>
    <linearGradient id="linearGradient3546" x1="62.866" xlink:href="#linearGradient2338" gradientUnits="userSpaceOnUse" y1="60.692" gradientTransform="translate(.48924)" x2="62.999" y2="61.62"/>
    <linearGradient id="linearGradient3783" x1="61.751" gradientUnits="userSpaceOnUse" y1="91.07" gradientTransform="translate(.48924)" x2="69.449" y2="50.508">
      <stop id="stop3407" stop-color="#4f3e2a" offset="0"/>
      <stop id="stop3409" stop-color="#72593c" offset="1"/>
    </linearGradient>
    <filter id="filter3820">
      <feGaussianBlur id="feGaussianBlur3822" stdDeviation="0.45100474"/>
    </filter>
    <linearGradient id="linearGradient2888">
      <stop id="stop2890" stop-color="#c7a94c" offset="0"/>
      <stop id="stop2892" stop-color="#e2ca80" offset="1"/>
    </linearGradient>
  </defs>
  <g id="layer2" fill-rule="evenodd">
    <path id="path3532" fill="url(#linearGradient3534)" d="m87.864 90.375l3.938 2 0.187 0.813-31.125 11.432-37.812-25.495-21.625-14.563 0.0622-0.687 4.125-1.875 64.25-19.875 54.996 35.687 2.69 2 0.13 0.626-30.003 10.75-3.418-2.349-0.145-1.516-6.25 3.052z"/>
    <path id="path3781" fill="url(#linearGradient3783)" d="m10.089 63.654l60.887-21.535 50.504 34.335-24.731 10.551-8.535 3.36-0.293-0.138-0.599 1.103-27.33 7.956-49.903-35.632z"/>
    <path id="path3785" filter="url(#filter3820)" fill-opacity=".54902" d="m62 39.562l-60.156 21.313 1.9685 2.313 2.5313 0.843 51.75 34 2.937 1.844-53.437-36.219 56.875-21.281-2.469-2.813zm7.094 3.907l-8.782 2.719 2.688 2.437 6.469-0.875 3.437 1.594-8.437 3.812 0.593 2.188-5.25-1.094-2.218-3.312-8.656 3.812 0.968 0.719-18.718 5.875-3.657-1.469-4.281 1.219 3.531 1.968-8.812 2.813 5.156 4.031c-0.122 0 4.027-1.229 5.25-1.718 1.223-0.49 3.188-5.126 3.187-5.126l16.032-5.281 4.375 0.25 8.812-1.937 5.281 1.344 12.938-5.032-9.906-8.937zm15.312 12.969l-13.218 4.656s2.698 1.352 3.187 1.718l13.437-4.781-3.406-1.593zm-19.094 2.687l-6 2.781 1.063 1.688 7.375-2-2.438-2.469zm24.719 4.063l-1.843 1.937 9.656 5.75-0.125-1.219-7.688-6.468zm-18.562 0.312l-14.125 5.469-5.125-4.688-6.344 1.594-11.031 3.906 4.281 2.438 8.344-2.813 4.875 4.282 21.156-8.563-2.031-1.625zm43.751 9.469l-1.97 1.469 0.63 6.593 8.06-2.937-6.72-5.125zm-35.595 10.75l-2.313 1.469 6.344 2.937-8.687 2.563-9.157-5.126-1.593 0.719 1.593 2.594 7.344 3.656-8.687 3.781 1.593 1.219 21.032-8.187-7.469-5.625z"/>
    <path id="path2715" fill="url(#linearGradient2717)" d="m5.6874 58.65l-0.1223 5.81 55.223 37 0.123-6.056-55.224-36.754z"/>
    <path id="path2719" fill="url(#linearGradient2721)" d="m80.725 79.993l6.972 5.932-26.909 9.479-54.978-36.693 42.808-14.555 21.588-7.4 54.304 36.571-25.867 8.929-4.342-3.241-4.586 1.773-1.835-1.468 19.51-7.155-17.492-12.414 2.507-1.162 19.575 14.066-14.743 5.381 2.324 2.141 21.279-7.339-28.679-19.814-16.206 6.36-2.385-1.407 16.634-6.176-20.426-13.944-14.738 5.504 12.108 8.378 10.58-3.73-7.033-4.342-6.666 2.874-1.834-1.651 8.684-3.302 10.335 7.155-14.371 5.015-3.609-2.508s-10.274 4.587-10.824 4.281-1.774-1.284-1.774-1.284l10.947-4.342-8.561-5.688-18.408 6.422 4.403 3.914 11.13-4.098 2.202 1.651-23.423 8.195-1.957-1.406 9.785-3.67-4.464-4.036-23.3 7.95 11.252 7.094 13.21-5.076 2.324 1.346-13.393 5.137 14.494 9.601 19.08-7.033-6.972-6.36-9.295 3.18-2.141-1.162 19.692-6.91 1.346 1.162-8.256 3.18 7.644 6.238 17.674-6.727 8.195 4.892 7.522-2.935 1.651 1.039-7.522 2.813 6.299 3.975-18.408 7.645-8.684-6.299 2.079-0.612 6.666 5.198 15.167-6.054-13.393-8.072-4.098 1.651 10.03 5.932-1.957 1.039-10.213-6.237-18.469 6.971 12.231 9.112-8.072 3.364-1.835-1.223 6.788-2.569-11.191-8.011-9.968 3.853 22.382 15.35 13.455-4.709-8.012-5.932 2.263-0.734 7.706 5.993 8.439-2.935-5.688-4.526 1.713-0.795z"/>
    <path id="path2723" fill="url(#linearGradient2725)" d="m60.677 95.438l27.187-9.626v6.063l-27.125 9.505-0.062-5.942z"/>
    <path id="path2727" fill="url(#linearGradient2729)" d="m54.552 86.312l8.5-3.5-0.063 5.938-5.562 2.312s-2.938-1.5-2.938-1.874c0-0.376 0.063-2.938 0.063-2.876z"/>
    <path id="path2731" fill="url(#linearGradient2733)" d="m54.677 86.25l-1.938-1.125-0.062 3 1.937 1.187 0.063-3.062z"/>
    <path id="path2735" fill="url(#linearGradient2737)" d="m48.302 74.438v6.062l5.875 4.125 5.437-2.125-11.312-8.062z"/>
    <path id="path2739" fill="url(#linearGradient2741)" d="m38.364 78.25l10.063-3.625-0.063 5.937-4.187 1.626-5.813-3.938z"/>
    <path id="path2743" fill="url(#linearGradient2745)" d="m50.552 73.688l18.437-6.813 0.063 5.937-1.875 0.75-0.438-0.25-2.062 0.75-0.188 0.563-8.625 3.125-5.312-4.062z"/>
    <path id="path2747" fill="url(#linearGradient2749)" d="m68.864 66.625l10.438 6.5-0.063 3.187-3.187 1.25-7.063-4.812-0.125-6.125z"/>
    <path id="path2751" fill="url(#linearGradient2753)" d="m79.114 73.125l2-1 0.125 3.5-2.125 0.813v-3.313z"/>
    <path id="path2755" fill="url(#linearGradient2757)" d="m64.739 74l8.813 6.562 0.062 5.626-5.25-4.063-0.125 0.375s-3.75-2.25-3.625-2.625 0.125-5.75 0.125-5.875z"/>
    <path id="path2759" fill="url(#linearGradient2761)" d="m74.427 88.938c-0.625-0.376-8.313-5.876-8.313-5.876l-0.062 5.876 2.75 2 5.625-2z"/>
    <path id="path2763" fill="url(#linearGradient2765)" d="m73.489 80.312l18.625-7.562v5.125l-4.187 1.563-0.063 1.062-4.562 1.75-2.625-2.312-1.688 0.937-0.125 3.187-5.312 2.063-0.063-5.813z"/>
    <path id="path2767" fill="url(#linearGradient2769)" d="m78.864 80.938l6 4.5-5.375 1.812-0.625-0.562v-5.75z"/>
    <path id="path2771" fill="url(#linearGradient2773)" d="m71.114 66.062l4.125-1.562v4l-4.125-2.438z"/>
    <path id="path2775" fill="url(#linearGradient2777)" d="m75.114 64.5l13.813 8.125-6.313 2.313-1.437-0.876v-1.874l-6.063-3.75v-3.938z"/>
    <path id="path2779" fill="url(#linearGradient2781)" d="m87.927 79.5l1.875 1.438-0.125 5.937-1.875-1.313 0.125-6.062z"/>
    <path id="path2783" fill="url(#linearGradient2785)" d="m89.677 80.812l4.562-1.687 0.125 6-4.75 1.625 0.063-5.938z"/>
    <path id="path2787" fill="url(#linearGradient2789)" d="m94.177 79.125l4.625 3.313-0.125 5.812-4.438-3.188-0.062-5.937z"/>
    <path id="path2791" fill="url(#linearGradient2793)" d="m98.614 82.25l25.936-9 0.06 5.938-25.996 9.062v-6z"/>
    <path id="path2795" fill="url(#linearGradient2797)" d="m85.489 68.688l7.563-2.876 0.125 6-1.625 0.626-6.063-3.75z"/>
    <path id="path2799" fill="url(#linearGradient2801)" d="m89.927 59.75c0.187 0.625 17.563 12.438 17.563 12.438l-5.81 2.062-8.566-6.188 0.063-2.312-1.813-1.062-1.375 0.562-0.062-5.5z"/>
    <path id="path2803" fill="url(#linearGradient2805)" d="m97.177 78.125l14.813-5.375 0.12 3.25-12.558 4.188-2.375-2.063z"/>
    <path id="path2807" fill="url(#linearGradient2809)" d="m91.989 53.188l0.188 5.562 19.683 13.938 3.13 2.187 5.81-2-28.811-19.687z"/>
    <path id="path2811" fill="url(#linearGradient2813)" d="m75.677 59.375l16.437-6.187 0.063 5.5-2.063 1-0.125 0.312-11.625 4.375-2.562-1.563-0.125-3.437z"/>
    <path id="path2815" fill="url(#linearGradient2817)" d="m73.552 58l2.312 1.438-0.062 3.437-2.563 0.813 0.313-5.688z"/>
    <path id="path2819" fill="url(#linearGradient2821)" d="m69.802 38l0.062 4.188 1.188-0.626 10.312 7.25 0.063 3.126 3 2.062 5.625-2.188-20.25-13.812z"/>
    <path id="path2825" fill="url(#linearGradient2827)" d="m66.677 53.938l14.375-5.25 0.312 0.374-0.062 5.5-13.875 5.063-0.688-0.375-0.062-5.312z"/>
    <path id="path2831" fill="url(#linearGradient2833)" d="m55.114 43.312l14.813-5.437v4.25l-7.563 2.813-0.125 1.812-1.5 0.5-5.625-3.938z"/>
    <path id="path2837" fill="url(#linearGradient2839)" d="m62.239 45.062l1.688 1.563-0.063 2.75-1.625-1.187v-3.126z"/>
    <path id="path2841" fill="url(#linearGradient2843)" d="m63.864 46.562l6.75-2.812-0.062 6.062-3.938 1.5-2.812-2.124 0.062-2.626z"/>
    <path id="path2845" fill="url(#linearGradient2847)" d="m70.614 43.938l7 4.187-6.125 2.25-0.875-0.625v-5.812z"/>
    <path id="path2849" fill="url(#linearGradient2851)" d="m63.364 51.5l-0.062 5.812 2.312 1.75 1.063 0.126 0.125-5.376-3.438-2.312z"/>
    <path id="path2853" fill="url(#linearGradient2855)" d="m52.552 55.562l10.75-4.124v6l-5.5 2.062-0.625-0.625-4.625 1.687v-5z"/>
    <path id="path2857" fill="url(#linearGradient2859)" d="m55.989 52.188l-2.875-2-0.062-5.938 8.562 5.812-5.625 2.126z"/>
    <path id="path2861" fill="url(#linearGradient2863)" d="m34.614 50.562l18.5-6.374v6.187l-2.312 0.625-0.74-0.537-11.073 4.099-4.375-4z"/>
    <path id="path2867" fill="url(#linearGradient2869)" d="m50.677 54.375l2 1.313v4.874l-0.875 0.313-1.25-0.563 0.125-5.937z"/>
    <path id="path2871" fill="url(#linearGradient2873)" d="m50.364 63.188l8.25-3v5.937l-3.25 1.187-5-4.124z"/>
    <path id="path2875" fill="url(#linearGradient2877)" d="m48.802 63.875c0.562 0.625 7.312 6.313 7.312 6.313l-4.937 1.75-2.5-2.188-0.125-5.875h0.25z"/>
    <path id="path2881" fill="url(#linearGradient2883)" d="m39.739 67l9.063-3.125-0.063 6-9 3.25v-6.125z"/>
    <path id="path2885" fill="url(#linearGradient2887)" d="m26.989 59l1.875 1.312v2.813l-2 0.625 0.125-4.75z"/>
    <path id="path2889" fill="url(#linearGradient2891)" d="m28.802 60.375l23.125-8.313 0.5 0.126 0.062 1.5-1.812 0.687-0.063 4.125-14.562 5.25-0.063-1.188-2.375-1.374-4.812 1.812v-2.625z"/>
    <path id="path2893" fill="url(#linearGradient2895)" d="m37.614 66l2.375 1.188-0.25 5.874-2.125-1.124v-5.938z"/>
    <path id="path2897" fill="url(#linearGradient2899)" d="m22.302 67.688c0.562-0.25 13.687-5.313 13.687-5.313l0.125 6-8 3.125-5.812-3.812z"/>
    <path id="path2901" fill="url(#linearGradient2903)" d="m8.9267 59.125l23.375-7.813 0.062 5.688-5.375 1.938v0.374l-11.812 3.75-6.2503-3.937z"/>
    <path id="path2905" fill="url(#linearGradient2907)" d="m32.302 51.25l4.562 4.188-4.25 1.5-0.312-0.25v-5.438z"/>
    <path id="path2909" fill-opacity=".15686" d="m5.6874 58.65l-0.1223 5.81 55.223 37 0.123-6.056-55.224-36.754z"/>
    <path id="path2911" fill-opacity=".15686" d="m54.677 86.25l-1.938-1.125-0.062 3 1.937 1.187 0.063-3.062z"/>
    <path id="path2913" fill-opacity=".15686" d="m48.302 74.438v6.062l5.875 4.125 5.437-2.125-11.312-8.062z"/>
    <path id="path2915" fill-opacity=".15686" d="m68.864 66.625l10.438 6.5-0.063 3.187-3.187 1.25-7.063-4.812-0.125-6.125z"/>
    <path id="path2917" fill-opacity=".15686" d="m64.739 74l8.813 6.562 0.062 5.626-5.25-4.063-0.125 0.375s-3.75-2.25-3.625-2.625 0.125-5.75 0.125-5.875z"/>
    <path id="path2919" fill-opacity=".15686" d="m74.427 88.938c-0.625-0.376-8.313-5.876-8.313-5.876l-0.062 5.876 2.75 2 5.625-2z"/>
    <path id="path2921" fill-opacity=".15686" d="m78.864 80.938l6 4.5-5.375 1.812-0.625-0.562v-5.75z"/>
    <path id="path2923" fill-opacity=".15686" d="m75.114 64.5l13.813 8.125-6.313 2.313-1.437-0.876v-1.874l-6.063-3.75v-3.938z"/>
    <path id="path2925" fill-opacity=".15686" d="m87.927 79.5l1.875 1.438-0.125 5.937-1.875-1.313 0.125-6.062z"/>
    <path id="path2927" fill-opacity=".15686" d="m94.177 79.125l4.625 3.313-0.125 5.812-4.438-3.188-0.062-5.937z"/>
    <path id="path2929" fill-opacity=".15686" d="m89.927 59.75c0.187 0.625 17.563 12.438 17.563 12.438l-5.81 2.062-8.566-6.188 0.063-2.312-1.813-1.062-1.375 0.562-0.062-5.5z"/>
    <path id="path2931" fill-opacity=".15686" d="m91.989 53.188l0.188 5.562 19.683 13.938 3.13 2.187 5.81-2-28.811-19.687z"/>
    <path id="path2933" fill-opacity=".15686" d="m73.552 58l2.312 1.438-0.062 3.437-2.563 0.813 0.313-5.688z"/>
    <path id="path2935" fill-opacity=".15686" d="m69.802 38l0.062 4.188 1.188-0.626 10.312 7.25 0.063 3.126 3 2.062 5.625-2.188-20.25-13.812z"/>
    <path id="path2937" fill-opacity=".15686" d="m62.239 45.062l1.688 1.563-0.063 2.75-1.625-1.187v-3.126z"/>
    <path id="path2939" fill-opacity=".15686" d="m70.614 43.938l7 4.187-6.125 2.25-0.875-0.625v-5.812z"/>
    <path id="path2941" fill-opacity=".15686" d="m63.364 51.5l-0.062 5.812 2.312 1.75 1.063 0.126 0.125-5.376-3.438-2.312z"/>
    <path id="path2943" fill-opacity=".15686" d="m55.989 52.188l-2.875-2-0.062-5.938 8.562 5.812-5.625 2.126z"/>
    <path id="path2945" fill-opacity=".15686" d="m50.677 54.375l2 1.313v4.874l-0.875 0.313-1.25-0.563 0.125-5.937z"/>
    <path id="path2947" fill-opacity=".15686" d="m48.802 63.875c0.562 0.625 7.312 6.313 7.312 6.313l-4.937 1.75-2.5-2.188-0.125-5.875h0.25z"/>
    <path id="path2949" fill-opacity=".15686" d="m26.989 59l1.875 1.312v2.813l-2 0.625 0.125-4.75z"/>
    <path id="path2951" fill-opacity=".15686" d="m37.614 66l2.375 1.188-0.25 5.874-2.125-1.124v-5.938z"/>
    <path id="path2953" fill-opacity=".15686" d="m32.302 51.25l4.562 4.188-4.25 1.5-0.312-0.25v-5.438z"/>
    <path id="path3536" fill="url(#linearGradient3538)" d="m60.394 60.582l0.708 0.795 1.149 0.442 1.436 0.111 1.326-0.111 1.259-0.132 1.171-0.575 0.641-0.685 0.133 3.624s-2.873 0.906-2.961 0.884c-0.089-0.022-1.591 0.088-1.591 0.088l-1.326-0.154-2.011-1.061 0.066-3.226z"/>
    <path id="path3540" fill="url(#linearGradient3542)" d="m60.439 60.295l0.375-0.708 0.995-0.552 1.966-0.155 1.282 0.045s1.989 0.331 2.121 0.486c0.133 0.154 0.774 0.773 0.774 0.773l-0.133 0.442-0.597 0.597s-0.994 0.508-1.082 0.486c-0.089-0.022-2.276 0.199-2.276 0.199l-1.879-0.177-1.149-0.53-0.397-0.906z"/>
    <path id="path3544" fill="url(#linearGradient3546)" d="m61.632 60.317l0.353-0.42 0.663-0.31 2.21-0.022 1.149 0.354 0.376 0.376s0.066 0.375-0.155 0.441c-0.221 0.067-1.48 0.465-1.48 0.465l-0.906-0.045h-0.708l-1.193-0.42-0.309-0.419z"/>
    <path id="path3548" fill-opacity=".15686" d="m60.394 60.582l0.708 0.795 1.149 0.442 1.436 0.111 1.326-0.111 1.259-0.132 1.171-0.575 0.641-0.685 0.133 3.624s-2.873 0.906-2.961 0.884c-0.089-0.022-1.591 0.088-1.591 0.088l-1.326-0.154-2.011-1.061 0.066-3.226z"/>
    <path id="path3550" fill-opacity=".15686" d="m61.632 60.317l0.353-0.42 0.663-0.31 2.21-0.022 1.149 0.354 0.376 0.376s0.066 0.375-0.155 0.441c-0.221 0.067-1.48 0.465-1.48 0.465l-0.906-0.045h-0.708l-1.193-0.42-0.309-0.419z"/>
  </g>
  <g id="layer1">
    <path id="path2309" fill-rule="evenodd" d="m70.314 36.53l-64.826 22.193 0.0005 3.213-4.0656 1.831-0.0399 0.787 59.441 40.226 31.208-11.666v-0.684l-0.089-0.03 0.089-0.029-3.957-2.261v-4.195l1.517 1.13 4.731-1.725 2.052 1.547-2.439 1.22 0.119 0.089-0.03 0.625 3.57 2.618 30.135-11.067v-0.579l-2.94-2.218v-4.225l-54.476-36.8zm-0.089 0.476l53.755 36.116-25.373 8.866-4.225-3.213-4.641 1.725-1.517-1.071 19.576-7.259-17.404-12.406 1.874-0.862 19.19 13.744-14.757 5.385 2.796 2.35 21.781-7.467-29.159-19.992-16.214 6.277-1.904-1.101 16.512-6.217-20.588-14.161-15.261 5.563 12.465 8.717 10.948-3.838-7.438-4.671-6.604 2.886-1.428-1.309 8.211-3.124 10.026 6.694-13.923 4.968-3.63-2.469-10.71 4.254-1.398-1.041 10.71-4.344-8.687-6.128-19.011 6.694 4.731 4.194 11.097-4.135 1.844 1.279-22.848 8.241-1.726-1.16 9.848-3.63-4.701-4.224-23.86 7.973 11.692 7.378 13.299-4.998 1.666 1.011-13.18 5.207 14.786 9.728 19.516-7.229-7.407-6.575-9.193 3.332-1.785-0.982 19.099-6.872 1.131 0.952-8.181 3.153 7.705 6.516 17.88-6.754 8.33 4.909 7.437-2.945 1.25 0.773-7.408 2.946 6.218 3.956-18.088 7.408-8.152-5.92 1.517-0.565 6.664 5.266 15.738-6.189-13.834-8.359-4.462 1.755 10.115 5.95-1.785 0.892-10.085-6.277-18.892 7.14 12.138 9.134-7.586 3.153-1.487-0.892 6.753-2.499-11.484-8.33-10.502 3.986 22.759 15.589 14.042-4.819-8.27-5.921 1.844-0.684 7.795 6.069 8.925-3.153-5.742-4.493 1.339-0.476 6.456 5.355-26.389 9.52-54.264-36.622 63.725-21.628zm-0.506 1.219v3.66l-7.675 3.064v1.636l-1.28 0.446-5.384-3.659 14.339-5.147zm0.417 0.09l19.605 13.476-5.236 1.934-2.945-2.023v-2.886l-10.591-7.437-0.833 0.327v-3.391zm0.208 5.89v5.385l-3.778 1.428-2.47-1.726v-2.618l6.248-2.469zm0.416 0.03l6.307 3.778-5.533 2.023-0.774-0.476v-5.325zm-17.879 0.268v5.474l-2.202 0.773-0.535-0.387-10.919 4.046-4.373-3.778 18.029-6.128zm0.416 0.119l7.676 5.384-4.79 1.964-2.886-2.053v-5.295zm9.163 0.833l1.22 1.13v2.44l-1.22-0.833v-2.737zm-0.416 1.517v0.922l-0.893-0.595 0.893-0.327zm19.099 1.993v5.444l-13.774 4.998c-0.125-0.07-0.248-0.155-0.387-0.208v-5.206l14.161-5.028zm-10.591 1.131l0.298 0.178-3.451 1.279-0.357-0.208 3.51-1.249zm-17.523 0.327l2.559 1.785-3.094 1.279-0.089-1.428-1.28-0.982 1.904-0.654zm-20.884 1.101v5.325l-5.385 2.082 0.03 0.119-11.633 3.898-5.801-3.66 22.789-7.764zm0.416 0.029l3.957 3.6-3.957 1.517v-5.117zm30.524 0.06v5.593l-5.206 2.053-0.566-0.506-4.522 1.606v-4.849l10.294-3.897zm0.416 0.208l3.065 2.142v5.058l-0.03 0.059c-0.189-0.047-0.365-0.09-0.565-0.119l-2.47-1.696v-5.444zm18.059 0.327l2.529 1.756-2.529 0.922v-2.678zm-29.483 0.03v1.488l-1.636 0.654v4.106l-14.191 5.117v-1.042l-2.707-1.457-6.396 2.439v-4.254l1.666 1.279 23.264-8.33zm39.836 1.19v5.325l-2.321 1.012 0.209 0.149-11.514 4.403-2.261-1.339v-3.451l15.887-6.099zm0.416 0.208l27.961 19.189-5.32 1.815-22.611-16.095-0.03-4.909zm-41.442 1.042l1.488 1.1v4.79l-0.655 0.238-0.833-0.416v-5.712zm30.405 0.089l-0.03 0.208-8.032 3.064-0.09 5.653-15.202 5.623-2.291-1.904 3.184-1.19v-5.95l-0.714-0.744 5.027-1.904 1.875 1.309c-0.248-0.017-0.502-0.043-0.744-0.06-1.755-0.016-3.246-0.269-4.046 1.518 0.002 0.01-0.002 0.02 0 0.029l0.03 3.57c2.796 2.031 5.07 1.254 8.062 0.179l-0.119-3.689c0.018-0.031 0.043-0.057 0.059-0.089-0.137-0.298-0.341-0.498-0.565-0.685l13.596-4.938zm-7.735 3.451l2.053 1.339v3.213l-2.053 0.773v-5.325zm-23.116 0.595v1.785l0.863 0.357-13.923 4.968 0.029 6.099 2.142 1.339 8.926-3.065 0.357-0.089 1.963 1.785-13.864 5.117-8.568-5.533 7.914-3.094-0.03-4.582 14.191-5.087zm-44.536 0.238l54.681 36.622v5.507l-54.681-36.744v-5.385zm58.34 0c0.637-0.028 1.202 0.036 1.726 0.178 0.072 0.02 0.167 0.037 0.238 0.06 0.64 0.211 1.186 0.562 1.666 1.101-0.698 1.25-2.279 1.276-3.63 1.368-1.556 0.064-3.204 0.001-3.629-1.368 0.567-1.427 2.288-1.252 3.629-1.339zm-37.515 0.357v4.284l-6.515 2.499-4.671-2.945 11.186-3.838zm36.414 0.089c-0.837 0.069-1.47 0.409-1.666 0.952 0.571 0.89 1.534 0.843 2.559 0.922 1.215 0.162 2.215-0.299 2.558-0.922-0.552-0.879-1.55-0.843-2.558-0.922-0.314-0.035-0.613-0.053-0.893-0.03zm1.22 0.208c0.11-0.003 0.217-0.007 0.327 0 0.663 0.042 1.31 0.341 1.637 0.744-0.524 0.761-1.544 0.627-2.291 0.684-0.885 0.172-2.079-0.156-2.142-0.684 0.074-0.962 1.386-0.65 2.142-0.714 0.106-0.022 0.218-0.026 0.327-0.03zm25.764 0.447l16.602 11.989-4.85 1.845-8.509-6.04 0.029-2.023-2.023-1.249-1.249 0.476v-4.998zm-0.417 0.119v5.057l-5.831 2.261-5.236-3.094 11.067-4.224zm-31.327 0.178v5.593l-2.975 1.131-4.73-3.898 7.705-2.826zm9.55 0.417l0.089 3.094c-2.33 1.081-5.501 1.644-7.497-0.209v-2.588c0.706 1.043 2.401 0.875 3.719 0.952 1.533 0.022 2.908-0.322 3.689-1.249zm-62.446 1.338v2.38l55.186 37.126 27.401-9.696v-1.309l2.975 1.755-30.286 11.25-58.875-39.721 3.5995-1.785zm30.346 0.536v5.504l-7.795 3.153-5.474-3.54 13.269-5.117zm-34.213 1.339l59.084 39.951-0.03 0.42-59.084-39.895 0.03-0.476zm46.857 0.208v5.563l-8.509 3.064v-5.712l8.509-2.915zm0.416 0.03l6.694 5.89-4.254 1.577-2.38-2.112-0.06-5.355zm26.537 0.505l12.823 7.706-5.653 2.261-1.16-0.684v-1.905l-6.01-3.659v-3.719zm-0.416 0.06v3.421l-3.541-2.112 3.541-1.309zm17.939 1.19v5.533l-1.458 0.625-5.682-3.362 7.14-2.796zm-55.127 0.119l1.725 0.982v5.712l-1.725-1.012v-5.682zm31 1.011v5.504l-1.875 0.684-0.208-0.148-2.231 0.803-0.089 0.298-8.509 3.242-5.087-3.659 17.999-6.724zm0.416 0.03l9.669 5.95v3.065l-2.737 1.1-6.932-4.611v-5.504zm24.128 1.25l7.909 5.712-8.951 3.421v-4.82l-0.416-0.327 1.458-0.565v-3.421zm-12.347 3.927v3.005l-1.666 0.654v-2.797l1.666-0.862zm10.889 0.505v4.85l-4.195 1.636-0.059 0.893-4.344 1.695-2.678-2.142-1.963 1.012 0.03 0.03v2.975l-4.969 2.052v-5.503l18.178-7.498zm19.907 0.09v2.737l-12.321 4.254-1.993-1.755 14.314-5.236zm-42.785 0.089l6.664 4.492-2.231 0.833-6.099-4.7 1.666-0.625zm43.195 0.178l2.26 1.548-2.26 0.773v-2.321zm12.14 0.268l0.09 5.564-25.586 8.835v-5.563l25.496-8.836zm-59.53 0.744l8.479 6.307v5.266l-4.909-3.719-0.327 0.119-3.243-2.35v-5.623zm16.601 0.119l0.833 0.506-0.833 0.327v-0.833zm-17.017 0.417l0.029 5.176 3.273 2.41-1.755 0.654-0.09 5.95 2.47 1.875-7.468 2.588-3.272-2.231 5.563-2.291v-5.95l-6.872-5.117 8.122-3.064zm-15.917 0.029l10.681 7.676-4.969 1.963-5.712-4.165v-5.474zm-0.416 0.119v5.504l-4.046 1.547-5.266-3.57 9.312-3.481zm76.699 3.035l2.2 1.785-29.454 10.621-3.005-2.202 2.172-1.041 1.933 1.458 26.154-9.282v-1.339zm-30.735 1.487v5.445l-4.195 1.576v-5.503l4.195-1.518zm0.416 0.03l3.987 3.005v5.385l-3.987-3.035v-5.355zm32.879 0.417l0.08 0.267-29.835 10.859-3.302-2.261-0.03-0.416 3.273 2.32 29.814-10.769zm-39.275 0.029l1.369 1.19v5.177l-1.369-0.863v-5.504zm-39.627 0.833l5.355 3.838-1.19 0.476-0.06 2.678-8.122-5.504 4.017-1.488zm39.211 0.03v4.79l-3.987-3.302 3.987-1.488zm-8.539 0.387l5.177 4.105-4.82 1.666-0.357-0.386v-5.385zm-16.362 1.904l0.029 5.533-5.533 2.351-2.499-1.696v-2.856l8.003-3.332zm3.54 0.208l7.497 5.653-5.028 1.755-2.439-1.874-0.03-5.534zm12.406 1.012v2.469l0.357 0.327-2.797 0.982-2.35-1.785 4.79-1.993zm-25.734 1.011l1.368 0.982v2.677l-1.368-0.922v-2.737zm34.689 0.774v5.474l-26.657 9.612v-5.596l26.657-9.49zm4.046 6.426v0.535l-30.703 11.275v-0.33l30.703-11.48z"/>
  </g>
  <metadata>
    <rdf:RDF>
      <cc:Work>
        <dc:format>image/svg+xml</dc:format>
        <dc:type rdf:resource="http://purl.org/dc/dcmitype/StillImage"/>
        <cc:license rdf:resource="http://creativecommons.org/licenses/publicdomain/"/>
        <dc:publisher>
          <cc:Agent rdf:about="http://openclipart.org/">
            <dc:title>Openclipart</dc:title>
          </cc:Agent>
        </dc:publisher>
      </cc:Work>
      <cc:License rdf:about="http://creativecommons.org/licenses/publicdomain/">
        <cc:permits rdf:resource="http://creativecommons.org/ns#Reproduction"/>
        <cc:permits rdf:resource="http://creativecommons.org/ns#Distribution"/>
        <cc:permits rdf:resource="http://creativecommons.org/ns#DerivativeWorks"/>
      </cc:License>
    </rdf:RDF>
  </metadata>
</svg>
