<?xml version="1.0"?>
<svg xmlns:rdf="http://www.w3.org/1999/02/22-rdf-syntax-ns#" xmlns="http://www.w3.org/2000/svg" xmlns:cc="http://creativecommons.org/ns#" xmlns:xlink="http://www.w3.org/1999/xlink" xmlns:dc="http://purl.org/dc/elements/1.1/" id="svg2" viewBox="0 0 128 128" version="1.0">
  <defs id="defs4">
    <linearGradient id="linearGradient2338">
      <stop id="stop2340" stop-color="#b1b1b1" offset="0"/>
      <stop id="stop2342" stop-color="#e4e4e4" offset="1"/>
    </linearGradient>
    <linearGradient id="linearGradient2888">
      <stop id="stop2890" stop-color="#c7a94c" offset="0"/>
      <stop id="stop2892" stop-color="#e2ca80" offset="1"/>
    </linearGradient>
    <linearGradient id="linearGradient2488" x1="52.899" xlink:href="#linearGradient2888" gradientUnits="userSpaceOnUse" x2="68.677" y1="41.985" y2="54.216"/>
    <linearGradient id="linearGradient2492" x1="68.433" xlink:href="#linearGradient2888" gradientUnits="userSpaceOnUse" x2="81.459" y1="79.626" y2="50.272"/>
    <linearGradient id="linearGradient2496" x1="62.837" xlink:href="#linearGradient2888" gradientUnits="userSpaceOnUse" x2="64.519" y1="24.923" y2="21.743"/>
    <linearGradient id="linearGradient2500" x1="61.95" xlink:href="#linearGradient2888" gradientUnits="userSpaceOnUse" x2="69.961" y1="19.358" y2="16.117"/>
    <linearGradient id="linearGradient2504" x1="67.882" xlink:href="#linearGradient2888" gradientUnits="userSpaceOnUse" x2="73.386" y1="27.858" y2="18.074"/>
    <linearGradient id="linearGradient2508" x1="68.371" xlink:href="#linearGradient2338" gradientUnits="userSpaceOnUse" x2="79.318" y1="59.781" y2="42.841"/>
    <linearGradient id="linearGradient2512" x1="47.64" xlink:href="#linearGradient2338" gradientUnits="userSpaceOnUse" x2="60.544" y1="77.211" y2="100.63"/>
    <linearGradient id="linearGradient2516" x1="67.332" xlink:href="#linearGradient2338" gradientUnits="userSpaceOnUse" x2="88.063" y1="100.85" y2="80.238"/>
    <filter id="filter3212" y="-.091361" width="1.2023" x="-.10113" height="1.1827">
      <feGaussianBlur id="feGaussianBlur3214" stdDeviation="2.2098651"/>
    </filter>
  </defs>
  <g id="layer3" fill-rule="evenodd">
    <path id="path3109" filter="url(#filter3212)" fill-opacity=".62745" d="m54.317 45.521c-2.507 0.577-21.483 4.676-17.002 4.06 1.064 13.716 5.08 24.5 1.396 38.067 6.66 3.371 17.424 12.522 23.807 15.742 14.213-3.894 16.091-8.827 26.557-11.784-7.055-6.778-10.703-17.08-15.06-24.318-3.956-6.606-10.249-13.755-16.358-19.767-2.956-1.832 1.076-2.51-3.34-2zm26.517 38.458z"/>
    <path id="path2486" fill="url(#linearGradient2488)" d="m58.22 20.245l9.173 8.317-2.507 56.935c-6.181-4.688-12.437-9-18.469-14.432l5.565-26.725 5.137-20.181 1.101-3.914z"/>
    <path id="path2490" d="m81.214 23.975l-13.76 4.22-1.59 32.412-1.101 24.829 0.918 0.061 23.85-7.094-3.73-30.577-3.303-18.102-1.284-5.749z" fill="url(#linearGradient2492)"/>
    <path id="path2494" fill="url(#linearGradient2496)" d="m58.526 20.367l8.745 8.195 0.183 0.061v-0.428l-2.385-9.174-6.543 1.346z"/>
    <path id="path2498" d="m58.281 20.183l12.904-4.403s4.219 0 3.608 0.184c-0.612 0.183-9.907 3.119-9.907 3.119l-6.116 1.162-0.489-0.062z" fill="url(#linearGradient2500)"/>
    <path id="path2502" d="m64.886 19.083l9.723-3.119 6.666 8.133-13.821 4.159-2.568-9.173z" fill="url(#linearGradient2504)"/>
    <path id="path2506" fill="url(#linearGradient2508)" d="m68.555 41.771l13.209-3.669 2.814 17.184-15.46 4.634-1.175-0.169 0.612-17.98z"/>
    <path id="path2510" d="m46.906 71.187l-2.018 3.302-2.202 6.238-1.467 5.993 6.482 6.422 10.274 7.648 5.198 3.85 0.673-9.725 0.978-9.357-5.993-4.892-7.338-5.565-4.587-3.914z" fill="url(#linearGradient2512)"/>
    <path id="path2514" d="m64.824 85.558l-0.55 5.871-1.04 13.211 11.803-3.43 15.595-5.928 3.058-1.774s-1.285-6.849-1.285-7.094c0-0.244-2.996-8.072-2.996-8.072l-3.058 1.162-14.188 3.853-7.339 2.201z" fill="url(#linearGradient2516)"/>
    <path id="path3101" fill-opacity=".15686" d="m58.22 20.245l9.173 8.317-2.507 56.935c-6.181-4.688-12.437-9-18.469-14.432l5.565-26.725 5.137-20.181 1.101-3.914z"/>
    <path id="path3103" fill-opacity=".15686" d="m58.526 20.367l8.745 8.195 0.183 0.061v-0.428l-2.385-9.174-6.543 1.346z"/>
    <path id="path3105" fill-opacity=".15686" d="m46.906 71.187l-2.018 3.302-2.202 6.238-1.467 5.993 6.482 6.422 10.274 7.648 5.198 3.85 0.673-9.725 0.978-9.357-5.993-4.892-7.338-5.565-4.587-3.914z"/>
    <path id="path3107" fill-opacity=".12549" fill="#fff" d="m58.281 20.183l12.904-4.403s4.219 0 3.608 0.184c-0.612 0.183-9.907 3.119-9.907 3.119l-6.116 1.162-0.489-0.062z"/>
  </g>
  <g id="layer1">
    <path id="path2319" fill-rule="evenodd" d="m71.188 15.688l-13.25 4.406c-4.603 16.1-8.587 34.293-11.563 50.718-2.927 4.717-4.258 10.391-5.594 16.063 6.542 7.245 14.248 11.782 22.094 18.375 12.628-4.06 18.716-5.289 31.031-11.219l0.438-0.156-0.125-0.437c-0.736-5.112-1.862-10.068-4.219-14.532-2.398-19.073-3.86-35.708-8.531-54.781l-6.531-8.281-3.75-0.156zm3.187 0.562l6.531 7.719-13.312 4.187 13.187-3.844c4.876 18.762 6.145 35.333 8.094 54.094-10.151 3.392-13.144 3.54-23.594 6.906 1.001-21.292 0.987-36.188 2.313-57.156l-0.156 0.032-2.126-9.157 9.063-2.781zm-3.419-0.216l2.861 0.006-9.05 2.845-6.127 1.304 12.316-4.155zm-6.331 3.31l2.75 8.968-0.063-0.031-2.968 56.719c-5.09-4.956-11.028-7.894-17.032-13.875 2.544-16.676 6.206-34.989 11.032-50.687l8.703 7.887-8.086-7.757 5.664-1.224zm17.187 18.437l-13.468 3.688-0.469 18.406 0.063-0.313 0.906-17.718 12.781-3.438 2.594 16.719-15.031 4.625-0.376 0.219 15.907-4.594-2.907-17.594zm-3.937 4.375c-0.697 0.991-1.367 2.078-2.406 1.813l-1.375-0.844c-0.442 0.869-1.311 1.096-1.313 2.625l-2.375-1.219-0.437 0.281 3.156 2.469c0.294-1.693 0.514-3.746 1.375-2.719l1.031 0.626c1.498-0.207 1.494-1.404 2.031-2.25l1.532 1.312 1.687-0.062 0.094-0.376-1.219-0.406-1.781-1.25zm-0.844 6l-2.031 1.594-1.75-1.094c-1.201-0.763-1.896 0.75-2.844 1.125l0.344 0.188c0.844-0.113 1.688-0.768 2.531-0.25 0.574 0.238 0.821 0.804 1.813 0.625 1.413 0.515 1.608-1.053 2.281-1.594l1.656 0.5 0.281-0.469-2.281-0.625zm4.375 2.906c-0.815 0.061-1.363 0.794-2 1.282l-1.937-1.188-2.688 1.875 0.157 0.219 2.437-0.969 1.937 1.188c1.143-0.269 2.091-0.701 3.126-1.938l-0.126-0.281c-0.35-0.168-0.634-0.208-0.906-0.188zm-34.468 20.469c6.244 6.026 11.9 8.905 17.656 14.157-0.632 5.324-1.797 12.476-1.844 18.092-7.732-5.778-15.086-9.996-21.188-17.405 1.17-5.259 2.3-10.538 5.376-14.844zm42.187 7.219c2.659 4.833 3.611 9.667 4 14.5-11.346 5.642-16.905 7.17-29.219 10.87 0.365-5.639 0.729-12.829 1.094-18.182 10.398-3.502 13.774-3.817 24.125-7.188z"/>
  </g>
  <metadata>
    <rdf:RDF>
      <cc:Work>
        <dc:format>image/svg+xml</dc:format>
        <dc:type rdf:resource="http://purl.org/dc/dcmitype/StillImage"/>
        <cc:license rdf:resource="http://creativecommons.org/licenses/publicdomain/"/>
        <dc:publisher>
          <cc:Agent rdf:about="http://openclipart.org/">
            <dc:title>Openclipart</dc:title>
          </cc:Agent>
        </dc:publisher>
      </cc:Work>
      <cc:License rdf:about="http://creativecommons.org/licenses/publicdomain/">
        <cc:permits rdf:resource="http://creativecommons.org/ns#Reproduction"/>
        <cc:permits rdf:resource="http://creativecommons.org/ns#Distribution"/>
        <cc:permits rdf:resource="http://creativecommons.org/ns#DerivativeWorks"/>
      </cc:License>
    </rdf:RDF>
  </metadata>
</svg>
